<svg xmlns="http://www.w3.org/2000/svg" viewBox="0 0 512 512"><g id="Layer_5" data-name="Layer 5"><rect width="512" height="512" fill="#0d0d0d"/><path d="M411,363.29a14,14,0,0,0-.86-2L268.81,96.75A14.48,14.48,0,0,0,250.94,90a10.11,10.11,0,0,0-1,.42,2.92,2.92,0,0,0-.47.23l-.27.13-.55.31-.77.49a3.47,3.47,0,0,0-.37.26l-1.57,1.31c-.13.12-.24.24-.35.36l-.67.73-.6.76-.54.81a9.32,9.32,0,0,0-.57,1L101.89,361.35a15.37,15.37,0,0,0-.91,2.09,19,19,0,0,0-1.31,6.83c0,14.28,16.89,27.24,44.31,36.73a243.91,243.91,0,0,0,28.73,7.83c9.44,2,19.55,3.68,30.21,5,10.06,1.23,20.6,2.12,31.51,2.63q10.57.48,21.57.49c7.32,0,14.53-.17,21.58-.49,10.9-.51,21.45-1.4,31.5-2.63,10.66-1.29,20.78-3,30.22-5A243.72,243.72,0,0,0,368,407c27.42-9.49,44.31-22.45,44.31-36.73A19,19,0,0,0,411,363.29ZM294.54,392.56l-25.73-48.17a14.49,14.49,0,0,0-17.87-6.75c-.34.13-.7.27-1,.42l-.47.23-.27.13-.55.32-.77.48-.37.26-1.57,1.32c-.13.12-.24.23-.35.35l-.67.74c-.2.25-.41.5-.6.76l-.54.81a8.24,8.24,0,0,0-.57,1l-25.71,48.15c-10.76-.91-21.08-2.21-30.82-3.84l56.22-105.27a14.89,14.89,0,0,1,26.27,0l56.22,105.27C315.61,390.35,305.3,391.65,294.54,392.56Zm72.24-13.89c-3.79,1.29-7.78,2.5-11.94,3.65l-86-161.11a14.48,14.48,0,0,0-17.87-6.74,10.11,10.11,0,0,0-1,.42,2.92,2.92,0,0,0-.47.23l-.27.13-.55.31-.77.49c-.13.09-.26.17-.37.26l-1.57,1.31c-.13.12-.24.24-.35.36l-.67.73-.6.76-.54.81a9.32,9.32,0,0,0-.57,1l-86,161.08c-4.16-1.15-8.15-2.37-11.93-3.65a14.89,14.89,0,0,1-8.4-21.13L242.87,159a14.89,14.89,0,0,1,26.27,0l106,198.56A14.89,14.89,0,0,1,366.78,378.67Z" fill="#3d95a0"/></g></svg>