<?xml version="1.0" encoding="utf-8"?>
<!-- Generator: Adobe Illustrator 25.2.1, SVG Export Plug-In . SVG Version: 6.00 Build 0)  -->
<svg version="1.1" id="Layer_1" xmlns="http://www.w3.org/2000/svg" xmlns:xlink="http://www.w3.org/1999/xlink" x="0px" y="0px"
	 viewBox="0 0 512 512" style="enable-background:new 0 0 512 512;" xml:space="preserve">
<style type="text/css">
	.st0{opacity:0.24;fill:#12151B;}
	.st1{fill:#387686;}
</style>
<g>
	<path class="st0" d="M476.1,412.2c-0.3-1-0.8-1.9-1.2-2.8L274.2,33.6c-4.8-9.1-15.7-13.2-25.4-9.6c-0.5,0.2-1,0.4-1.5,0.6
		c-0.2,0.1-0.5,0.2-0.7,0.3c-0.1,0.1-0.3,0.1-0.4,0.2c-0.3,0.1-0.5,0.3-0.8,0.5l-1.1,0.7c-0.2,0.1-0.4,0.2-0.5,0.4l-2.2,1.9
		c-0.2,0.2-0.3,0.3-0.5,0.5l-1,1.1c-0.3,0.4-0.6,0.7-0.9,1.1l-0.8,1.2c-0.3,0.4-0.6,0.9-0.8,1.4L37.2,409.4c-0.5,1-0.9,1.9-1.3,3
		c-1.2,3.1-1.9,6.4-1.9,9.8c0,20.3,24,38.7,62.9,52.2c13.3,4.5,27,8.3,40.8,11.1c13.4,2.9,27.8,5.2,42.9,7.1
		c14.3,1.8,29.3,3,44.8,3.7c10.1,0.5,20.2,0.7,30.7,0.7c10.4,0,20.6-0.2,30.7-0.7c15.5-0.7,30.5-2,44.8-3.7
		c15.1-1.9,29.5-4.2,42.9-7.1c13.8-2.9,27.4-6.6,40.8-11.1c39-13.5,62.9-31.9,62.9-52.2C478.1,418.7,477.4,415.3,476.1,412.2z
		 M310.8,453.7l-36.5-68.5c-4.8-9.1-15.7-13.2-25.4-9.6c-0.5,0.2-1,0.4-1.5,0.6c-0.2,0.1-0.5,0.2-0.7,0.3l-0.4,0.2
		c-0.3,0.1-0.5,0.3-0.8,0.4l-1.1,0.7l-0.5,0.4l-2.2,1.9c-0.2,0.2-0.3,0.3-0.5,0.5l-1,1.1c-0.3,0.4-0.6,0.7-0.9,1.1l-0.8,1.2
		c-0.3,0.4-0.6,0.9-0.8,1.4l-36.5,68.4c-15.3-1.3-30-3.2-43.8-5.4l79.7-149.5c5.5-10.3,18.3-14.2,28.6-8.7c3.7,2,6.7,5,8.7,8.7
		l79.8,149.5C340.7,450.5,326.1,452.4,310.8,453.7z M413.4,434c-5.4,1.9-11,3.6-17,5.1L274.2,210.2c-4.8-9.1-15.7-13.2-25.4-9.6
		c-0.5,0.2-1,0.4-1.5,0.6c-0.2,0.1-0.5,0.2-0.7,0.3c-0.1,0.1-0.3,0.1-0.4,0.2c-0.3,0.1-0.5,0.3-0.8,0.5l-1.1,0.7
		c-0.2,0.1-0.4,0.2-0.5,0.4l-2.2,1.9c-0.2,0.2-0.3,0.3-0.5,0.5l-1,1.1c-0.3,0.4-0.6,0.7-0.9,1.1l-0.8,1.2c-0.3,0.4-0.6,0.9-0.8,1.4
		L115.6,439.2c-5.9-1.6-11.5-3.4-17-5.1c-11-3.7-17-15.8-13.2-26.8c0.4-1.1,0.9-2.2,1.4-3.3l150.6-282c5.5-10.3,18.3-14.2,28.6-8.7
		c3.6,2,6.7,5,8.7,8.7l150.6,282c5.5,10.4,1.6,23.1-8.7,28.6C415.6,433.2,414.5,433.6,413.4,434L413.4,434z"/>
	<path class="st1" d="M479.1,407.1c-0.3-1-0.8-1.9-1.2-2.8l-203.5-381c-4.9-9.2-15.9-13.4-25.7-9.7c-0.5,0.2-1,0.4-1.5,0.6
		c-0.2,0.1-0.5,0.2-0.7,0.3c-0.1,0.1-0.3,0.1-0.4,0.2c-0.3,0.1-0.5,0.3-0.8,0.5l-1.1,0.7c-0.2,0.1-0.4,0.2-0.5,0.4l-2.2,1.9
		c-0.2,0.2-0.3,0.3-0.5,0.5l-1,1.1c-0.3,0.4-0.6,0.7-0.9,1.1l-0.8,1.2c-0.3,0.4-0.6,0.9-0.8,1.4L34.1,404.3c-0.5,1-0.9,1.9-1.3,3
		c-1.2,3.1-1.9,6.5-1.9,9.9c0,20.6,24.3,39.2,63.8,52.9c13.5,4.6,27.4,8.4,41.4,11.3c13.6,2.9,28.2,5.3,43.5,7.2
		c14.5,1.8,29.7,3,45.4,3.8c10.2,0.5,20.5,0.7,31.1,0.7c10.5,0,20.9-0.2,31.1-0.7c15.7-0.7,30.9-2,45.4-3.8
		c15.3-1.9,29.9-4.3,43.5-7.2c14-2.9,27.8-6.7,41.4-11.3c39.5-13.7,63.8-32.3,63.8-52.9C481.1,413.7,480.4,410.3,479.1,407.1z
		 M311.5,449.2l-37-69.4c-4.9-9.2-15.9-13.4-25.7-9.7c-0.5,0.2-1,0.4-1.5,0.6c-0.2,0.1-0.5,0.2-0.7,0.3l-0.4,0.2
		c-0.3,0.1-0.5,0.3-0.8,0.4l-1.1,0.7l-0.5,0.4l-2.2,1.9c-0.2,0.2-0.3,0.3-0.5,0.5l-1,1.1c-0.3,0.4-0.6,0.7-0.9,1.1l-0.8,1.2
		c-0.3,0.4-0.6,0.9-0.8,1.4l-37,69.3c-15.5-1.3-30.4-3.2-44.4-5.5l81-151.6c5.6-10.4,18.6-14.4,29-8.8c3.8,2,6.8,5.1,8.8,8.8
		l80.9,151.6C341.8,446,327,447.9,311.5,449.2z M415.5,429.2c-5.5,1.9-11.2,3.6-17.2,5.2l-123.9-232c-4.9-9.2-15.9-13.4-25.7-9.7
		c-0.5,0.2-1,0.4-1.5,0.6c-0.2,0.1-0.5,0.2-0.7,0.3c-0.1,0.1-0.3,0.1-0.4,0.2c-0.3,0.1-0.5,0.3-0.8,0.5l-1.1,0.7
		c-0.2,0.1-0.4,0.2-0.5,0.4l-2.2,1.9c-0.2,0.2-0.3,0.3-0.5,0.5l-1,1.1c-0.3,0.4-0.6,0.7-0.9,1.1l-0.8,1.2c-0.3,0.4-0.6,0.9-0.8,1.4
		L113.6,434.5c-6-1.6-11.7-3.4-17.2-5.2c-11.2-3.8-17.3-15.9-13.5-27.1c0.4-1.1,0.9-2.2,1.4-3.3L237,113c5.6-10.4,18.6-14.4,29-8.8
		c3.7,2,6.8,5.1,8.8,8.8l152.7,285.9c5.6,10.5,1.6,23.4-8.8,29C417.7,428.4,416.6,428.8,415.5,429.2L415.5,429.2z"/>
</g>
</svg>
