<?xml version="1.0" standalone="no"?>
<!DOCTYPE svg PUBLIC "-//W3C//DTD SVG 1.1//EN" "http://www.w3.org/Graphics/SVG/1.1/DTD/svg11.dtd" >
<svg xmlns="http://www.w3.org/2000/svg" xmlns:xlink="http://www.w3.org/1999/xlink" version="1.1">
<metadata>
Created by FontForge 20201107 at Wed Oct  4 16:49:21 2017
 By Jimmy Wärting
Copyright \(c\) 2013 by Mariya V. Pigoulevskaya. All rights reserved.
</metadata>
<defs>
<font id="NeusaNextPro-Medium" horiz-adv-x="653" >
  <font-face 
    font-family="Neusa Next Pro"
    font-weight="500"
    font-stretch="normal"
    units-per-em="2048"
    panose-1="0 0 6 0 0 0 0 0 0 0"
    ascent="1577"
    descent="-471"
    x-height="1040"
    cap-height="1450"
    bbox="-1098 -508 2314 2030"
    underline-thickness="0"
    underline-position="0"
    stemh="233"
    stemv="180"
    unicode-range="U+0020-2265"
  />
<missing-glyph horiz-adv-x="1024" 
d="M190 1577h650v-2048h-650v2048zM682 1372v68h-338v-68h133v-76h-135v-67h340v67h-135v76h135zM547 1032v144h-205v-213h340v69h-135zM410 1106h67v-74h-67v74zM682 840v67h-340v-67h135v-76h-135v-68h205v144h135zM682 580v204h-68v-135h-272v-69h340zM682 303v232h-205
v-115h70v47h67v-96h-204v164h-68v-232h340zM682 -51v231h-340v-231h340zM410 113h204v-97h-204v97zM682 -166v68h-340v-68h143l-143 -96v-68h340v68h-209l143 96h66z" />
    <glyph glyph-name=".notdef" horiz-adv-x="1024" 
d="M190 1577h650v-2048h-650v2048zM682 1372v68h-338v-68h133v-76h-135v-67h340v67h-135v76h135zM547 1032v144h-205v-213h340v69h-135zM410 1106h67v-74h-67v74zM682 840v67h-340v-67h135v-76h-135v-68h205v144h135zM682 580v204h-68v-135h-272v-69h340zM682 303v232h-205
v-115h70v47h67v-96h-204v164h-68v-232h340zM682 -51v231h-340v-231h340zM410 113h204v-97h-204v97zM682 -166v68h-340v-68h143l-143 -96v-68h340v68h-209l143 96h66z" />
    <glyph glyph-name="glyph1" horiz-adv-x="0" 
 />
    <glyph glyph-name="glyph2" horiz-adv-x="681" 
 />
    <glyph glyph-name="space" unicode=" " horiz-adv-x="489" 
 />
    <glyph glyph-name="exclam" unicode="!" horiz-adv-x="563" 
d="M156 1450h252v-485l-33 -523h-189l-30 519v489zM406 0h-248v262h248v-262z" />
    <glyph glyph-name="quotedbl" unicode="&#x22;" horiz-adv-x="817" 
d="M86 1577h256l-39 -453h-180zM475 1577h256l-39 -453h-180z" />
    <glyph glyph-name="numbersign" unicode="#" horiz-adv-x="1437" 
d="M1372 1104v-223h-207l-61 -310h170v-223h-215l-70 -348h-237l69 348h-344l-69 -348h-236l70 348h-176v223h219l61 310h-182v223h227l68 346h237l-69 -346h344l69 346h238l-70 -346h164zM522 571h344l62 310h-344z" />
    <glyph glyph-name="dollar" unicode="$" horiz-adv-x="1273" 
d="M1180 418c0 -113 -36 -210 -109 -289s-177 -129 -311 -149v-185h-244v185c-139 18 -248 68 -325 150c-78 81 -117 182 -117 302v53h252v-67c0 -64 30 -116 89 -155c59 -40 135 -60 226 -60c81 0 148 18 203 53s82 85 82 150c0 84 -66 145 -163 179s-218 60 -334 101
s-217 92 -277 194c-31 51 -46 111 -46 181c0 108 34 200 103 275c68 75 170 120 307 137v182h244v-187c257 -41 391 -195 391 -419v-66h-252v72c0 56 -26 102 -78 137s-120 53 -203 53c-78 0 -141 -16 -188 -48c-48 -32 -72 -75 -72 -130c0 -41 20 -75 61 -104
c40 -29 91 -51 152 -66s126 -34 197 -57s137 -49 198 -78s112 -73 153 -132s61 -130 61 -212z" />
    <glyph glyph-name="percent" unicode="%" horiz-adv-x="1495" 
d="M379 741c-93 0 -168 22 -225 65s-86 99 -86 169v270c0 69 28 126 85 169s131 65 224 65s167 -21 224 -64s85 -100 85 -170v-270c0 -69 -28 -126 -85 -169s-131 -65 -222 -65zM393 0h-196l907 1450h199zM275 926c24 -19 58 -29 102 -29c43 0 78 10 103 29s38 44 38 75v220
c0 60 -52 102 -139 102c-88 0 -141 -42 -141 -102v-220c0 -31 12 -56 37 -75zM1118 -29c-93 0 -168 21 -225 65c-57 43 -86 99 -86 169v270c0 69 28 125 85 168s131 64 224 64s167 -21 224 -63c57 -43 85 -99 85 -169v-270c0 -69 -28 -126 -85 -169s-131 -65 -222 -65z
M1116 127c91 0 141 39 141 102v222c0 60 -51 100 -138 100c-88 0 -142 -40 -142 -100v-222c0 -63 51 -102 139 -102z" />
    <glyph glyph-name="ampersand" unicode="&#x26;" horiz-adv-x="1339" 
d="M1157 852h152v-219h-152v-254c0 -109 -35 -200 -106 -271c-71 -72 -159 -108 -263 -108h-290c-105 0 -194 35 -266 104c-73 69 -109 156 -109 263v122c0 100 33 185 100 254c-64 67 -96 148 -96 244v107c0 103 36 188 108 255c71 67 159 101 263 101h450v-225h-452
c-71 0 -119 -49 -119 -125v-119c0 -79 47 -129 119 -129h409v188h252v-188zM905 362v271h-409c-73 0 -121 -54 -121 -135v-140c0 -81 48 -133 123 -133h290c71 0 117 53 117 137z" />
    <glyph glyph-name="quotesingle" unicode="'" horiz-adv-x="428" 
d="M86 1577h256l-39 -453h-180z" />
    <glyph glyph-name="parenleft" unicode="(" horiz-adv-x="630" 
d="M600 -113v-225c-147 0 -262 39 -344 118s-123 188 -123 329v1021c0 142 41 252 122 330s196 117 345 117v-225c-149 0 -223 -76 -223 -228v-1007c0 -156 70 -230 223 -230z" />
    <glyph glyph-name="parenright" unicode=")" horiz-adv-x="632" 
d="M31 -338v225c150 0 225 77 225 230v1007c0 151 -75 227 -225 228v225c149 0 264 -39 346 -117s123 -188 123 -330v-1021c0 -142 -41 -252 -123 -330s-197 -117 -346 -117z" />
    <glyph glyph-name="asterisk" unicode="*" horiz-adv-x="718" 
d="M608 1466l60 -190l-199 -37l141 -145l-155 -119l-95 184l-96 -184l-155 119l141 145l-199 37l60 190l182 -92l-29 203h191l-29 -203z" />
    <glyph glyph-name="plus" unicode="+" horiz-adv-x="1046" 
d="M645 864h305v-233h-305v-344h-242v344h-309v233h309v346h242v-346z" />
    <glyph glyph-name="comma" unicode="," horiz-adv-x="497" 
d="M125 262h248v-262l-125 -315h-105l76 315h-94v262z" />
    <glyph glyph-name="hyphen" unicode="-" horiz-adv-x="688" 
d="M598 457h-506v217h506v-217z" />
    <glyph glyph-name="period" unicode="." horiz-adv-x="495" 
d="M373 0h-250v262h250v-262z" />
    <glyph glyph-name="slash" unicode="/" horiz-adv-x="772" 
d="M55 -102l420 1626h242l-420 -1626h-242z" />
    <glyph glyph-name="zero" unicode="0" horiz-adv-x="1288" 
d="M1035 96c-96 -83 -226 -125 -390 -125s-294 42 -390 125s-144 196 -144 338v580c0 142 48 255 143 339s225 126 389 126c165 0 296 -42 392 -126c95 -84 143 -197 143 -339v-580c0 -142 -48 -255 -143 -338zM643 205c185 0 283 88 283 244v550c0 156 -98 246 -281 246
s-283 -90 -283 -246v-550c0 -153 98 -244 281 -244z" />
    <glyph glyph-name="one" unicode="1" horiz-adv-x="919" 
d="M602 1450v-1217h272v-233h-796v233h272v984h-272v233h524z" />
    <glyph glyph-name="two" unicode="2" horiz-adv-x="1206" 
d="M1114 1075v-65c0 -68 -17 -131 -51 -190s-77 -109 -128 -148c-51 -40 -108 -79 -169 -118c-123 -77 -234 -129 -314 -205c-41 -39 -64 -77 -71 -116h723v-233h-1000v125c0 77 19 148 57 214c37 66 84 121 140 166c56 44 117 88 183 133c65 45 126 84 182 119
s103 75 140 122c37 46 56 93 56 141v51c0 107 -91 174 -244 174c-159 0 -245 -82 -245 -231v-58h-252v52c0 142 46 256 137 342s214 129 367 129c147 0 266 -37 355 -111s134 -172 134 -293z" />
    <glyph glyph-name="three" unicode="3" horiz-adv-x="1228" 
d="M1004 735c77 -65 115 -150 114 -254v-100c0 -125 -46 -225 -139 -299s-214 -111 -365 -111c-149 0 -270 39 -363 117s-140 180 -140 307v70h251v-78c0 -115 97 -182 252 -182c168 0 252 57 252 170v102c0 97 -70 145 -209 146h-245v225h245c138 0 207 48 207 143v88
c0 111 -83 166 -250 166c-156 0 -252 -67 -252 -182v-78h-251v70c0 127 47 229 140 307s215 117 364 117s269 -36 362 -109s139 -172 139 -297v-88c1 -100 -37 -183 -112 -250z" />
    <glyph glyph-name="four" unicode="4" horiz-adv-x="1150" 
d="M780 549v373h252v-922h-252v315h-694v234l408 901h278l-410 -901h418z" />
    <glyph glyph-name="five" unicode="5" horiz-adv-x="1179" 
d="M403 909h259c124 0 224 -36 299 -107c75 -72 112 -168 112 -288v-125c0 -127 -44 -228 -132 -304s-204 -114 -349 -114s-261 38 -349 114s-132 177 -132 304v115h251v-129c0 -112 82 -176 230 -176c147 0 231 64 231 176v153c0 99 -65 154 -172 154h-499v768h872v-233
h-621v-308z" />
    <glyph glyph-name="six" unicode="6" horiz-adv-x="1234" 
d="M649 932c145 0 260 -35 346 -104c86 -70 129 -166 129 -289v-146c0 -129 -46 -231 -138 -307c-92 -77 -215 -115 -368 -115c-154 0 -277 41 -369 123s-138 191 -138 328v590c0 142 47 255 141 340s216 127 366 127c143 0 262 -38 357 -115c94 -77 141 -180 141 -309h-250
c0 125 -97 196 -248 196c-161 0 -256 -86 -256 -241v-166c81 59 176 88 287 88zM872 401v138c0 117 -85 176 -256 176c-153 0 -247 -63 -254 -170v-137c0 -133 92 -209 259 -209c161 0 251 74 251 202z" />
    <glyph glyph-name="seven" unicode="7" horiz-adv-x="1054" 
d="M55 1217v233h946v-233l-602 -1217h-276l600 1217h-668z" />
    <glyph glyph-name="eight" unicode="8" horiz-adv-x="1263" 
d="M1008 739c97 -65 145 -155 145 -268v-127c0 -112 -48 -202 -143 -270c-96 -69 -222 -103 -377 -103c-157 0 -284 34 -379 103c-95 68 -143 158 -143 270v127c0 113 48 203 145 268c-90 64 -135 149 -135 256v101c0 116 47 209 140 279c93 69 217 104 372 104
c153 0 276 -35 370 -104c93 -70 140 -163 140 -279v-101c0 -107 -45 -192 -135 -256zM373 1085v-92c0 -99 91 -157 260 -157c167 0 258 60 258 157v92c0 109 -97 177 -258 177c-164 0 -260 -68 -260 -177zM901 354v117c0 107 -96 170 -268 170s-271 -63 -271 -170v-117
c0 -104 99 -166 271 -166c169 0 268 62 268 166z" />
    <glyph glyph-name="nine" unicode="9" horiz-adv-x="1232" 
d="M249 1365c92 76 215 114 368 114s275 -41 367 -123s138 -191 138 -328v-590c0 -142 -47 -255 -140 -340s-215 -127 -366 -127c-145 0 -264 38 -357 115s-140 180 -140 309h250c0 -125 96 -196 245 -196c164 0 258 86 258 241v156c-81 -59 -176 -88 -286 -88
c-145 0 -260 35 -346 105c-86 69 -129 165 -129 288v156c0 129 46 231 138 308zM616 725c153 0 248 61 256 168v149c0 133 -94 209 -258 209c-161 0 -252 -74 -252 -202v-148c0 -112 90 -176 254 -176z" />
    <glyph glyph-name="colon" unicode=":" horiz-adv-x="536" 
d="M393 778h-248v262h248v-262zM393 0h-248v262h248v-262z" />
    <glyph glyph-name="semicolon" unicode=";" horiz-adv-x="534" 
d="M397 778h-247v262h247v-262zM150 262h247v-262l-125 -315h-104l76 315h-94v262z" />
    <glyph glyph-name="less" unicode="&#x3c;" horiz-adv-x="946" 
d="M719 1200l133 -180l-363 -272l361 -273l-131 -180l-625 453z" />
    <glyph glyph-name="equal" unicode="=" horiz-adv-x="1042" 
d="M938 868h-852v234h852v-234zM938 393h-852v234h852v-234z" />
    <glyph glyph-name="greater" unicode="&#x3e;" horiz-adv-x="946" 
d="M94 1020l133 180l625 -452l-625 -453l-131 180l361 273z" />
    <glyph glyph-name="question" unicode="?" horiz-adv-x="1296" 
d="M737 442h-245v70c0 148 71 248 157 297c43 25 86 47 130 68c43 20 80 45 111 74s46 67 46 112c0 117 -104 182 -279 182c-211 0 -317 -84 -317 -252v-53h-244v59c0 146 49 263 146 350s231 130 403 130c177 0 312 -38 405 -114c92 -76 138 -178 138 -306
c0 -133 -52 -236 -117 -284c-33 -24 -69 -47 -108 -69c-40 -23 -76 -42 -109 -57c-33 -16 -60 -39 -83 -69s-34 -66 -34 -109v-29zM739 0h-250v262h250v-262z" />
    <glyph glyph-name="at" unicode="@" horiz-adv-x="1714" 
d="M864 1274c227 0 409 -48 548 -145s208 -230 208 -398v-334c0 -227 -125 -360 -369 -360c-93 0 -165 36 -217 108c-60 -73 -138 -109 -233 -108c-200 0 -312 130 -312 371v167c0 240 112 371 312 371c83 0 154 -29 213 -86l26 58h156v-584c0 -88 15 -117 72 -117
c74 0 111 41 110 123v414c0 201 -172 301 -516 301c-167 0 -296 -37 -388 -110c-92 -74 -138 -175 -138 -304v-311c0 -125 44 -223 132 -294s214 -106 378 -106c81 0 153 8 217 23l22 -217c-86 -18 -168 -27 -245 -27c-232 0 -414 57 -547 170s-199 267 -199 461v291
c0 201 70 358 209 472s326 171 561 171zM840 260c83 0 127 33 131 100v261c-4 67 -48 100 -131 100c-86 0 -129 -48 -129 -143v-175c0 -95 43 -143 129 -143z" />
    <glyph glyph-name="A" unicode="A" horiz-adv-x="1296" 
d="M1260 0h-250l-99 311h-528l-100 -311h-248l434 1450h358zM840 545l-193 641l-192 -641h385z" />
    <glyph glyph-name="B" unicode="B" horiz-adv-x="1265" 
d="M1020 764c101 -63 160 -168 160 -283v-96c0 -113 -39 -206 -118 -277c-79 -72 -180 -108 -304 -108h-631v1450h588c125 0 227 -32 306 -95s118 -148 118 -253v-101c0 -98 -40 -177 -119 -237zM721 1225h-342v-371h340c101 0 168 50 168 145v97c0 81 -67 129 -166 129z
M928 377v104c0 93 -62 150 -166 150h-383v-406h381c104 0 168 59 168 152z" />
    <glyph glyph-name="C" unicode="C" horiz-adv-x="1337" 
d="M1088 96c-100 -83 -239 -125 -418 -125s-319 42 -419 125c-101 83 -151 196 -151 338v582c0 142 50 255 150 338c99 83 239 125 418 125s318 -42 419 -125c100 -83 150 -196 150 -338v-113h-264v98c0 156 -102 244 -303 244c-208 0 -318 -91 -318 -244v-552
c0 -156 108 -244 316 -244c203 0 305 88 305 244v100h264v-115c0 -142 -50 -255 -149 -338z" />
    <glyph glyph-name="D" unicode="D" horiz-adv-x="1327" 
d="M127 1450h545c172 0 307 -41 406 -124c98 -83 147 -195 147 -337v-528c0 -142 -49 -254 -147 -337c-99 -83 -233 -124 -404 -124h-547v1450zM973 475v500c0 153 -100 242 -283 242h-311v-984h309c185 0 285 89 285 242z" />
    <glyph glyph-name="E" unicode="E" horiz-adv-x="1118" 
d="M1040 1450v-233h-661v-392h573v-233h-573v-359h661v-233h-913v1450h913z" />
    <glyph glyph-name="F" unicode="F" horiz-adv-x="1097" 
d="M1040 1450v-233h-661v-439h594v-233h-594v-545h-252v1450h913z" />
    <glyph glyph-name="G" unicode="G" horiz-adv-x="1337" 
d="M1237 1016v-82h-252v67c0 153 -116 244 -315 244c-203 0 -318 -91 -318 -244v-552c0 -153 116 -244 316 -244c203 0 317 91 317 244v92h-326v233h578v-340c0 -142 -50 -255 -149 -338c-100 -83 -239 -125 -418 -125s-319 42 -419 125c-101 83 -151 196 -151 338v582
c0 142 50 255 150 338c99 83 239 125 418 125s318 -42 419 -125c100 -83 150 -196 150 -338z" />
    <glyph glyph-name="H" unicode="H" horiz-adv-x="1349" 
d="M971 825v625h252v-1450h-252v592h-592v-592h-252v1450h252v-625h592z" />
    <glyph glyph-name="I" unicode="I" horiz-adv-x="505" 
d="M379 0h-252v1450h252v-1450z" />
    <glyph glyph-name="J" unicode="J" horiz-adv-x="765" 
d="M145 0h-110v233h125c153 0 229 105 229 269v948h252v-952c0 -147 -44 -267 -133 -359c-89 -93 -210 -139 -363 -139z" />
    <glyph glyph-name="K" unicode="K" horiz-adv-x="1304" 
d="M668 743l594 -743h-316l-567 692v-692h-252v1450h252v-651l545 651h319z" />
    <glyph glyph-name="L" unicode="L" horiz-adv-x="1093" 
d="M379 1450v-1217h672v-233h-924v1450h252z" />
    <glyph glyph-name="M" unicode="M" horiz-adv-x="1560" 
d="M1120 1450h314v-1450h-230v1053l-332 -1053h-184l-332 1053v-1053h-229v1450h313l340 -979z" />
    <glyph glyph-name="N" unicode="N" horiz-adv-x="1296" 
d="M932 463v987h237v-1450h-237l-570 981v-981h-235v1450h235z" />
    <glyph glyph-name="O" unicode="O" horiz-adv-x="1349" 
d="M1098 95c-100 -83 -241 -124 -422 -124c-182 0 -323 41 -424 124s-152 196 -152 339v580c0 143 50 257 151 340c100 83 241 125 423 125c181 0 322 -42 423 -125c100 -83 150 -197 150 -340v-580c0 -143 -50 -256 -149 -339zM352 999v-550c0 -163 107 -244 322 -244
c214 0 321 81 321 244v550c0 164 -106 246 -319 246c-216 0 -324 -82 -324 -246z" />
    <glyph glyph-name="P" unicode="P" horiz-adv-x="1257" 
d="M127 1450h588c142 0 255 -36 338 -109s125 -172 125 -297v-145c0 -124 -41 -222 -124 -295s-195 -110 -337 -110h-338v-494h-252v1450zM926 893v158c0 107 -68 166 -193 166h-354v-490h352c125 0 195 59 195 166z" />
    <glyph glyph-name="Q" unicode="Q" horiz-adv-x="1361" 
d="M1028 49l266 -153l-116 -209l-492 284h-10c-181 0 -323 41 -424 124s-152 196 -152 339v580c0 143 50 257 151 340c100 83 241 125 423 125c181 0 322 -42 423 -125c100 -83 150 -197 150 -340v-580c0 -177 -73 -306 -219 -385zM352 999v-550c0 -163 107 -244 322 -244
c214 0 321 81 321 244v550c0 164 -106 246 -319 246c-216 0 -324 -82 -324 -246z" />
    <glyph glyph-name="R" unicode="R" horiz-adv-x="1269" 
d="M1196 0h-262l-236 559h-319v-559h-252v1450h588c142 0 255 -36 338 -108c83 -73 125 -171 125 -295v-84c0 -169 -83 -298 -228 -361zM733 1217h-354v-424h352c125 0 195 58 195 161v101c0 108 -64 162 -193 162z" />
    <glyph glyph-name="S" unicode="S" horiz-adv-x="1269" 
d="M643 -29c-175 0 -312 42 -411 127c-100 85 -150 196 -150 334v53h252v-67c0 -64 30 -116 89 -155c59 -40 135 -60 226 -60c81 0 148 18 203 53s82 85 82 150c0 84 -66 145 -163 179s-218 60 -334 101s-217 92 -277 194c-30 51 -45 111 -45 181c0 121 43 221 129 300
s215 118 387 118s303 -39 393 -117s135 -182 135 -313v-66h-252v72c0 56 -26 102 -77 137c-52 35 -120 53 -203 53c-78 0 -141 -16 -188 -48c-48 -32 -72 -75 -72 -130c0 -41 20 -75 60 -104s91 -51 152 -66s127 -34 198 -57s136 -49 197 -78s112 -73 153 -132
s61 -130 61 -212c0 -131 -48 -239 -143 -322c-96 -83 -230 -125 -402 -125z" />
    <glyph glyph-name="T" unicode="T" horiz-adv-x="1126" 
d="M18 1450h1088v-233h-418v-1217h-250v1217h-420v233z" />
    <glyph glyph-name="U" unicode="U" horiz-adv-x="1310" 
d="M657 -29c-175 0 -311 42 -409 125c-99 83 -148 196 -148 338v1016h252v-1001c0 -156 104 -244 304 -244c199 0 302 88 302 244v1001h252v-1016c0 -142 -49 -255 -146 -338c-98 -83 -234 -125 -407 -125z" />
    <glyph glyph-name="V" unicode="V" horiz-adv-x="1257" 
d="M629 309l338 1143h254l-412 -1450h-363l-411 1450h258z" />
    <glyph glyph-name="W" unicode="W" horiz-adv-x="1890" 
d="M1333 272l256 1178h264l-344 -1448h-335l-228 961l-231 -961h-336l-344 1448h266l258 -1180l266 1180h230z" />
    <glyph glyph-name="X" unicode="X" horiz-adv-x="1277" 
d="M952 1450h283l-451 -731l441 -719h-293l-303 498l-310 -498h-278l440 737l-436 713h293l303 -494z" />
    <glyph glyph-name="Y" unicode="Y" horiz-adv-x="1236" 
d="M928 1450h272l-457 -942v-508h-251v512l-457 938h276l310 -645z" />
    <glyph glyph-name="Z" unicode="Z" horiz-adv-x="1155" 
d="M1083 1202l-723 -969h736v-233h-1039v246l725 971h-688v233h989v-248z" />
    <glyph glyph-name="bracketleft" unicode="[" horiz-adv-x="634" 
d="M598 1577v-225h-215v-1465h215v-225h-459v1915h459z" />
    <glyph glyph-name="backslash" unicode="\" horiz-adv-x="772" 
d="M717 -102h-242l-420 1626h242z" />
    <glyph glyph-name="bracketright" unicode="]" horiz-adv-x="634" 
d="M37 1577h459v-1915h-459v225h215v1465h-215v225z" />
    <glyph glyph-name="asciicircum" unicode="^" horiz-adv-x="761" 
d="M381 1479l307 -408h-192l-115 158l-117 -158h-188z" />
    <glyph glyph-name="underscore" unicode="_" horiz-adv-x="929" 
d="M877 -258h-824v195h824v-195z" />
    <glyph glyph-name="grave" unicode="`" horiz-adv-x="598" 
d="M305 1143l-254 352h279l209 -352h-234z" />
    <glyph glyph-name="a" unicode="a" horiz-adv-x="1140" 
d="M807 958l41 82h164v-1040h-164l-41 82c-74 -74 -178 -111 -311 -111c-271 0 -406 146 -406 439v221c0 292 135 438 406 438c134 0 238 -37 311 -111zM549 199c130 0 203 61 219 182v278c-17 121 -90 182 -219 183c-143 0 -215 -75 -215 -224v-196
c0 -149 72 -223 215 -223z" />
    <glyph glyph-name="b" unicode="b" horiz-adv-x="1140" 
d="M641 1069c273 0 410 -146 410 -438v-221c0 -292 -137 -438 -410 -439c-131 0 -234 37 -307 111l-41 -82h-164v1577h242v-588c69 53 159 80 270 80zM807 420v198c0 149 -72 223 -215 224c-133 0 -216 -69 -221 -205v-234c5 -136 90 -204 221 -204c143 0 215 74 215 221z
" />
    <glyph glyph-name="c" unicode="c" horiz-adv-x="1075" 
d="M543 -29c-142 0 -253 40 -333 119s-120 187 -120 324v213c0 138 40 246 119 325c79 78 191 117 334 117c135 0 243 -38 323 -114c79 -77 119 -180 119 -310v-24h-246v30c0 123 -73 193 -196 193c-139 0 -209 -75 -209 -226v-196c0 -150 70 -225 209 -225
c123 0 196 69 196 192v31h246v-25c0 -130 -40 -233 -119 -309c-80 -77 -188 -115 -323 -115z" />
    <glyph glyph-name="d" unicode="d" horiz-adv-x="1140" 
d="M768 991v586h244v-1577h-164l-41 82c-74 -74 -176 -111 -307 -111c-273 0 -410 146 -410 439v221c0 292 137 438 410 438c109 0 199 -26 268 -78zM549 199c130 0 203 61 219 182v278c-17 121 -90 182 -219 183c-143 0 -215 -75 -215 -224v-198c0 -147 72 -221 215 -221z
" />
    <glyph glyph-name="e" unicode="e" horiz-adv-x="1081" 
d="M545 1069c133 0 240 -37 322 -110c81 -74 122 -168 122 -283v-230h-655v-30c0 -161 72 -242 217 -242c55 0 100 13 137 39s55 60 55 102v17h244c0 -112 -39 -200 -118 -264c-79 -65 -185 -97 -318 -97c-146 0 -259 41 -340 123s-121 192 -121 330v199
c0 138 40 247 120 327c80 79 192 119 335 119zM334 633h407v41c0 129 -64 193 -192 192c-141 0 -212 -78 -215 -233z" />
    <glyph glyph-name="f" unicode="f" horiz-adv-x="696" 
d="M690 1352h-98c-128 0 -186 -70 -186 -219v-93h270v-225h-270v-815h-244v815h-111v225h111v105c0 131 36 236 108 315c71 78 169 117 293 117h127v-225z" />
    <glyph glyph-name="g" unicode="g" horiz-adv-x="1140" 
d="M807 958l41 82h164v-1138c0 -119 -39 -215 -117 -290s-191 -112 -340 -112c-142 0 -250 33 -325 99c-75 67 -116 150 -121 251h243c11 -79 86 -124 201 -124c128 0 215 64 215 184v139c-69 -52 -160 -78 -272 -78c-271 0 -406 146 -406 439v221c0 292 135 438 406 438
c134 0 238 -37 311 -111zM549 199c130 0 203 61 219 182v278c-17 121 -90 182 -219 183c-143 0 -215 -75 -215 -224v-198c0 -147 72 -221 215 -221z" />
    <glyph glyph-name="h" unicode="h" horiz-adv-x="1157" 
d="M647 1069c245 0 391 -148 391 -465v-604h-243v604c0 156 -82 238 -205 238c-61 0 -112 -18 -153 -53c-41 -36 -63 -87 -66 -154v-635h-242v1577h242v-592c72 56 164 84 276 84z" />
    <glyph glyph-name="i" unicode="i" horiz-adv-x="505" 
d="M377 1174h-250v260h250v-260zM375 0h-244v1040h244v-1040z" />
    <glyph glyph-name="j" unicode="j" horiz-adv-x="540" 
d="M410 1174h-248v260h248v-260zM49 -471h-112v225h45c74 0 123 18 147 54c23 37 35 92 35 167v1065h244v-1130c0 -133 -33 -229 -100 -290s-154 -91 -259 -91z" />
    <glyph glyph-name="k" unicode="k" horiz-adv-x="1093" 
d="M633 557l442 -557h-291l-409 508v-508h-244v1577h244v-969l397 432h299z" />
    <glyph glyph-name="l" unicode="l" horiz-adv-x="505" 
d="M131 0v1577h244v-1577h-244z" />
    <glyph glyph-name="m" unicode="m" horiz-adv-x="1685" 
d="M1194 1069c250 0 375 -155 375 -465v-604h-244v616c0 148 -68 226 -172 226c-99 0 -171 -65 -182 -193v-35v-614h-244v616c0 148 -68 226 -172 226c-101 0 -179 -74 -184 -205v-637h-242v1040h158l41 -84c71 75 160 113 268 113c143 0 244 -48 303 -145
c71 97 170 145 295 145z" />
    <glyph glyph-name="n" unicode="n" horiz-adv-x="1157" 
d="M645 1069c248 0 393 -148 393 -465v-604h-243v606c0 156 -79 236 -207 236c-60 0 -110 -18 -151 -53c-41 -36 -63 -87 -66 -152v-637h-242v1040h158l45 -90c77 79 182 119 313 119z" />
    <glyph glyph-name="o" unicode="o" horiz-adv-x="1101" 
d="M890 89c-80 -79 -193 -118 -339 -118s-259 39 -340 118s-121 187 -121 325v213c0 138 40 246 120 325c80 78 193 117 339 117c147 0 261 -39 341 -117c80 -79 120 -187 120 -325v-213c0 -138 -40 -246 -120 -325zM549 197c145 0 217 75 217 225v196
c0 150 -72 225 -215 226c-145 0 -217 -75 -217 -226v-196c0 -150 72 -225 215 -225z" />
    <glyph glyph-name="p" unicode="p" horiz-adv-x="1140" 
d="M641 1069c273 0 410 -146 410 -438v-221c0 -292 -137 -438 -410 -439c-111 0 -201 27 -270 80v-522h-242v1511h164l41 -82c73 74 176 111 307 111zM807 420v198c0 149 -72 223 -215 224c-133 0 -216 -69 -221 -205v-234c5 -136 90 -204 221 -204c143 0 215 74 215 221z
" />
    <glyph glyph-name="q" unicode="q" horiz-adv-x="1140" 
d="M807 958l41 82h164v-1511h-244v520c-69 -52 -159 -78 -268 -78c-273 0 -410 146 -410 439v221c0 292 137 438 410 438c131 0 234 -37 307 -111zM549 199c130 0 203 61 219 182v278c-17 121 -90 182 -219 183c-143 0 -215 -75 -215 -224v-198c0 -147 72 -221 215 -221z
" />
    <glyph glyph-name="r" unicode="r" horiz-adv-x="753" 
d="M651 1061c12 0 29 -1 51 -4v-215c-35 9 -67 14 -96 14c-67 0 -122 -19 -167 -58s-68 -96 -68 -171v-627h-242v1040h164l47 -94c83 77 187 115 311 115z" />
    <glyph glyph-name="s" unicode="s" horiz-adv-x="972" 
d="M492 -29c-130 0 -233 32 -310 97c-77 64 -116 149 -116 254v22h241v-22c0 -84 80 -138 197 -138c101 0 170 42 170 107c0 34 -20 61 -60 81c-41 19 -90 36 -148 49s-116 28 -174 47s-107 50 -147 95c-41 44 -61 101 -61 170c0 101 37 183 112 244c74 61 172 92 293 92
c124 0 223 -31 298 -94s112 -145 112 -246v-20h-242v20c0 76 -64 127 -168 127c-101 0 -165 -46 -165 -106c0 -31 20 -56 61 -74s90 -33 147 -46s115 -29 174 -48c58 -19 107 -52 148 -98c41 -47 61 -106 61 -177c0 -108 -40 -191 -121 -249s-182 -87 -302 -87z" />
    <glyph glyph-name="t" unicode="t" horiz-adv-x="720" 
d="M582 225h96v-225h-148c-247 0 -371 130 -370 391v424h-140v225h140v297h243v-297h261v-225h-261v-377c1 -142 60 -213 179 -213z" />
    <glyph glyph-name="u" unicode="u" horiz-adv-x="1124" 
d="M752 403v637h243v-1040h-159l-41 84c-74 -75 -171 -113 -291 -113c-257 0 -385 154 -385 463v606h243v-606c0 -157 64 -236 191 -235c56 0 103 18 141 53c37 35 57 86 58 151z" />
    <glyph glyph-name="v" unicode="v" horiz-adv-x="989" 
d="M502 254l215 786h252l-314 -1040h-321l-314 1040h252z" />
    <glyph glyph-name="w" unicode="w" horiz-adv-x="1411" 
d="M987 254l156 786h248l-254 -1040h-252l-178 567l-181 -567h-252l-254 1040h248l156 -786l184 786h193z" />
    <glyph glyph-name="x" unicode="x" horiz-adv-x="1026" 
d="M735 1040h269l-359 -516l354 -524h-278l-219 324l-213 -324h-262l342 524l-349 516h277l215 -319z" />
    <glyph glyph-name="y" unicode="y" horiz-adv-x="1126" 
d="M756 403v637h243v-1138c0 -119 -38 -215 -114 -290c-77 -75 -187 -112 -332 -112c-138 0 -243 33 -316 99c-73 67 -112 150 -116 251h244c8 -79 77 -124 184 -124c123 0 207 64 207 184v137c-67 -51 -149 -76 -248 -76c-245 0 -387 150 -387 463v606h244v-606
c0 -157 64 -236 192 -235c55 0 101 18 139 53c37 35 57 86 60 151z" />
    <glyph glyph-name="z" unicode="z" horiz-adv-x="976" 
d="M98 1040h811v-184l-510 -631h510v-225h-841v184l510 631h-480v225z" />
    <glyph glyph-name="braceleft" unicode="{" 
d="M424 1262v-375c0 -123 -40 -211 -121 -266c81 -57 121 -146 121 -267v-377c0 -60 29 -90 86 -90h123v-225h-133c-98 0 -176 30 -233 90c-58 60 -87 141 -87 244v377c0 84 -46 133 -114 133h-35v227h35c68 0 114 52 114 133v377c0 103 29 184 86 244s135 90 234 90h133
v-225h-123c-57 0 -86 -30 -86 -90z" />
    <glyph glyph-name="bar" unicode="|" horiz-adv-x="489" 
d="M131 -328v1987h227v-1987h-227z" />
    <glyph glyph-name="braceright" unicode="}" 
d="M586 733h37v-227h-37c-65 0 -115 -52 -115 -133v-377c0 -103 -28 -184 -85 -244s-134 -90 -232 -90h-134v225h123c56 0 84 30 84 90v377c0 119 40 208 121 267c-81 56 -121 145 -121 266v375c0 60 -28 90 -84 90h-123v225h134c98 0 175 -30 232 -90s85 -141 85 -244v-377
c0 -81 50 -133 115 -133z" />
    <glyph glyph-name="asciitilde" unicode="~" horiz-adv-x="1056" 
d="M340 926c49 0 115 -21 197 -62c60 -29 104 -43 131 -43c57 0 86 34 86 101h213c0 -97 -20 -175 -59 -236c-40 -61 -104 -92 -191 -92c-55 0 -123 20 -205 59c-55 29 -95 43 -121 43c-59 0 -88 -37 -88 -110h-213c0 227 83 340 250 340z" />
    <glyph glyph-name="uni00A0" unicode="&#xa0;" horiz-adv-x="489" 
 />
    <glyph glyph-name="exclamdown" unicode="&#xa1;" horiz-adv-x="563" 
d="M158 1040h248v-262h-248v262zM408 -410h-252v486l32 522h189l31 -518v-490z" />
    <glyph glyph-name="cent" unicode="&#xa2;" horiz-adv-x="1062" 
d="M975 848v-25h-246v31c0 123 -73 193 -197 193c-139 0 -209 -75 -208 -226v-196c0 -150 69 -225 208 -226c123 0 197 70 197 193v31h246v-25c0 -108 -28 -198 -85 -270c-57 -73 -136 -120 -237 -142v-188h-243v188c-211 44 -330 198 -330 430v213c0 232 119 390 330 431
v188h243v-188c101 -22 180 -69 237 -141c57 -73 85 -163 85 -271z" />
    <glyph glyph-name="sterling" unicode="&#xa3;" horiz-adv-x="1349" 
d="M1249 1016v-113h-262v98c0 156 -85 244 -246 244c-169 0 -258 -88 -258 -244v-233h416v-233h-416v-302h746v-233h-746v-2h-252v2h-157v233h157v302h-157v233h157v248c0 141 46 253 139 337c92 84 216 126 372 126c155 0 279 -42 370 -126s137 -196 137 -337z" />
    <glyph glyph-name="currency" unicode="&#xa4;" horiz-adv-x="1052" 
d="M920 772v-115c0 -77 -18 -143 -54 -198l113 -137l-164 -127l-113 137c-53 -19 -112 -29 -176 -29s-123 10 -178 29l-112 -137l-162 127l112 137c-35 56 -53 122 -53 198v115c0 73 17 137 51 193l-110 135l162 133l112 -137c53 19 113 29 179 29c65 -1 125 -10 178 -29
l112 137l162 -133l-111 -135c34 -56 51 -120 52 -193zM346 772v-117c0 -108 60 -162 180 -161c119 0 178 54 179 161v117c0 108 -60 162 -179 162c-120 0 -180 -54 -180 -162z" />
    <glyph glyph-name="yen" unicode="&#xa5;" horiz-adv-x="1239" 
d="M926 1448h272l-373 -772h254v-195h-336v-75h336v-195h-336v-211h-251v211h-326v195h326v75h-326v195h246l-377 772h276l307 -643z" />
    <glyph glyph-name="brokenbar" unicode="&#xa6;" horiz-adv-x="489" 
d="M358 784h-227v875h227v-875zM358 -328h-227v875h227v-875z" />
    <glyph glyph-name="section" unicode="&#xa7;" horiz-adv-x="1185" 
d="M1104 535c0 -86 -23 -160 -70 -222c39 -55 59 -121 60 -198c0 -121 -45 -218 -135 -291c-91 -73 -212 -109 -363 -109c-160 0 -286 39 -377 118s-137 181 -137 308v23h250v-37c0 -109 104 -180 276 -180c60 0 114 13 163 38s73 64 73 117c0 51 -25 90 -75 119
s-110 51 -180 67c-71 15 -141 34 -212 55s-132 58 -181 111c-50 52 -75 120 -75 205c0 93 26 172 78 238c-47 53 -70 121 -70 203c0 113 41 205 124 275c83 69 200 104 353 104c154 0 272 -36 354 -108c82 -73 123 -169 123 -290v-34h-249v43c0 45 -21 83 -64 112
s-100 43 -170 43c-59 0 -110 -11 -153 -34c-44 -23 -66 -56 -66 -98c0 -43 25 -77 75 -103c49 -26 109 -48 180 -67c70 -19 141 -41 212 -66c71 -26 131 -68 181 -125s75 -130 75 -217zM371 686c0 -34 15 -63 46 -87s66 -41 105 -52s90 -26 155 -44c65 -19 117 -35 157 -50
c24 41 25 97 -1 140s-61 65 -125 89c-33 12 -62 22 -89 30c-27 7 -61 17 -102 28s-76 21 -103 30c-29 -26 -43 -54 -43 -84z" />
    <glyph glyph-name="dieresis" unicode="&#xa8;" horiz-adv-x="737" 
d="M272 1174h-225v239h225v-239zM682 1174h-227v239h227v-239z" />
    <glyph glyph-name="copyright" unicode="&#xa9;" horiz-adv-x="1503" 
d="M1232 111c-114 -93 -274 -140 -480 -140c-207 0 -367 47 -480 140s-170 215 -170 366v494c0 153 56 276 169 369s272 139 479 139c206 0 366 -46 481 -139s172 -216 172 -369v-494c0 -151 -57 -273 -171 -366zM359 187c90 -73 221 -109 393 -109s303 36 393 109
c90 72 135 169 135 292v488c0 124 -45 223 -136 296s-222 109 -394 109s-303 -36 -392 -109c-90 -73 -135 -172 -135 -296v-488c0 -123 45 -220 136 -292zM752 139c-149 0 -262 37 -341 112c-79 74 -118 173 -118 298v352c0 124 39 223 118 298c78 75 191 112 339 112
c149 0 262 -36 341 -109c78 -73 117 -170 117 -291v-104h-252v113c0 107 -52 157 -204 157c-138 0 -207 -57 -207 -170v-366c0 -112 68 -168 205 -168c78 0 132 13 162 39c29 26 44 65 44 118v113h252v-104c0 -120 -39 -217 -117 -290c-79 -73 -192 -110 -339 -110z" />
    <glyph glyph-name="ordfeminine" unicode="&#xaa;" horiz-adv-x="657" 
d="M463 1421l24 41h103v-614h-103l-24 41c-42 -38 -98 -57 -168 -58c-149 0 -223 81 -223 242v164c0 161 74 242 223 242c69 0 125 -19 168 -58zM330 973c60 0 103 37 106 100v162c-3 65 -43 100 -106 100c-69 0 -104 -35 -105 -104v-152c1 -71 36 -106 105 -106z" />
    <glyph glyph-name="guillemotleft" unicode="&#xab;" horiz-adv-x="1200" 
d="M594 45l-467 352v250l467 352v-249l-303 -226l303 -229v-250zM600 647l467 352v-249l-303 -226l303 -229v-250l-467 352v250z" />
    <glyph glyph-name="logicalnot" unicode="&#xac;" horiz-adv-x="1046" 
d="M94 864h856v-577h-239v344h-617v233z" />
    <glyph glyph-name="uni00AD" unicode="&#xad;" horiz-adv-x="688" 
d="M598 457h-506v217h506v-217z" />
    <glyph glyph-name="registered" unicode="&#xae;" horiz-adv-x="1071" 
d="M535 1479c130 0 236 -34 319 -101c82 -68 123 -158 123 -270v-219c0 -112 -41 -202 -124 -269c-83 -68 -188 -102 -316 -102c-129 0 -235 34 -318 103c-83 68 -125 157 -125 268v219c0 112 41 202 124 270c83 67 188 101 317 101zM872 891v215c0 87 -31 156 -93 206
c-62 49 -143 74 -244 74s-183 -25 -244 -74c-61 -50 -92 -119 -92 -206v-215c0 -87 31 -156 93 -206s144 -75 245 -75c100 0 181 25 243 76c61 51 92 119 92 205zM782 1130v-22c0 -63 -28 -107 -84 -133l93 -234h-127l-86 209h-5h-133v-209h-121v547h254
c128 0 209 -57 209 -158zM580 1176h-140v-111h140c53 0 80 14 79 43v22c0 30 -26 45 -79 46z" />
    <glyph glyph-name="overscore" unicode="&#xaf;" horiz-adv-x="806" 
d="M53 1409h692v-205h-692v205z" />
    <glyph glyph-name="degree" unicode="&#xb0;" horiz-adv-x="743" 
d="M371 1479c91 0 163 -25 215 -76s78 -119 78 -205s-26 -154 -78 -204c-52 -51 -124 -76 -215 -76c-89 0 -159 25 -212 76c-53 50 -79 118 -79 204s26 154 79 205s123 76 212 76zM371 1309c-55 0 -90 -43 -90 -111s35 -111 90 -111c57 0 94 43 94 111s-37 111 -94 111z" />
    <glyph glyph-name="plusminus" unicode="&#xb1;" horiz-adv-x="1046" 
d="M645 1290v-346h305v-233h-305v-344h-242v344h-309v233h309v346h242zM950 0h-856v233h856v-233z" />
    <glyph glyph-name="uni00B2" unicode="&#xb2;" 
d="M604 1378v-32c0 -45 -17 -88 -52 -129s-73 -73 -114 -96c-42 -23 -80 -44 -115 -65s-53 -37 -53 -48h326v-162h-522v162c0 35 18 71 54 107s76 66 121 89c44 23 84 49 121 77c36 28 54 53 54 75v20c0 34 -25 51 -76 51c-55 0 -82 -23 -82 -69v-31h-180v23
c0 73 24 131 73 175c48 44 112 66 191 66c75 0 137 -19 184 -58s70 -90 70 -155z" />
    <glyph glyph-name="uni00B3" unicode="&#xb3;" 
d="M614 1372v-43c0 -44 -15 -83 -45 -117c29 -33 43 -71 43 -114v-51c0 -67 -25 -120 -74 -159c-50 -39 -114 -59 -192 -59c-82 0 -148 21 -198 63c-51 41 -76 96 -76 163v24h180v-35c0 -35 32 -53 96 -53c57 0 86 16 86 47v62c0 23 -25 35 -74 35h-124v157h124
c49 0 74 12 74 37v51c0 31 -28 47 -84 47c-65 0 -98 -17 -98 -51v-41h-180v31c0 67 25 121 76 163c50 41 116 62 198 62c79 0 144 -20 194 -59c49 -40 74 -93 74 -160z" />
    <glyph glyph-name="acute" unicode="&#xb4;" horiz-adv-x="598" 
d="M260 1495h279l-256 -352h-232z" />
    <glyph glyph-name="mu" unicode="&#xb5;" horiz-adv-x="1132" 
d="M1083 203c15 0 32 2 50 6v-227c-31 -7 -66 -10 -103 -11c-108 0 -183 42 -225 127c-71 -85 -171 -127 -301 -127c-55 0 -102 9 -142 27v-469h-243v1511h243v-606c0 -157 64 -236 191 -235c112 0 194 74 199 202v639h243v-655c0 -131 20 -182 88 -182z" />
    <glyph glyph-name="paragraph" unicode="&#xb6;" horiz-adv-x="1427" 
d="M360 1450h996v-233h-185v-1217h-241v1217h-213v-1217h-242v647h-115c-81 0 -149 29 -204 87c-56 58 -84 130 -84 216v197c0 81 28 151 85 212s124 91 203 91z" />
    <glyph glyph-name="middot" unicode="&#xb7;" horiz-adv-x="438" 
d="M340 563h-244v281h244v-281z" />
    <glyph glyph-name="cedilla" unicode="&#xb8;" horiz-adv-x="430" 
d="M260 -324h-262l135 375h205z" />
    <glyph glyph-name="uni00B9" unicode="&#xb9;" 
d="M432 1575v-567h119v-162h-422v162h123v405h-123v162h303z" />
    <glyph glyph-name="ordmasculine" unicode="&#xba;" 
d="M520 897c-45 -44 -108 -66 -190 -66s-145 22 -190 66s-68 105 -68 182v152c0 153 95 248 256 248s258 -95 258 -248v-152c0 -78 -22 -139 -66 -182zM328 973c69 0 104 36 104 108v148c0 73 -34 109 -102 108c-69 0 -104 -36 -105 -108v-148c1 -72 35 -108 103 -108z" />
    <glyph glyph-name="guillemotright" unicode="&#xbb;" horiz-adv-x="1200" 
d="M436 524l-303 226v249l467 -352v-250l-467 -352v250zM606 750v249l467 -352v-250l-467 -352v250l303 229z" />
    <glyph glyph-name="onequarter" unicode="&#xbc;" horiz-adv-x="1644" 
d="M457 0l495 1454h203l-496 -1454h-202zM432 885h119v-162h-422v162h123v405h-123v162h303v-567zM1372 311v164h180v-475h-180v150h-325v161l165 418h197l-166 -418h129z" />
    <glyph glyph-name="onehalf" unicode="&#xbd;" horiz-adv-x="1644" 
d="M457 0l495 1454h203l-496 -1454h-202zM432 885h119v-162h-422v162h123v405h-123v162h303v-567zM1563 532v-32c0 -45 -17 -88 -52 -129s-74 -73 -115 -95c-42 -23 -80 -45 -115 -66s-52 -37 -52 -48h325v-162h-522v162c0 35 18 71 55 108c36 36 76 66 121 89
c44 23 84 48 120 76s54 53 54 75v20c0 34 -25 51 -75 52c-55 0 -82 -23 -82 -70v-31h-181v23c0 73 24 131 73 175s113 66 192 66c75 0 137 -19 184 -58s70 -90 70 -155z" />
    <glyph glyph-name="threequarters" unicode="&#xbe;" horiz-adv-x="1644" 
d="M612 975v-51c0 -67 -25 -119 -74 -158c-50 -39 -114 -59 -192 -59c-82 0 -148 21 -198 62c-51 41 -76 96 -76 163v24h180v-34c0 -35 32 -53 96 -54c57 0 86 16 86 47v62c0 23 -25 35 -74 35h-124v157h124c49 0 74 12 74 37v51c0 31 -28 47 -84 48c-65 0 -98 -17 -98 -52
v-41h-180v31c0 67 25 121 76 163c50 41 116 62 198 62c79 0 144 -20 194 -59c49 -39 74 -93 74 -160v-43c0 -44 -15 -83 -45 -116c29 -33 43 -71 43 -115zM457 0l495 1454h203l-496 -1454h-202zM1372 311v164h180v-475h-180v150h-325v161l165 418h197l-166 -418h129z" />
    <glyph glyph-name="questiondown" unicode="&#xbf;" horiz-adv-x="1296" 
d="M557 1040h250v-262h-250v262zM559 598h246v-70c0 -148 -70 -248 -157 -296c-44 -25 -87 -47 -130 -68s-80 -46 -111 -75s-47 -67 -47 -112c0 -117 104 -182 279 -182c211 0 317 84 317 252v53h244v-59c0 -146 -48 -262 -145 -349s-232 -130 -404 -130
c-177 0 -312 38 -404 113c-92 76 -138 178 -138 307c0 133 51 235 116 283c33 24 69 47 109 70c39 23 76 42 109 58c33 15 60 38 83 68c22 30 33 66 33 108v29z" />
    <glyph glyph-name="Agrave" unicode="&#xc0;" horiz-adv-x="1296" 
d="M541 1855l235 -303h-260l-283 303h308zM1260 0h-250l-99 311h-528l-100 -311h-248l434 1450h358zM840 545l-193 641l-192 -641h385z" />
    <glyph glyph-name="Aacute" unicode="&#xc1;" horiz-adv-x="1296" 
d="M758 1855h307l-283 -303h-260zM1260 0h-250l-99 311h-528l-100 -311h-248l434 1450h358zM840 545l-193 641l-192 -641h385z" />
    <glyph glyph-name="Acircumflex" unicode="&#xc2;" horiz-adv-x="1296" 
d="M772 1552l-121 115l-121 -115h-276l276 258h242l279 -258h-279zM1260 0h-250l-99 311h-528l-100 -311h-248l434 1450h358zM840 545l-193 641l-192 -641h385z" />
    <glyph glyph-name="Atilde" unicode="&#xc3;" horiz-adv-x="1296" 
d="M530 1671c-48 0 -72 -36 -71 -108h-176c0 194 66 291 198 290c48 0 102 -18 162 -54s101 -54 123 -54c48 0 72 36 72 108h178c0 -205 -70 -290 -201 -290c-49 0 -104 18 -163 54s-100 54 -122 54zM1260 0h-250l-99 311h-528l-100 -311h-248l434 1450h358zM840 545
l-193 641l-192 -641h385z" />
    <glyph glyph-name="Adieresis" unicode="&#xc4;" horiz-adv-x="1296" 
d="M332 1823h225v-240h-225v240zM739 1823h228v-240h-228v240zM1260 0h-250l-99 311h-528l-100 -311h-248l434 1450h358zM840 545l-193 641l-192 -641h385z" />
    <glyph glyph-name="Aring" unicode="&#xc5;" horiz-adv-x="1296" 
d="M834 1610c-48 -45 -109 -68 -184 -68s-137 23 -185 68s-72 103 -72 174c0 73 24 132 72 178c48 45 110 68 185 68s136 -23 184 -69c47 -46 71 -105 71 -177c0 -71 -24 -129 -71 -174zM725 1851c-19 17 -45 25 -76 25s-56 -8 -75 -25s-29 -40 -29 -67s10 -49 29 -65
c19 -17 44 -25 75 -25s57 8 76 25c19 16 29 38 29 65s-10 50 -29 67zM1260 0h-250l-99 311h-528l-100 -311h-248l434 1450h358zM840 545l-193 641l-192 -641h385z" />
    <glyph glyph-name="AE" unicode="&#xc6;" horiz-adv-x="1968" 
d="M1890 1450v-233h-661v-392h573v-233h-573v-359h661v-233h-913v377h-537l-149 -377h-256l577 1450h1278zM535 610h442v607h-201z" />
    <glyph glyph-name="Ccedilla" unicode="&#xc7;" horiz-adv-x="1337" 
d="M1237 1016v-113h-264v98c0 156 -102 244 -303 244c-208 0 -318 -91 -318 -244v-552c0 -156 108 -244 316 -244c203 0 305 88 305 244v100h264v-115c0 -130 -42 -235 -126 -316s-202 -129 -353 -143l-62 -299h-262l109 304c-141 19 -250 69 -327 149
c-77 79 -116 181 -116 305v582c0 142 50 255 150 338c99 83 239 125 418 125s318 -42 419 -125c100 -83 150 -196 150 -338z" />
    <glyph glyph-name="Egrave" unicode="&#xc8;" horiz-adv-x="1118" 
d="M453 1855l235 -303h-260l-283 303h308zM1040 1450v-233h-661v-392h573v-233h-573v-359h661v-233h-913v1450h913z" />
    <glyph glyph-name="Eacute" unicode="&#xc9;" horiz-adv-x="1118" 
d="M670 1855h307l-283 -303h-260zM1040 1450v-233h-661v-392h573v-233h-573v-359h661v-233h-913v1450h913z" />
    <glyph glyph-name="Ecircumflex" unicode="&#xca;" horiz-adv-x="1118" 
d="M684 1552l-121 115l-121 -115h-276l276 258h242l279 -258h-279zM1040 1450v-233h-661v-392h573v-233h-573v-359h661v-233h-913v1450h913z" />
    <glyph glyph-name="Edieresis" unicode="&#xcb;" horiz-adv-x="1118" 
d="M244 1823h225v-240h-225v240zM651 1823h228v-240h-228v240zM1040 1450v-233h-661v-392h573v-233h-573v-359h661v-233h-913v1450h913z" />
    <glyph glyph-name="Igrave" unicode="&#xcc;" horiz-adv-x="505" 
d="M121 1552l-283 303h307l236 -303h-260zM379 0h-252v1450h252v-1450z" />
    <glyph glyph-name="Iacute" unicode="&#xcd;" horiz-adv-x="505" 
d="M362 1855h308l-283 -303h-260zM379 0h-252v1450h252v-1450z" />
    <glyph glyph-name="Icircumflex" unicode="&#xce;" horiz-adv-x="505" 
d="M377 1552l-121 115l-121 -115h-276l276 258h242l278 -258h-278zM379 0h-252v1450h252v-1450z" />
    <glyph glyph-name="Idieresis" unicode="&#xcf;" horiz-adv-x="505" 
d="M162 1583h-225v240h225v-240zM571 1583h-227v240h227v-240zM379 0h-252v1450h252v-1450z" />
    <glyph glyph-name="Eth" unicode="&#xd0;" horiz-adv-x="1327" 
d="M127 1450h545c172 0 307 -41 406 -124c98 -83 147 -195 147 -337v-528c0 -142 -49 -254 -147 -337c-99 -83 -233 -124 -404 -124h-547v623h-180v204h180v623zM973 475v500c0 153 -100 242 -283 242h-311v-390h323v-204h-323v-390h309c185 0 285 89 285 242z" />
    <glyph glyph-name="Ntilde" unicode="&#xd1;" horiz-adv-x="1296" 
d="M530 1671c-48 0 -72 -36 -71 -108h-176c0 194 66 291 198 290c48 0 102 -18 162 -54s101 -54 123 -54c48 0 72 36 72 108h178c0 -205 -70 -290 -201 -290c-49 0 -104 18 -163 54s-100 54 -122 54zM932 463v987h237v-1450h-237l-570 981v-981h-235v1450h235z" />
    <glyph glyph-name="Ograve" unicode="&#xd2;" horiz-adv-x="1349" 
d="M541 1552l-283 303h307l236 -303h-260zM1098 95c-100 -83 -241 -124 -422 -124c-182 0 -323 41 -424 124s-152 196 -152 339v580c0 143 50 257 151 340c100 83 241 125 423 125c181 0 322 -42 423 -125c100 -83 150 -197 150 -340v-580c0 -143 -50 -256 -149 -339z
M352 999v-550c0 -163 107 -244 322 -244c214 0 321 81 321 244v550c0 164 -106 246 -319 246c-216 0 -324 -82 -324 -246z" />
    <glyph glyph-name="Oacute" unicode="&#xd3;" horiz-adv-x="1349" 
d="M782 1855h308l-283 -303h-260zM1098 95c-100 -83 -241 -124 -422 -124c-182 0 -323 41 -424 124s-152 196 -152 339v580c0 143 50 257 151 340c100 83 241 125 423 125c181 0 322 -42 423 -125c100 -83 150 -197 150 -340v-580c0 -143 -50 -256 -149 -339zM352 999v-550
c0 -163 107 -244 322 -244c214 0 321 81 321 244v550c0 164 -106 246 -319 246c-216 0 -324 -82 -324 -246z" />
    <glyph glyph-name="Ocircumflex" unicode="&#xd4;" horiz-adv-x="1349" 
d="M797 1552l-121 115l-121 -115h-276l276 258h242l278 -258h-278zM251 1354c100 83 241 125 423 125c181 0 322 -42 423 -125c100 -83 150 -197 150 -340v-580c0 -143 -50 -256 -149 -339c-100 -83 -241 -124 -422 -124c-182 0 -323 41 -424 124s-152 196 -152 339v580
c0 143 50 257 151 340zM995 449v550c0 164 -106 246 -319 246c-216 0 -324 -82 -324 -246v-550c0 -163 107 -244 322 -244c214 0 321 81 321 244z" />
    <glyph glyph-name="Otilde" unicode="&#xd5;" horiz-adv-x="1349" 
d="M862 1853h178c0 -205 -69 -290 -200 -290c-49 0 -104 18 -163 54s-100 54 -122 54c-48 0 -72 -36 -72 -108h-176c0 194 66 291 199 290c48 0 102 -18 162 -54s101 -54 123 -54c48 0 72 36 71 108zM1098 95c-100 -83 -241 -124 -422 -124c-182 0 -323 41 -424 124
s-152 196 -152 339v580c0 143 50 257 151 340c100 83 241 125 423 125c181 0 322 -42 423 -125c100 -83 150 -197 150 -340v-580c0 -143 -50 -256 -149 -339zM352 999v-550c0 -163 107 -244 322 -244c214 0 321 81 321 244v550c0 164 -106 246 -319 246
c-216 0 -324 -82 -324 -246z" />
    <glyph glyph-name="Odieresis" unicode="&#xd6;" horiz-adv-x="1349" 
d="M582 1583h-226v240h226v-240zM991 1583h-227v240h227v-240zM1098 95c-100 -83 -241 -124 -422 -124c-182 0 -323 41 -424 124s-152 196 -152 339v580c0 143 50 257 151 340c100 83 241 125 423 125c181 0 322 -42 423 -125c100 -83 150 -197 150 -340v-580
c0 -143 -50 -256 -149 -339zM352 999v-550c0 -163 107 -244 322 -244c214 0 321 81 321 244v550c0 164 -106 246 -319 246c-216 0 -324 -82 -324 -246z" />
    <glyph glyph-name="multiply" unicode="&#xd7;" horiz-adv-x="1032" 
d="M782 1212l156 -153l-274 -311l274 -310l-154 -155l-268 301l-266 -301l-156 155l277 312l-277 309l156 153l266 -299z" />
    <glyph glyph-name="Oslash" unicode="&#xd8;" horiz-adv-x="1349" 
d="M1186 1499l-78 -156c93 -81 139 -190 139 -329v-580c0 -143 -50 -256 -149 -339c-100 -83 -241 -124 -422 -124c-90 0 -169 10 -236 31l-80 -160l-200 111l78 156c-91 81 -137 189 -138 325v580c0 143 50 257 151 340c100 83 241 125 423 125c86 0 164 -10 233 -29
l80 158zM352 999v-550c0 -31 4 -60 13 -87l436 871c-37 8 -78 12 -125 12c-216 0 -324 -82 -324 -246zM995 449v550c0 35 -5 66 -14 91l-434 -873c37 -8 79 -12 127 -12c214 0 321 81 321 244z" />
    <glyph glyph-name="Ugrave" unicode="&#xd9;" horiz-adv-x="1310" 
d="M522 1552l-282 303h307l235 -303h-260zM657 -29c-175 0 -311 42 -409 125c-99 83 -148 196 -148 338v1016h252v-1001c0 -156 104 -244 304 -244c199 0 302 88 302 244v1001h252v-1016c0 -142 -49 -255 -146 -338c-98 -83 -234 -125 -407 -125z" />
    <glyph glyph-name="Uacute" unicode="&#xda;" horiz-adv-x="1310" 
d="M764 1855h307l-283 -303h-260zM657 -29c-175 0 -311 42 -409 125c-99 83 -148 196 -148 338v1016h252v-1001c0 -156 104 -244 304 -244c199 0 302 88 302 244v1001h252v-1016c0 -142 -49 -255 -146 -338c-98 -83 -234 -125 -407 -125z" />
    <glyph glyph-name="Ucircumflex" unicode="&#xdb;" horiz-adv-x="1310" 
d="M778 1552l-121 115l-120 -115h-277l277 258h241l279 -258h-279zM958 449v1001h252v-1016c0 -142 -49 -255 -146 -338s-233 -125 -407 -125c-175 0 -311 42 -409 125c-99 83 -148 196 -148 338v1016h252v-1001c0 -156 104 -244 304 -244c199 0 302 88 302 244z" />
    <glyph glyph-name="Udieresis" unicode="&#xdc;" horiz-adv-x="1310" 
d="M563 1583h-225v240h225v-240zM973 1583h-228v240h228v-240zM657 -29c-175 0 -311 42 -409 125c-99 83 -148 196 -148 338v1016h252v-1001c0 -156 104 -244 304 -244c199 0 302 88 302 244v1001h252v-1016c0 -142 -49 -255 -146 -338c-98 -83 -234 -125 -407 -125z" />
    <glyph glyph-name="Yacute" unicode="&#xdd;" horiz-adv-x="1236" 
d="M727 1855h307l-282 -303h-260zM928 1450h272l-457 -942v-508h-251v512l-457 938h276l310 -645z" />
    <glyph glyph-name="Thorn" unicode="&#xde;" horiz-adv-x="1257" 
d="M379 1221h336c142 0 255 -37 338 -110s125 -172 125 -296v-145c0 -124 -41 -223 -124 -296s-195 -110 -337 -110h-338v-264h-252v1450h252v-229zM926 662v159c0 107 -68 166 -193 166h-354v-489h352c125 0 195 60 195 164z" />
    <glyph glyph-name="germandbls" unicode="&#xdf;" horiz-adv-x="1163" 
d="M940 817c89 -68 133 -168 133 -301v-115c0 -125 -41 -223 -123 -294s-198 -107 -348 -107h-94v225h94c151 0 227 61 227 183v100c0 121 -76 182 -227 182h-82v225h82c125 0 188 62 189 185v98c0 121 -65 182 -195 182c-147 0 -221 -74 -221 -223v-1157h-244v1163
c0 138 40 246 121 325s195 118 342 118c138 0 246 -36 324 -107c77 -72 116 -170 116 -295v-112c0 -113 -31 -204 -94 -275z" />
    <glyph glyph-name="agrave" unicode="&#xe0;" horiz-adv-x="1140" 
d="M471 1495l209 -352h-234l-253 352h278zM807 958l41 82h164v-1040h-164l-41 82c-74 -74 -178 -111 -311 -111c-271 0 -406 146 -406 439v221c0 292 135 438 406 438c134 0 238 -37 311 -111zM549 199c130 0 203 61 219 182v278c-17 121 -90 182 -219 183
c-143 0 -215 -75 -215 -224v-196c0 -149 72 -223 215 -223z" />
    <glyph glyph-name="aacute" unicode="&#xe1;" horiz-adv-x="1140" 
d="M651 1495h279l-256 -352h-232zM807 958l41 82h164v-1040h-164l-41 82c-74 -74 -178 -111 -311 -111c-271 0 -406 146 -406 439v221c0 292 135 438 406 438c134 0 238 -37 311 -111zM549 199c130 0 203 61 219 182v278c-17 121 -90 182 -219 183
c-143 0 -215 -75 -215 -224v-196c0 -149 72 -223 215 -223z" />
    <glyph glyph-name="acircumflex" unicode="&#xe2;" horiz-adv-x="1140" 
d="M680 1143l-115 160l-116 -160h-248l258 317h213l258 -317h-250zM807 958l41 82h164v-1040h-164l-41 82c-74 -74 -178 -111 -311 -111c-271 0 -406 146 -406 439v221c0 292 135 438 406 438c134 0 238 -37 311 -111zM549 199c130 0 203 61 219 182v278
c-17 121 -90 182 -219 183c-143 0 -215 -75 -215 -224v-196c0 -149 72 -223 215 -223z" />
    <glyph glyph-name="atilde" unicode="&#xe3;" horiz-adv-x="1140" 
d="M442 1262c-48 0 -72 -36 -71 -109h-176c0 194 66 291 198 291c48 0 102 -18 162 -54c60 -37 101 -55 123 -55c48 0 72 36 72 109h178c0 -205 -70 -291 -201 -291c-49 0 -104 18 -163 55c-59 36 -100 54 -122 54zM807 958l41 82h164v-1040h-164l-41 82
c-74 -74 -178 -111 -311 -111c-271 0 -406 146 -406 439v221c0 292 135 438 406 438c134 0 238 -37 311 -111zM549 199c130 0 203 61 219 182v278c-17 121 -90 182 -219 183c-143 0 -215 -75 -215 -224v-196c0 -149 72 -223 215 -223z" />
    <glyph glyph-name="adieresis" unicode="&#xe4;" horiz-adv-x="1140" 
d="M244 1413h225v-239h-225v239zM651 1413h228v-239h-228v239zM807 958l41 82h164v-1040h-164l-41 82c-74 -74 -178 -111 -311 -111c-271 0 -406 146 -406 439v221c0 292 135 438 406 438c134 0 238 -37 311 -111zM549 199c130 0 203 61 219 182v278
c-17 121 -90 182 -219 183c-143 0 -215 -75 -215 -224v-196c0 -149 72 -223 215 -223z" />
    <glyph glyph-name="aring" unicode="&#xe5;" horiz-adv-x="1140" 
d="M746 1201c-48 -45 -109 -68 -184 -68s-137 23 -185 68s-72 102 -72 173c0 73 24 132 72 178c48 45 110 68 185 68s136 -23 184 -68c47 -46 71 -105 71 -178c0 -71 -24 -128 -71 -173zM637 1441c-19 17 -45 25 -76 25s-56 -8 -75 -25s-29 -40 -29 -67s10 -49 29 -65
c19 -17 44 -25 75 -25s57 8 76 25c19 16 29 38 29 65s-10 50 -29 67zM807 958l41 82h164v-1040h-164l-41 82c-74 -74 -178 -111 -311 -111c-271 0 -406 146 -406 439v221c0 292 135 438 406 438c134 0 238 -37 311 -111zM549 199c130 0 203 61 219 182v278
c-17 121 -90 182 -219 183c-143 0 -215 -75 -215 -224v-196c0 -149 72 -223 215 -223z" />
    <glyph glyph-name="ae" unicode="&#xe6;" horiz-adv-x="1728" 
d="M1247 1069c120 0 215 -36 285 -109c69 -73 104 -168 104 -284v-230h-639v-30c0 -161 72 -242 215 -242c117 0 181 58 181 154v24h241c0 -243 -130 -381 -385 -381c-117 0 -213 39 -286 117l-45 -88h-84l-41 82c-74 -74 -176 -111 -306 -111c-265 0 -397 146 -397 439v219
c0 293 133 440 399 440c130 0 231 -37 304 -111l41 82h84l43 -86c73 77 169 115 286 115zM997 633h392v41c0 129 -60 193 -179 192c-139 0 -210 -78 -213 -233zM541 199c125 0 208 69 213 202v236c-5 136 -85 205 -213 205c-138 0 -207 -74 -207 -221v-201
c0 -147 69 -221 207 -221z" />
    <glyph glyph-name="ccedilla" unicode="&#xe7;" horiz-adv-x="1075" 
d="M985 645v-24h-246v30c0 123 -73 193 -196 193c-139 0 -209 -75 -209 -226v-196c0 -150 70 -225 209 -225c123 0 196 69 196 192v31h246v-25c0 -115 -32 -209 -96 -283c-64 -75 -151 -120 -262 -135l-62 -301h-262l111 308c-208 44 -324 201 -324 430v213
c0 138 40 246 119 325c79 78 191 117 334 117c135 0 243 -38 323 -114c79 -77 119 -180 119 -310z" />
    <glyph glyph-name="egrave" unicode="&#xe8;" horiz-adv-x="1081" 
d="M451 1495l208 -352h-233l-254 352h279zM545 1069c133 0 240 -37 322 -110c81 -74 122 -168 122 -283v-230h-655v-30c0 -161 72 -242 217 -242c55 0 100 13 137 39s55 60 55 102v17h244c0 -112 -39 -200 -118 -264c-79 -65 -185 -97 -318 -97c-146 0 -259 41 -340 123
s-121 192 -121 330v199c0 138 40 247 120 327c80 79 192 119 335 119zM334 633h407v41c0 129 -64 193 -192 192c-141 0 -212 -78 -215 -233z" />
    <glyph glyph-name="eacute" unicode="&#xe9;" horiz-adv-x="1081" 
d="M631 1495h278l-256 -352h-231zM545 1069c133 0 240 -37 322 -110c81 -74 122 -168 122 -283v-230h-655v-30c0 -161 72 -242 217 -242c55 0 100 13 137 39s55 60 55 102v17h244c0 -112 -39 -200 -118 -264c-79 -65 -185 -97 -318 -97c-146 0 -259 41 -340 123
s-121 192 -121 330v199c0 138 40 247 120 327c80 79 192 119 335 119zM334 633h407v41c0 129 -64 193 -192 192c-141 0 -212 -78 -215 -233z" />
    <glyph glyph-name="ecircumflex" unicode="&#xea;" horiz-adv-x="1081" 
d="M659 1143l-114 160l-117 -160h-248l258 317h213l258 -317h-250zM545 1069c133 0 240 -37 322 -110c81 -74 122 -168 122 -283v-230h-655v-30c0 -161 72 -242 217 -242c55 0 100 13 137 39s55 60 55 102v17h244c0 -112 -39 -200 -118 -264c-79 -65 -185 -97 -318 -97
c-146 0 -259 41 -340 123s-121 192 -121 330v199c0 138 40 247 120 327c80 79 192 119 335 119zM334 633h407v41c0 129 -64 193 -192 192c-141 0 -212 -78 -215 -233z" />
    <glyph glyph-name="edieresis" unicode="&#xeb;" horiz-adv-x="1081" 
d="M223 1413h226v-239h-226v239zM631 1413h227v-239h-227v239zM545 1069c133 0 240 -37 322 -110c81 -74 122 -168 122 -283v-230h-655v-30c0 -161 72 -242 217 -242c55 0 100 13 137 39s55 60 55 102v17h244c0 -112 -39 -200 -118 -264c-79 -65 -185 -97 -318 -97
c-146 0 -259 41 -340 123s-121 192 -121 330v199c0 138 40 247 120 327c80 79 192 119 335 119zM334 633h407v41c0 129 -64 193 -192 192c-141 0 -212 -78 -215 -233z" />
    <glyph glyph-name="igrave" unicode="&#xec;" horiz-adv-x="505" 
d="M137 1143l-254 352h279l209 -352h-234zM375 0h-244v1040h244v-1040z" />
    <glyph glyph-name="iacute" unicode="&#xed;" horiz-adv-x="505" 
d="M342 1495h279l-256 -352h-232zM375 0h-244v1040h244v-1040z" />
    <glyph glyph-name="icircumflex" unicode="&#xee;" horiz-adv-x="505" 
d="M371 1143l-115 160l-117 -160h-248l259 317h212l259 -317h-250zM375 0h-244v1040h244v-1040z" />
    <glyph glyph-name="idieresis" unicode="&#xef;" horiz-adv-x="505" 
d="M160 1174h-226v239h226v-239zM569 1174h-227v239h227v-239zM375 0h-244v1040h244v-1040z" />
    <glyph glyph-name="eth" unicode="&#xf0;" horiz-adv-x="1112" 
d="M872 1622l156 -143l-145 -138c83 -121 125 -281 125 -479v-422c0 -147 -40 -262 -120 -345s-192 -124 -337 -124c-146 0 -259 40 -340 119s-121 189 -121 328v213c0 292 135 438 406 438c107 0 194 -24 262 -72c-31 253 -172 381 -469 381v228c181 0 329 -38 444 -115z
M764 451v186c-5 137 -77 205 -215 205c-143 0 -215 -75 -215 -224v-192c0 -153 72 -229 215 -229s215 85 215 254z" />
    <glyph glyph-name="ntilde" unicode="&#xf1;" horiz-adv-x="1157" 
d="M459 1262c-48 0 -72 -36 -72 -109h-176c0 194 66 291 199 291c48 0 102 -18 162 -54c60 -37 101 -55 122 -55c48 0 72 36 72 109h178c0 -205 -69 -291 -201 -291c-49 0 -103 18 -162 55c-59 36 -100 54 -122 54zM645 1069c248 0 393 -148 393 -465v-604h-243v606
c0 156 -79 236 -207 236c-60 0 -110 -18 -151 -53c-41 -36 -63 -87 -66 -152v-637h-242v1040h158l45 -90c77 79 182 119 313 119z" />
    <glyph glyph-name="ograve" unicode="&#xf2;" horiz-adv-x="1101" 
d="M436 1143l-254 352h279l209 -352h-234zM890 89c-80 -79 -193 -118 -339 -118s-259 39 -340 118s-121 187 -121 325v213c0 138 40 246 120 325c80 78 193 117 339 117c147 0 261 -39 341 -117c80 -79 120 -187 120 -325v-213c0 -138 -40 -246 -120 -325zM549 197
c145 0 217 75 217 225v196c0 150 -72 225 -215 226c-145 0 -217 -75 -217 -226v-196c0 -150 72 -225 215 -225z" />
    <glyph glyph-name="oacute" unicode="&#xf3;" horiz-adv-x="1101" 
d="M641 1495h279l-256 -352h-232zM890 89c-80 -79 -193 -118 -339 -118s-259 39 -340 118s-121 187 -121 325v213c0 138 40 246 120 325c80 78 193 117 339 117c147 0 261 -39 341 -117c80 -79 120 -187 120 -325v-213c0 -138 -40 -246 -120 -325zM549 197
c145 0 217 75 217 225v196c0 150 -72 225 -215 226c-145 0 -217 -75 -217 -226v-196c0 -150 72 -225 215 -225z" />
    <glyph glyph-name="ocircumflex" unicode="&#xf4;" horiz-adv-x="1101" 
d="M670 1143l-115 160l-117 -160h-248l259 317h213l258 -317h-250zM549 1069c147 0 261 -39 341 -117c80 -79 120 -187 120 -325v-213c0 -138 -40 -246 -120 -325s-193 -118 -339 -118s-259 39 -340 118s-121 187 -121 325v213c0 138 40 246 120 325c80 78 193 117 339 117z
M766 422v196c0 150 -72 225 -215 226c-145 0 -217 -75 -217 -226v-196c0 -150 72 -225 215 -225c145 0 217 75 217 225z" />
    <glyph glyph-name="otilde" unicode="&#xf5;" horiz-adv-x="1101" 
d="M739 1444h179c0 -205 -70 -291 -201 -291c-49 0 -104 18 -163 55c-59 36 -100 54 -122 54c-48 0 -72 -36 -72 -109h-176c0 194 66 291 199 291c48 0 102 -18 162 -54c60 -37 101 -55 123 -55c48 0 72 36 71 109zM890 89c-80 -79 -193 -118 -339 -118s-259 39 -340 118
s-121 187 -121 325v213c0 138 40 246 120 325c80 78 193 117 339 117c147 0 261 -39 341 -117c80 -79 120 -187 120 -325v-213c0 -138 -40 -246 -120 -325zM549 197c145 0 217 75 217 225v196c0 150 -72 225 -215 226c-145 0 -217 -75 -217 -226v-196
c0 -150 72 -225 215 -225z" />
    <glyph glyph-name="odieresis" unicode="&#xf6;" horiz-adv-x="1101" 
d="M459 1174h-226v239h226v-239zM868 1174h-227v239h227v-239zM890 89c-80 -79 -193 -118 -339 -118s-259 39 -340 118s-121 187 -121 325v213c0 138 40 246 120 325c80 78 193 117 339 117c147 0 261 -39 341 -117c80 -79 120 -187 120 -325v-213
c0 -138 -40 -246 -120 -325zM549 197c145 0 217 75 217 225v196c0 150 -72 225 -215 226c-145 0 -217 -75 -217 -226v-196c0 -150 72 -225 215 -225z" />
    <glyph glyph-name="divide" unicode="&#xf7;" horiz-adv-x="1046" 
d="M649 991h-250v260h250v-260zM950 631h-856v233h856v-233zM649 244h-250v262h250v-262z" />
    <glyph glyph-name="oslash" unicode="&#xf8;" horiz-adv-x="1101" 
d="M961 1098l-72 -148c81 -77 121 -184 121 -323v-213c0 -138 -40 -246 -120 -325s-193 -118 -339 -118c-47 0 -90 4 -131 13l-72 -148l-207 107l72 145c-82 78 -123 187 -123 326v213c0 138 40 246 120 325c80 78 193 117 339 117c49 0 94 -4 135 -12l72 147zM334 618v-196
c0 -25 2 -49 6 -72l240 492c-5 1 -15 2 -29 2c-145 0 -217 -75 -217 -226zM766 422v196c0 25 -2 47 -6 68l-236 -489h25c145 0 217 75 217 225z" />
    <glyph glyph-name="ugrave" unicode="&#xf9;" horiz-adv-x="1124" 
d="M473 1495l209 -352h-233l-254 352h278zM752 403v637h243v-1040h-159l-41 84c-74 -75 -171 -113 -291 -113c-257 0 -385 154 -385 463v606h243v-606c0 -157 64 -236 191 -235c56 0 103 18 141 53c37 35 57 86 58 151z" />
    <glyph glyph-name="uacute" unicode="&#xfa;" horiz-adv-x="1124" 
d="M653 1495h279l-256 -352h-232zM752 403v637h243v-1040h-159l-41 84c-74 -75 -171 -113 -291 -113c-257 0 -385 154 -385 463v606h243v-606c0 -157 64 -236 191 -235c56 0 103 18 141 53c37 35 57 86 58 151z" />
    <glyph glyph-name="ucircumflex" unicode="&#xfb;" horiz-adv-x="1124" 
d="M682 1143l-115 160l-116 -160h-248l258 317h213l258 -317h-250zM752 403v637h243v-1040h-159l-41 84c-74 -75 -171 -113 -291 -113c-257 0 -385 154 -385 463v606h243v-606c0 -157 64 -236 191 -235c56 0 103 18 141 53c37 35 57 86 58 151z" />
    <glyph glyph-name="udieresis" unicode="&#xfc;" horiz-adv-x="1124" 
d="M246 1413h225v-239h-225v239zM653 1413h228v-239h-228v239zM752 403v637h243v-1040h-159l-41 84c-74 -75 -171 -113 -291 -113c-257 0 -385 154 -385 463v606h243v-606c0 -157 64 -236 191 -235c56 0 103 18 141 53c37 35 57 86 58 151z" />
    <glyph glyph-name="yacute" unicode="&#xfd;" horiz-adv-x="1126" 
d="M655 1495h279l-256 -352h-232zM756 403v637h243v-1138c0 -119 -38 -215 -114 -290c-77 -75 -187 -112 -332 -112c-138 0 -243 33 -316 99c-73 67 -112 150 -116 251h244c8 -79 77 -124 184 -124c123 0 207 64 207 184v137c-67 -51 -149 -76 -248 -76
c-245 0 -387 150 -387 463v606h244v-606c0 -157 64 -236 192 -235c55 0 101 18 139 53c37 35 57 86 60 151z" />
    <glyph glyph-name="thorn" unicode="&#xfe;" horiz-adv-x="1140" 
d="M641 1069c273 0 410 -146 410 -438v-221c0 -292 -137 -438 -410 -439c-111 0 -201 27 -270 80v-522h-242v2048h242v-588c69 53 159 80 270 80zM807 420v198c0 149 -72 223 -215 224c-133 0 -216 -69 -221 -205v-234c5 -136 90 -204 221 -204c143 0 215 74 215 221z" />
    <glyph glyph-name="ydieresis" unicode="&#xff;" horiz-adv-x="1126" 
d="M248 1413h225v-239h-225v239zM655 1413h228v-239h-228v239zM756 403v637h243v-1138c0 -119 -38 -215 -114 -290c-77 -75 -187 -112 -332 -112c-138 0 -243 33 -316 99c-73 67 -112 150 -116 251h244c8 -79 77 -124 184 -124c123 0 207 64 207 184v137
c-67 -51 -149 -76 -248 -76c-245 0 -387 150 -387 463v606h244v-606c0 -157 64 -236 192 -235c55 0 101 18 139 53c37 35 57 86 60 151z" />
    <glyph glyph-name="Amacron" unicode="&#x100;" horiz-adv-x="1296" 
d="M303 1819h692v-205h-692v205zM1260 0h-250l-99 311h-528l-100 -311h-248l434 1450h358zM840 545l-193 641l-192 -641h385z" />
    <glyph glyph-name="amacron" unicode="&#x101;" horiz-adv-x="1140" 
d="M215 1409h692v-205h-692v205zM807 958l41 82h164v-1040h-164l-41 82c-74 -74 -178 -111 -311 -111c-271 0 -406 146 -406 439v221c0 292 135 438 406 438c134 0 238 -37 311 -111zM549 199c130 0 203 61 219 182v278c-17 121 -90 182 -219 183c-143 0 -215 -75 -215 -224
v-196c0 -149 72 -223 215 -223z" />
    <glyph glyph-name="Abreve" unicode="&#x102;" horiz-adv-x="1296" 
d="M876 1623c-60 -54 -136 -81 -229 -81s-168 27 -227 82s-88 125 -88 211h153c0 -88 63 -141 162 -141s164 53 164 141h154c0 -87 -30 -158 -89 -212zM1260 0h-250l-99 311h-528l-100 -311h-248l434 1450h358zM840 545l-193 641l-192 -641h385z" />
    <glyph glyph-name="abreve" unicode="&#x103;" horiz-adv-x="1140" 
d="M788 1214c-60 -54 -136 -81 -229 -81s-168 27 -227 82c-59 54 -88 124 -88 210h153c0 -88 63 -141 162 -141s164 54 164 141h154c0 -87 -30 -158 -89 -211zM807 958l41 82h164v-1040h-164l-41 82c-74 -74 -178 -111 -311 -111c-271 0 -406 146 -406 439v221
c0 292 135 438 406 438c134 0 238 -37 311 -111zM549 199c130 0 203 61 219 182v278c-17 121 -90 182 -219 183c-143 0 -215 -75 -215 -224v-196c0 -149 72 -223 215 -223z" />
    <glyph glyph-name="Aogonek" unicode="&#x104;" horiz-adv-x="1296" 
d="M1104 -190c0 -55 30 -82 90 -82c11 0 28 1 53 4v-168c-35 -8 -76 -12 -123 -13c-183 0 -272 53 -272 205c0 90 53 172 158 246l-99 309h-528l-100 -311h-248l434 1450h358l433 -1450c-104 -59 -156 -122 -156 -190zM840 545l-193 641l-192 -641h385z" />
    <glyph glyph-name="aogonek" unicode="&#x105;" horiz-adv-x="1140" 
d="M1012 1040v-1040c-103 -60 -154 -123 -154 -190c0 -55 30 -82 90 -82c8 0 26 1 53 4v-168c-35 -8 -77 -12 -124 -13c-183 0 -271 53 -271 205c0 105 75 198 225 277l-28 55c-79 -78 -182 -117 -307 -117c-257 0 -406 140 -406 439v221c0 292 135 438 406 438
c134 0 238 -37 311 -111l41 82h164zM549 199c130 0 203 61 219 182v278c-17 121 -90 182 -219 183c-143 0 -215 -75 -215 -224v-196c0 -149 72 -223 215 -223z" />
    <glyph glyph-name="Cacute" unicode="&#x106;" horiz-adv-x="1337" 
d="M778 1855h307l-282 -303h-260zM1088 96c-100 -83 -239 -125 -418 -125s-319 42 -419 125c-101 83 -151 196 -151 338v582c0 142 50 255 150 338c99 83 239 125 418 125s318 -42 419 -125c100 -83 150 -196 150 -338v-113h-264v98c0 156 -102 244 -303 244
c-208 0 -318 -91 -318 -244v-552c0 -156 108 -244 316 -244c203 0 305 88 305 244v100h264v-115c0 -142 -50 -255 -149 -338z" />
    <glyph glyph-name="cacute" unicode="&#x107;" horiz-adv-x="1075" 
d="M629 1495h278l-256 -352h-231zM543 -29c-142 0 -253 40 -333 119s-120 187 -120 324v213c0 138 40 246 119 325c79 78 191 117 334 117c135 0 243 -38 323 -114c79 -77 119 -180 119 -310v-24h-246v30c0 123 -73 193 -196 193c-139 0 -209 -75 -209 -226v-196
c0 -150 70 -225 209 -225c123 0 196 69 196 192v31h246v-25c0 -130 -40 -233 -119 -309c-80 -77 -188 -115 -323 -115z" />
    <glyph glyph-name="Cdotaccent" unicode="&#x10a;" horiz-adv-x="1337" 
d="M795 1583h-250v260h250v-260zM1088 96c-100 -83 -239 -125 -418 -125s-319 42 -419 125c-101 83 -151 196 -151 338v582c0 142 50 255 150 338c99 83 239 125 418 125s318 -42 419 -125c100 -83 150 -196 150 -338v-113h-264v98c0 156 -102 244 -303 244
c-208 0 -318 -91 -318 -244v-552c0 -156 108 -244 316 -244c203 0 305 88 305 244v100h264v-115c0 -142 -50 -255 -149 -338z" />
    <glyph glyph-name="cdotaccent" unicode="&#x10b;" horiz-adv-x="1075" 
d="M664 1174h-250v260h250v-260zM543 -29c-142 0 -253 40 -333 119s-120 187 -120 324v213c0 138 40 246 119 325c79 78 191 117 334 117c135 0 243 -38 323 -114c79 -77 119 -180 119 -310v-24h-246v30c0 123 -73 193 -196 193c-139 0 -209 -75 -209 -226v-196
c0 -150 70 -225 209 -225c123 0 196 69 196 192v31h246v-25c0 -130 -40 -233 -119 -309c-80 -77 -188 -115 -323 -115z" />
    <glyph glyph-name="Ccaron" unicode="&#x10c;" horiz-adv-x="1337" 
d="M1065 1810l-277 -258h-241l-279 258h279l121 -114l120 114h277zM1237 1016v-113h-264v98c0 156 -102 244 -303 244c-208 0 -318 -91 -318 -244v-552c0 -156 108 -244 316 -244c203 0 305 88 305 244v100h264v-115c0 -142 -50 -255 -149 -338
c-100 -83 -239 -125 -418 -125s-319 42 -419 125c-101 83 -151 196 -151 338v582c0 142 50 255 150 338c99 83 239 125 418 125s318 -42 419 -125c100 -83 150 -196 150 -338z" />
    <glyph glyph-name="ccaron" unicode="&#x10d;" horiz-adv-x="1075" 
d="M901 1460l-258 -317h-213l-258 317h250l117 -160l114 160h248zM985 645v-24h-246v30c0 123 -73 193 -196 193c-139 0 -209 -75 -209 -226v-196c0 -150 70 -225 209 -225c123 0 196 69 196 192v31h246v-25c0 -130 -40 -233 -120 -309c-80 -77 -187 -115 -322 -115
c-142 0 -253 40 -333 119s-120 187 -120 324v213c0 138 40 246 119 325c79 78 191 117 334 117c135 0 243 -38 323 -114c79 -77 119 -180 119 -310z" />
    <glyph glyph-name="Dcaron" unicode="&#x10e;" horiz-adv-x="1327" 
d="M1061 1810l-277 -258h-241l-279 258h279l121 -114l120 114h277zM127 1450h545c172 0 307 -41 406 -124c98 -83 147 -195 147 -337v-528c0 -142 -49 -254 -147 -337c-99 -83 -233 -124 -404 -124h-547v1450zM973 475v500c0 153 -100 242 -283 242h-311v-984h309
c185 0 285 89 285 242z" />
    <glyph glyph-name="dcaron" unicode="&#x10f;" horiz-adv-x="1302" 
d="M768 991v586h244v-1577h-164l-41 82c-74 -74 -176 -111 -307 -111c-273 0 -410 146 -410 439v221c0 292 137 438 410 438c109 0 199 -26 268 -78zM1071 1161l66 416h233l-78 -416h-221zM549 199c130 0 203 61 219 182v278c-17 121 -90 182 -219 183
c-143 0 -215 -75 -215 -224v-198c0 -147 72 -221 215 -221z" />
    <glyph glyph-name="Dcroat" unicode="&#x110;" horiz-adv-x="1327" 
d="M127 1450h545c172 0 307 -41 406 -124c98 -83 147 -195 147 -337v-528c0 -142 -49 -254 -147 -337c-99 -83 -233 -124 -404 -124h-547v623h-180v204h180v623zM973 475v500c0 153 -100 242 -283 242h-311v-390h323v-204h-323v-390h309c185 0 285 89 285 242z" />
    <glyph glyph-name="dslash" unicode="&#x111;" horiz-adv-x="1140" 
d="M1012 1370h137v-203h-137v-1167h-164l-41 82c-74 -74 -176 -111 -307 -111c-273 0 -410 146 -410 439v221c0 292 137 438 410 438c109 0 199 -26 268 -78v176h-258v203h258v207h244v-207zM549 199c130 0 203 61 219 182v278c-17 121 -90 182 -219 183
c-143 0 -215 -75 -215 -224v-198c0 -147 72 -221 215 -221z" />
    <glyph glyph-name="Emacron" unicode="&#x112;" horiz-adv-x="1118" 
d="M215 1819h692v-205h-692v205zM1040 1450v-233h-661v-392h573v-233h-573v-359h661v-233h-913v1450h913z" />
    <glyph glyph-name="emacron" unicode="&#x113;" horiz-adv-x="1081" 
d="M195 1409h692v-205h-692v205zM545 1069c133 0 240 -37 322 -110c81 -74 122 -168 122 -283v-230h-655v-30c0 -161 72 -242 217 -242c55 0 100 13 137 39s55 60 55 102v17h244c0 -112 -39 -200 -118 -264c-79 -65 -185 -97 -318 -97c-146 0 -259 41 -340 123
s-121 192 -121 330v199c0 138 40 247 120 327c80 79 192 119 335 119zM334 633h407v41c0 129 -64 193 -192 192c-141 0 -212 -78 -215 -233z" />
    <glyph glyph-name="Edotaccent" unicode="&#x116;" horiz-adv-x="1118" 
d="M436 1843h250v-260h-250v260zM1040 1450v-233h-661v-392h573v-233h-573v-359h661v-233h-913v1450h913z" />
    <glyph glyph-name="edotaccent" unicode="&#x117;" horiz-adv-x="1081" 
d="M416 1434h250v-260h-250v260zM545 1069c133 0 240 -37 322 -110c81 -74 122 -168 122 -283v-230h-655v-30c0 -161 72 -242 217 -242c55 0 100 13 137 39s55 60 55 102v17h244c0 -112 -39 -200 -118 -264c-79 -65 -185 -97 -318 -97c-146 0 -259 41 -340 123
s-121 192 -121 330v199c0 138 40 247 120 327c80 79 192 119 335 119zM334 633h407v41c0 129 -64 193 -192 192c-141 0 -212 -78 -215 -233z" />
    <glyph glyph-name="Eogonek" unicode="&#x118;" horiz-adv-x="1118" 
d="M1040 1450v-233h-661v-392h573v-233h-573v-359h661v-233c-104 -59 -156 -122 -155 -190c0 -55 30 -82 90 -82c11 0 28 1 53 4v-168c-35 -8 -76 -12 -123 -13c-183 0 -272 53 -272 205c0 89 51 170 153 244h-659v1450h913z" />
    <glyph glyph-name="eogonek" unicode="&#x119;" horiz-adv-x="1081" 
d="M547 1069c131 0 238 -37 320 -110c81 -74 122 -168 122 -283v-230h-655v-30c0 -161 73 -242 219 -242c117 0 192 57 192 150v18h242c0 -59 -10 -112 -31 -160c-21 -49 -45 -87 -70 -114s-49 -62 -71 -104c-22 -41 -33 -85 -33 -132c0 -69 38 -104 115 -104
c11 0 28 1 53 4v-166c-39 -9 -80 -14 -123 -15c-183 0 -272 54 -272 209c0 69 30 143 90 220c-29 -5 -61 -8 -98 -9c-143 0 -255 41 -336 123s-121 192 -121 330v199c0 138 40 247 120 327c80 79 192 119 337 119zM334 633h407v41c0 129 -64 193 -192 192
c-141 0 -212 -78 -215 -233z" />
    <glyph glyph-name="Ecaron" unicode="&#x11a;" horiz-adv-x="1118" 
d="M956 1810l-276 -258h-242l-278 258h278l121 -114l121 114h276zM1040 1450v-233h-661v-392h573v-233h-573v-359h661v-233h-913v1450h913z" />
    <glyph glyph-name="ecaron" unicode="&#x11b;" horiz-adv-x="1081" 
d="M903 1460l-258 -317h-213l-258 317h250l117 -160l114 160h248zM545 1069c133 0 240 -37 322 -110c81 -74 122 -168 122 -283v-230h-655v-30c0 -161 72 -242 217 -242c55 0 100 13 137 39s55 60 55 102v17h244c0 -112 -39 -200 -118 -264c-79 -65 -185 -97 -318 -97
c-146 0 -259 41 -340 123s-121 192 -121 330v199c0 138 40 247 120 327c80 79 192 119 335 119zM334 633h407v41c0 129 -64 193 -192 192c-141 0 -212 -78 -215 -233z" />
    <glyph glyph-name="Gbreve" unicode="&#x11e;" horiz-adv-x="1337" 
d="M896 1623c-59 -54 -135 -81 -228 -81s-169 27 -228 82s-88 125 -88 211h154c0 -88 64 -141 162 -141s163 53 163 141h154c0 -87 -30 -158 -89 -212zM1237 1016v-82h-252v67c0 153 -116 244 -315 244c-203 0 -318 -91 -318 -244v-552c0 -153 116 -244 316 -244
c203 0 317 91 317 244v92h-326v233h578v-340c0 -142 -50 -255 -149 -338c-100 -83 -239 -125 -418 -125s-319 42 -419 125c-101 83 -151 196 -151 338v582c0 142 50 255 150 338c99 83 239 125 418 125s318 -42 419 -125c100 -83 150 -196 150 -338z" />
    <glyph glyph-name="gbreve" unicode="&#x11f;" horiz-adv-x="1140" 
d="M788 1214c-60 -54 -136 -81 -229 -81s-168 27 -227 82c-59 54 -88 124 -88 210h153c0 -88 63 -141 162 -141s164 54 164 141h154c0 -87 -30 -158 -89 -211zM807 958l41 82h164v-1138c0 -119 -39 -215 -117 -290s-191 -112 -340 -112c-142 0 -250 33 -325 99
c-75 67 -116 150 -121 251h243c11 -79 86 -124 201 -124c128 0 215 64 215 184v139c-69 -52 -160 -78 -272 -78c-271 0 -406 146 -406 439v221c0 292 135 438 406 438c134 0 238 -37 311 -111zM549 199c130 0 203 61 219 182v278c-17 121 -90 182 -219 183
c-143 0 -215 -75 -215 -224v-198c0 -147 72 -221 215 -221z" />
    <glyph glyph-name="Gdotaccent" unicode="&#x120;" horiz-adv-x="1337" 
d="M545 1843h250v-260h-250v260zM1237 1016v-82h-252v67c0 153 -116 244 -315 244c-203 0 -318 -91 -318 -244v-552c0 -153 116 -244 316 -244c203 0 317 91 317 244v92h-326v233h578v-340c0 -142 -50 -255 -149 -338c-100 -83 -239 -125 -418 -125s-319 42 -419 125
c-101 83 -151 196 -151 338v582c0 142 50 255 150 338c99 83 239 125 418 125s318 -42 419 -125c100 -83 150 -196 150 -338z" />
    <glyph glyph-name="gdotaccent" unicode="&#x121;" horiz-adv-x="1140" 
d="M436 1434h250v-260h-250v260zM807 958l41 82h164v-1138c0 -119 -39 -215 -117 -290s-191 -112 -340 -112c-142 0 -250 33 -325 99c-75 67 -116 150 -121 251h243c11 -79 86 -124 201 -124c128 0 215 64 215 184v139c-69 -52 -160 -78 -272 -78c-271 0 -406 146 -406 439
v221c0 292 135 438 406 438c134 0 238 -37 311 -111zM549 199c130 0 203 61 219 182v278c-17 121 -90 182 -219 183c-143 0 -215 -75 -215 -224v-198c0 -147 72 -221 215 -221z" />
    <glyph glyph-name="uni0122" unicode="&#x122;" horiz-adv-x="1337" 
d="M1237 1016v-82h-252v67c0 153 -116 244 -315 244c-203 0 -318 -91 -318 -244v-552c0 -153 116 -244 316 -244c203 0 317 91 317 244v92h-326v233h578v-340c0 -142 -50 -255 -149 -338c-100 -83 -239 -125 -418 -125s-319 42 -419 125c-101 83 -151 196 -151 338v582
c0 142 50 255 150 338c99 83 239 125 418 125s318 -42 419 -125c100 -83 150 -196 150 -338zM631 -313h-82v204h239v-198l-124 -201h-107z" />
    <glyph glyph-name="uni0123" unicode="&#x123;" horiz-adv-x="1140" 
d="M600 1354h82v-205h-240v199l125 200h107zM807 958l41 82h164v-1138c0 -119 -39 -215 -117 -290s-191 -112 -340 -112c-142 0 -250 33 -325 99c-75 67 -116 150 -121 251h243c11 -79 86 -124 201 -124c128 0 215 64 215 184v139c-69 -52 -160 -78 -272 -78
c-271 0 -406 146 -406 439v221c0 292 135 438 406 438c134 0 238 -37 311 -111zM549 199c130 0 203 61 219 182v278c-17 121 -90 182 -219 183c-143 0 -215 -75 -215 -224v-198c0 -147 72 -221 215 -221z" />
    <glyph glyph-name="Hbar" unicode="&#x126;" horiz-adv-x="1349" 
d="M1223 1225h129v-205h-129v-1020h-252v592h-592v-592h-252v1020h-131v205h131v225h252v-225h592v225h252v-225zM379 825h592v195h-592v-195z" />
    <glyph glyph-name="hbar" unicode="&#x127;" horiz-adv-x="1157" 
d="M647 1069c245 0 391 -148 391 -465v-604h-243v604c0 156 -82 238 -205 238c-61 0 -112 -18 -153 -53c-41 -36 -63 -87 -66 -154v-635h-242v1167h-141v203h141v207h242v-207h256v-203h-256v-182c72 56 164 84 276 84z" />
    <glyph glyph-name="Imacron" unicode="&#x12a;" horiz-adv-x="505" 
d="M-92 1819h692v-205h-692v205zM379 0h-252v1450h252v-1450z" />
    <glyph glyph-name="imacron" unicode="&#x12b;" horiz-adv-x="505" 
d="M-94 1409h692v-205h-692v205zM375 0h-244v1040h244v-1040z" />
    <glyph glyph-name="Iogonek" unicode="&#x12e;" horiz-adv-x="505" 
d="M379 1450v-1450c-104 -59 -156 -122 -156 -190c0 -55 30 -82 90 -82c11 0 29 1 54 4v-168c-35 -8 -76 -12 -123 -13c-183 0 -273 53 -273 205c0 90 52 172 156 246v1448h252z" />
    <glyph glyph-name="iogonek" unicode="&#x12f;" horiz-adv-x="505" 
d="M127 1174v260h250v-260h-250zM131 8v1032h244v-1040c-104 -59 -156 -122 -156 -190c0 -55 30 -82 90 -82c11 0 28 1 53 4v-168c-35 -8 -76 -12 -122 -13c-183 0 -273 53 -273 205c0 91 55 175 164 252z" />
    <glyph glyph-name="Idot" unicode="&#x130;" horiz-adv-x="505" 
d="M379 1583h-250v260h250v-260zM379 0h-252v1450h252v-1450z" />
    <glyph glyph-name="dotlessi" unicode="&#x131;" horiz-adv-x="505" 
d="M375 0h-244v1040h244v-1040z" />
    <glyph glyph-name="IJ" unicode="&#x132;" horiz-adv-x="1271" 
d="M379 0h-252v1450h252v-1450zM651 0h-110v233h125c153 0 229 105 229 269v948h252v-952c0 -147 -44 -267 -133 -359c-89 -93 -210 -139 -363 -139z" />
    <glyph glyph-name="ij" unicode="&#x133;" horiz-adv-x="1046" 
d="M377 1174h-250v260h250v-260zM915 1174h-247v260h247v-260zM375 0h-244v1040h244v-1040zM555 -471h-113v225h45c74 0 123 18 147 54c24 37 36 92 36 167v1065h243v-1130c0 -133 -33 -229 -100 -290s-153 -91 -258 -91z" />
    <glyph glyph-name="uni0136" unicode="&#x136;" horiz-adv-x="1304" 
d="M1243 1450l-575 -707l594 -743h-316l-567 692v-692h-252v1450h252v-651l545 651h319zM614 -313h-82v204h240v-198l-125 -201h-106z" />
    <glyph glyph-name="uni0137" unicode="&#x137;" horiz-adv-x="1093" 
d="M1071 1040l-438 -483l442 -557h-291l-409 508v-508h-244v1577h244v-969l397 432h299zM502 -313h-82v204h239v-198l-124 -201h-107z" />
    <glyph glyph-name="Lacute" unicode="&#x139;" horiz-adv-x="1093" 
d="M362 1855h308l-283 -303h-260zM379 1450v-1217h672v-233h-924v1450h252z" />
    <glyph glyph-name="lacute" unicode="&#x13a;" horiz-adv-x="505" 
d="M360 1982h308l-283 -303h-260zM131 0v1577h244v-1577h-244z" />
    <glyph glyph-name="uni013B" unicode="&#x13b;" horiz-adv-x="1093" 
d="M379 1450v-1217h672v-233h-924v1450h252zM508 -313h-82v204h240v-198l-125 -201h-107z" />
    <glyph glyph-name="uni013C" unicode="&#x13c;" horiz-adv-x="505" 
d="M131 0v1577h244v-1577h-244zM213 -313h-82v204h240v-198l-125 -201h-107z" />
    <glyph glyph-name="Lcaron" unicode="&#x13d;" horiz-adv-x="1093" 
d="M807 1475h233l-77 -416h-222zM379 1450v-1217h672v-233h-924v1450h252z" />
    <glyph glyph-name="lcaron" unicode="&#x13e;" horiz-adv-x="667" 
d="M131 0v1577h244v-1577h-244zM500 1577h233l-78 -416h-221z" />
    <glyph glyph-name="Ldot" unicode="&#x13f;" horiz-adv-x="1103" 
d="M379 1450v-1217h672v-233h-924v1450h252zM698 885h240v-281h-240v281z" />
    <glyph glyph-name="ldot" unicode="&#x140;" horiz-adv-x="712" 
d="M131 0v1577h244v-1577h-244zM741 641h-243v281h243v-281z" />
    <glyph glyph-name="Lslash" unicode="&#x141;" horiz-adv-x="1093" 
d="M379 586v-353h672v-233h-924v496l-164 -58v240l164 57v715h252v-625l422 150v-240z" />
    <glyph glyph-name="lslash" unicode="&#x142;" horiz-adv-x="505" 
d="M375 942l157 92v-260l-157 -92v-682h-244v539l-162 -97v260l162 97v778h244v-635z" />
    <glyph glyph-name="Nacute" unicode="&#x143;" horiz-adv-x="1296" 
d="M758 1855h307l-283 -303h-260zM932 463v987h237v-1450h-237l-570 981v-981h-235v1450h235z" />
    <glyph glyph-name="nacute" unicode="&#x144;" horiz-adv-x="1157" 
d="M668 1495h278l-256 -352h-231zM645 1069c248 0 393 -148 393 -465v-604h-243v606c0 156 -79 236 -207 236c-60 0 -110 -18 -151 -53c-41 -36 -63 -87 -66 -152v-637h-242v1040h158l45 -90c77 79 182 119 313 119z" />
    <glyph glyph-name="uni0145" unicode="&#x145;" horiz-adv-x="1296" 
d="M932 463v987h237v-1450h-237l-570 981v-981h-235v1450h235zM610 -313h-82v204h240v-198l-125 -201h-106z" />
    <glyph glyph-name="uni0146" unicode="&#x146;" horiz-adv-x="1157" 
d="M645 1069c248 0 393 -148 393 -465v-604h-243v606c0 156 -79 236 -207 236c-60 0 -110 -18 -151 -53c-41 -36 -63 -87 -66 -152v-637h-242v1040h158l45 -90c77 79 182 119 313 119zM539 -313h-82v204h239v-198l-125 -201h-106z" />
    <glyph glyph-name="Ncaron" unicode="&#x147;" horiz-adv-x="1296" 
d="M1044 1810l-276 -258h-242l-278 258h278l121 -114l121 114h276zM932 463v987h237v-1450h-237l-570 981v-981h-235v1450h235z" />
    <glyph glyph-name="ncaron" unicode="&#x148;" horiz-adv-x="1157" 
d="M940 1460l-258 -317h-213l-258 317h250l117 -160l114 160h248zM645 1069c248 0 393 -148 393 -465v-604h-243v606c0 156 -79 236 -207 236c-60 0 -110 -18 -151 -53c-41 -36 -63 -87 -66 -152v-637h-242v1040h158l45 -90c77 79 182 119 313 119z" />
    <glyph glyph-name="Eng" unicode="&#x14a;" horiz-adv-x="1296" 
d="M930 469v981h239v-1354c0 -146 -44 -263 -132 -351s-209 -132 -363 -132h-94v229h108c125 0 207 69 232 174l-555 961v-977h-238v1450h238z" />
    <glyph glyph-name="eng" unicode="&#x14b;" horiz-adv-x="1157" 
d="M645 1069c248 0 393 -148 393 -465v-694c0 -133 -33 -229 -99 -290s-152 -91 -259 -91h-113v225h45c74 0 123 18 147 54c24 37 36 92 36 167v631c0 156 -79 236 -207 236c-60 0 -110 -18 -151 -53c-41 -36 -63 -87 -66 -152v-637h-242v1040h164l41 -88
c76 78 180 117 311 117z" />
    <glyph glyph-name="Omacron" unicode="&#x14c;" horiz-adv-x="1349" 
d="M328 1819h692v-205h-692v205zM1098 95c-100 -83 -241 -124 -422 -124c-182 0 -323 41 -424 124s-152 196 -152 339v580c0 143 50 257 151 340c100 83 241 125 423 125c181 0 322 -42 423 -125c100 -83 150 -197 150 -340v-580c0 -143 -50 -256 -149 -339zM352 999v-550
c0 -163 107 -244 322 -244c214 0 321 81 321 244v550c0 164 -106 246 -319 246c-216 0 -324 -82 -324 -246z" />
    <glyph glyph-name="omacron" unicode="&#x14d;" horiz-adv-x="1101" 
d="M205 1409h692v-205h-692v205zM890 89c-80 -79 -193 -118 -339 -118s-259 39 -340 118s-121 187 -121 325v213c0 138 40 246 120 325c80 78 193 117 339 117c147 0 261 -39 341 -117c80 -79 120 -187 120 -325v-213c0 -138 -40 -246 -120 -325zM549 197
c145 0 217 75 217 225v196c0 150 -72 225 -215 226c-145 0 -217 -75 -217 -226v-196c0 -150 72 -225 215 -225z" />
    <glyph glyph-name="Ohungarumlaut" unicode="&#x150;" horiz-adv-x="1349" 
d="M551 1808h229l-192 -256h-215zM956 1808h232l-195 -256h-215zM1098 95c-100 -83 -241 -124 -422 -124c-182 0 -323 41 -424 124s-152 196 -152 339v580c0 143 50 257 151 340c100 83 241 125 423 125c181 0 322 -42 423 -125c100 -83 150 -197 150 -340v-580
c0 -143 -50 -256 -149 -339zM352 999v-550c0 -163 107 -244 322 -244c214 0 321 81 321 244v550c0 164 -106 246 -319 246c-216 0 -324 -82 -324 -246z" />
    <glyph glyph-name="ohungarumlaut" unicode="&#x151;" horiz-adv-x="1101" 
d="M387 1413h221l-151 -270h-205zM791 1413h221l-152 -270h-205zM890 89c-80 -79 -193 -118 -339 -118s-259 39 -340 118s-121 187 -121 325v213c0 138 40 246 120 325c80 78 193 117 339 117c147 0 261 -39 341 -117c80 -79 120 -187 120 -325v-213
c0 -138 -40 -246 -120 -325zM549 197c145 0 217 75 217 225v196c0 150 -72 225 -215 226c-145 0 -217 -75 -217 -226v-196c0 -150 72 -225 215 -225z" />
    <glyph glyph-name="OE" unicode="&#x152;" horiz-adv-x="1988" 
d="M1909 1217h-662v-392h576v-233h-576v-359h662v-233h-914v33c-86 -41 -192 -61 -319 -62c-181 0 -323 41 -424 124s-152 196 -152 339v580c0 143 50 257 151 340c100 83 241 125 423 125c124 0 231 -21 321 -62v33h914v-233zM352 999v-550c0 -163 107 -244 322 -244
c214 0 321 81 321 244v550c0 164 -106 246 -319 246c-216 0 -324 -82 -324 -246z" />
    <glyph glyph-name="oe" unicode="&#x153;" horiz-adv-x="1744" 
d="M1212 1069c133 0 240 -37 322 -110c82 -74 123 -168 123 -283v-230h-647v-32c0 -13 -1 -35 -4 -66c21 -116 92 -174 213 -174c55 0 100 13 137 39s55 60 55 102v17h244c0 -112 -40 -200 -119 -264c-79 -65 -185 -97 -317 -97c-141 0 -251 38 -332 115
c-81 -77 -193 -115 -336 -115c-146 0 -259 39 -340 118s-121 187 -121 325v213c0 138 40 246 120 325c80 78 193 117 339 117c142 0 254 -38 336 -113c79 75 188 113 327 113zM1010 633h399v41c0 129 -64 193 -192 192c-121 0 -192 -57 -211 -172c3 -27 4 -48 4 -61z
M549 197c123 0 194 54 213 161c-3 27 -4 49 -4 66v199c0 27 1 48 2 61c-17 107 -86 160 -209 160c-145 0 -217 -75 -217 -226v-196c0 -150 72 -225 215 -225z" />
    <glyph glyph-name="Racute" unicode="&#x154;" horiz-adv-x="1269" 
d="M743 1855h308l-283 -303h-260zM1196 0h-262l-236 559h-319v-559h-252v1450h588c142 0 255 -36 338 -108c83 -73 125 -171 125 -295v-84c0 -169 -83 -298 -228 -361zM733 1217h-354v-424h352c125 0 195 58 195 161v101c0 108 -64 162 -193 162z" />
    <glyph glyph-name="racute" unicode="&#x155;" horiz-adv-x="753" 
d="M463 1495h278l-256 -352h-231zM293 1040l47 -94c83 77 187 115 311 115c12 0 29 -1 51 -4v-215c-35 9 -67 14 -96 14c-67 0 -122 -19 -167 -58s-68 -96 -68 -171v-627h-242v1040h164z" />
    <glyph glyph-name="uni0156" unicode="&#x156;" horiz-adv-x="1269" 
d="M950 602l246 -602h-262l-236 559h-319v-559h-252v1450h588c142 0 255 -36 338 -108c83 -73 125 -171 125 -295v-84c0 -169 -83 -298 -228 -361zM733 1217h-354v-424h352c125 0 195 58 195 161v101c0 108 -64 162 -193 162zM602 -313h-82v204h240v-198l-125 -201h-107z
" />
    <glyph glyph-name="uni0157" unicode="&#x157;" horiz-adv-x="753" 
d="M651 1061c12 0 29 -1 51 -4v-215c-35 9 -67 14 -96 14c-67 0 -122 -19 -167 -58s-68 -96 -68 -171v-627h-242v1040h164l47 -94c83 77 187 115 311 115zM406 -313h-82v204h239v-198l-125 -201h-106z" />
    <glyph glyph-name="Rcaron" unicode="&#x158;" horiz-adv-x="1269" 
d="M1030 1810l-276 -258h-242l-279 258h279l121 -114l121 114h276zM1196 0h-262l-236 559h-319v-559h-252v1450h588c142 0 255 -36 338 -108c83 -73 125 -171 125 -295v-84c0 -169 -83 -298 -228 -361zM733 1217h-354v-424h352c125 0 195 58 195 161v101
c0 108 -64 162 -193 162z" />
    <glyph glyph-name="rcaron" unicode="&#x159;" horiz-adv-x="753" 
d="M735 1460l-258 -317h-213l-258 317h250l117 -160l114 160h248zM293 1040l47 -94c83 77 187 115 311 115c12 0 29 -1 51 -4v-215c-35 9 -67 14 -96 14c-67 0 -122 -19 -167 -58s-68 -96 -68 -171v-627h-242v1040h164z" />
    <glyph glyph-name="Sacute" unicode="&#x15a;" horiz-adv-x="1269" 
d="M743 1855h308l-283 -303h-260zM643 -29c-175 0 -312 42 -411 127c-100 85 -150 196 -150 334v53h252v-67c0 -64 30 -116 89 -155c59 -40 135 -60 226 -60c81 0 148 18 203 53s82 85 82 150c0 84 -66 145 -163 179s-218 60 -334 101s-217 92 -277 194
c-30 51 -45 111 -45 181c0 121 43 221 129 300s215 118 387 118s303 -39 393 -117s135 -182 135 -313v-66h-252v72c0 56 -26 102 -77 137c-52 35 -120 53 -203 53c-78 0 -141 -16 -188 -48c-48 -32 -72 -75 -72 -130c0 -41 20 -75 60 -104s91 -51 152 -66s127 -34 198 -57
s136 -49 197 -78s112 -73 153 -132s61 -130 61 -212c0 -131 -48 -239 -143 -322c-96 -83 -230 -125 -402 -125z" />
    <glyph glyph-name="sacute" unicode="&#x15b;" horiz-adv-x="972" 
d="M575 1495h279l-256 -352h-231zM492 -29c-130 0 -233 32 -310 97c-77 64 -116 149 -116 254v22h241v-22c0 -84 80 -138 197 -138c101 0 170 42 170 107c0 34 -20 61 -60 81c-41 19 -90 36 -148 49s-116 28 -174 47s-107 50 -147 95c-41 44 -61 101 -61 170
c0 101 37 183 112 244c74 61 172 92 293 92c124 0 223 -31 298 -94s112 -145 112 -246v-20h-242v20c0 76 -64 127 -168 127c-101 0 -165 -46 -165 -106c0 -31 20 -56 61 -74s90 -33 147 -46s115 -29 174 -48c58 -19 107 -52 148 -98c41 -47 61 -106 61 -177
c0 -108 -40 -191 -121 -249s-182 -87 -302 -87z" />
    <glyph glyph-name="Scedilla" unicode="&#x15e;" horiz-adv-x="1269" 
d="M1188 418c0 -120 -40 -221 -121 -302s-195 -128 -344 -141l-61 -299h-263l111 306c-135 22 -240 73 -315 154c-75 80 -113 179 -113 296v53h252v-67c0 -64 30 -116 89 -155c59 -40 135 -60 226 -60c81 0 148 18 203 53s82 85 82 150c0 84 -66 145 -163 179
s-218 60 -334 101s-217 92 -277 194c-30 51 -45 111 -45 181c0 121 43 221 129 300s215 118 387 118s303 -39 393 -117s135 -182 135 -313v-66h-252v72c0 56 -26 102 -77 137c-52 35 -120 53 -203 53c-78 0 -141 -16 -188 -48c-48 -32 -72 -75 -72 -130
c0 -41 20 -75 60 -104s91 -51 152 -66s127 -34 198 -57s136 -49 197 -78s112 -73 153 -132s61 -130 61 -212z" />
    <glyph glyph-name="scedilla" unicode="&#x15f;" horiz-adv-x="972" 
d="M915 307c0 -94 -31 -169 -94 -225s-144 -91 -243 -105l-62 -301h-262l111 308c-93 19 -166 59 -219 119s-80 133 -80 219v22h241v-22c0 -84 80 -138 197 -138c101 0 170 42 170 107c0 34 -20 61 -60 81c-41 19 -90 36 -148 49s-116 28 -174 47s-107 50 -147 95
c-41 44 -61 101 -61 170c0 101 37 183 112 244c74 61 172 92 293 92c124 0 223 -31 298 -94s112 -145 112 -246v-20h-242v20c0 76 -64 127 -168 127c-101 0 -165 -46 -165 -106c0 -31 20 -56 61 -74s90 -33 147 -46s115 -29 174 -48c58 -19 107 -52 148 -99s61 -105 61 -176
z" />
    <glyph glyph-name="Scaron" unicode="&#x160;" horiz-adv-x="1269" 
d="M1030 1810l-276 -258h-242l-279 258h279l121 -114l121 114h276zM367 1067c0 -41 20 -75 60 -104s91 -51 152 -66s127 -34 198 -57s136 -49 197 -78s112 -73 153 -132s61 -130 61 -212c0 -131 -48 -239 -143 -322c-96 -83 -230 -125 -402 -125c-175 0 -312 42 -411 127
c-100 85 -150 196 -150 334v53h252v-67c0 -64 30 -116 89 -155c59 -40 135 -60 226 -60c81 0 148 18 203 53s82 85 82 150c0 84 -66 145 -163 179s-218 60 -334 101s-217 92 -277 194c-30 51 -45 111 -45 181c0 121 43 221 129 300s215 118 387 118s303 -39 393 -117
s135 -182 135 -313v-66h-252v72c0 56 -26 102 -77 137c-52 35 -120 53 -203 53c-78 0 -141 -16 -188 -48c-48 -32 -72 -75 -72 -130z" />
    <glyph glyph-name="scaron" unicode="&#x161;" horiz-adv-x="972" 
d="M848 1460l-258 -317h-213l-258 317h250l116 -160l115 160h248zM324 750c0 -31 20 -56 61 -74s90 -33 147 -46s115 -29 174 -48c58 -19 107 -52 148 -98c41 -47 61 -106 61 -177c0 -108 -40 -191 -121 -249s-182 -87 -302 -87c-130 0 -233 32 -310 97
c-77 64 -116 149 -116 254v22h241v-22c0 -84 80 -138 197 -138c101 0 170 42 170 107c0 34 -20 61 -60 81c-41 19 -90 36 -148 49s-116 28 -174 47s-107 50 -147 95c-41 44 -61 101 -61 170c0 101 37 183 112 244c74 61 172 92 293 92c124 0 223 -31 298 -94
s112 -145 112 -246v-20h-242v20c0 76 -64 127 -168 127c-101 0 -165 -46 -165 -106z" />
    <glyph glyph-name="uni0162" unicode="&#x162;" horiz-adv-x="1126" 
d="M18 1450h1088v-233h-418v-1217h-16l-66 -324h-264l117 324h-21v1217h-420v233z" />
    <glyph glyph-name="uni0163" unicode="&#x163;" horiz-adv-x="720" 
d="M582 225h96v-225h-148h-8l-67 -324h-262l133 367c-111 57 -166 173 -166 348v424h-140v225h140v297h243v-297h261v-225h-261v-377c1 -142 60 -213 179 -213z" />
    <glyph glyph-name="Tcaron" unicode="&#x164;" horiz-adv-x="1126" 
d="M958 1810l-276 -258h-242l-278 258h278l121 -114l121 114h276zM18 1450h1088v-233h-418v-1217h-250v1217h-420v233z" />
    <glyph glyph-name="tcaron" unicode="&#x165;" horiz-adv-x="882" 
d="M506 1192l65 416h234l-78 -416h-221zM403 815v-377c0 -142 60 -213 179 -213h96v-225h-148c-247 0 -371 130 -370 391v424h-140v225h140v297h243v-297h261v-225h-261z" />
    <glyph glyph-name="Tbar" unicode="&#x166;" horiz-adv-x="1126" 
d="M1106 1450v-233h-418v-390h252v-204h-252v-623h-250v623h-254v204h254v390h-420v233h1088z" />
    <glyph glyph-name="tbar" unicode="&#x167;" horiz-adv-x="720" 
d="M582 225h96v-225h-148c-247 0 -371 130 -370 391v74h-137v203h137v147h-140v225h140v297h243v-297h261v-225h-261v-147h259v-203h-259v-27c1 -142 60 -213 179 -213z" />
    <glyph glyph-name="Umacron" unicode="&#x16a;" horiz-adv-x="1310" 
d="M309 1819h692v-205h-692v205zM657 -29c-175 0 -311 42 -409 125c-99 83 -148 196 -148 338v1016h252v-1001c0 -156 104 -244 304 -244c199 0 302 88 302 244v1001h252v-1016c0 -142 -49 -255 -146 -338c-98 -83 -234 -125 -407 -125z" />
    <glyph glyph-name="umacron" unicode="&#x16b;" horiz-adv-x="1124" 
d="M217 1409h692v-205h-692v205zM752 403v637h243v-1040h-159l-41 84c-74 -75 -171 -113 -291 -113c-257 0 -385 154 -385 463v606h243v-606c0 -157 64 -236 191 -235c56 0 103 18 141 53c37 35 57 86 58 151z" />
    <glyph glyph-name="Uring" unicode="&#x16e;" horiz-adv-x="1310" 
d="M471 1962c48 45 110 68 185 68s136 -23 184 -69c47 -46 71 -105 71 -177c0 -71 -24 -129 -71 -174c-48 -45 -109 -68 -184 -68s-137 23 -185 68s-72 103 -72 174c0 73 24 132 72 178zM731 1851c-19 17 -45 25 -76 25s-56 -8 -75 -25s-29 -40 -29 -67s10 -49 29 -65
c19 -17 44 -25 75 -25s57 8 76 25c19 16 29 38 29 65s-10 50 -29 67zM657 -29c-175 0 -311 42 -409 125c-99 83 -148 196 -148 338v1016h252v-1001c0 -156 104 -244 304 -244c199 0 302 88 302 244v1001h252v-1016c0 -142 -49 -255 -146 -338c-98 -83 -234 -125 -407 -125z
" />
    <glyph glyph-name="uring" unicode="&#x16f;" horiz-adv-x="1124" 
d="M748 1201c-48 -45 -109 -68 -184 -68s-137 23 -185 68s-72 102 -72 173c0 73 24 132 72 178c48 45 110 68 185 68s136 -23 184 -68c47 -46 71 -105 71 -178c0 -71 -24 -128 -71 -173zM639 1441c-19 17 -45 25 -76 25s-56 -8 -75 -25s-29 -40 -29 -67s10 -49 29 -65
c19 -17 44 -25 75 -25s57 8 76 25c19 16 29 38 29 65s-10 50 -29 67zM752 403v637h243v-1040h-159l-41 84c-74 -75 -171 -113 -291 -113c-257 0 -385 154 -385 463v606h243v-606c0 -157 64 -236 191 -235c56 0 103 18 141 53c37 35 57 86 58 151z" />
    <glyph glyph-name="Uhungarumlaut" unicode="&#x170;" horiz-adv-x="1310" 
d="M532 1808h230l-193 -256h-215zM938 1808h231l-194 -256h-215zM657 -29c-175 0 -311 42 -409 125c-99 83 -148 196 -148 338v1016h252v-1001c0 -156 104 -244 304 -244c199 0 302 88 302 244v1001h252v-1016c0 -142 -49 -255 -146 -338c-98 -83 -234 -125 -407 -125z" />
    <glyph glyph-name="uhungarumlaut" unicode="&#x171;" horiz-adv-x="1124" 
d="M399 1413h222l-152 -270h-205zM803 1413h221l-152 -270h-204zM752 403v637h243v-1040h-159l-41 84c-74 -75 -171 -113 -291 -113c-257 0 -385 154 -385 463v606h243v-606c0 -157 64 -236 191 -235c56 0 103 18 141 53c37 35 57 86 58 151z" />
    <glyph glyph-name="Uogonek" unicode="&#x172;" horiz-adv-x="1310" 
d="M958 449v1001h252v-1016c0 -157 -57 -277 -172 -358l4 -2c-109 -81 -170 -185 -170 -258c0 -59 36 -88 107 -88c22 0 40 1 53 4v-168c-35 -8 -76 -12 -123 -13c-183 0 -272 56 -272 211c0 59 35 130 104 213c-35 -3 -63 -4 -84 -4c-175 0 -311 42 -409 125
c-99 83 -148 196 -148 338v1016h252v-1001c0 -156 104 -244 304 -244c199 0 302 88 302 244z" />
    <glyph glyph-name="uogonek" unicode="&#x173;" horiz-adv-x="1124" 
d="M995 1040v-1040c-103 -60 -154 -123 -153 -190c0 -55 30 -82 90 -82c8 0 26 1 53 4v-168c-35 -8 -77 -12 -125 -13c-183 0 -270 53 -270 205c0 108 76 201 229 279l-28 57c-79 -81 -175 -121 -287 -121c-116 0 -209 38 -279 115c-71 77 -106 193 -106 348v606h243v-606
c0 -157 64 -236 191 -235c56 0 103 18 141 53c37 35 57 86 58 151v637h243z" />
    <glyph glyph-name="Wcircumflex" unicode="&#x174;" horiz-adv-x="1890" 
d="M1069 1552l-121 115l-121 -115h-276l276 258h242l279 -258h-279zM1333 272l256 1178h264l-344 -1448h-335l-228 961l-231 -961h-336l-344 1448h266l258 -1180l266 1180h230z" />
    <glyph glyph-name="wcircumflex" unicode="&#x175;" horiz-adv-x="1411" 
d="M825 1143l-114 160l-117 -160h-248l258 317h213l258 -317h-250zM987 254l156 786h248l-254 -1040h-252l-178 567l-181 -567h-252l-254 1040h248l156 -786l184 786h193z" />
    <glyph glyph-name="Ycircumflex" unicode="&#x176;" horiz-adv-x="1236" 
d="M741 1552l-120 115l-121 -115h-277l277 258h241l279 -258h-279zM928 1450h272l-457 -942v-508h-251v512l-457 938h276l310 -645z" />
    <glyph glyph-name="ycircumflex" unicode="&#x177;" horiz-adv-x="1126" 
d="M684 1143l-115 160l-116 -160h-248l258 317h213l258 -317h-250zM756 403v637h243v-1138c0 -119 -38 -215 -114 -290c-77 -75 -187 -112 -332 -112c-138 0 -243 33 -316 99c-73 67 -112 150 -116 251h244c8 -79 77 -124 184 -124c123 0 207 64 207 184v137
c-67 -51 -149 -76 -248 -76c-245 0 -387 150 -387 463v606h244v-606c0 -157 64 -236 192 -235c55 0 101 18 139 53c37 35 57 86 60 151z" />
    <glyph glyph-name="Ydieresis" unicode="&#x178;" horiz-adv-x="1236" 
d="M301 1823h225v-240h-225v240zM709 1823h227v-240h-227v240zM928 1450h272l-457 -942v-508h-251v512l-457 938h276l310 -645z" />
    <glyph glyph-name="Zacute" unicode="&#x179;" horiz-adv-x="1155" 
d="M686 1855h307l-282 -303h-260zM1083 1202l-723 -969h736v-233h-1039v246l725 971h-688v233h989v-248z" />
    <glyph glyph-name="zacute" unicode="&#x17a;" horiz-adv-x="976" 
d="M580 1495h278l-256 -352h-231zM98 1040h811v-184l-510 -631h510v-225h-841v184l510 631h-480v225z" />
    <glyph glyph-name="Zdotaccent" unicode="&#x17b;" horiz-adv-x="1155" 
d="M453 1843h249v-260h-249v260zM1083 1202l-723 -969h736v-233h-1039v246l725 971h-688v233h989v-248z" />
    <glyph glyph-name="zdotaccent" unicode="&#x17c;" horiz-adv-x="976" 
d="M365 1434h249v-260h-249v260zM98 1040h811v-184l-510 -631h510v-225h-841v184l510 631h-480v225z" />
    <glyph glyph-name="Zcaron" unicode="&#x17d;" horiz-adv-x="1155" 
d="M973 1810l-277 -258h-241l-279 258h279l120 -114l121 114h277zM1083 1202l-723 -969h736v-233h-1039v246l725 971h-688v233h989v-248z" />
    <glyph glyph-name="zcaron" unicode="&#x17e;" horiz-adv-x="976" 
d="M852 1460l-258 -317h-213l-258 317h250l116 -160l115 160h248zM98 1040h811v-184l-510 -631h510v-225h-841v184l510 631h-480v225z" />
    <glyph glyph-name="uni01CD" unicode="&#x1cd;" horiz-adv-x="1296" 
d="M1044 1810l-276 -258h-242l-278 258h278l121 -114l121 114h276zM1260 0h-250l-99 311h-528l-100 -311h-248l434 1450h358zM840 545l-193 641l-192 -641h385z" />
    <glyph glyph-name="uni01CE" unicode="&#x1ce;" horiz-adv-x="1140" 
d="M924 1460l-258 -317h-213l-258 317h249l117 -160l115 160h248zM807 958l41 82h164v-1040h-164l-41 82c-74 -74 -178 -111 -311 -111c-271 0 -406 146 -406 439v221c0 292 135 438 406 438c134 0 238 -37 311 -111zM549 199c130 0 203 61 219 182v278
c-17 121 -90 182 -219 183c-143 0 -215 -75 -215 -224v-196c0 -149 72 -223 215 -223z" />
    <glyph glyph-name="uni01CF" unicode="&#x1cf;" horiz-adv-x="505" 
d="M649 1810l-276 -258h-242l-278 258h278l121 -114l121 114h276zM379 0h-252v1450h252v-1450z" />
    <glyph glyph-name="uni01D0" unicode="&#x1d0;" horiz-adv-x="505" 
d="M614 1460l-258 -317h-213l-258 317h250l117 -160l115 160h247zM375 0h-244v1040h244v-1040z" />
    <glyph glyph-name="uni01D1" unicode="&#x1d1;" horiz-adv-x="1349" 
d="M1069 1810l-276 -258h-242l-279 258h279l121 -114l121 114h276zM251 1354c100 83 241 125 423 125c181 0 322 -42 423 -125c100 -83 150 -197 150 -340v-580c0 -143 -50 -256 -149 -339c-100 -83 -241 -124 -422 -124c-182 0 -323 41 -424 124s-152 196 -152 339v580
c0 143 50 257 151 340zM995 449v550c0 164 -106 246 -319 246c-216 0 -324 -82 -324 -246v-550c0 -163 107 -244 322 -244c214 0 321 81 321 244z" />
    <glyph glyph-name="uni01D2" unicode="&#x1d2;" horiz-adv-x="1101" 
d="M913 1460l-258 -317h-213l-258 317h250l117 -160l115 160h247zM549 1069c147 0 261 -39 341 -117c80 -79 120 -187 120 -325v-213c0 -138 -40 -246 -120 -325s-193 -118 -339 -118s-259 39 -340 118s-121 187 -121 325v213c0 138 40 246 120 325c80 78 193 117 339 117z
M766 422v196c0 150 -72 225 -215 226c-145 0 -217 -75 -217 -226v-196c0 -150 72 -225 215 -225c145 0 217 75 217 225z" />
    <glyph glyph-name="uni01D3" unicode="&#x1d3;" horiz-adv-x="1310" 
d="M1051 1810l-277 -258h-242l-278 258h278l121 -114l121 114h277zM958 449v1001h252v-1016c0 -142 -49 -255 -146 -338s-233 -125 -407 -125c-175 0 -311 42 -409 125c-99 83 -148 196 -148 338v1016h252v-1001c0 -156 104 -244 304 -244c199 0 302 88 302 244z" />
    <glyph glyph-name="uni01D4" unicode="&#x1d4;" horiz-adv-x="1124" 
d="M926 1460l-258 -317h-213l-258 317h249l117 -160l115 160h248zM752 403v637h243v-1040h-159l-41 84c-74 -75 -171 -113 -291 -113c-257 0 -385 154 -385 463v606h243v-606c0 -157 64 -236 191 -235c56 0 103 18 141 53c37 35 57 86 58 151z" />
    <glyph glyph-name="uni0218" unicode="&#x218;" horiz-adv-x="1269" 
d="M367 1067c0 -41 20 -75 60 -104s91 -51 152 -66s127 -34 198 -57s136 -49 197 -78s112 -73 153 -132s61 -130 61 -212c0 -131 -48 -239 -143 -322c-96 -83 -230 -125 -402 -125c-175 0 -312 42 -411 127c-100 85 -150 196 -150 334v53h252v-67c0 -64 30 -116 89 -155
c59 -40 135 -60 226 -60c81 0 148 18 203 53s82 85 82 150c0 84 -66 145 -163 179s-218 60 -334 101s-217 92 -277 194c-30 51 -45 111 -45 181c0 121 43 221 129 300s215 118 387 118s303 -39 393 -117s135 -182 135 -313v-66h-252v72c0 56 -26 102 -77 137
c-52 35 -120 53 -203 53c-78 0 -141 -16 -188 -48c-48 -32 -72 -75 -72 -130zM596 -313h-82v204h240v-198l-125 -201h-107z" />
    <glyph glyph-name="uni0219" unicode="&#x219;" horiz-adv-x="972" 
d="M324 750c0 -31 20 -56 61 -74s90 -33 147 -46s115 -29 174 -48c58 -19 107 -52 148 -98c41 -47 61 -106 61 -177c0 -108 -40 -191 -121 -249s-182 -87 -302 -87c-130 0 -233 32 -310 97c-77 64 -116 149 -116 254v22h241v-22c0 -84 80 -138 197 -138
c101 0 170 42 170 107c0 34 -20 61 -60 81c-41 19 -90 36 -148 49s-116 28 -174 47s-107 50 -147 95c-41 44 -61 101 -61 170c0 101 37 183 112 244c74 61 172 92 293 92c124 0 223 -31 298 -94s112 -145 112 -246v-20h-242v20c0 76 -64 127 -168 127
c-101 0 -165 -46 -165 -106zM451 -313h-82v204h239v-198l-125 -201h-106z" />
    <glyph glyph-name="uni021A" unicode="&#x21a;" horiz-adv-x="1126" 
d="M18 1450h1088v-233h-418v-1217h-250v1217h-420v233zM520 -313h-82v204h240v-198l-125 -201h-107z" />
    <glyph glyph-name="uni021B" unicode="&#x21b;" horiz-adv-x="720" 
d="M582 225h96v-225h-148c-247 0 -371 130 -370 391v424h-140v225h140v297h243v-297h261v-225h-261v-377c1 -142 60 -213 179 -213zM389 -313h-82v204h240v-198l-125 -201h-107z" />
    <glyph glyph-name="uni0237" unicode="&#x237;" horiz-adv-x="542" 
d="M49 -471h-112v225h45c74 0 123 18 147 54c23 37 35 92 35 167v1065h244v-1130c0 -133 -33 -229 -100 -290s-154 -91 -259 -91z" />
    <glyph glyph-name="circumflex" unicode="&#x2c6;" horiz-adv-x="841" 
d="M526 1460l258 -317h-249l-115 160l-117 -160h-248l258 317h213z" />
    <glyph glyph-name="caron" unicode="&#x2c7;" horiz-adv-x="839" 
d="M418 1300l114 160h248l-258 -317h-213l-258 317h250z" />
    <glyph glyph-name="breve" unicode="&#x2d8;" horiz-adv-x="745" 
d="M597 1214c-59 -54 -135 -81 -228 -81s-169 27 -228 82c-59 54 -88 124 -88 210h154c0 -88 64 -141 162 -141s163 54 163 141h154c0 -87 -30 -158 -89 -211z" />
    <glyph glyph-name="dotaccent" unicode="&#x2d9;" horiz-adv-x="360" 
d="M301 1174h-250v260h250v-260z" />
    <glyph glyph-name="ring" unicode="&#x2da;" 
d="M138 1552c47 45 109 68 184 68s136 -23 184 -68c48 -46 72 -105 72 -178c0 -71 -24 -128 -72 -173s-109 -68 -184 -68s-137 23 -184 68c-48 45 -72 102 -72 173c0 73 24 132 72 178zM398 1441c-19 17 -45 25 -76 25c-32 0 -57 -8 -76 -25s-29 -40 -29 -67s10 -49 29 -65
c19 -17 44 -25 76 -25c31 0 57 8 76 25c19 16 28 38 28 65s-9 50 -28 67z" />
    <glyph glyph-name="ogonek" unicode="&#x2db;" horiz-adv-x="413" 
d="M379 -268v-168c-35 -8 -76 -12 -123 -13c-183 0 -272 53 -272 205c0 112 89 229 274 314l133 -70c-104 -59 -156 -122 -155 -190c0 -55 30 -82 90 -82c11 0 28 1 53 4z" />
    <glyph glyph-name="tilde" unicode="&#x2dc;" horiz-adv-x="778" 
d="M604 1444h178c0 -205 -69 -291 -200 -291c-49 0 -104 18 -163 55c-59 36 -100 54 -122 54c-48 0 -72 -36 -72 -109h-176c0 194 66 291 199 291c48 0 102 -18 162 -54c60 -37 101 -55 122 -55c48 0 72 36 72 109z" />
    <glyph glyph-name="hungarumlaut" unicode="&#x2dd;" horiz-adv-x="802" 
d="M195 1413h221l-152 -270h-205zM598 1413h221l-151 -270h-205z" />
    <glyph glyph-name="gravecomb" unicode="&#x300;" horiz-adv-x="0" 
d="M-291 1143l-254 352h279l209 -352h-234z" />
    <glyph glyph-name="acutecomb" unicode="&#x301;" horiz-adv-x="0" 
d="M-336 1495h279l-256 -352h-232z" />
    <glyph glyph-name="uni0302" unicode="&#x302;" horiz-adv-x="0" 
d="M-334 1460l258 -317h-250l-114 160l-117 -160h-248l258 317h213z" />
    <glyph glyph-name="tildecomb" unicode="&#x303;" horiz-adv-x="0" 
d="M-229 1444h178c0 -205 -70 -291 -201 -291c-49 0 -104 18 -163 55c-59 36 -100 54 -122 54c-48 0 -72 -36 -71 -109h-176c0 194 66 291 198 291c48 0 102 -18 162 -54c60 -37 101 -55 123 -55c48 0 72 36 72 109z" />
    <glyph glyph-name="uni0304" unicode="&#x304;" horiz-adv-x="0" 
d="M-760 1409h692v-205h-692v205z" />
    <glyph glyph-name="uni0306" unicode="&#x306;" horiz-adv-x="0" 
d="M-163 1214c-59 -54 -135 -81 -228 -81s-169 27 -228 82c-59 54 -88 124 -88 210h154c0 -88 63 -141 162 -141s164 54 164 141h153c0 -87 -30 -158 -89 -211z" />
    <glyph glyph-name="uni0307" unicode="&#x307;" horiz-adv-x="0" 
d="M-68 1174h-249v260h249v-260z" />
    <glyph glyph-name="uni0308" unicode="&#x308;" horiz-adv-x="0" 
d="M-461 1174h-225v239h225v-239zM-51 1174h-228v239h228v-239z" />
    <glyph glyph-name="uni030A" unicode="&#x30a;" horiz-adv-x="0" 
d="M-512 1552c48 45 109 68 184 68s137 -23 184 -68c48 -46 72 -105 72 -178c0 -71 -24 -128 -72 -173c-47 -45 -109 -68 -184 -68s-136 23 -184 68s-72 102 -72 173c0 73 24 132 72 178zM-252 1441c-19 17 -45 25 -76 25s-57 -8 -76 -25s-28 -40 -28 -67s9 -49 28 -65
c19 -17 45 -25 76 -25s57 8 76 25c19 16 29 38 29 65s-10 50 -29 67z" />
    <glyph glyph-name="uni030B" unicode="&#x30b;" horiz-adv-x="0" 
d="M-639 1413h221l-151 -270h-205zM-236 1413h222l-152 -270h-205z" />
    <glyph glyph-name="uni030C" unicode="&#x30c;" horiz-adv-x="0" 
d="M-444 1300l114 160h248l-258 -317h-213l-258 317h250z" />
    <glyph glyph-name="uni0326" unicode="&#x326;" horiz-adv-x="0" 
d="M-336 -313v204h240v-198l-125 -201h-107l74 195h-82z" />
    <glyph glyph-name="uni0327" unicode="&#x327;" horiz-adv-x="0" 
d="M-211 -324h-262l135 375h205z" />
    <glyph glyph-name="uni0328" unicode="&#x328;" horiz-adv-x="0" 
d="M-162 -268v-168c-35 -8 -76 -12 -123 -13c-183 0 -272 53 -272 205c0 112 89 229 274 314l133 -70c-104 -59 -156 -122 -155 -190c0 -55 30 -82 90 -82c11 0 28 1 53 4z" />
    <glyph glyph-name="uni0338" unicode="&#x338;" horiz-adv-x="0" 
d="M-201 1249l-612 -1261l-207 106l614 1262z" />
    <glyph glyph-name="uni0394" unicode="&#x394;" horiz-adv-x="1269" 
d="M455 1450h360l399 -1217v-233h-1159v233zM956 233l-321 957l-322 -957h643z" />
    <glyph glyph-name="uni03A9" unicode="&#x3a9;" horiz-adv-x="1359" 
d="M1163 233h117v-233h-532v233c159 21 238 102 237 244v522c0 164 -101 246 -303 246c-205 0 -307 -82 -307 -246v-522c0 -142 78 -223 235 -244v-233h-532v233h117c-48 63 -72 137 -72 224v557c0 143 49 257 147 340c97 83 235 125 412 125c175 0 311 -42 408 -125
s145 -197 145 -340v-557c0 -87 -24 -161 -72 -224z" />
    <glyph glyph-name="uni03BC" unicode="&#x3bc;" horiz-adv-x="1132" 
d="M1083 203c15 0 32 2 50 6v-227c-31 -7 -66 -10 -103 -11c-108 0 -183 42 -225 127c-71 -85 -171 -127 -301 -127c-55 0 -102 9 -142 27v-469h-243v1511h243v-606c0 -157 64 -236 191 -235c112 0 194 74 199 202v639h243v-655c0 -131 20 -182 88 -182z" />
    <glyph glyph-name="pi" unicode="&#x3c0;" horiz-adv-x="1181" 
d="M1126 1040v-225h-139v-430c0 -131 17 -182 88 -182c15 0 32 2 49 6v-227c-31 -7 -65 -10 -102 -11c-186 0 -279 128 -279 383v461h-325v-815h-244v815h-123v225h1075z" />
    <glyph glyph-name="uni0401" unicode="&#x401;" horiz-adv-x="1118" 
d="M244 1823h225v-240h-225v240zM651 1823h228v-240h-228v240zM1040 1450v-233h-661v-392h573v-233h-573v-359h661v-233h-913v1450h913z" />
    <glyph glyph-name="uni0402" unicode="&#x402;" horiz-adv-x="1460" 
d="M877 1001c151 0 270 -41 356 -122c86 -82 129 -195 129 -340v-97c0 -133 -46 -239 -139 -320s-216 -122 -367 -122h-129v233h139c74 0 133 20 178 59c44 39 66 91 66 157v83c0 157 -87 236 -262 236c-177 0 -273 -85 -273 -246v-522h-251v1217h-281v233h930v-233h-398
v-293c77 51 178 77 302 77z" />
    <glyph glyph-name="uni0403" unicode="&#x403;" horiz-adv-x="1093" 
d="M651 1855h307l-282 -303h-260zM127 1450h924v-233h-672v-1217h-252v1450z" />
    <glyph glyph-name="uni0404" unicode="&#x404;" horiz-adv-x="1337" 
d="M1237 1016v-113h-264v98c0 156 -102 244 -303 244c-208 0 -318 -91 -318 -244v-147h426v-236h-426v-169c0 -156 108 -244 316 -244c203 0 305 88 305 244v100h264v-115c0 -142 -50 -255 -149 -338c-100 -83 -239 -125 -418 -125s-319 42 -419 125
c-101 83 -151 196 -151 338v582c0 142 50 255 150 338c99 83 239 125 418 125s318 -42 419 -125c100 -83 150 -196 150 -338z" />
    <glyph glyph-name="uni0405" unicode="&#x405;" horiz-adv-x="1269" 
d="M643 -29c-175 0 -312 42 -411 127c-100 85 -150 196 -150 334v53h252v-67c0 -64 30 -116 89 -155c59 -40 135 -60 226 -60c81 0 148 18 203 53s82 85 82 150c0 84 -66 145 -163 179s-218 60 -334 101s-217 92 -277 194c-30 51 -45 111 -45 181c0 121 43 221 129 300
s215 118 387 118s303 -39 393 -117s135 -182 135 -313v-66h-252v72c0 56 -26 102 -77 137c-52 35 -120 53 -203 53c-78 0 -141 -16 -188 -48c-48 -32 -72 -75 -72 -130c0 -41 20 -75 60 -104s91 -51 152 -66s127 -34 198 -57s136 -49 197 -78s112 -73 153 -132
s61 -130 61 -212c0 -131 -48 -239 -143 -322c-96 -83 -230 -125 -402 -125z" />
    <glyph glyph-name="uni0406" unicode="&#x406;" horiz-adv-x="505" 
d="M379 0h-252v1450h252v-1450z" />
    <glyph glyph-name="uni0407" unicode="&#x407;" horiz-adv-x="505" 
d="M162 1583h-225v240h225v-240zM571 1583h-227v240h227v-240zM379 0h-252v1450h252v-1450z" />
    <glyph glyph-name="uni0408" unicode="&#x408;" horiz-adv-x="765" 
d="M145 0h-110v233h125c153 0 229 105 229 269v948h252v-952c0 -147 -44 -267 -133 -359c-89 -93 -210 -139 -363 -139z" />
    <glyph glyph-name="uni0409" unicode="&#x409;" horiz-adv-x="2152" 
d="M1274 932h338c142 0 254 -36 337 -109s124 -172 124 -297v-120c0 -124 -42 -223 -125 -296s-195 -110 -336 -110h-590v1217h-399l-72 -719c-15 -157 -64 -280 -147 -367s-195 -131 -334 -131h-25v233h37c136 0 196 86 215 269l96 948h881v-518zM1821 397v138
c0 104 -70 163 -195 163h-352v-465h354c125 0 193 60 193 164z" />
    <glyph glyph-name="uni040A" unicode="&#x40a;" horiz-adv-x="2101" 
d="M1223 932h338c142 0 254 -36 337 -109c82 -73 123 -172 123 -297v-120c0 -124 -41 -223 -124 -296s-196 -110 -338 -110h-588v592h-592v-592h-252v1450h252v-625h592v625h252v-518zM1769 397v138c0 104 -69 163 -194 163h-352v-465h354c125 0 192 60 192 164z" />
    <glyph glyph-name="uni040B" unicode="&#x40b;" horiz-adv-x="1460" 
d="M827 1001h117c271 0 418 -147 418 -411v-590h-252v567c0 133 -68 199 -203 199h-119c-142 0 -213 -66 -213 -199v-567h-251v1217h-281v233h930v-233h-398v-281c67 44 151 66 252 65z" />
    <glyph glyph-name="uni040C" unicode="&#x40c;" horiz-adv-x="1304" 
d="M762 1855h307l-283 -303h-260zM668 743l594 -743h-316l-567 692v-692h-252v1450h252v-651l545 651h319z" />
    <glyph glyph-name="uni040E" unicode="&#x40e;" horiz-adv-x="1253" 
d="M859 1623c-59 -54 -135 -81 -228 -81s-168 27 -227 82s-89 125 -89 211h154c0 -88 63 -141 162 -141s164 53 164 141h153c0 -87 -30 -158 -89 -212zM627 795l317 655h273l-709 -1450h-272l251 518l-452 932h276z" />
    <glyph glyph-name="uni040F" unicode="&#x40f;" horiz-adv-x="1349" 
d="M971 233v1217h252v-1450h-422v-276h-252v276h-422v1450h252v-1217h592z" />
    <glyph glyph-name="uni0410" unicode="&#x410;" horiz-adv-x="1296" 
d="M1260 0h-250l-99 311h-528l-100 -311h-248l434 1450h358zM840 545l-193 641l-192 -641h385z" />
    <glyph glyph-name="uni0411" unicode="&#x411;" horiz-adv-x="1257" 
d="M379 930h338c142 0 254 -37 337 -110c83 -74 124 -173 124 -298v-116c0 -124 -42 -223 -125 -296s-196 -110 -338 -110h-588v1450h954v-233h-702v-287zM926 397v133c0 104 -70 164 -195 164h-352v-461h354c125 0 193 60 193 164z" />
    <glyph glyph-name="uni0412" unicode="&#x412;" horiz-adv-x="1265" 
d="M1020 764c101 -63 160 -168 160 -283v-96c0 -113 -39 -206 -118 -277c-79 -72 -180 -108 -304 -108h-631v1450h588c125 0 227 -32 306 -95s118 -148 118 -253v-101c0 -98 -40 -177 -119 -237zM721 1225h-342v-371h340c101 0 168 50 168 145v97c0 81 -67 129 -166 129z
M928 377v104c0 93 -62 150 -166 150h-383v-406h381c104 0 168 59 168 152z" />
    <glyph glyph-name="uni0413" unicode="&#x413;" horiz-adv-x="1093" 
d="M127 1450h924v-233h-672v-1217h-252v1450z" />
    <glyph glyph-name="uni0414" unicode="&#x414;" horiz-adv-x="1554" 
d="M1305 1450v-1217h206v-509h-251v276h-965v-276h-252v509h70c133 0 195 86 215 269l96 948h881zM506 233h547v984h-400l-71 -719c-10 -100 -35 -188 -76 -265z" />
    <glyph glyph-name="uni0415" unicode="&#x415;" horiz-adv-x="1118" 
d="M1040 1450v-233h-661v-392h573v-233h-573v-359h661v-233h-913v1450h913z" />
    <glyph glyph-name="uni0416" unicode="&#x416;" horiz-adv-x="2103" 
d="M1466 743l594 -743h-315l-567 694v-694h-252v692l-568 -692h-315l594 743l-576 707h318l547 -651v651h252v-653l546 653h318z" />
    <glyph glyph-name="uni0417" unicode="&#x417;" horiz-adv-x="1280" 
d="M1044 752c89 -71 133 -162 134 -275v-96c0 -127 -48 -227 -143 -300c-96 -73 -228 -110 -396 -110c-165 0 -296 38 -393 115s-146 180 -146 309v70h252v-78c0 -117 102 -182 287 -182c191 0 287 57 287 170v96c0 105 -70 158 -209 158h-268v225h243c138 0 207 50 207 150
v77c0 109 -90 164 -270 164c-167 0 -258 -65 -258 -182v-78h-252v70c0 130 46 233 137 310c91 76 215 114 371 114c163 0 291 -35 384 -105c93 -71 140 -168 140 -293v-84c-1 -97 -36 -178 -107 -245z" />
    <glyph glyph-name="uni0418" unicode="&#x418;" horiz-adv-x="1325" 
d="M362 432l601 1018h237v-1450h-237v1016l-601 -1016h-235v1450h235v-1018z" />
    <glyph glyph-name="uni0419" unicode="&#x419;" horiz-adv-x="1325" 
d="M890 1623c-59 -54 -135 -81 -228 -81s-169 27 -228 82s-88 125 -88 211h154c0 -88 64 -141 162 -141s163 53 163 141h154c0 -87 -30 -158 -89 -212zM362 432l601 1018h237v-1450h-237v1016l-601 -1016h-235v1450h235v-1018z" />
    <glyph glyph-name="uni041A" unicode="&#x41a;" horiz-adv-x="1304" 
d="M668 743l594 -743h-316l-567 692v-692h-252v1450h252v-651l545 651h319z" />
    <glyph glyph-name="uni041B" unicode="&#x41b;" horiz-adv-x="1400" 
d="M393 1450h881v-1450h-252v1217h-397l-76 -746c-17 -165 -58 -285 -123 -359c-65 -75 -163 -112 -293 -112h-88v233h37c133 0 196 82 215 269z" />
    <glyph glyph-name="uni041C" unicode="&#x41c;" horiz-adv-x="1572" 
d="M1133 1450h313v-1450h-229v1061l-340 -1061h-181l-340 1061v-1061h-229v1450h313l346 -983z" />
    <glyph glyph-name="uni041D" unicode="&#x41d;" horiz-adv-x="1349" 
d="M971 825v625h252v-1450h-252v592h-592v-592h-252v1450h252v-625h592z" />
    <glyph glyph-name="uni041E" unicode="&#x41e;" horiz-adv-x="1349" 
d="M1098 95c-100 -83 -241 -124 -422 -124c-182 0 -323 41 -424 124s-152 196 -152 339v580c0 143 50 257 151 340c100 83 241 125 423 125c181 0 322 -42 423 -125c100 -83 150 -197 150 -340v-580c0 -143 -50 -256 -149 -339zM352 999v-550c0 -163 107 -244 322 -244
c214 0 321 81 321 244v550c0 164 -106 246 -319 246c-216 0 -324 -82 -324 -246z" />
    <glyph glyph-name="uni041F" unicode="&#x41f;" horiz-adv-x="1349" 
d="M127 1450h1096v-1450h-252v1217h-592v-1217h-252v1450z" />
    <glyph glyph-name="uni0420" unicode="&#x420;" horiz-adv-x="1257" 
d="M127 1450h588c142 0 255 -36 338 -109s125 -172 125 -297v-145c0 -124 -41 -222 -124 -295s-195 -110 -337 -110h-338v-494h-252v1450zM926 893v158c0 107 -68 166 -193 166h-354v-490h352c125 0 195 59 195 166z" />
    <glyph glyph-name="uni0421" unicode="&#x421;" horiz-adv-x="1337" 
d="M1088 96c-100 -83 -239 -125 -418 -125s-319 42 -419 125c-101 83 -151 196 -151 338v582c0 142 50 255 150 338c99 83 239 125 418 125s318 -42 419 -125c100 -83 150 -196 150 -338v-113h-264v98c0 156 -102 244 -303 244c-208 0 -318 -91 -318 -244v-552
c0 -156 108 -244 316 -244c203 0 305 88 305 244v100h264v-115c0 -142 -50 -255 -149 -338z" />
    <glyph glyph-name="uni0422" unicode="&#x422;" horiz-adv-x="1126" 
d="M18 1450h1088v-233h-418v-1217h-250v1217h-420v233z" />
    <glyph glyph-name="uni0423" unicode="&#x423;" horiz-adv-x="1253" 
d="M627 795l317 655h273l-709 -1450h-272l251 518l-452 932h276z" />
    <glyph glyph-name="uni0424" unicode="&#x424;" horiz-adv-x="1796" 
d="M1024 1260h231c142 0 255 -37 338 -110s125 -172 125 -296v-172c0 -125 -41 -225 -124 -298s-195 -110 -337 -110h-233v-274h-252v274h-231c-142 0 -254 37 -337 110s-124 173 -124 298v172c0 124 42 223 125 296s196 110 338 110h229v190h252v-190zM526 508h246v518
h-248c-125 0 -192 -60 -192 -164v-188c0 -104 69 -166 194 -166zM1466 674v188c0 104 -69 164 -194 164h-248v-518h248c125 0 194 62 194 166z" />
    <glyph glyph-name="uni0425" unicode="&#x425;" horiz-adv-x="1277" 
d="M952 1450h283l-451 -731l441 -719h-293l-303 498l-310 -498h-278l440 737l-436 713h293l303 -494z" />
    <glyph glyph-name="uni0426" unicode="&#x426;" horiz-adv-x="1472" 
d="M1223 1450v-1217h207v-509h-252v276h-1051v1450h252v-1217h592v1217h252z" />
    <glyph glyph-name="uni0427" unicode="&#x427;" horiz-adv-x="1263" 
d="M885 928v522h252v-1450h-252v524c-75 -51 -174 -76 -297 -75c-154 0 -274 39 -360 118c-87 78 -130 190 -130 336v547h252v-518c0 -167 89 -250 268 -250c172 0 267 85 267 246z" />
    <glyph glyph-name="uni0428" unicode="&#x428;" horiz-adv-x="1996" 
d="M1618 233v1217h252v-1450h-1743v1450h252v-1217h493v1217h252v-1217h494z" />
    <glyph glyph-name="uni0429" unicode="&#x429;" horiz-adv-x="2158" 
d="M1870 1450v-1217h246v-509h-252v276h-1737v1450h252v-1217h493v1217h252v-1217h494v1217h252z" />
    <glyph glyph-name="uni042A" unicode="&#x42a;" horiz-adv-x="1454" 
d="M575 932h338c142 0 254 -36 337 -109s124 -172 124 -297v-120c0 -124 -42 -223 -125 -296s-196 -110 -338 -110h-587v1217h-281v233h532v-518zM1122 397v138c0 104 -69 163 -194 163h-353v-465h355c125 0 192 60 192 164z" />
    <glyph glyph-name="uni042B" unicode="&#x42b;" horiz-adv-x="1726" 
d="M379 932h338c142 0 254 -36 337 -109s124 -172 124 -297v-120c0 -124 -42 -223 -125 -296s-196 -110 -338 -110h-588v1450h252v-518zM1348 0v1450h251v-1450h-251zM926 397v138c0 104 -70 163 -195 163h-352v-465h354c125 0 193 60 193 164z" />
    <glyph glyph-name="uni042C" unicode="&#x42c;" horiz-adv-x="1257" 
d="M379 932h338c142 0 254 -36 337 -109s124 -172 124 -297v-120c0 -124 -42 -223 -125 -296s-196 -110 -338 -110h-588v1450h252v-518zM926 397v138c0 104 -70 163 -195 163h-352v-465h354c125 0 193 60 193 164z" />
    <glyph glyph-name="uni042D" unicode="&#x42d;" horiz-adv-x="1337" 
d="M251 1354c100 83 240 125 419 125s318 -42 418 -125c99 -83 149 -196 149 -338v-582c0 -142 -50 -255 -150 -338c-101 -83 -240 -125 -419 -125s-319 42 -418 125c-100 83 -150 196 -150 338v115h265v-100c0 -156 102 -244 305 -244c208 0 315 88 315 244v169h-426v236
h426v147c0 153 -110 244 -317 244c-203 0 -303 -88 -303 -244v-98h-265v113c0 142 50 255 151 338z" />
    <glyph glyph-name="uni042E" unicode="&#x42e;" horiz-adv-x="1968" 
d="M872 1354c100 83 241 125 423 125c181 0 322 -42 423 -125c100 -83 150 -197 150 -340v-580c0 -143 -50 -256 -149 -339c-100 -83 -241 -124 -422 -124c-182 0 -323 41 -424 124s-152 196 -152 339v158h-342v-592h-252v1450h252v-625h342v189c0 143 50 257 151 340z
M1616 449v550c0 164 -107 246 -320 246c-216 0 -324 -82 -323 -246v-550c0 -163 107 -244 322 -244c214 0 321 81 321 244z" />
    <glyph glyph-name="uni042F" unicode="&#x42f;" horiz-adv-x="1269" 
d="M555 1450h588v-1450h-252v559h-320l-235 -559h-262l245 602c-145 63 -227 192 -227 361v84c0 124 42 222 125 295c83 72 196 108 338 108zM539 793h352v424h-352c-130 0 -195 -54 -195 -162v-101c0 -104 70 -161 195 -161z" />
    <glyph glyph-name="uni0430" unicode="&#x430;" horiz-adv-x="1140" 
d="M807 958l41 82h164v-1040h-164l-41 82c-74 -74 -178 -111 -311 -111c-271 0 -406 146 -406 439v221c0 292 135 438 406 438c134 0 238 -37 311 -111zM549 199c130 0 203 61 219 182v278c-17 121 -90 182 -219 183c-143 0 -215 -75 -215 -224v-196
c0 -149 72 -223 215 -223z" />
    <glyph glyph-name="uni0431" unicode="&#x431;" horiz-adv-x="1101" 
d="M592 1069c276 0 418 -155 418 -442v-213c0 -139 -40 -248 -121 -326s-193 -117 -338 -117s-258 39 -339 118s-122 187 -122 325v600c0 260 123 389 395 422l101 12c115 16 155 50 155 129h244c0 -121 -26 -207 -79 -256s-154 -83 -304 -102l-92 -13
c-67 -8 -113 -26 -138 -53s-38 -71 -38 -131v-27c67 49 153 74 258 74zM766 420v201c0 149 -72 223 -215 223c-145 0 -217 -74 -217 -223v-201c0 -149 72 -223 215 -223c145 0 217 74 217 223z" />
    <glyph glyph-name="uni0432" unicode="&#x432;" horiz-adv-x="1089" 
d="M881 563c89 -41 133 -123 133 -246v-12c0 -203 -112 -305 -336 -305h-549v1040h500c229 0 338 -90 338 -278v-14c0 -77 -29 -138 -86 -185zM614 838h-243v-207h243c73 0 109 30 109 90v27c0 60 -36 90 -109 90zM770 301v29c0 65 -35 98 -106 98h-293v-225h293
c71 0 106 33 106 98z" />
    <glyph glyph-name="uni0433" unicode="&#x433;" horiz-adv-x="868" 
d="M129 1040h698v-225h-456v-815h-242v1040z" />
    <glyph glyph-name="uni0434" unicode="&#x434;" horiz-adv-x="1241" 
d="M1063 1040v-815h137v-501h-244v276h-671v-276h-244v501h35c104 0 151 61 168 213l61 602h758zM428 225h391v590h-295l-39 -369c-8 -97 -27 -170 -57 -221z" />
    <glyph glyph-name="uni0435" unicode="&#x435;" horiz-adv-x="1081" 
d="M545 1069c133 0 240 -37 322 -110c81 -74 122 -168 122 -283v-230h-655v-30c0 -161 72 -242 217 -242c55 0 100 13 137 39s55 60 55 102v17h244c0 -112 -39 -200 -118 -264c-79 -65 -185 -97 -318 -97c-146 0 -259 41 -340 123s-121 192 -121 330v199
c0 138 40 247 120 327c80 79 192 119 335 119zM334 633h407v41c0 129 -64 193 -192 192c-141 0 -212 -78 -215 -233z" />
    <glyph glyph-name="uni0436" unicode="&#x436;" horiz-adv-x="1683" 
d="M1221 557l444 -557h-293l-409 508v-508h-242v508l-410 -508h-293l445 557l-440 483h299l399 -432v432h242v-432l399 432h299z" />
    <glyph glyph-name="uni0437" unicode="&#x437;" horiz-adv-x="1060" 
d="M846 545c83 -44 125 -120 125 -228v-16c0 -208 -160 -330 -439 -330c-281 0 -442 125 -442 342v35h242v-41c0 -86 68 -129 205 -129c127 0 190 40 190 121v23c0 73 -39 104 -135 104h-186v205h165c96 0 134 29 134 100v19c0 75 -60 113 -179 112
c-125 0 -188 -41 -188 -123v-37h-240v31c0 213 157 336 426 336c131 0 235 -28 311 -83c75 -55 113 -131 113 -226v-19c0 -85 -34 -151 -102 -196z" />
    <glyph glyph-name="uni0438" unicode="&#x438;" horiz-adv-x="1171" 
d="M371 371l422 669h249v-1040h-243v668l-420 -668h-250v1040h242v-669z" />
    <glyph glyph-name="uni0439" unicode="&#x439;" horiz-adv-x="1171" 
d="M812 1214c-59 -54 -135 -81 -228 -81s-169 27 -228 82c-59 54 -88 124 -88 210h154c0 -88 64 -141 162 -141s164 54 164 141h153c0 -87 -30 -158 -89 -211zM371 371l422 669h249v-1040h-243v668l-420 -668h-250v1040h242v-669z" />
    <glyph glyph-name="uni043A" unicode="&#x43a;" horiz-adv-x="1091" 
d="M629 557l444 -557h-293l-409 508v-508h-242v1040h242v-432l399 432h299z" />
    <glyph glyph-name="uni043B" unicode="&#x43b;" horiz-adv-x="1179" 
d="M293 1040h758v-1040h-244v815h-295l-49 -471c-12 -127 -43 -216 -92 -267s-129 -77 -238 -77h-92v225h33c52 0 89 14 112 42c22 28 36 79 43 153z" />
    <glyph glyph-name="uni043C" unicode="&#x43c;" horiz-adv-x="1392" 
d="M696 391l246 649h322v-1040h-244v686l-258 -686h-131l-260 690v-690h-242v1040h322z" />
    <glyph glyph-name="uni043D" unicode="&#x43d;" horiz-adv-x="1167" 
d="M795 643v397h243v-1040h-243v420h-424v-420h-242v1040h242v-397h424z" />
    <glyph glyph-name="uni043E" unicode="&#x43e;" horiz-adv-x="1101" 
d="M890 89c-80 -79 -193 -118 -339 -118s-259 39 -340 118s-121 187 -121 325v213c0 138 40 246 120 325c80 78 193 117 339 117c147 0 261 -39 341 -117c80 -79 120 -187 120 -325v-213c0 -138 -40 -246 -120 -325zM549 197c145 0 217 75 217 225v196
c0 150 -72 225 -215 226c-145 0 -217 -75 -217 -226v-196c0 -150 72 -225 215 -225z" />
    <glyph glyph-name="uni043F" unicode="&#x43f;" horiz-adv-x="1167" 
d="M129 1040h909v-1040h-243v815h-424v-815h-242v1040z" />
    <glyph glyph-name="uni0440" unicode="&#x440;" horiz-adv-x="1140" 
d="M641 1069c273 0 410 -146 410 -438v-221c0 -292 -137 -438 -410 -439c-111 0 -201 27 -270 80v-522h-242v1511h164l41 -82c73 74 176 111 307 111zM807 420v198c0 149 -72 223 -215 224c-133 0 -216 -69 -221 -205v-234c5 -136 90 -204 221 -204c143 0 215 74 215 221z
" />
    <glyph glyph-name="uni0441" unicode="&#x441;" horiz-adv-x="1075" 
d="M543 -29c-142 0 -253 40 -333 119s-120 187 -120 324v213c0 138 40 246 119 325c79 78 191 117 334 117c135 0 243 -38 323 -114c79 -77 119 -180 119 -310v-24h-246v30c0 123 -73 193 -196 193c-139 0 -209 -75 -209 -226v-196c0 -150 70 -225 209 -225
c123 0 196 69 196 192v31h246v-25c0 -130 -40 -233 -119 -309c-80 -77 -188 -115 -323 -115z" />
    <glyph glyph-name="uni0442" unicode="&#x442;" horiz-adv-x="966" 
d="M41 1040h883v-225h-320v-815h-244v815h-319v225z" />
    <glyph glyph-name="uni0443" unicode="&#x443;" horiz-adv-x="1126" 
d="M756 403v637h243v-1138c0 -119 -38 -215 -114 -290c-77 -75 -187 -112 -332 -112c-138 0 -243 33 -316 99c-73 67 -112 150 -116 251h244c8 -79 77 -124 184 -124c123 0 207 64 207 184v137c-67 -51 -149 -76 -248 -76c-245 0 -387 150 -387 463v606h244v-606
c0 -157 64 -236 192 -235c55 0 101 18 139 53c37 35 57 86 60 151z" />
    <glyph glyph-name="uni0444" unicode="&#x444;" horiz-adv-x="1781" 
d="M1282 1069c273 0 410 -146 410 -438v-221c0 -292 -137 -438 -410 -439c-111 0 -201 27 -270 80v-522h-244v520c-69 -52 -159 -78 -268 -78c-273 0 -410 146 -410 439v221c0 292 137 438 410 438c109 0 199 -26 268 -78v459h244v-461c69 53 159 80 270 80zM549 199
c130 0 203 61 219 182v278c-17 121 -90 182 -219 183c-143 0 -215 -75 -215 -224v-198c0 -147 72 -221 215 -221zM1448 420v198c0 149 -72 223 -215 224c-133 0 -216 -69 -221 -205v-234c5 -136 90 -204 221 -204c143 0 215 74 215 221z" />
    <glyph glyph-name="uni0445" unicode="&#x445;" horiz-adv-x="1026" 
d="M735 1040h269l-359 -516l354 -524h-278l-219 324l-213 -324h-262l342 524l-349 516h277l215 -319z" />
    <glyph glyph-name="uni0446" unicode="&#x446;" horiz-adv-x="1218" 
d="M1038 225h140v-501h-244v276h-805v1040h242v-815h424v815h243v-815z" />
    <glyph glyph-name="uni0447" unicode="&#x447;" horiz-adv-x="1124" 
d="M752 682v358h243v-1040h-243v346c-68 -49 -151 -74 -250 -74c-248 0 -383 140 -383 400v368h243v-323c0 -151 59 -217 187 -217c112 0 188 70 203 182z" />
    <glyph glyph-name="uni0448" unicode="&#x448;" horiz-adv-x="1673" 
d="M1303 225v815h243v-1040h-1417v1040h242v-815h344v815h243v-815h345z" />
    <glyph glyph-name="uni0449" unicode="&#x449;" horiz-adv-x="1724" 
d="M1546 225h137v-501h-243v276h-1311v1040h242v-815h344v815h243v-815h345v815h243v-815z" />
    <glyph glyph-name="uni044A" unicode="&#x44a;" horiz-adv-x="1120" 
d="M449 700h243c235 0 367 -118 367 -327v-47c0 -211 -132 -326 -367 -326h-487v815h-180v225h424v-340zM815 340v18c0 78 -45 117 -135 117h-231v-250h231c90 0 135 38 135 115z" />
    <glyph glyph-name="uni044B" unicode="&#x44b;" horiz-adv-x="1480" 
d="M371 700h245c235 0 367 -118 367 -327v-47c0 -211 -131 -326 -367 -326h-487v1040h242v-340zM1110 0v1040h244v-1040h-244zM739 340v18c0 78 -45 117 -135 117h-233v-250h233c90 0 135 38 135 115z" />
    <glyph glyph-name="uni044C" unicode="&#x44c;" horiz-adv-x="1044" 
d="M371 700h245c235 0 367 -118 367 -327v-47c0 -211 -131 -326 -367 -326h-487v1040h242v-340zM739 340v18c0 78 -45 117 -135 117h-233v-250h233c90 0 135 38 135 115z" />
    <glyph glyph-name="uni044D" unicode="&#x44d;" horiz-adv-x="1075" 
d="M532 1069c142 0 253 -40 333 -119s120 -187 120 -323v-213c0 -138 -40 -246 -120 -325s-192 -118 -335 -118c-135 0 -242 38 -321 115s-119 180 -119 309v25h246v-39c0 -123 73 -193 196 -193c139 0 209 75 209 224v8h-268v223h268c-4 139 -74 209 -211 209
c-123 0 -194 -69 -194 -193v-38h-246v24c0 130 40 233 120 310c79 76 187 114 322 114z" />
    <glyph glyph-name="uni044E" unicode="&#x44e;" horiz-adv-x="1589" 
d="M1038 1069c147 0 261 -39 341 -117c80 -79 120 -187 120 -325v-213c0 -138 -40 -246 -119 -325c-80 -79 -193 -118 -339 -118c-147 0 -260 39 -340 118c-81 79 -121 187 -121 325v14h-209v-428h-242v1040h242v-387h209c5 130 48 232 128 306c79 73 189 110 330 110z
M1255 422v196c0 150 -72 225 -215 226c-145 0 -217 -75 -217 -226v-196c0 -150 72 -225 215 -225c145 0 217 75 217 225z" />
    <glyph glyph-name="uni044F" unicode="&#x44f;" horiz-adv-x="1110" 
d="M465 1040h516v-1040h-244v348h-227l-152 -348h-256l160 397c-90 55 -135 148 -135 279v37c0 211 122 327 338 327zM504 573h233v242h-233c-89 0 -133 -39 -133 -117v-8c0 -78 44 -117 133 -117z" />
    <glyph glyph-name="uni0451" unicode="&#x451;" horiz-adv-x="1081" 
d="M223 1413h226v-239h-226v239zM631 1413h227v-239h-227v239zM545 1069c133 0 240 -37 322 -110c81 -74 122 -168 122 -283v-230h-655v-30c0 -161 72 -242 217 -242c55 0 100 13 137 39s55 60 55 102v17h244c0 -112 -39 -200 -118 -264c-79 -65 -185 -97 -318 -97
c-146 0 -259 41 -340 123s-121 192 -121 330v199c0 138 40 247 120 327c80 79 192 119 335 119zM334 633h407v41c0 129 -64 193 -192 192c-141 0 -212 -78 -215 -233z" />
    <glyph glyph-name="uni0452" unicode="&#x452;" horiz-adv-x="1169" 
d="M659 1069c245 0 392 -148 392 -465v-694c0 -133 -33 -229 -99 -290c-67 -61 -153 -91 -260 -91h-112v225h45c74 0 123 18 147 54c23 37 35 92 35 167v629c0 156 -82 238 -205 238c-61 0 -112 -18 -153 -53c-41 -36 -63 -87 -66 -154v-635h-242v1167h-141v205h141v205h242
v-205h258v-205h-258v-182c72 56 164 84 276 84z" />
    <glyph glyph-name="uni0453" unicode="&#x453;" horiz-adv-x="868" 
d="M530 1495h279l-256 -352h-231zM129 1040h698v-225h-456v-815h-242v1040z" />
    <glyph glyph-name="uni0454" unicode="&#x454;" horiz-adv-x="1075" 
d="M985 645v-24h-246v30c0 123 -73 193 -196 193c-131 0 -201 -67 -209 -201h256v-223h-256c0 -149 70 -223 209 -223c123 0 196 69 196 192v31h246v-25c0 -130 -40 -233 -120 -309c-80 -77 -187 -115 -322 -115c-142 0 -253 40 -333 119s-120 187 -120 324v213
c0 138 40 246 119 325c79 78 191 117 334 117c135 0 243 -38 323 -114c79 -77 119 -180 119 -310z" />
    <glyph glyph-name="uni0455" unicode="&#x455;" horiz-adv-x="972" 
d="M492 -29c-130 0 -233 32 -310 97c-77 64 -116 149 -116 254v22h241v-22c0 -84 80 -138 197 -138c101 0 170 42 170 107c0 34 -20 61 -60 81c-41 19 -90 36 -148 49s-116 28 -174 47s-107 50 -147 95c-41 44 -61 101 -61 170c0 101 37 183 112 244c74 61 172 92 293 92
c124 0 223 -31 298 -94s112 -145 112 -246v-20h-242v20c0 76 -64 127 -168 127c-101 0 -165 -46 -165 -106c0 -31 20 -56 61 -74s90 -33 147 -46s115 -29 174 -48c58 -19 107 -52 148 -98c41 -47 61 -106 61 -177c0 -108 -40 -191 -121 -249s-182 -87 -302 -87z" />
    <glyph glyph-name="uni0456" unicode="&#x456;" horiz-adv-x="505" 
d="M377 1174h-250v260h250v-260zM375 0h-244v1040h244v-1040z" />
    <glyph glyph-name="uni0457" unicode="&#x457;" horiz-adv-x="505" 
d="M160 1174h-226v239h226v-239zM569 1174h-227v239h227v-239zM375 0h-244v1040h244v-1040z" />
    <glyph glyph-name="uni0458" unicode="&#x458;" horiz-adv-x="540" 
d="M410 1174h-248v260h248v-260zM49 -471h-112v225h45c74 0 123 18 147 54c23 37 35 92 35 167v1065h244v-1130c0 -133 -33 -229 -100 -290s-154 -91 -259 -91z" />
    <glyph glyph-name="uni0459" unicode="&#x459;" horiz-adv-x="1718" 
d="M1047 700h243c235 0 367 -118 367 -327v-47c0 -211 -132 -326 -367 -326h-487v815h-295l-43 -424c-27 -273 -142 -391 -377 -391h-47v225h18c104 0 152 61 168 213l62 602h758v-340zM1413 340v18c0 78 -45 117 -135 117h-231v-250h231c90 0 135 38 135 115z" />
    <glyph glyph-name="uni045A" unicode="&#x45a;" horiz-adv-x="1712" 
d="M1038 700h246c235 0 365 -118 365 -327v-47c0 -211 -130 -326 -365 -326h-489v420h-424v-420h-242v1040h242v-397h424v397h243v-340zM1405 340v18c0 78 -45 117 -135 117h-232v-250h232c90 0 135 38 135 115z" />
    <glyph glyph-name="uni045B" unicode="&#x45b;" horiz-adv-x="1169" 
d="M659 1069c245 0 392 -148 392 -465v-604h-244v604c0 156 -82 238 -205 238c-61 0 -112 -18 -153 -53c-41 -36 -63 -87 -66 -154v-635h-242v1167h-141v205h141v205h242v-205h258v-205h-258v-182c72 56 164 84 276 84z" />
    <glyph glyph-name="uni045C" unicode="&#x45c;" horiz-adv-x="1091" 
d="M627 1495h278l-256 -352h-231zM629 557l444 -557h-293l-409 508v-508h-242v1040h242v-432l399 432h299z" />
    <glyph glyph-name="uni045E" unicode="&#x45e;" horiz-adv-x="1126" 
d="M792 1214c-60 -54 -136 -81 -229 -81s-168 27 -227 82c-59 54 -88 124 -88 210h153c0 -88 63 -141 162 -141s164 54 164 141h154c0 -87 -30 -158 -89 -211zM756 403v637h243v-1138c0 -119 -38 -215 -114 -290c-77 -75 -187 -112 -332 -112c-138 0 -243 33 -316 99
c-73 67 -112 150 -116 251h244c8 -79 77 -124 184 -124c123 0 207 64 207 184v137c-67 -51 -149 -76 -248 -76c-245 0 -387 150 -387 463v606h244v-606c0 -157 64 -236 192 -235c55 0 101 18 139 53c37 35 57 86 60 151z" />
    <glyph glyph-name="uni045F" unicode="&#x45f;" horiz-adv-x="1167" 
d="M795 1040h243v-1040h-331v-276h-244v276h-334v1040h242v-815h424v815z" />
    <glyph glyph-name="uni0462" unicode="&#x462;" horiz-adv-x="1441" 
d="M563 932h338c142 0 254 -36 337 -109s124 -172 124 -297v-120c0 -124 -42 -223 -125 -296s-196 -110 -338 -110h-588v1073h-280v234h280v143h252v-143h395v-234h-395v-141zM1110 397v138c0 104 -68 163 -195 163h-352v-465h352c125 0 195 60 195 164z" />
    <glyph glyph-name="uni0463" unicode="&#x463;" horiz-adv-x="1056" 
d="M383 700h246c235 0 366 -120 366 -327v-47c0 -208 -131 -326 -366 -326h-488v1069h-141v205h141v303h242v-303h258v-205h-258v-369zM752 340v18c0 78 -45 117 -136 117h-233v-250h233c91 0 136 38 136 115z" />
    <glyph glyph-name="uni0472" unicode="&#x472;" horiz-adv-x="1349" 
d="M251 1354c100 83 241 125 423 125c181 0 322 -42 423 -125c100 -83 150 -197 150 -340v-580c0 -143 -50 -256 -149 -339c-100 -83 -241 -124 -422 -124c-182 0 -323 41 -424 124s-152 196 -152 339v580c0 143 50 257 151 340zM676 1245c-216 0 -324 -82 -324 -246v-118
c39 12 78 18 117 18c56 0 124 -15 205 -45c83 -30 152 -45 205 -45c39 0 78 6 116 18v172c0 164 -106 246 -319 246zM352 647v-198c0 -163 107 -244 322 -244c214 0 321 81 321 244v145c-38 -12 -77 -18 -116 -19c-56 0 -124 15 -205 46c-78 30 -146 45 -203 45
c-38 0 -78 -6 -119 -19z" />
    <glyph glyph-name="uni0473" unicode="&#x473;" horiz-adv-x="1101" 
d="M549 1069c147 0 261 -39 341 -117c80 -79 120 -187 120 -325v-213c0 -138 -40 -246 -120 -325s-193 -118 -339 -118s-259 39 -340 118s-121 187 -121 325v213c0 138 40 246 120 325c80 78 193 117 339 117zM551 844c-133 0 -204 -63 -215 -189c30 11 59 16 86 17
c31 0 74 -10 129 -29c51 -19 94 -29 129 -29c27 0 56 6 86 17c-4 142 -76 213 -215 213zM549 197c141 0 213 70 217 209c-25 -7 -53 -12 -86 -15c-38 0 -81 10 -129 29c-49 18 -92 27 -129 26c-25 0 -54 -5 -88 -14v-10c0 -150 72 -225 215 -225z" />
    <glyph glyph-name="uni0474" unicode="&#x474;" horiz-adv-x="1374" 
d="M1262 1450h69v-233h-24c-56 0 -99 -16 -129 -48c-30 -33 -59 -93 -86 -182l-283 -987h-363l-411 1450h258l336 -1139l215 711c45 159 99 270 161 333s148 95 257 95z" />
    <glyph glyph-name="uni0475" unicode="&#x475;" horiz-adv-x="1067" 
d="M981 1040h43v-225h-16c-39 0 -70 -12 -91 -35s-42 -66 -63 -129l-199 -651h-321l-314 1040h252l232 -788l123 444c33 127 76 216 129 267s128 77 225 77z" />
    <glyph glyph-name="uni048A" unicode="&#x48a;" horiz-adv-x="1441" 
d="M876 1623c-60 -54 -136 -81 -229 -81s-168 27 -227 82s-88 125 -88 211h153c0 -88 63 -141 162 -141s164 53 164 141h154c0 -87 -30 -158 -89 -212zM1186 1450v-1217h215l-66 -509h-252l35 276h-170v1016l-600 -1016h-235v1450h235v-1018l600 1018h238z" />
    <glyph glyph-name="uni048B" unicode="&#x48b;" horiz-adv-x="1210" 
d="M798 1214c-59 -54 -135 -81 -228 -81s-169 27 -228 82c-59 54 -88 124 -88 210h154c0 -88 64 -141 162 -141s163 54 163 141h154c0 -87 -30 -158 -89 -211zM1028 225h141l-63 -501h-244l35 276h-113v668l-419 -668h-250v1040h241v-669l422 669h250v-815z" />
    <glyph glyph-name="uni048C" unicode="&#x48c;" horiz-adv-x="1441" 
d="M563 932h338c142 0 254 -36 337 -109s124 -172 124 -297v-120c0 -124 -42 -223 -125 -296s-196 -110 -338 -110h-588v1073h-280v234h280v143h252v-143h395v-234h-395v-141zM1110 397v138c0 104 -68 163 -195 163h-352v-465h352c125 0 195 60 195 164z" />
    <glyph glyph-name="uni048D" unicode="&#x48d;" horiz-adv-x="1056" 
d="M383 700h246c235 0 366 -120 366 -327v-47c0 -208 -131 -326 -366 -326h-488v1069h-141v205h141v303h242v-303h258v-205h-258v-369zM752 340v18c0 78 -45 117 -136 117h-233v-250h233c91 0 136 38 136 115z" />
    <glyph glyph-name="uni048E" unicode="&#x48e;" horiz-adv-x="1257" 
d="M127 1450h588c142 0 255 -36 338 -109s125 -172 125 -297v-145c0 -171 -75 -291 -224 -360l70 -121l-164 -96l-100 174c-9 -1 -24 -2 -43 -2h-338v-494h-252v1450zM553 856l164 96l119 -207c60 25 90 74 90 148v158c0 107 -68 166 -193 166h-354v-490h248z" />
    <glyph glyph-name="uni048F" unicode="&#x48f;" horiz-adv-x="1140" 
d="M1051 631v-221c0 -168 -47 -288 -140 -361l88 -151l-188 -113l-111 188c-12 -1 -32 -2 -59 -2c-111 0 -201 27 -270 80v-522h-242v1511h164l41 -82c74 74 176 111 307 111c273 0 410 -146 410 -438zM592 199c143 0 215 74 215 221v198c0 149 -72 223 -215 224
c-133 0 -216 -69 -221 -205v-234c5 -136 90 -204 221 -204z" />
    <glyph glyph-name="uni0490" unicode="&#x490;" horiz-adv-x="1093" 
d="M799 1450v199h252v-432h-672v-1217h-252v1450h672z" />
    <glyph glyph-name="uni0491" unicode="&#x491;" horiz-adv-x="868" 
d="M584 1040v199h243v-424h-456v-815h-242v1040h455z" />
    <glyph glyph-name="uni0492" unicode="&#x492;" horiz-adv-x="1290" 
d="M1247 1450v-233h-672v-386h398v-233h-398v-598h-251v598h-281v233h281v619h923z" />
    <glyph glyph-name="uni0493" unicode="&#x493;" horiz-adv-x="905" 
d="M864 1040v-225h-454v-235h309v-205h-309v-375h-244v375h-141v205h141v460h698z" />
    <glyph glyph-name="uni0494" unicode="&#x494;" horiz-adv-x="1257" 
d="M379 930h338c142 0 254 -37 337 -110c83 -74 124 -173 124 -298v-436c0 -124 -42 -223 -125 -296s-196 -109 -338 -109h-246v233h264c125 0 193 59 193 166v450c0 104 -70 164 -195 164h-352v-694h-252v1450h954v-233h-702v-287z" />
    <glyph glyph-name="uni0495" unicode="&#x495;" horiz-adv-x="1044" 
d="M371 602h245c235 0 367 -115 367 -326v-268c0 -211 -131 -327 -367 -327h-186v225h174c90 0 135 39 135 117v239c0 78 -45 117 -135 117h-233v-379h-242v1040h698v-225h-456v-213z" />
    <glyph glyph-name="uni0496" unicode="&#x496;" horiz-adv-x="2148" 
d="M1466 743l408 -510h231v-509h-252v276h-108l-567 694v-694h-252v692l-568 -692h-315l594 743l-576 707h318l547 -651v651h252v-653l546 653h318z" />
    <glyph glyph-name="uni0497" unicode="&#x497;" horiz-adv-x="1773" 
d="M1485 225h248v-501h-244v276h-117l-409 508v-508h-242v508l-410 -508h-293l445 557l-440 483h299l399 -432v432h242v-432l399 432h299l-440 -483z" />
    <glyph glyph-name="uni0498" unicode="&#x498;" horiz-adv-x="1280" 
d="M1044 752c89 -71 133 -162 134 -275v-96c0 -112 -38 -203 -115 -274s-184 -115 -322 -130l35 -303h-270l35 303c-137 15 -244 60 -323 134c-79 73 -118 168 -118 284v70h252v-78c0 -117 102 -182 287 -182c191 0 287 57 287 170v96c0 105 -70 158 -209 158h-268v225h243
c138 0 207 50 207 150v77c0 109 -90 164 -270 164c-167 0 -258 -65 -258 -182v-78h-252v70c0 130 46 233 137 310c91 76 215 114 371 114c163 0 291 -35 384 -105c93 -71 140 -168 140 -293v-84c-1 -97 -36 -178 -107 -245z" />
    <glyph glyph-name="uni0499" unicode="&#x499;" horiz-adv-x="1060" 
d="M846 545c83 -44 125 -120 125 -228v-16c0 -183 -121 -299 -342 -324l35 -303h-271l35 303c-219 31 -338 148 -338 336v35h242v-41c0 -86 68 -129 205 -129c127 0 190 40 190 121v23c0 73 -39 104 -135 104h-186v205h165c96 0 134 29 134 100v19c0 75 -60 113 -179 112
c-125 0 -188 -41 -188 -123v-37h-240v31c0 213 157 336 426 336c131 0 235 -28 311 -83c75 -55 113 -131 113 -226v-19c0 -85 -34 -151 -102 -196z" />
    <glyph glyph-name="uni049A" unicode="&#x49a;" horiz-adv-x="1347" 
d="M668 743l407 -510h230v-509h-252v276h-107l-567 692v-692h-252v1450h252v-651l545 651h319z" />
    <glyph glyph-name="uni049B" unicode="&#x49b;" horiz-adv-x="1181" 
d="M893 225h248v-501h-244v276h-117l-409 508v-508h-242v1040h242v-432l399 432h299l-440 -483z" />
    <glyph glyph-name="uni049C" unicode="&#x49c;" horiz-adv-x="1333" 
d="M1288 0h-268l-281 631h-69v-307h-197v307h-94v-631h-252v1450h252v-586h94v307h197v-307h73l261 586h268l-305 -711z" />
    <glyph glyph-name="uni049D" unicode="&#x49d;" horiz-adv-x="1091" 
d="M1073 0h-256l-176 446h-66v-227h-131v227h-73v-446h-242v1040h242v-368h73v227h131v-227h74l162 368h258l-217 -489z" />
    <glyph glyph-name="uni049E" unicode="&#x49e;" horiz-adv-x="1359" 
d="M723 743l594 -743h-316l-567 692v-692h-252v1073h-139v234h139v143h252v-143h174v-234h-174v-274l545 651h319z" />
    <glyph glyph-name="uni049F" unicode="&#x49f;" horiz-adv-x="1120" 
d="M659 557l445 -557h-293l-410 508v-508h-243v1151h-142v223h142v203h243v-203h258v-223h-258v-543l398 432h299z" />
    <glyph glyph-name="uni04A0" unicode="&#x4a0;" horiz-adv-x="1501" 
d="M864 743l594 -743h-315l-568 694v-694h-251v1217h-281v233h532v-653l547 653h318z" />
    <glyph glyph-name="uni04A1" unicode="&#x4a1;" horiz-adv-x="1167" 
d="M707 557l442 -557h-293l-407 508v-508h-244v815h-180v225h424v-432l397 432h299z" />
    <glyph glyph-name="uni04A2" unicode="&#x4a2;" horiz-adv-x="1472" 
d="M1223 1450v-1217h207v-509h-252v276h-207v592h-592v-592h-252v1450h252v-625h592v625h252z" />
    <glyph glyph-name="uni04A3" unicode="&#x4a3;" horiz-adv-x="1218" 
d="M1038 225h140v-501h-244v276h-139v420h-424v-420h-242v1040h242v-397h424v397h243v-815z" />
    <glyph glyph-name="uni04A4" unicode="&#x4a4;" horiz-adv-x="1937" 
d="M971 1450h923v-233h-671v-1217h-252v592h-592v-592h-252v1450h252v-625h592v625z" />
    <glyph glyph-name="uni04A5" unicode="&#x4a5;" horiz-adv-x="1536" 
d="M795 1040h698v-225h-455v-815h-243v420h-424v-420h-242v1040h242v-397h424v397z" />
    <glyph glyph-name="uni04A6" unicode="&#x4a6;" horiz-adv-x="2101" 
d="M1223 930h338c142 0 254 -37 337 -110c82 -74 123 -173 123 -298v-436c0 -124 -41 -223 -124 -296s-196 -109 -338 -109h-246v233h264c125 0 192 59 192 166v450c0 104 -69 164 -194 164h-352v-694h-252v1217h-592v-1217h-252v1450h1096v-520z" />
    <glyph glyph-name="uni04A7" unicode="&#x4a7;" horiz-adv-x="1712" 
d="M1038 602h246c235 0 365 -115 365 -326v-268c0 -211 -130 -327 -365 -327h-186v225h172c90 0 135 39 135 117v239c0 78 -45 117 -135 117h-232v-379h-243v815h-424v-815h-242v1040h909v-438z" />
    <glyph glyph-name="uni04A8" unicode="&#x4a8;" horiz-adv-x="1433" 
d="M1333 715v-254c0 -281 -175 -453 -499 -484c19 -42 57 -63 112 -63h271v-233h-275c-200 0 -332 106 -373 301c-305 39 -469 208 -469 481v493c0 315 216 494 617 494h282v-233h-282c-243 0 -365 -92 -365 -277v-461c0 -139 68 -225 203 -258v473c0 121 35 217 104 288
c69 70 164 105 285 105c119 0 213 -33 284 -100c70 -67 105 -157 105 -272zM1081 479v201c0 125 -38 174 -137 174s-137 -49 -137 -174v-471c183 19 274 109 274 270z" />
    <glyph glyph-name="uni04A9" unicode="&#x4a9;" horiz-adv-x="1212" 
d="M793 709c211 0 329 -113 329 -310v-47c0 -216 -150 -349 -417 -377c5 -47 35 -70 88 -69h229v-225h-229c-221 0 -332 94 -332 282v21c-240 47 -371 207 -371 460v123c0 150 45 266 135 349s218 124 385 124h273v-225h-271c-186 0 -279 -85 -278 -254v-110
c0 -120 42 -197 127 -232v205c0 190 111 285 332 285zM879 369v28c0 57 -29 86 -86 86c-59 0 -88 -29 -88 -86v-194c123 13 174 65 174 166z" />
    <glyph glyph-name="uni04AA" unicode="&#x4aa;" horiz-adv-x="1337" 
d="M1237 1016v-113h-264v98c0 156 -102 244 -303 244c-208 0 -318 -91 -318 -244v-552c0 -156 108 -244 316 -244c203 0 305 88 305 244v100h264v-115c0 -129 -41 -233 -123 -314s-197 -130 -346 -145l35 -301h-271l35 303c-147 15 -262 64 -344 145s-123 185 -123 312v582
c0 142 50 255 150 338c99 83 239 125 418 125s318 -42 419 -125c100 -83 150 -196 150 -338z" />
    <glyph glyph-name="uni04AB" unicode="&#x4ab;" horiz-adv-x="1075" 
d="M985 645v-24h-246v30c0 123 -73 193 -196 193c-139 0 -209 -75 -209 -226v-196c0 -150 70 -225 209 -225c123 0 196 69 196 192v31h246v-25c0 -113 -31 -207 -93 -280c-62 -74 -147 -119 -255 -135l35 -306h-271l35 306c-221 39 -346 197 -346 434v213
c0 138 40 246 119 325c79 78 191 117 334 117c135 0 243 -38 323 -114c79 -77 119 -180 119 -310z" />
    <glyph glyph-name="uni04AC" unicode="&#x4ac;" horiz-adv-x="1126" 
d="M1106 1450v-233h-418v-984h209v-509h-252v276h-207v1217h-420v233h1088z" />
    <glyph glyph-name="uni04AD" unicode="&#x4ad;" horiz-adv-x="966" 
d="M924 1040v-225h-320v-590h139v-501h-243v276h-140v815h-319v225h883z" />
    <glyph glyph-name="uni04AE" unicode="&#x4ae;" horiz-adv-x="1236" 
d="M928 1450h272l-457 -942v-508h-251v512l-457 938h276l310 -645z" />
    <glyph glyph-name="uni04AF" unicode="&#x4af;" horiz-adv-x="1034" 
d="M735 1040h279l-375 -610v-430h-244v426l-375 614h277l221 -356z" />
    <glyph glyph-name="uni04B0" unicode="&#x4b0;" horiz-adv-x="1234" 
d="M1196 1450l-457 -942v-74h320v-233h-320v-201h-252v201h-311v233h311v78l-456 938h276l309 -645l308 645h272z" />
    <glyph glyph-name="uni04B1" unicode="&#x4b1;" horiz-adv-x="1034" 
d="M1014 1040l-375 -610v-49h199v-205h-199v-176h-244v176h-198v205h198v45l-375 614h277l221 -356l217 356h279z" />
    <glyph glyph-name="uni04B2" unicode="&#x4b2;" horiz-adv-x="1314" 
d="M784 719l297 -486h189v-509h-252v276h-86l-303 498l-310 -498h-278l440 737l-436 713h293l303 -494l311 494h283z" />
    <glyph glyph-name="uni04B3" unicode="&#x4b3;" horiz-adv-x="1107" 
d="M848 225h219v-501h-244v276h-102l-219 324l-213 -324h-262l342 524l-349 516h277l215 -319l223 319h269l-359 -516z" />
    <glyph glyph-name="uni04B4" unicode="&#x4b4;" horiz-adv-x="1669" 
d="M1419 1450v-1217h207v-509h-252v276h-1050v1217h-281v233h895v-233h-363v-984h592v1217h252z" />
    <glyph glyph-name="uni04B5" unicode="&#x4b5;" horiz-adv-x="1255" 
d="M1075 225h139v-501h-243v276h-805v836h-141v204h626v-204h-241v-611h424v815h241v-815z" />
    <glyph glyph-name="uni04B6" unicode="&#x4b6;" horiz-adv-x="1386" 
d="M1137 1450v-1217h206v-509h-251v276h-207v524c-75 -51 -174 -76 -297 -75c-154 0 -274 39 -360 118c-87 78 -130 190 -130 336v547h252v-518c0 -167 89 -250 268 -250c172 0 267 85 267 246v522h252z" />
    <glyph glyph-name="uni04B7" unicode="&#x4b7;" horiz-adv-x="1189" 
d="M999 225h138v-501h-244v276h-137v350c-67 -52 -150 -78 -250 -78c-251 0 -385 143 -385 416v352h244v-323c0 -151 61 -217 192 -217c115 0 194 78 199 205v335h243v-815z" />
    <glyph glyph-name="uni04B8" unicode="&#x4b8;" horiz-adv-x="1263" 
d="M885 928v522h252v-1450h-252v524c-47 -31 -105 -53 -174 -65v-316h-189v308c-271 21 -424 181 -424 452v547h252v-518c0 -131 57 -211 172 -240v297h189v-297c116 27 174 106 174 236z" />
    <glyph glyph-name="uni04B9" unicode="&#x4b9;" horiz-adv-x="1124" 
d="M752 680v360h243v-1040h-243v346c-38 -27 -82 -47 -131 -59v-242h-132v227c-240 5 -370 143 -370 400v368h243v-325c0 -123 42 -193 127 -211v221h132v-217c77 26 120 83 131 172z" />
    <glyph glyph-name="uni04BA" unicode="&#x4ba;" horiz-adv-x="1263" 
d="M674 975c155 0 276 -40 362 -119s129 -191 129 -336v-520h-252v492c0 165 -89 248 -268 247c-177 0 -266 -81 -266 -243v-496h-252v1450h252v-551c75 51 174 76 295 76z" />
    <glyph glyph-name="uni04BB" unicode="&#x4bb;" horiz-adv-x="1157" 
d="M647 1069c245 0 391 -148 391 -465v-604h-243v604c0 156 -82 238 -205 238c-61 0 -112 -18 -153 -53c-41 -36 -63 -87 -66 -154v-635h-242v1577h242v-592c72 56 164 84 276 84z" />
    <glyph glyph-name="uni04BC" unicode="&#x4bc;" horiz-adv-x="1673" 
d="M1006 1479c177 0 316 -42 416 -125c99 -83 149 -196 149 -338v-346h-883v-221c0 -156 107 -244 318 -244c200 0 303 88 303 244v77h262v-92c0 -143 -50 -256 -149 -339c-100 -83 -239 -124 -418 -124s-319 41 -418 124c-100 83 -150 196 -150 339v242
c-121 19 -218 73 -291 160s-110 198 -110 333v86h229v-127c0 -117 57 -188 172 -213v101c0 142 50 255 151 338s240 125 419 125zM688 1001v-96h621v96c0 153 -104 242 -305 242c-208 0 -316 -89 -316 -242z" />
    <glyph glyph-name="uni04BD" unicode="&#x4bd;" horiz-adv-x="1333" 
d="M799 1069c131 0 238 -37 320 -110c81 -74 122 -169 122 -285v-228h-653v-28c0 -163 72 -244 215 -244c55 0 100 13 137 39s55 61 55 104v19h244c0 -113 -40 -202 -119 -267s-186 -98 -321 -98c-142 0 -253 41 -334 123s-121 192 -121 330v25c-112 9 -194 47 -246 114
c-52 66 -78 148 -78 246v82h220v-82c0 -94 35 -151 104 -170c3 133 44 238 124 315s190 115 331 115zM588 629v-2h405v43c0 133 -61 196 -194 196c-141 0 -211 -79 -211 -237z" />
    <glyph glyph-name="uni04BE" unicode="&#x4be;" horiz-adv-x="1673" 
d="M1006 1479c177 0 316 -42 416 -125c99 -83 149 -196 149 -338v-346h-883v-221c0 -156 107 -244 318 -244c200 0 303 88 303 244v77h262v-92c0 -131 -42 -237 -126 -317c-84 -81 -202 -128 -355 -142l34 -301h-270l35 303c-143 18 -255 67 -334 147s-119 183 -119 310v242
c-121 19 -218 73 -291 160s-110 198 -110 333v86h229v-127c0 -117 57 -188 172 -213v101c0 142 50 255 151 338s240 125 419 125zM688 1001v-96h621v96c0 153 -104 242 -305 242c-208 0 -316 -89 -316 -242z" />
    <glyph glyph-name="uni04BF" unicode="&#x4bf;" horiz-adv-x="1333" 
d="M799 1069c131 0 238 -37 320 -110c81 -74 122 -169 122 -285v-228h-653v-28c0 -163 72 -244 215 -244c55 0 100 13 137 39s55 61 55 104v19h244c0 -100 -31 -181 -94 -244s-149 -101 -258 -115l35 -303h-271l35 308c-109 21 -194 70 -253 148c-59 77 -89 175 -89 294v25
c-112 9 -194 47 -246 114c-52 66 -78 148 -78 246v82h220v-82c0 -94 35 -151 104 -170c3 133 44 238 124 315s190 115 331 115zM588 629v-2h405v43c0 133 -61 196 -194 196c-141 0 -211 -79 -211 -237z" />
    <glyph glyph-name="uni04C0" unicode="&#x4c0;" horiz-adv-x="505" 
d="M379 0h-252v1450h252v-1450z" />
    <glyph glyph-name="uni04C1" unicode="&#x4c1;" horiz-adv-x="2103" 
d="M1279 1623c-59 -54 -135 -81 -228 -81s-169 27 -228 82s-88 125 -88 211h154c0 -88 64 -141 162 -141s163 53 163 141h154c0 -87 -30 -158 -89 -212zM1466 743l594 -743h-315l-567 694v-694h-252v692l-568 -692h-315l594 743l-576 707h318l547 -651v651h252v-653l546 653
h318z" />
    <glyph glyph-name="uni04C2" unicode="&#x4c2;" horiz-adv-x="1683" 
d="M1068 1214c-59 -54 -135 -81 -228 -81s-169 27 -228 82c-59 54 -88 124 -88 210h154c0 -88 64 -141 162 -141s164 54 164 141h153c0 -87 -30 -158 -89 -211zM1221 557l444 -557h-293l-409 508v-508h-242v508l-410 -508h-293l445 557l-440 483h299l399 -432v432h242v-432
l399 432h299z" />
    <glyph glyph-name="uni04C3" unicode="&#x4c3;" horiz-adv-x="1347" 
d="M725 797h82c142 0 255 -36 338 -109s125 -172 125 -297v-305c0 -124 -42 -223 -125 -296s-196 -109 -338 -109h-338v233h354c125 0 195 59 195 166v319c0 104 -72 164 -197 164h-442v-563h-252v1450h252v-651l545 651h319z" />
    <glyph glyph-name="uni04C4" unicode="&#x4c4;" horiz-adv-x="1138" 
d="M684 602h29c235 0 364 -118 364 -326v-268c0 -211 -129 -327 -364 -327h-283v225h268c90 0 135 39 136 117v239c0 78 -45 117 -136 117h-327v-379h-242v1040h242v-438h6l393 438h299z" />
    <glyph glyph-name="uni04C5" unicode="&#x4c5;" horiz-adv-x="1519" 
d="M1270 1450v-1217h207l-66 -509h-252l35 276h-176v1217h-397l-76 -746c-17 -165 -58 -285 -123 -359c-65 -75 -163 -112 -293 -112h-88v233h37c133 0 196 82 215 269l96 948h881z" />
    <glyph glyph-name="uni04C6" unicode="&#x4c6;" horiz-adv-x="1220" 
d="M1051 225h129l-64 -501h-244l35 276h-100v815h-295l-49 -471c-12 -127 -43 -216 -92 -267s-129 -77 -238 -77h-92v225h33c52 0 89 14 112 42c22 28 36 79 43 153l64 620h758v-815z" />
    <glyph glyph-name="uni04C7" unicode="&#x4c7;" horiz-adv-x="1349" 
d="M971 825v625h252v-1423c0 -147 -44 -267 -133 -360c-89 -92 -210 -138 -363 -138h-111v233h125c153 0 230 105 230 269v561h-592v-592h-252v1450h252v-625h592z" />
    <glyph glyph-name="uni04C8" unicode="&#x4c8;" horiz-adv-x="1167" 
d="M795 643v397h243v-1130c0 -133 -33 -229 -99 -290s-152 -91 -259 -91h-113v225h45c74 0 123 18 147 54c24 37 36 92 36 167v445h-424v-420h-242v1040h242v-397h424z" />
    <glyph glyph-name="uni04C9" unicode="&#x4c9;" horiz-adv-x="1468" 
d="M1223 1450v-1217h202l-63 -509h-252l35 276h-174v592h-592v-592h-252v1450h252v-625h592v625h252z" />
    <glyph glyph-name="uni04CA" unicode="&#x4ca;" horiz-adv-x="1210" 
d="M1038 225h129l-61 -501h-244l35 276h-102v420h-424v-420h-242v1040h242v-397h424v397h243v-815z" />
    <glyph glyph-name="uni04CB" unicode="&#x4cb;" horiz-adv-x="1263" 
d="M885 928v522h252v-1450h-207v-276h-252v509h207v291c-75 -51 -174 -76 -297 -75c-154 0 -274 39 -360 118c-87 78 -130 190 -130 336v547h252v-518c0 -167 89 -250 268 -250c172 0 267 85 267 246z" />
    <glyph glyph-name="uni04CC" unicode="&#x4cc;" horiz-adv-x="1124" 
d="M752 682v358h243v-1040h-137v-276h-244v419h138v205c-67 -51 -149 -76 -248 -76c-251 0 -385 143 -385 416v352h243v-323c0 -151 60 -217 191 -217c109 0 184 70 199 182z" />
    <glyph glyph-name="uni04CD" unicode="&#x4cd;" horiz-adv-x="1681" 
d="M1434 1450v-1217h204l-65 -509h-252l35 276h-152v1053l-332 -1053h-184l-332 1053v-1053h-229v1450h313l340 -979l340 979h314z" />
    <glyph glyph-name="uni04CE" unicode="&#x4ce;" horiz-adv-x="1435" 
d="M1264 225h129l-62 -501h-244l35 276h-102v686l-258 -686h-131l-260 690v-690h-242v1040h322l245 -649l246 649h322v-815z" />
    <glyph glyph-name="uni04CF" unicode="&#x4cf;" horiz-adv-x="505" 
d="M375 0h-244v1040h244v-1040z" />
    <glyph glyph-name="uni04D0" unicode="&#x4d0;" horiz-adv-x="1296" 
d="M876 1623c-60 -54 -136 -81 -229 -81s-168 27 -227 82s-88 125 -88 211h153c0 -88 63 -141 162 -141s164 53 164 141h154c0 -87 -30 -158 -89 -212zM1260 0h-250l-99 311h-528l-100 -311h-248l434 1450h358zM840 545l-193 641l-192 -641h385z" />
    <glyph glyph-name="uni04D1" unicode="&#x4d1;" horiz-adv-x="1140" 
d="M788 1214c-60 -54 -136 -81 -229 -81s-168 27 -227 82c-59 54 -88 124 -88 210h153c0 -88 63 -141 162 -141s164 54 164 141h154c0 -87 -30 -158 -89 -211zM807 958l41 82h164v-1040h-164l-41 82c-74 -74 -178 -111 -311 -111c-271 0 -406 146 -406 439v221
c0 292 135 438 406 438c134 0 238 -37 311 -111zM549 199c130 0 203 61 219 182v278c-17 121 -90 182 -219 183c-143 0 -215 -75 -215 -224v-196c0 -149 72 -223 215 -223z" />
    <glyph glyph-name="uni04D2" unicode="&#x4d2;" horiz-adv-x="1296" 
d="M332 1823h225v-240h-225v240zM739 1823h228v-240h-228v240zM1260 0h-250l-99 311h-528l-100 -311h-248l434 1450h358zM840 545l-193 641l-192 -641h385z" />
    <glyph glyph-name="uni04D3" unicode="&#x4d3;" horiz-adv-x="1140" 
d="M244 1413h225v-239h-225v239zM651 1413h228v-239h-228v239zM807 958l41 82h164v-1040h-164l-41 82c-74 -74 -178 -111 -311 -111c-271 0 -406 146 -406 439v221c0 292 135 438 406 438c134 0 238 -37 311 -111zM549 199c130 0 203 61 219 182v278
c-17 121 -90 182 -219 183c-143 0 -215 -75 -215 -224v-196c0 -149 72 -223 215 -223z" />
    <glyph glyph-name="uni04D4" unicode="&#x4d4;" horiz-adv-x="1968" 
d="M1890 1450v-233h-661v-392h573v-233h-573v-359h661v-233h-913v377h-537l-149 -377h-256l577 1450h1278zM535 610h442v607h-201z" />
    <glyph glyph-name="uni04D5" unicode="&#x4d5;" horiz-adv-x="1728" 
d="M1247 1069c120 0 215 -36 285 -109c69 -73 104 -168 104 -284v-230h-639v-30c0 -161 72 -242 215 -242c117 0 181 58 181 154v24h241c0 -243 -130 -381 -385 -381c-117 0 -213 39 -286 117l-45 -88h-84l-41 82c-74 -74 -176 -111 -306 -111c-265 0 -397 146 -397 439v219
c0 293 133 440 399 440c130 0 231 -37 304 -111l41 82h84l43 -86c73 77 169 115 286 115zM997 633h392v41c0 129 -60 193 -179 192c-139 0 -210 -78 -213 -233zM541 199c125 0 208 69 213 202v236c-5 136 -85 205 -213 205c-138 0 -207 -74 -207 -221v-201
c0 -147 69 -221 207 -221z" />
    <glyph glyph-name="uni04D6" unicode="&#x4d6;" horiz-adv-x="1118" 
d="M788 1623c-60 -54 -136 -81 -229 -81s-168 27 -227 82s-88 125 -88 211h153c0 -88 63 -141 162 -141s164 53 164 141h154c0 -87 -30 -158 -89 -212zM1040 1450v-233h-661v-392h573v-233h-573v-359h661v-233h-913v1450h913z" />
    <glyph glyph-name="uni04D7" unicode="&#x4d7;" horiz-adv-x="1081" 
d="M767 1214c-59 -54 -135 -81 -228 -81s-169 27 -228 82c-59 54 -88 124 -88 210h154c0 -88 64 -141 162 -141s163 54 163 141h154c0 -87 -30 -158 -89 -211zM545 1069c133 0 240 -37 322 -110c81 -74 122 -168 122 -283v-230h-655v-30c0 -161 72 -242 217 -242
c55 0 100 13 137 39s55 60 55 102v17h244c0 -112 -39 -200 -118 -264c-79 -65 -185 -97 -318 -97c-146 0 -259 41 -340 123s-121 192 -121 330v199c0 138 40 247 120 327c80 79 192 119 335 119zM334 633h407v41c0 129 -64 193 -192 192c-141 0 -212 -78 -215 -233z" />
    <glyph glyph-name="uni04D8" unicode="&#x4d8;" horiz-adv-x="1337" 
d="M251 1354c100 83 240 125 419 125s318 -42 418 -125c99 -83 149 -196 149 -338v-582c0 -142 -50 -255 -150 -338c-101 -83 -240 -125 -419 -125s-319 42 -418 125c-100 83 -150 196 -150 338v344h885v223c0 153 -110 244 -317 244c-203 0 -303 -88 -303 -244v-77h-265v92
c0 142 50 255 151 338zM670 205c208 0 315 88 315 244v96h-620v-96c0 -156 102 -244 305 -244z" />
    <glyph glyph-name="uni04D9" unicode="&#x4d9;" horiz-adv-x="1079" 
d="M532 1067c143 0 255 -41 335 -122s120 -191 120 -329v-198c0 -138 -39 -247 -118 -327s-191 -120 -334 -120c-133 0 -240 37 -322 111s-123 168 -123 283v229h653v29c0 163 -71 244 -213 243c-55 0 -101 -13 -138 -40s-56 -62 -56 -105v-16h-244c0 113 40 202 120 266
c79 64 186 96 320 96zM532 172c141 0 211 80 211 240v2h-405v-45c-1 -131 64 -197 194 -197z" />
    <glyph glyph-name="uni04DA" unicode="&#x4da;" horiz-adv-x="1337" 
d="M352 1823h226v-240h-226v240zM760 1823h227v-240h-227v240zM251 1354c100 83 240 125 419 125s318 -42 418 -125c99 -83 149 -196 149 -338v-582c0 -142 -50 -255 -150 -338c-101 -83 -240 -125 -419 -125s-319 42 -418 125c-100 83 -150 196 -150 338v344h885v223
c0 153 -110 244 -317 244c-203 0 -303 -88 -303 -244v-77h-265v92c0 142 50 255 151 338zM670 205c208 0 315 88 315 244v96h-620v-96c0 -156 102 -244 305 -244z" />
    <glyph glyph-name="uni04DB" unicode="&#x4db;" horiz-adv-x="1079" 
d="M215 1413h225v-239h-225v239zM623 1413h227v-239h-227v239zM532 1067c143 0 255 -41 335 -122s120 -191 120 -329v-198c0 -138 -39 -247 -118 -327s-191 -120 -334 -120c-133 0 -240 37 -322 111s-123 168 -123 283v229h653v29c0 163 -71 244 -213 243
c-55 0 -101 -13 -138 -40s-56 -62 -56 -105v-16h-244c0 113 40 202 120 266c79 64 186 96 320 96zM532 172c141 0 211 80 211 240v2h-405v-45c-1 -131 64 -197 194 -197z" />
    <glyph glyph-name="uni04DC" unicode="&#x4dc;" horiz-adv-x="2103" 
d="M735 1823h226v-240h-226v240zM1143 1823h227v-240h-227v240zM1466 743l594 -743h-315l-567 694v-694h-252v692l-568 -692h-315l594 743l-576 707h318l547 -651v651h252v-653l546 653h318z" />
    <glyph glyph-name="uni04DD" unicode="&#x4dd;" horiz-adv-x="1683" 
d="M524 1413h226v-239h-226v239zM932 1413h227v-239h-227v239zM1221 557l444 -557h-293l-409 508v-508h-242v508l-410 -508h-293l445 557l-440 483h299l399 -432v432h242v-432l399 432h299z" />
    <glyph glyph-name="uni04DE" unicode="&#x4de;" horiz-adv-x="1280" 
d="M324 1823h225v-240h-225v240zM731 1823h227v-240h-227v240zM1044 752c89 -71 133 -162 134 -275v-96c0 -127 -48 -227 -143 -300c-96 -73 -228 -110 -396 -110c-165 0 -296 38 -393 115s-146 180 -146 309v70h252v-78c0 -117 102 -182 287 -182c191 0 287 57 287 170v96
c0 105 -70 158 -209 158h-268v225h243c138 0 207 50 207 150v77c0 109 -90 164 -270 164c-167 0 -258 -65 -258 -182v-78h-252v70c0 130 46 233 137 310c91 76 215 114 371 114c163 0 291 -35 384 -105c93 -71 140 -168 140 -293v-84c-1 -97 -36 -178 -107 -245z" />
    <glyph glyph-name="uni04DF" unicode="&#x4df;" horiz-adv-x="1060" 
d="M213 1413h225v-239h-225v239zM621 1413h227v-239h-227v239zM846 545c83 -44 125 -120 125 -228v-16c0 -208 -160 -330 -439 -330c-281 0 -442 125 -442 342v35h242v-41c0 -86 68 -129 205 -129c127 0 190 40 190 121v23c0 73 -39 104 -135 104h-186v205h165
c96 0 134 29 134 100v19c0 75 -60 113 -179 112c-125 0 -188 -41 -188 -123v-37h-240v31c0 213 157 336 426 336c131 0 235 -28 311 -83c75 -55 113 -131 113 -226v-19c0 -85 -34 -151 -102 -196z" />
    <glyph glyph-name="uni04E0" unicode="&#x4e0;" horiz-adv-x="1280" 
d="M721 893h27c133 0 238 -35 315 -105c77 -71 115 -163 115 -278v-129c0 -127 -48 -227 -143 -300c-96 -73 -228 -110 -396 -110c-165 0 -296 38 -393 115s-146 180 -146 309v70h252v-78c0 -117 102 -182 287 -182c191 0 287 57 287 170v131c0 108 -76 162 -228 162h-340
v225l410 324h-596v233h952v-233z" />
    <glyph glyph-name="uni04E1" unicode="&#x4e1;" horiz-adv-x="1064" 
d="M543 432h12c104 0 200 -28 284 -88c83 -60 136 -172 136 -319v-91c0 -133 -40 -238 -120 -317c-80 -78 -188 -117 -325 -117c-134 0 -241 38 -320 115c-80 77 -120 179 -120 307v60h246v-66c0 -123 71 -190 196 -190c133 0 199 71 199 213v71c0 128 -66 197 -186 197
h-301v225l356 383h-463v225h762v-225z" />
    <glyph glyph-name="uni04E2" unicode="&#x4e2;" horiz-adv-x="1325" 
d="M317 1819h693v-205h-693v205zM362 432l601 1018h237v-1450h-237v1016l-601 -1016h-235v1450h235v-1018z" />
    <glyph glyph-name="uni04E3" unicode="&#x4e3;" horiz-adv-x="1171" 
d="M240 1409h692v-205h-692v205zM371 371l422 669h249v-1040h-243v668l-420 -668h-250v1040h242v-669z" />
    <glyph glyph-name="uni04E4" unicode="&#x4e4;" horiz-adv-x="1325" 
d="M346 1823h225v-240h-225v240zM754 1823h227v-240h-227v240zM362 432l601 1018h237v-1450h-237v1016l-601 -1016h-235v1450h235v-1018z" />
    <glyph glyph-name="uni04E5" unicode="&#x4e5;" horiz-adv-x="1171" 
d="M268 1413h226v-239h-226v239zM676 1413h227v-239h-227v239zM371 371l422 669h249v-1040h-243v668l-420 -668h-250v1040h242v-669z" />
    <glyph glyph-name="uni04E6" unicode="&#x4e6;" horiz-adv-x="1349" 
d="M582 1583h-226v240h226v-240zM991 1583h-227v240h227v-240zM1098 95c-100 -83 -241 -124 -422 -124c-182 0 -323 41 -424 124s-152 196 -152 339v580c0 143 50 257 151 340c100 83 241 125 423 125c181 0 322 -42 423 -125c100 -83 150 -197 150 -340v-580
c0 -143 -50 -256 -149 -339zM352 999v-550c0 -163 107 -244 322 -244c214 0 321 81 321 244v550c0 164 -106 246 -319 246c-216 0 -324 -82 -324 -246z" />
    <glyph glyph-name="uni04E7" unicode="&#x4e7;" horiz-adv-x="1101" 
d="M459 1174h-226v239h226v-239zM868 1174h-227v239h227v-239zM890 89c-80 -79 -193 -118 -339 -118s-259 39 -340 118s-121 187 -121 325v213c0 138 40 246 120 325c80 78 193 117 339 117c147 0 261 -39 341 -117c80 -79 120 -187 120 -325v-213
c0 -138 -40 -246 -120 -325zM549 197c145 0 217 75 217 225v196c0 150 -72 225 -215 226c-145 0 -217 -75 -217 -226v-196c0 -150 72 -225 215 -225z" />
    <glyph glyph-name="uni04E8" unicode="&#x4e8;" horiz-adv-x="1349" 
d="M251 1354c100 83 241 125 423 125c181 0 322 -42 423 -125c100 -83 150 -197 150 -340v-580c0 -143 -50 -256 -149 -339c-100 -83 -241 -124 -422 -124c-182 0 -323 41 -424 124s-152 196 -152 339v580c0 143 50 257 151 340zM676 1245c-216 0 -324 -82 -324 -246v-133
h643v133c0 164 -106 246 -319 246zM352 633v-184c0 -163 107 -244 322 -244c214 0 321 81 321 244v184h-643z" />
    <glyph glyph-name="uni04E9" unicode="&#x4e9;" horiz-adv-x="1101" 
d="M549 1069c147 0 261 -39 341 -117c80 -79 120 -187 120 -325v-213c0 -138 -40 -246 -120 -325s-193 -118 -339 -118s-259 39 -340 118s-121 187 -121 325v213c0 138 40 246 120 325c80 78 193 117 339 117zM551 844c-137 0 -209 -67 -217 -201h432
c-8 134 -80 201 -215 201zM549 197c145 0 217 74 217 223h-432c0 -149 72 -223 215 -223z" />
    <glyph glyph-name="uni04EA" unicode="&#x4ea;" horiz-adv-x="1349" 
d="M356 1823h226v-240h-226v240zM764 1823h227v-240h-227v240zM251 1354c100 83 241 125 423 125c181 0 322 -42 423 -125c100 -83 150 -197 150 -340v-580c0 -143 -50 -256 -149 -339c-100 -83 -241 -124 -422 -124c-182 0 -323 41 -424 124s-152 196 -152 339v580
c0 143 50 257 151 340zM676 1245c-216 0 -324 -82 -324 -246v-133h643v133c0 164 -106 246 -319 246zM352 633v-184c0 -163 107 -244 322 -244c214 0 321 81 321 244v184h-643z" />
    <glyph glyph-name="uni04EB" unicode="&#x4eb;" horiz-adv-x="1101" 
d="M233 1413h226v-239h-226v239zM641 1413h227v-239h-227v239zM549 1069c147 0 261 -39 341 -117c80 -79 120 -187 120 -325v-213c0 -138 -40 -246 -120 -325s-193 -118 -339 -118s-259 39 -340 118s-121 187 -121 325v213c0 138 40 246 120 325c80 78 193 117 339 117z
M551 844c-137 0 -209 -67 -217 -201h432c-8 134 -80 201 -215 201zM549 197c145 0 217 74 217 223h-432c0 -149 72 -223 215 -223z" />
    <glyph glyph-name="uni04EC" unicode="&#x4ec;" horiz-adv-x="1337" 
d="M352 1823h226v-240h-226v240zM760 1823h227v-240h-227v240zM251 1354c100 83 240 125 419 125s318 -42 418 -125c99 -83 149 -196 149 -338v-582c0 -142 -50 -255 -150 -338c-101 -83 -240 -125 -419 -125s-319 42 -418 125c-100 83 -150 196 -150 338v115h265v-100
c0 -156 102 -244 305 -244c208 0 315 88 315 244v169h-426v236h426v147c0 153 -110 244 -317 244c-203 0 -303 -88 -303 -244v-98h-265v113c0 142 50 255 151 338z" />
    <glyph glyph-name="uni04ED" unicode="&#x4ed;" horiz-adv-x="1075" 
d="M221 1413h225v-239h-225v239zM629 1413h227v-239h-227v239zM532 1069c142 0 253 -40 333 -119s120 -187 120 -323v-213c0 -138 -40 -246 -120 -325s-192 -118 -335 -118c-135 0 -242 38 -321 115s-119 180 -119 309v25h246v-39c0 -123 73 -193 196 -193
c139 0 209 75 209 224v8h-268v223h268c-4 139 -74 209 -211 209c-123 0 -194 -69 -194 -193v-38h-246v24c0 130 40 233 120 310c79 76 187 114 322 114z" />
    <glyph glyph-name="uni04EE" unicode="&#x4ee;" horiz-adv-x="1253" 
d="M287 1819h692v-205h-692v205zM627 795l317 655h273l-709 -1450h-272l251 518l-452 932h276z" />
    <glyph glyph-name="uni04EF" unicode="&#x4ef;" horiz-adv-x="1126" 
d="M219 1409h692v-205h-692v205zM756 403v637h243v-1138c0 -119 -38 -215 -114 -290c-77 -75 -187 -112 -332 -112c-138 0 -243 33 -316 99c-73 67 -112 150 -116 251h244c8 -79 77 -124 184 -124c123 0 207 64 207 184v137c-67 -51 -149 -76 -248 -76
c-245 0 -387 150 -387 463v606h244v-606c0 -157 64 -236 192 -235c55 0 101 18 139 53c37 35 57 86 60 151z" />
    <glyph glyph-name="uni04F0" unicode="&#x4f0;" horiz-adv-x="1253" 
d="M315 1823h226v-240h-226v240zM723 1823h227v-240h-227v240zM627 795l317 655h273l-709 -1450h-272l251 518l-452 932h276z" />
    <glyph glyph-name="uni04F1" unicode="&#x4f1;" horiz-adv-x="1126" 
d="M248 1413h225v-239h-225v239zM655 1413h228v-239h-228v239zM756 403v637h243v-1138c0 -119 -38 -215 -114 -290c-77 -75 -187 -112 -332 -112c-138 0 -243 33 -316 99c-73 67 -112 150 -116 251h244c8 -79 77 -124 184 -124c123 0 207 64 207 184v137
c-67 -51 -149 -76 -248 -76c-245 0 -387 150 -387 463v606h244v-606c0 -157 64 -236 192 -235c55 0 101 18 139 53c37 35 57 86 60 151z" />
    <glyph glyph-name="uni04F2" unicode="&#x4f2;" horiz-adv-x="1253" 
d="M510 1808h229l-192 -256h-215zM1147 1808l-195 -256h-215l178 256h232zM627 795l317 655h273l-709 -1450h-272l251 518l-452 932h276z" />
    <glyph glyph-name="uni04F3" unicode="&#x4f3;" horiz-adv-x="1126" 
d="M401 1413h222l-152 -270h-205zM805 1413h221l-152 -270h-204zM756 403v637h243v-1138c0 -119 -38 -215 -114 -290c-77 -75 -187 -112 -332 -112c-138 0 -243 33 -316 99c-73 67 -112 150 -116 251h244c8 -79 77 -124 184 -124c123 0 207 64 207 184v137
c-67 -51 -149 -76 -248 -76c-245 0 -387 150 -387 463v606h244v-606c0 -157 64 -236 192 -235c55 0 101 18 139 53c37 35 57 86 60 151z" />
    <glyph glyph-name="uni04F4" unicode="&#x4f4;" horiz-adv-x="1263" 
d="M315 1823h226v-240h-226v240zM723 1823h227v-240h-227v240zM885 928v522h252v-1450h-252v524c-75 -51 -174 -76 -297 -75c-154 0 -274 39 -360 118c-87 78 -130 190 -130 336v547h252v-518c0 -167 89 -250 268 -250c172 0 267 85 267 246z" />
    <glyph glyph-name="uni04F5" unicode="&#x4f5;" horiz-adv-x="1124" 
d="M246 1413h225v-239h-225v239zM653 1413h228v-239h-228v239zM752 682v358h243v-1040h-243v346c-68 -49 -151 -74 -250 -74c-248 0 -383 140 -383 400v368h243v-323c0 -151 59 -217 187 -217c112 0 188 70 203 182z" />
    <glyph glyph-name="uni04F6" unicode="&#x4f6;" horiz-adv-x="1093" 
d="M1051 1450v-233h-672v-984h207v-509h-252v276h-207v1450h924z" />
    <glyph glyph-name="uni04F7" unicode="&#x4f7;" horiz-adv-x="868" 
d="M827 1040v-225h-456v-590h139v-501h-244v276h-137v1040h698z" />
    <glyph glyph-name="uni04F8" unicode="&#x4f8;" horiz-adv-x="1726" 
d="M547 1823h225v-240h-225v240zM1182 1583h-228v240h228v-240zM379 932h338c142 0 254 -36 337 -109s124 -172 124 -297v-120c0 -124 -42 -223 -125 -296s-196 -110 -338 -110h-588v1450h252v-518zM1348 0v1450h251v-1450h-251zM926 397v138c0 104 -70 163 -195 163h-352
v-465h354c125 0 193 60 193 164z" />
    <glyph glyph-name="uni04F9" unicode="&#x4f9;" horiz-adv-x="1480" 
d="M424 1413h225v-239h-225v239zM1059 1174h-228v239h228v-239zM371 700h245c235 0 367 -118 367 -327v-47c0 -211 -131 -326 -367 -326h-487v1040h242v-340zM1110 0v1040h244v-1040h-244zM739 340v18c0 78 -45 117 -135 117h-233v-250h233c90 0 135 38 135 115z" />
    <glyph glyph-name="uni04FC" unicode="&#x4fc;" horiz-adv-x="1275" 
d="M815 768l344 -494c53 -81 80 -168 80 -262c0 -98 -34 -178 -101 -239c-68 -61 -157 -92 -266 -92h-110v233h90c79 0 135 55 135 131c0 37 -12 72 -37 105l-284 409l-347 -559h-278l469 784l-465 666h293l324 -461l290 461h283z" />
    <glyph glyph-name="uni04FD" unicode="&#x4fd;" horiz-adv-x="1026" 
d="M659 543l279 -385c45 -64 68 -134 68 -209c0 -79 -26 -144 -77 -194c-51 -49 -118 -74 -200 -74h-162v225h115c49 0 80 29 80 76c0 26 -10 52 -29 77l-213 293l-231 -352h-262l354 545l-361 495h277l223 -309l215 309h269z" />
    <glyph glyph-name="uni0510" unicode="&#x510;" horiz-adv-x="1280" 
d="M926 387v78h252v-70c0 -130 -48 -233 -145 -309c-97 -77 -228 -115 -392 -115c-168 0 -300 37 -396 111c-97 74 -145 174 -145 299v96c0 112 44 204 133 275c-71 67 -106 148 -106 245v84c0 124 47 221 142 292c94 71 221 106 382 106c155 0 279 -38 371 -115
c91 -77 137 -180 137 -309v-70h-250v78c0 117 -91 182 -258 182c-181 0 -272 -55 -272 -164v-77c0 -100 69 -150 207 -150h245v-225h-268c-141 0 -211 -53 -211 -158v-96c0 -113 96 -170 289 -170c185 0 285 65 285 182z" />
    <glyph glyph-name="uni0511" unicode="&#x511;" horiz-adv-x="1060" 
d="M729 307v41h242v-35c0 -219 -162 -342 -443 -342c-279 0 -438 122 -438 330v16c0 108 42 184 125 228c-68 45 -102 111 -102 196v19c0 95 38 171 114 226c75 55 179 83 310 83c271 0 426 -123 426 -336v-31h-240v37c0 82 -63 123 -188 123c-119 0 -178 -37 -179 -112v-19
c0 -71 38 -100 133 -100h166v-205h-186c-96 0 -135 -31 -135 -104v-23c0 -81 63 -121 190 -121c137 0 205 43 205 129z" />
    <glyph glyph-name="uni0512" unicode="&#x512;" horiz-adv-x="1400" 
d="M393 1450h881v-1423c0 -147 -44 -267 -133 -360c-89 -92 -210 -138 -363 -138h-108v233h123c156 0 229 102 229 269v1186h-397l-76 -746c-17 -165 -58 -285 -123 -359c-65 -75 -163 -112 -293 -112h-88v233h37c133 0 196 82 215 269z" />
    <glyph glyph-name="uni0513" unicode="&#x513;" horiz-adv-x="1179" 
d="M293 1040h758v-1130c0 -133 -33 -229 -100 -290s-154 -91 -261 -91h-110v225h43c74 0 123 18 148 54c24 37 36 92 36 167v840h-295l-49 -471c-12 -127 -43 -216 -92 -267s-129 -77 -238 -77h-92v225h33c52 0 89 14 112 42c22 28 36 79 43 153z" />
    <glyph glyph-name="uni051C" unicode="&#x51c;" horiz-adv-x="1890" 
d="M1333 272l256 1178h264l-344 -1448h-335l-228 961l-231 -961h-336l-344 1448h266l258 -1180l266 1180h230z" />
    <glyph glyph-name="uni051D" unicode="&#x51d;" horiz-adv-x="1411" 
d="M987 254l156 786h248l-254 -1040h-252l-178 567l-181 -567h-252l-254 1040h248l156 -786l184 786h193z" />
    <glyph glyph-name="uni0524" unicode="&#x524;" horiz-adv-x="1472" 
d="M1223 1450v-1217h207v-509h-252v276h-207v1217h-592v-1217h-252v1450h1096z" />
    <glyph glyph-name="uni0525" unicode="&#x525;" horiz-adv-x="1218" 
d="M1038 225h140v-501h-244v276h-139v815h-424v-815h-242v1040h909v-815z" />
    <glyph glyph-name="uni0526" unicode="&#x526;" horiz-adv-x="1357" 
d="M1167 225h148v-501h-244v276h-156v492c0 165 -89 248 -268 247c-177 0 -266 -81 -266 -243v-496h-252v1450h252v-551c75 51 174 76 295 76c155 0 276 -40 362 -119s129 -191 129 -336v-295z" />
    <glyph glyph-name="uni0527" unicode="&#x527;" horiz-adv-x="1218" 
d="M1038 225h140v-501h-244v276h-139v604c0 156 -82 238 -205 238c-61 0 -112 -18 -153 -53c-41 -36 -63 -87 -66 -154v-635h-242v1577h242v-592c73 56 165 84 276 84c245 0 391 -148 391 -465v-379z" />
    <glyph glyph-name="Wgrave" unicode="&#x1e80;" horiz-adv-x="1890" 
d="M838 1855l235 -303h-260l-283 303h308zM1333 272l256 1178h264l-344 -1448h-335l-228 961l-231 -961h-336l-344 1448h266l258 -1180l266 1180h230z" />
    <glyph glyph-name="wgrave" unicode="&#x1e81;" horiz-adv-x="1411" 
d="M616 1495l209 -352h-233l-254 352h278zM987 254l156 786h248l-254 -1040h-252l-178 567l-181 -567h-252l-254 1040h248l156 -786l184 786h193z" />
    <glyph glyph-name="Wacute" unicode="&#x1e82;" horiz-adv-x="1890" 
d="M1055 1855h307l-283 -303h-260zM1333 272l256 1178h264l-344 -1448h-335l-228 961l-231 -961h-336l-344 1448h266l258 -1180l266 1180h230z" />
    <glyph glyph-name="wacute" unicode="&#x1e83;" horiz-adv-x="1411" 
d="M797 1495h278l-256 -352h-231zM987 254l156 786h248l-254 -1040h-252l-178 567l-181 -567h-252l-254 1040h248l156 -786l184 786h193z" />
    <glyph glyph-name="Wdieresis" unicode="&#x1e84;" horiz-adv-x="1890" 
d="M629 1823h225v-240h-225v240zM1036 1823h228v-240h-228v240zM1333 272l256 1178h264l-344 -1448h-335l-228 961l-231 -961h-336l-344 1448h266l258 -1180l266 1180h230z" />
    <glyph glyph-name="wdieresis" unicode="&#x1e85;" horiz-adv-x="1411" 
d="M389 1413h225v-239h-225v239zM797 1413h227v-239h-227v239zM987 254l156 786h248l-254 -1040h-252l-178 567l-181 -567h-252l-254 1040h248l156 -786l184 786h193z" />
    <glyph glyph-name="Ygrave" unicode="&#x1ef2;" horiz-adv-x="1236" 
d="M510 1855l235 -303h-260l-282 303h307zM928 1450h272l-457 -942v-508h-251v512l-457 938h276l310 -645z" />
    <glyph glyph-name="ygrave" unicode="&#x1ef3;" horiz-adv-x="1126" 
d="M475 1495l209 -352h-233l-254 352h278zM756 403v637h243v-1138c0 -119 -38 -215 -114 -290c-77 -75 -187 -112 -332 -112c-138 0 -243 33 -316 99c-73 67 -112 150 -116 251h244c8 -79 77 -124 184 -124c123 0 207 64 207 184v137c-67 -51 -149 -76 -248 -76
c-245 0 -387 150 -387 463v606h244v-606c0 -157 64 -236 192 -235c55 0 101 18 139 53c37 35 57 86 60 151z" />
    <glyph glyph-name="uni2009" unicode="&#x2009;" horiz-adv-x="169" 
 />
    <glyph glyph-name="endash" unicode="&#x2013;" horiz-adv-x="882" 
d="M791 455h-699v213h699v-213z" />
    <glyph glyph-name="emdash" unicode="&#x2014;" horiz-adv-x="1218" 
d="M1126 455h-1034v213h1034v-213z" />
    <glyph glyph-name="quoteleft" unicode="&#x2018;" horiz-adv-x="450" 
d="M334 1030h-246v262l123 285h106l-49 -285h66v-262z" />
    <glyph glyph-name="quoteright" unicode="&#x2019;" horiz-adv-x="450" 
d="M117 1577h245v-262l-122 -285h-107l49 285h-65v262z" />
    <glyph glyph-name="quotesinglbase" unicode="&#x201a;" horiz-adv-x="481" 
d="M133 262h246v-262l-123 -285h-106l49 285h-66v262z" />
    <glyph glyph-name="quotedblleft" unicode="&#x201c;" horiz-adv-x="806" 
d="M334 1030h-246v262l123 285h106l-49 -285h66v-262zM690 1030h-246v262l123 285h107l-49 -285h65v-262z" />
    <glyph glyph-name="quotedblright" unicode="&#x201d;" horiz-adv-x="806" 
d="M117 1577h245v-262l-122 -285h-107l49 285h-65v262zM473 1577h246v-262l-123 -285h-107l50 285h-66v262z" />
    <glyph glyph-name="quotedblbase" unicode="&#x201e;" horiz-adv-x="858" 
d="M137 262h246v-262l-123 -285h-106l49 285h-66v262zM494 262h245v-262l-123 -285h-106l49 285h-65v262z" />
    <glyph glyph-name="dagger" unicode="&#x2020;" horiz-adv-x="882" 
d="M561 1081h221v-217h-221v-1251h-237v1251h-224v217h224v369h237v-369z" />
    <glyph glyph-name="daggerdbl" unicode="&#x2021;" horiz-adv-x="882" 
d="M782 1081v-217h-221v-325h221v-217h-221v-709h-237v709h-224v217h224v325h-224v217h224v369h237v-369h221z" />
    <glyph glyph-name="bullet" unicode="&#x2022;" horiz-adv-x="628" 
d="M154 788c39 41 93 62 160 62s120 -21 161 -62c40 -42 60 -98 60 -169s-20 -128 -60 -170c-41 -43 -94 -64 -161 -64s-121 21 -160 64c-40 42 -60 99 -60 170s20 127 60 169z" />
    <glyph glyph-name="ellipsis" unicode="&#x2026;" horiz-adv-x="1454" 
d="M373 0h-250v262h250v-262zM852 0h-250v262h250v-262zM1331 0h-250v262h250v-262z" />
    <glyph glyph-name="perthousand" unicode="&#x2030;" horiz-adv-x="2222" 
d="M379 741c-93 0 -168 22 -225 65s-86 99 -86 169v270c0 69 28 126 85 169s131 65 224 65s167 -21 224 -64s85 -100 85 -170v-270c0 -69 -28 -126 -85 -169s-131 -65 -222 -65zM393 0h-196l907 1450h199zM275 926c24 -19 58 -29 102 -29c43 0 78 10 103 29s38 44 38 75v220
c0 60 -52 102 -139 102c-88 0 -141 -42 -141 -102v-220c0 -31 12 -56 37 -75zM1118 -29c-93 0 -168 21 -225 65c-57 43 -86 99 -86 169v270c0 69 28 125 85 168s131 64 224 64s167 -21 224 -63c57 -43 85 -99 85 -169v-270c0 -69 -28 -126 -85 -169s-131 -65 -222 -65z
M1847 -29c-94 0 -169 21 -226 65c-57 43 -85 99 -85 169v270c0 69 28 125 85 168s132 64 225 64s167 -21 224 -63c56 -43 84 -99 84 -169v-270c0 -69 -28 -126 -85 -169s-131 -65 -222 -65zM1116 127c91 0 141 39 141 102v222c0 60 -51 100 -138 100
c-88 0 -142 -40 -142 -100v-222c0 -63 51 -102 139 -102zM1845 127c91 0 142 39 142 102v222c0 60 -52 100 -139 100c-88 0 -142 -40 -142 -100v-222c0 -63 51 -102 139 -102z" />
    <glyph glyph-name="guilsinglleft" unicode="&#x2039;" horiz-adv-x="727" 
d="M127 647l467 352v-249l-303 -226l303 -229v-250l-467 352v250z" />
    <glyph glyph-name="guilsinglright" unicode="&#x203a;" horiz-adv-x="727" 
d="M133 750v249l467 -352v-250l-467 -352v250l303 229z" />
    <glyph glyph-name="fraction" unicode="&#x2044;" horiz-adv-x="305" 
d="M6 0h-203l496 1454h203z" />
    <glyph glyph-name="Euro" unicode="&#x20ac;" horiz-adv-x="1419" 
d="M1319 1014v-113h-264v98c0 156 -102 244 -301 244c-208 0 -318 -91 -318 -244v-36h469v-195h-469v-96h469v-195h-469v-28c0 -156 108 -244 316 -244c203 0 303 88 303 244v100h264v-115c0 -142 -50 -255 -149 -338c-100 -83 -239 -125 -416 -125c-179 0 -318 42 -419 125
s-151 196 -151 338v43h-164v195h164v96h-164v195h164v51c0 142 50 255 150 338c99 83 239 125 418 125s318 -42 418 -125c99 -83 149 -196 149 -338z" />
    <glyph glyph-name="uni20BD" unicode="&#x20bd;" horiz-adv-x="1355" 
d="M225 1450h590c142 0 254 -36 337 -109s124 -172 124 -297v-75c0 -124 -41 -223 -124 -296s-195 -110 -337 -110h-338v-119h389v-233h-389v-211h-252v211h-190v233h190v119h-190v234h190v653zM1026 961v90c0 107 -68 166 -195 166h-354v-420h352c125 0 197 60 197 164z
" />
    <glyph glyph-name="uni2116" unicode="&#x2116;" horiz-adv-x="2410" 
d="M1853 1479c147 0 261 -39 341 -118s120 -187 120 -325v-213c0 -138 -40 -246 -119 -324c-80 -79 -193 -118 -339 -118c-147 0 -260 39 -340 118c-81 78 -121 186 -121 324v213c0 138 40 246 120 325c79 79 192 118 338 118zM362 1450l570 -987v987h237v-1450h-237
l-570 981v-981h-235v1450h235zM2071 831v197c0 150 -72 225 -216 225c-145 0 -217 -75 -217 -225v-197c0 -150 72 -225 215 -225c145 0 218 75 218 225zM2224 0h-756v205h756v-205z" />
    <glyph glyph-name="trademark" unicode="&#x2122;" horiz-adv-x="1329" 
d="M27 1450h499v-139h-174v-516h-149v516h-176v139zM1024 1450h188v-655h-135v424l-127 -424h-106l-125 415v-415h-135v655h186l127 -375z" />
    <glyph glyph-name="Omega" unicode="&#x2126;" horiz-adv-x="1359" 
d="M1163 233h117v-233h-532v233c159 21 238 102 237 244v522c0 164 -101 246 -303 246c-205 0 -307 -82 -307 -246v-522c0 -142 78 -223 235 -244v-233h-532v233h117c-48 63 -72 137 -72 224v557c0 143 49 257 147 340c97 83 235 125 412 125c175 0 311 -42 408 -125
s145 -197 145 -340v-557c0 -87 -24 -161 -72 -224z" />
    <glyph glyph-name="uni2150" unicode="&#x2150;" horiz-adv-x="1644" 
d="M457 0l495 1454h203l-496 -1454h-202zM432 885h119v-162h-422v162h123v405h-123v162h303v-567zM1100 567v162h502v-162l-285 -567h-197l285 567h-305z" />
    <glyph glyph-name="uni2151" unicode="&#x2151;" horiz-adv-x="1644" 
d="M457 0l495 1454h203l-496 -1454h-202zM432 885h119v-162h-422v162h123v405h-123v162h303v-567zM1300 745c78 0 143 -21 194 -63c51 -43 77 -97 77 -162v-301c0 -71 -26 -127 -77 -170s-115 -65 -191 -65c-78 0 -143 21 -194 64c-51 42 -77 98 -77 169h180
c0 -49 37 -76 88 -76c61 0 92 25 93 76v59c-38 -21 -81 -31 -129 -30c-63 0 -117 18 -163 53s-69 83 -69 143v90c0 63 26 114 77 154c51 39 114 59 191 59zM1298 393c60 0 92 18 95 53v89c0 33 -41 53 -92 53c-52 0 -91 -22 -91 -58v-94c0 -24 39 -43 88 -43z" />
    <glyph glyph-name="onethird" unicode="&#x2153;" horiz-adv-x="1644" 
d="M457 0l495 1454h203l-496 -1454h-202zM432 885h119v-162h-422v162h123v405h-123v162h303v-567zM1573 526v-43c0 -44 -15 -83 -45 -116c29 -33 43 -71 43 -115v-51c0 -67 -25 -119 -75 -158s-114 -59 -191 -59c-82 0 -148 21 -199 63c-51 41 -76 95 -76 162v24h180v-34
c0 -35 32 -53 97 -54c57 0 86 16 86 48v61c0 23 -25 35 -74 35h-125v157h125c49 0 74 12 74 37v52c0 31 -28 47 -84 47c-65 0 -98 -17 -99 -52v-41h-180v31c0 67 25 121 76 163c51 41 117 62 199 62c79 0 144 -20 194 -59c49 -40 74 -93 74 -160z" />
    <glyph glyph-name="twothirds" unicode="&#x2154;" horiz-adv-x="1644" 
d="M270 885h326v-162h-522v162c0 35 18 71 54 108c36 36 76 66 121 89c44 23 84 48 121 76c36 28 54 53 54 75v20c0 34 -25 51 -76 52c-55 0 -82 -23 -82 -70v-31h-180v23c0 73 24 131 73 175c48 44 112 66 191 66c75 0 137 -19 184 -58s70 -90 70 -155v-32
c0 -45 -17 -88 -52 -129s-73 -73 -114 -95c-42 -23 -80 -45 -115 -66s-53 -37 -53 -48zM457 0l495 1454h203l-496 -1454h-202zM1573 526v-43c0 -44 -15 -83 -45 -116c29 -33 43 -71 43 -115v-51c0 -67 -25 -119 -75 -158s-114 -59 -191 -59c-82 0 -148 21 -199 63
c-51 41 -76 95 -76 162v24h180v-34c0 -35 32 -53 97 -54c57 0 86 16 86 48v61c0 23 -25 35 -74 35h-125v157h125c49 0 74 12 74 37v52c0 31 -28 47 -84 47c-65 0 -98 -17 -99 -52v-41h-180v31c0 67 25 121 76 163c51 41 117 62 199 62c79 0 144 -20 194 -59
c49 -40 74 -93 74 -160z" />
    <glyph glyph-name="uni2155" unicode="&#x2155;" horiz-adv-x="1644" 
d="M457 0l495 1454h203l-496 -1454h-202zM432 885h119v-162h-422v162h123v405h-123v162h303v-567zM1245 467h111c60 0 108 -19 145 -58s55 -90 55 -153v-57c0 -64 -23 -116 -69 -155c-47 -40 -108 -60 -184 -60c-77 0 -138 20 -185 59s-71 91 -71 156v49h180v-64
c0 -29 24 -43 73 -43c51 0 76 14 76 43v86c0 26 -7 39 -20 39h-291v420h463v-162h-283v-100z" />
    <glyph glyph-name="uni2156" unicode="&#x2156;" horiz-adv-x="1644" 
d="M270 885h326v-162h-522v162c0 35 18 71 54 108c36 36 76 66 121 89c44 23 84 48 121 76c36 28 54 53 54 75v20c0 34 -25 51 -76 52c-55 0 -82 -23 -82 -70v-31h-180v23c0 73 24 131 73 175c48 44 112 66 191 66c75 0 137 -19 184 -58s70 -90 70 -155v-32
c0 -45 -17 -88 -52 -129s-73 -73 -114 -95c-42 -23 -80 -45 -115 -66s-53 -37 -53 -48zM457 0l495 1454h203l-496 -1454h-202zM1245 467h111c60 0 108 -19 145 -58s55 -90 55 -153v-57c0 -64 -23 -116 -69 -155c-47 -40 -108 -60 -184 -60c-77 0 -138 20 -185 59
s-71 91 -71 156v49h180v-64c0 -29 24 -43 73 -43c51 0 76 14 76 43v86c0 26 -7 39 -20 39h-291v420h463v-162h-283v-100z" />
    <glyph glyph-name="uni2157" unicode="&#x2157;" horiz-adv-x="1644" 
d="M612 975v-51c0 -67 -25 -119 -74 -158c-50 -39 -114 -59 -192 -59c-82 0 -148 21 -198 62c-51 41 -76 96 -76 163v24h180v-34c0 -35 32 -53 96 -54c57 0 86 16 86 47v62c0 23 -25 35 -74 35h-124v157h124c49 0 74 12 74 37v51c0 31 -28 47 -84 48c-65 0 -98 -17 -98 -52
v-41h-180v31c0 67 25 121 76 163c50 41 116 62 198 62c79 0 144 -20 194 -59c49 -39 74 -93 74 -160v-43c0 -44 -15 -83 -45 -116c29 -33 43 -71 43 -115zM457 0l495 1454h203l-496 -1454h-202zM1245 467h111c60 0 108 -19 145 -58s55 -90 55 -153v-57
c0 -64 -23 -116 -69 -155c-47 -40 -108 -60 -184 -60c-77 0 -138 20 -185 59s-71 91 -71 156v49h180v-64c0 -29 24 -43 73 -43c51 0 76 14 76 43v86c0 26 -7 39 -20 39h-291v420h463v-162h-283v-100z" />
    <glyph glyph-name="uni2158" unicode="&#x2158;" horiz-adv-x="1644" 
d="M457 0l495 1454h203l-496 -1454h-202zM594 1198v-475h-180v149h-326v162l166 418h197l-166 -418h129v164h180zM1245 467h111c60 0 108 -19 145 -58s55 -90 55 -153v-57c0 -64 -23 -116 -69 -155c-47 -40 -108 -60 -184 -60c-77 0 -138 20 -185 59s-71 91 -71 156v49h180
v-64c0 -29 24 -43 73 -43c51 0 76 14 76 43v86c0 26 -7 39 -20 39h-291v420h463v-162h-283v-100z" />
    <glyph glyph-name="uni2159" unicode="&#x2159;" horiz-adv-x="1644" 
d="M457 0l495 1454h203l-496 -1454h-202zM432 885h119v-162h-422v162h123v405h-123v162h303v-567zM1337 475c64 0 119 -18 165 -53s69 -83 69 -143v-82c0 -63 -26 -114 -77 -153c-51 -40 -115 -60 -191 -60c-79 0 -145 21 -196 63c-51 41 -77 96 -77 164v299
c0 73 26 130 77 172s116 63 194 63c77 0 142 -21 193 -63c51 -43 77 -100 77 -172h-178c0 49 -38 78 -93 78c-60 0 -90 -25 -90 -76v-68c37 21 79 31 127 31zM1391 199v86c0 24 -37 43 -88 43c-59 0 -90 -18 -93 -54v-77c0 -37 31 -55 93 -56c52 0 88 22 88 58z" />
    <glyph glyph-name="uni215A" unicode="&#x215a;" horiz-adv-x="1644" 
d="M457 0l495 1454h203l-496 -1454h-202zM598 979v-57c0 -64 -23 -116 -69 -155c-47 -40 -108 -60 -185 -60s-138 20 -185 59s-71 91 -71 156v49h180v-64c0 -29 25 -43 74 -43c51 0 76 14 76 43v86c0 26 -7 39 -21 39h-291v420h463v-162h-282v-100h110c60 0 109 -19 146 -58
s55 -90 55 -153zM1337 475c64 0 119 -18 165 -53s69 -83 69 -143v-82c0 -63 -26 -114 -77 -153c-51 -40 -115 -60 -191 -60c-79 0 -145 21 -196 63c-51 41 -77 96 -77 164v299c0 73 26 130 77 172s116 63 194 63c77 0 142 -21 193 -63c51 -43 77 -100 77 -172h-178
c0 49 -38 78 -93 78c-60 0 -90 -25 -90 -76v-68c37 21 79 31 127 31zM1391 199v86c0 24 -37 43 -88 43c-59 0 -90 -18 -93 -54v-77c0 -37 31 -55 93 -56c52 0 88 22 88 58z" />
    <glyph glyph-name="oneeighth" unicode="&#x215b;" horiz-adv-x="1644" 
d="M457 0l495 1454h203l-496 -1454h-202zM432 885h119v-162h-422v162h123v405h-123v162h303v-567zM1520 369c41 -34 61 -78 61 -131v-60c0 -59 -26 -106 -77 -141s-119 -53 -204 -53c-83 0 -151 18 -202 53c-52 35 -78 82 -78 141v60c0 53 20 97 61 131
c-35 33 -53 73 -53 120v54c0 60 25 109 76 146s116 56 197 56c80 0 145 -19 196 -56s76 -86 76 -146v-54c0 -49 -18 -89 -53 -120zM1208 539v-54c0 -34 32 -51 95 -51c60 0 90 17 90 51v54c0 37 -31 55 -92 55c-62 0 -93 -18 -93 -55zM1401 182v62c0 38 -33 57 -98 57
c-68 0 -102 -19 -103 -57v-62c0 -31 34 -47 101 -47s100 16 100 47z" />
    <glyph glyph-name="threeeighths" unicode="&#x215c;" horiz-adv-x="1644" 
d="M612 975v-51c0 -67 -25 -119 -74 -158c-50 -39 -114 -59 -192 -59c-82 0 -148 21 -198 62c-51 41 -76 96 -76 163v24h180v-34c0 -35 32 -53 96 -54c57 0 86 16 86 47v62c0 23 -25 35 -74 35h-124v157h124c49 0 74 12 74 37v51c0 31 -28 47 -84 48c-65 0 -98 -17 -98 -52
v-41h-180v31c0 67 25 121 76 163c50 41 116 62 198 62c79 0 144 -20 194 -59c49 -39 74 -93 74 -160v-43c0 -44 -15 -83 -45 -116c29 -33 43 -71 43 -115zM457 0l495 1454h203l-496 -1454h-202zM1520 369c41 -34 61 -78 61 -131v-60c0 -59 -26 -106 -77 -141
s-119 -53 -204 -53c-83 0 -151 18 -202 53c-52 35 -78 82 -78 141v60c0 53 20 97 61 131c-35 33 -53 73 -53 120v54c0 60 25 109 76 146s116 56 197 56c80 0 145 -19 196 -56s76 -86 76 -146v-54c0 -49 -18 -89 -53 -120zM1208 539v-54c0 -34 32 -51 95 -51
c60 0 90 17 90 51v54c0 37 -31 55 -92 55c-62 0 -93 -18 -93 -55zM1401 182v62c0 38 -33 57 -98 57c-68 0 -102 -19 -103 -57v-62c0 -31 34 -47 101 -47s100 16 100 47z" />
    <glyph glyph-name="fiveeighths" unicode="&#x215d;" horiz-adv-x="1644" 
d="M457 0l495 1454h203l-496 -1454h-202zM598 979v-57c0 -64 -23 -116 -69 -155c-47 -40 -108 -60 -185 -60s-138 20 -185 59s-71 91 -71 156v49h180v-64c0 -29 25 -43 74 -43c51 0 76 14 76 43v86c0 26 -7 39 -21 39h-291v420h463v-162h-282v-100h110c60 0 109 -19 146 -58
s55 -90 55 -153zM1520 369c41 -34 61 -78 61 -131v-60c0 -59 -26 -106 -77 -141s-119 -53 -204 -53c-83 0 -151 18 -202 53c-52 35 -78 82 -78 141v60c0 53 20 97 61 131c-35 33 -53 73 -53 120v54c0 60 25 109 76 146s116 56 197 56c80 0 145 -19 196 -56s76 -86 76 -146
v-54c0 -49 -18 -89 -53 -120zM1208 539v-54c0 -34 32 -51 95 -51c60 0 90 17 90 51v54c0 37 -31 55 -92 55c-62 0 -93 -18 -93 -55zM1401 182v62c0 38 -33 57 -98 57c-68 0 -102 -19 -103 -57v-62c0 -31 34 -47 101 -47s100 16 100 47z" />
    <glyph glyph-name="seveneighths" unicode="&#x215e;" horiz-adv-x="1644" 
d="M457 0l495 1454h203l-496 -1454h-202zM141 1452h502v-162l-285 -567h-196l284 567h-305v162zM1520 369c41 -34 61 -78 61 -131v-60c0 -59 -26 -106 -77 -141s-119 -53 -204 -53c-83 0 -151 18 -202 53c-52 35 -78 82 -78 141v60c0 53 20 97 61 131c-35 33 -53 73 -53 120
v54c0 60 25 109 76 146s116 56 197 56c80 0 145 -19 196 -56s76 -86 76 -146v-54c0 -49 -18 -89 -53 -120zM1208 539v-54c0 -34 32 -51 95 -51c60 0 90 17 90 51v54c0 37 -31 55 -92 55c-62 0 -93 -18 -93 -55zM1401 182v62c0 38 -33 57 -98 57c-68 0 -102 -19 -103 -57v-62
c0 -31 34 -47 101 -47s100 16 100 47z" />
    <glyph glyph-name="arrowleft" unicode="&#x2190;" horiz-adv-x="1540" 
d="M575 829h873v-258h-873l429 -417h-347l-563 544v7l563 542h347z" />
    <glyph glyph-name="arrowup" unicode="&#x2191;" horiz-adv-x="1277" 
d="M643 1468l543 -563v-354l-420 434v-985h-252v983l-420 -432v354l543 563h6z" />
    <glyph glyph-name="arrowright" unicode="&#x2192;" horiz-adv-x="1540" 
d="M539 1247h346l563 -542v-7l-563 -544h-346l428 417h-873v258h873z" />
    <glyph glyph-name="arrowdown" unicode="&#x2193;" horiz-adv-x="1277" 
d="M766 1468v-985l420 435v-355l-543 -563h-6l-543 563v355l420 -433v983h252z" />
    <glyph glyph-name="arrowboth" unicode="&#x2194;" horiz-adv-x="2375" 
d="M1374 1247h346l564 -542v-7l-564 -544h-346l428 417h-1227l429 -417h-345l-565 544v7l565 542h345l-429 -418h1227z" />
    <glyph glyph-name="arrowupdn" unicode="&#x2195;" horiz-adv-x="1277" 
d="M1188 1217v-347l-418 428v-1226l418 428v-344l-545 -566h-6l-543 566v344l418 -428v1226l-418 -428v347l543 563h6z" />
    <glyph glyph-name="uni2196" unicode="&#x2196;" horiz-adv-x="1339" 
d="M549 995l696 -698l-178 -178l-694 696l8 -602l-250 250l-14 782l4 4l782 -14l250 -250z" />
    <glyph glyph-name="uni2197" unicode="&#x2197;" horiz-adv-x="1337" 
d="M438 1247l783 15l4 -5l-15 -782l-249 -250l10 604l-699 -696l-178 178l697 695l-603 -9z" />
    <glyph glyph-name="uni2198" unicode="&#x2198;" horiz-adv-x="1337" 
d="M961 1237l249 -250l15 -782l-4 -4l-783 14l-250 250l603 -8l-697 694l178 178l699 -696z" />
    <glyph glyph-name="uni2199" unicode="&#x2199;" horiz-adv-x="1339" 
d="M1067 1352l178 -178l-696 -699l604 10l-250 -249l-782 -15l-4 4l14 783l250 249l-8 -602z" />
    <glyph glyph-name="increment" unicode="&#x2206;" horiz-adv-x="1269" 
d="M455 1450h360l399 -1217v-233h-1159v233zM956 233l-321 957l-322 -957h643z" />
    <glyph glyph-name="product" unicode="&#x220f;" horiz-adv-x="1581" 
d="M61 1450h1459v-233h-207v-1442h-252v1442h-541v-1442h-252v1442h-207v233z" />
    <glyph glyph-name="summation" unicode="&#x2211;" horiz-adv-x="1169" 
d="M55 1450h1061v-233h-774l426 -527v-155l-424 -527h772v-233h-1061v233l488 604l-488 605v233z" />
    <glyph glyph-name="minus" unicode="&#x2212;" horiz-adv-x="1042" 
d="M946 631h-852v233h852v-233z" />
    <glyph glyph-name="uni2215" unicode="&#x2215;" horiz-adv-x="1206" 
d="M188 0h-213l1043 1450h213z" />
    <glyph glyph-name="infinity" unicode="&#x221e;" horiz-adv-x="1400" 
d="M1022 1061c94 0 169 -29 226 -88s85 -139 85 -240v-86c0 -103 -28 -183 -84 -241s-130 -87 -223 -87c-75 0 -137 19 -185 56c-49 37 -98 91 -147 164c-49 -74 -96 -129 -141 -165c-45 -37 -105 -55 -178 -55c-91 0 -165 30 -222 89s-85 138 -85 239v86
c0 101 29 181 86 240s132 88 225 88c133 0 226 -62 315 -182c93 121 203 182 328 182zM412 539c31 0 59 13 83 39c23 25 53 69 89 131c-63 93 -107 133 -170 133c-65 0 -109 -52 -109 -125v-53c0 -76 42 -125 107 -125zM1096 664v53c0 76 -40 125 -111 125
c-57 0 -117 -44 -180 -131c37 -60 68 -104 94 -131s56 -41 90 -41c65 0 107 49 107 125z" />
    <glyph glyph-name="integral" unicode="&#x222b;" horiz-adv-x="708" 
d="M664 1577h131v-225h-88c-125 0 -174 -64 -187 -219l-88 -1149c-11 -135 -46 -235 -106 -300c-60 -64 -154 -96 -281 -96h-131v226h88c125 0 175 64 186 217l88 1149c21 273 137 397 388 397z" />
    <glyph glyph-name="approxequal" unicode="&#x2248;" horiz-adv-x="1056" 
d="M340 1126c49 0 115 -20 197 -61c60 -29 104 -43 131 -43c57 0 86 33 86 100h213c0 -97 -20 -175 -59 -236c-40 -61 -104 -91 -191 -91c-55 0 -123 20 -205 59c-55 29 -95 43 -121 43c-59 0 -88 -37 -88 -111h-213c0 227 83 340 250 340zM340 721c49 0 115 -21 197 -62
c60 -29 104 -43 131 -43c57 0 86 34 86 101h213c0 -97 -20 -175 -59 -236c-40 -61 -104 -92 -191 -92c-55 0 -123 20 -205 60c-55 29 -95 43 -121 43c-59 0 -88 -37 -88 -111h-213c0 227 83 340 250 340z" />
    <glyph glyph-name="notequal" unicode="&#x2260;" horiz-adv-x="1042" 
d="M938 1102v-234h-248l-80 -241h328v-234h-406l-94 -282h-237l94 282h-209v234h287l80 241h-367v234h444l95 282h237l-94 -282h170z" />
    <glyph glyph-name="lessequal" unicode="&#x2264;" horiz-adv-x="1042" 
d="M526 795l385 -271l-129 -180l-659 453l659 450l131 -180zM96 0v233h852v-233h-852z" />
    <glyph glyph-name="greaterequal" unicode="&#x2265;" horiz-adv-x="1042" 
d="M260 344l-129 180l385 271l-387 272l131 180l660 -450zM94 0v233h852v-233h-852z" />
    <glyph glyph-name="Iacute_J.locl" horiz-adv-x="1271" 
d="M362 1855h308l-283 -303h-260zM1130 1855h308l-283 -303h-260zM379 0h-252v1450h252v-1450zM651 0h-110v233h125c153 0 229 105 229 269v948h252v-952c0 -147 -44 -267 -133 -359c-89 -93 -210 -139 -363 -139z" />
    <glyph glyph-name="glyph625" horiz-adv-x="1120" 
d="M872 1622l156 -143l-145 -138c83 -121 125 -281 125 -479v-422c0 -147 -40 -262 -120 -345s-192 -124 -337 -124c-146 0 -259 40 -340 119s-121 189 -121 328v213c0 292 135 438 406 438h24l-121 109l158 149c-71 34 -160 51 -268 51v228c181 0 329 -38 444 -115z
M758 997c-8 69 -24 129 -49 179l-121 -113c63 -10 119 -32 170 -66zM764 451v186c-5 137 -77 205 -215 205c-143 0 -215 -75 -215 -224v-192c0 -153 72 -229 215 -229s215 85 215 254z" />
    <glyph glyph-name="iacute_j.locl" horiz-adv-x="1048" 
d="M342 1495h279l-256 -352h-232zM883 1495h278l-256 -352h-231zM375 0h-244v1040h244v-1040zM555 -471h-113v225h45c74 0 123 18 147 54c24 37 36 92 36 167v1065h243v-1130c0 -133 -33 -229 -100 -290s-153 -91 -258 -91z" />
    <glyph glyph-name="uni0414.aalt" horiz-adv-x="1554" 
d="M956 1450l363 -1217h192v-509h-251v276h-965v-276h-252v509h193l362 1217h358zM778 1157l-276 -924h551z" />
    <glyph glyph-name="uni041B.aalt" horiz-adv-x="1296" 
d="M827 1450l433 -1450h-267l-344 1155l-346 -1155h-268l434 1450h358z" />
    <glyph glyph-name="uni0424.aalt" horiz-adv-x="1832" 
d="M1042 1309h250c142 0 254 -36 337 -109s124 -172 124 -297v-307c0 -124 -41 -223 -124 -296s-195 -110 -337 -110h-250v-190h-251v190h-250c-142 0 -254 37 -337 110s-124 172 -124 296v307c0 124 42 223 125 296s196 110 338 110h248v141h251v-141zM526 424h265v651
h-267c-125 0 -192 -60 -192 -164v-323c0 -104 69 -164 194 -164zM1503 588v323c0 104 -69 164 -194 164h-267v-651h265c125 0 196 60 196 164z" />
    <glyph glyph-name="uni04C5.aalt" horiz-adv-x="1429" 
d="M827 1450l363 -1217h196l-63 -509h-252l35 276h-113l-344 1155l-346 -1155h-268l434 1450h358z" />
    <glyph glyph-name="uni04E2.aalt" horiz-adv-x="1325" 
d="M317 1819h693v-205h-693v205zM362 432l601 1018h237v-1450h-237v1016l-601 -1016h-235v1450h235v-1018z" />
    <glyph glyph-name="uni04E4.aalt" horiz-adv-x="1325" 
d="M346 1823h225v-240h-225v240zM754 1823h227v-240h-227v240zM362 432l601 1018h237v-1450h-237v1016l-601 -1016h-235v1450h235v-1018z" />
    <glyph glyph-name="uni0492.aalt" horiz-adv-x="1093" 
d="M1051 1450v-233h-672v-386h459v-233h-459v-598h-252v1450h924z" />
    <glyph glyph-name="uni04AA.aalt" horiz-adv-x="1337" 
d="M1237 1016v-113h-264v98c0 156 -102 244 -303 244c-208 0 -318 -91 -318 -244v-552c0 -156 108 -244 316 -244c203 0 305 88 305 244v100h264v-115c0 -130 -42 -235 -126 -316s-202 -129 -353 -143l-62 -299h-262l109 304c-141 19 -250 69 -327 149
c-77 79 -116 181 -116 305v582c0 142 50 255 150 338c99 83 239 125 418 125s318 -42 419 -125c100 -83 150 -196 150 -338z" />
    <glyph glyph-name="uni0432.aalt" horiz-adv-x="1101" 
d="M834 938c117 -68 176 -196 176 -385v-139c0 -139 -40 -248 -121 -326s-193 -117 -338 -117s-258 39 -339 117s-122 187 -122 326v755c0 137 38 243 113 318s180 112 315 112c130 0 232 -35 306 -104c73 -69 110 -164 110 -285v-16c0 -107 -33 -192 -100 -256zM520 1370
c-124 0 -186 -70 -186 -209v-166h172c117 0 184 63 184 170v37c0 107 -61 168 -170 168zM766 420v127c0 149 -72 223 -215 223h-217v-350c0 -149 72 -223 215 -223c145 0 217 74 217 223z" />
    <glyph glyph-name="uni0433.aalt" horiz-adv-x="974" 
d="M481 -29c-133 0 -236 30 -311 90c-75 59 -113 141 -113 246c0 71 20 129 61 176c40 47 88 80 145 99s113 35 170 48s105 28 146 46c40 17 60 42 60 74c0 31 -15 57 -46 77c-31 19 -70 29 -118 29c-101 0 -160 -48 -160 -127v-20h-241v20c0 103 37 185 110 247
s169 93 289 93c127 0 226 -30 299 -89s109 -142 109 -247c0 -117 -64 -204 -150 -240c-43 -19 -90 -35 -141 -50c-101 -30 -191 -40 -248 -79c-29 -20 -43 -44 -43 -73c0 -65 68 -107 172 -107c120 0 199 53 199 138v22h239v-22c0 -105 -39 -190 -117 -254
c-79 -65 -182 -97 -311 -97z" />
    <glyph glyph-name="uni0434.aalt" horiz-adv-x="1140" 
d="M807 958l41 82h164v-1138c0 -124 -40 -222 -120 -294s-190 -108 -331 -108c-133 0 -238 31 -315 94c-78 63 -119 149 -123 256h244c8 -79 78 -124 190 -124c133 0 211 67 211 184v139c-69 -52 -160 -78 -272 -78c-271 0 -406 146 -406 439v221c0 292 135 438 406 438
c134 0 238 -37 311 -111zM549 199c130 0 203 61 219 182v278c-17 121 -90 182 -219 183c-143 0 -215 -75 -215 -224v-196c0 -149 72 -223 215 -223z" />
    <glyph glyph-name="uni0436.aalt" horiz-adv-x="1683" 
d="M1221 557l444 -557h-293l-409 508v-508h-242v508l-410 -508h-293l445 557l-440 483h299l399 -432v969h242v-969l399 432h299z" />
    <glyph glyph-name="uni0437.aalt" horiz-adv-x="1064" 
d="M819 330c96 -57 156 -174 156 -307v-89c0 -133 -40 -238 -120 -317c-80 -78 -188 -117 -325 -117c-134 0 -241 38 -320 114c-80 76 -120 179 -120 308v60h246v-66c0 -123 71 -190 196 -190c133 0 199 71 199 213v67c0 129 -62 193 -186 193h-164v225h145
c112 0 174 63 174 178v68c0 109 -62 174 -174 174s-178 -65 -178 -180v-50h-244v56c0 121 39 218 116 291c77 72 180 108 308 108c127 0 228 -36 303 -108c75 -73 113 -170 113 -293v-68c0 -109 -42 -199 -125 -270z" />
    <glyph glyph-name="uni0438.aalt" horiz-adv-x="1124" 
d="M752 403v637h243v-1040h-159l-41 84c-74 -75 -172 -113 -293 -113c-122 0 -216 38 -283 114s-100 192 -100 349v606h241v-606c0 -157 64 -236 193 -235c112 0 194 73 199 204z" />
    <glyph glyph-name="uni0439.aalt" horiz-adv-x="1124" 
d="M790 1214c-60 -54 -136 -81 -229 -81s-168 27 -227 82c-59 54 -88 124 -88 210h153c0 -88 63 -141 162 -141s164 54 164 141h154c0 -87 -30 -158 -89 -211zM752 403v637h243v-1040h-159l-41 84c-74 -75 -172 -113 -293 -113c-122 0 -216 38 -283 114s-100 192 -100 349
v606h241v-606c0 -157 64 -236 193 -235c112 0 194 73 199 204z" />
    <glyph glyph-name="uni048B.aalt" horiz-adv-x="1173" 
d="M981 225h149l-63 -501h-242l35 276h-39l-41 84c-74 -75 -172 -113 -293 -113s-215 38 -282 114s-101 192 -101 349v606h242v-606c0 -157 64 -236 193 -235c112 0 193 73 198 204v637h244v-815z" />
    <glyph glyph-name="glyph643" horiz-adv-x="1124" 
d="M473 1495l209 -352h-233l-254 352h278zM752 403v637h243v-1040h-159l-41 84c-74 -75 -172 -113 -293 -113c-122 0 -216 38 -283 114s-100 192 -100 349v606h241v-606c0 -157 64 -236 193 -235c112 0 194 73 199 204z" />
    <glyph glyph-name="uni043A.aalt" horiz-adv-x="1091" 
d="M629 557l444 -557h-293l-409 508v-508h-242v1577h242v-969l399 432h299z" />
    <glyph glyph-name="uni043B.aalt" horiz-adv-x="989" 
d="M655 1040l314 -1040h-252l-215 786l-230 -786h-252l314 1040h321z" />
    <glyph glyph-name="uni043F.aalt" horiz-adv-x="1157" 
d="M645 1069c248 0 393 -148 393 -465v-604h-243v606c0 156 -79 236 -207 236c-60 0 -110 -18 -151 -53c-41 -36 -63 -87 -66 -152v-637h-242v1040h158l45 -90c77 79 182 119 313 119z" />
    <glyph glyph-name="uni0442.aalt" horiz-adv-x="1685" 
d="M1194 1069c250 0 375 -155 375 -465v-604h-244v616c0 148 -68 226 -172 226c-96 0 -171 -70 -182 -187v-41v-614h-244v616c0 148 -68 226 -172 226c-101 0 -179 -74 -184 -205v-637h-242v1040h158l41 -84c71 75 160 113 268 113c143 0 244 -48 303 -145
c71 97 170 145 295 145z" />
    <glyph glyph-name="uni0444.aalt" horiz-adv-x="1660" 
d="M952 1040h189c279 0 430 -151 430 -438v-164c0 -287 -151 -438 -430 -438h-189v-471h-243v471h-189c-279 0 -430 151 -430 438v164c0 287 151 438 430 438h189v410h243v-410zM551 227h158v586h-158c-145 0 -217 -74 -217 -223v-141c0 -148 72 -222 217 -222zM1327 449
v141c0 149 -72 223 -217 223h-158v-586h158c145 1 217 75 217 222z" />
    <glyph glyph-name="uni0446.aalt" horiz-adv-x="1173" 
d="M991 1040v-815h139v-501h-243v276h-56l-40 84c-74 -75 -171 -113 -291 -113c-257 0 -385 154 -385 463v606h243v-606c0 -157 64 -236 191 -235c112 0 195 73 199 204v637h243z" />
    <glyph glyph-name="uni0448.aalt" horiz-adv-x="1685" 
d="M1315 403v637h244v-1040h-160l-41 84c-71 -75 -160 -113 -268 -113c-141 0 -242 49 -304 146c-71 -97 -169 -145 -294 -146c-249 0 -373 154 -373 463v606h241v-616c0 -148 69 -225 172 -225c101 0 180 73 185 204v23v614h241v-616c0 -148 69 -225 172 -225
c101 0 180 73 185 204z" />
    <glyph glyph-name="uni0449.aalt" horiz-adv-x="1734" 
d="M1554 1040v-815h140v-501h-244v276h-55l-41 84c-71 -75 -160 -113 -269 -113c-141 0 -242 49 -303 146c-71 -97 -169 -145 -295 -146c-249 0 -373 154 -372 463v606h241v-616c0 -148 69 -225 172 -225c101 0 180 73 185 204v23v614h241v-616c0 -148 69 -225 172 -225
c101 0 180 73 185 204v637h243z" />
    <glyph glyph-name="uni044C.aalt" horiz-adv-x="1044" 
d="M541 700h88c227 0 354 -118 354 -327v-47c0 -208 -129 -326 -365 -326h-129c-232 0 -360 115 -360 326v714h242v-370c48 21 105 31 170 30zM739 340v18c0 78 -44 117 -131 117h-108c-52 0 -95 -12 -129 -35v-100c0 -77 44 -115 131 -115h106c87 0 131 38 131 115z" />
    <glyph glyph-name="uni044A.aalt" horiz-adv-x="1120" 
d="M616 700h89c227 0 354 -118 354 -327v-47c0 -208 -130 -326 -365 -326h-127c-232 0 -362 115 -362 326v489h-180v225h424v-370c48 21 104 31 167 30zM815 340v18c0 78 -44 117 -131 117h-109c-51 0 -93 -11 -126 -33v-102c0 -77 43 -115 129 -115h108
c86 0 129 38 129 115z" />
    <glyph glyph-name="uni044B.aalt" horiz-adv-x="1470" 
d="M541 700h88c227 0 354 -118 354 -327v-47c0 -208 -129 -326 -365 -326h-129c-232 0 -360 115 -360 326v714h242v-370c48 21 105 31 170 30zM1098 0v1040h243v-1040h-243zM739 340v18c0 78 -44 117 -131 117h-108c-52 0 -95 -12 -129 -35v-100c0 -77 44 -115 131 -115h106
c87 0 131 38 131 115z" />
    <glyph glyph-name="uni04C6.aalt" horiz-adv-x="1165" 
d="M899 225h223l-63 -501h-244l35 276h-135l-215 786l-230 -786h-252l314 1040h321z" />
    <glyph glyph-name="uni0493.aalt" horiz-adv-x="868" 
d="M827 1040v-225h-456v-235h311v-205h-311v-375h-242v1040h698z" />
    <glyph glyph-name="uni04AB.aalt" horiz-adv-x="1075" 
d="M985 645v-24h-246v30c0 123 -73 193 -196 193c-139 0 -209 -75 -209 -226v-196c0 -150 70 -225 209 -225c123 0 196 69 196 192v31h246v-25c0 -115 -32 -209 -96 -283c-64 -75 -151 -120 -262 -135l-62 -301h-262l111 308c-208 44 -324 201 -324 430v213
c0 138 40 246 119 325c79 78 191 117 334 117c135 0 243 -38 323 -114c79 -77 119 -180 119 -310z" />
    <glyph glyph-name="uni0431.locl" horiz-adv-x="1101" 
d="M557 1069c138 0 248 -36 330 -109s123 -184 123 -333v-213c0 -138 -40 -246 -120 -325s-193 -118 -339 -118s-259 39 -340 118s-121 187 -121 325v213c0 145 44 255 133 331c-63 63 -94 150 -94 263c0 112 32 199 97 262c64 63 152 94 263 94h420v-225h-393
c-95 0 -143 -47 -143 -142c0 -56 16 -93 49 -112s78 -29 135 -29zM766 420v201c0 149 -72 223 -215 223c-145 0 -217 -74 -217 -223v-201c0 -149 72 -223 215 -223c145 0 217 74 217 223z" />
    <glyph glyph-name="uni0431.locl001" horiz-adv-x="1101" 
d="M557 1069c138 0 248 -36 330 -109s123 -184 123 -333v-213c0 -138 -40 -246 -120 -325s-193 -118 -339 -118s-259 39 -340 118s-121 187 -121 325v213c0 145 44 255 133 331c-63 63 -94 150 -94 263c0 112 32 199 97 262c64 63 152 94 263 94h420v-225h-393
c-95 0 -143 -47 -143 -142c0 -56 16 -93 49 -112s78 -29 135 -29zM766 420v201c0 149 -72 223 -215 223c-145 0 -217 -74 -217 -223v-201c0 -149 72 -223 215 -223c145 0 217 74 217 223z" />
    <glyph glyph-name="zero.inferior" 
d="M549 -116c-52 -43 -120 -64 -205 -64s-153 21 -206 64s-79 100 -79 169v295c0 69 26 126 79 169s121 65 206 65s153 -21 205 -64s78 -100 78 -170v-295c0 -69 -26 -126 -78 -169zM344 -18c63 0 102 32 102 77v283c0 47 -39 76 -102 76c-65 0 -104 -29 -104 -76v-283
c0 -47 39 -77 104 -77z" />
    <glyph glyph-name="one.inferior" 
d="M432 565v-567h119v-162h-422v162h123v405h-123v162h303z" />
    <glyph glyph-name="two.inferior" 
d="M604 369v-33c0 -45 -17 -88 -52 -129s-73 -73 -114 -95c-42 -23 -80 -45 -115 -66s-53 -37 -53 -48h326v-162h-522v162c0 35 18 71 54 108c36 36 76 66 121 89c44 23 84 48 121 76c36 28 54 53 54 75v21c0 34 -25 51 -76 51c-55 0 -82 -23 -82 -70v-31h-180v23
c0 73 24 131 73 176c48 44 112 66 191 66c75 0 137 -19 184 -58s70 -91 70 -155z" />
    <glyph glyph-name="three.inferior" 
d="M614 362v-43c0 -44 -15 -83 -45 -116c29 -33 43 -71 43 -115v-51c0 -67 -25 -120 -74 -159c-50 -39 -114 -58 -192 -58c-82 0 -148 21 -198 62c-51 42 -76 96 -76 163v25h180v-35c0 -35 32 -53 96 -53c57 0 86 16 86 47v61c0 23 -25 35 -74 35h-124v158h124
c49 0 74 12 74 36v52c0 31 -28 47 -84 47c-65 0 -98 -17 -98 -51v-41h-180v30c0 67 25 121 76 163c50 42 116 63 198 63c79 0 144 -20 194 -60c49 -40 74 -93 74 -160z" />
    <glyph glyph-name="four.inferior" 
d="M414 147v164h180v-475h-180v150h-326v161l166 418h197l-166 -418h129z" />
    <glyph glyph-name="five.inferior" 
d="M287 303h110c60 0 109 -19 146 -58s55 -90 55 -153v-57c0 -64 -23 -116 -69 -156c-47 -39 -108 -59 -185 -59s-138 20 -185 59c-47 40 -71 92 -71 156v49h180v-64c0 -29 25 -43 74 -43c51 0 76 14 76 43v86c0 26 -7 39 -21 39h-291v420h463v-162h-282v-100z" />
    <glyph glyph-name="six.inferior" 
d="M379 311c64 0 119 -18 165 -53c45 -35 68 -83 68 -143v-82c0 -63 -25 -114 -76 -154c-51 -39 -115 -59 -192 -59c-79 0 -144 21 -195 62c-51 42 -77 97 -77 165v299c0 73 26 130 77 173c51 42 115 63 193 63s143 -21 194 -63c51 -43 76 -100 76 -173h-178
c0 49 -37 78 -92 78c-60 0 -90 -25 -90 -76v-67c37 20 79 30 127 30zM432 35v86c0 24 -36 43 -88 43c-59 0 -89 -18 -92 -53v-78c0 -37 31 -55 92 -56c52 0 88 22 88 58z" />
    <glyph glyph-name="seven.inferior" 
d="M141 403v162h502v-162l-285 -567h-196l284 567h-305z" />
    <glyph glyph-name="eight.inferior" 
d="M561 205c41 -34 61 -78 62 -131v-60c0 -59 -26 -106 -77 -141s-119 -53 -204 -53c-83 0 -151 18 -203 53s-78 82 -78 141v60c0 53 21 97 62 131c-35 33 -53 73 -53 121v53c0 60 25 109 76 147c50 37 115 56 196 56s146 -19 197 -56c50 -38 75 -87 75 -147v-53
c0 -49 -18 -90 -53 -121zM250 375v-53c0 -34 31 -51 94 -52c60 0 90 17 90 52v53c0 37 -31 55 -92 55s-92 -18 -92 -55zM442 18v62c0 38 -33 57 -98 57c-68 0 -102 -19 -102 -57v-62c0 -31 33 -47 100 -47s100 16 100 47z" />
    <glyph glyph-name="nine.inferior" 
d="M342 582c78 0 143 -21 194 -63c51 -43 76 -97 76 -163v-301c0 -71 -25 -128 -76 -171s-115 -64 -192 -64c-78 0 -142 21 -193 63c-51 43 -77 99 -77 170h180c0 -49 36 -76 88 -76c61 0 92 25 92 76v60c-38 -21 -81 -31 -129 -31c-63 0 -117 18 -162 53
c-46 35 -69 83 -69 144v90c0 63 26 114 77 154c51 39 114 59 191 59zM340 229c60 0 91 18 94 54v88c0 33 -40 53 -92 53s-90 -22 -90 -57v-95c0 -24 39 -43 88 -43z" />
    <glyph glyph-name="zero.dnom" horiz-adv-x="686" 
d="M549 49c-52 -43 -120 -65 -205 -65s-153 22 -206 65s-79 99 -79 168v295c0 69 26 126 79 169s121 64 206 64s153 -21 205 -64s78 -100 78 -169v-295c0 -69 -26 -125 -78 -168zM344 145c63 0 102 31 102 78v283c0 47 -39 76 -102 76c-65 0 -104 -29 -104 -76v-283
c0 -47 39 -78 104 -78z" />
    <glyph glyph-name="one.dnom" horiz-adv-x="686" 
d="M432 729v-567h119v-162h-422v162h123v405h-123v162h303z" />
    <glyph glyph-name="two.dnom" horiz-adv-x="686" 
d="M604 532v-32c0 -45 -17 -88 -52 -129s-73 -73 -114 -95c-42 -23 -80 -45 -115 -66s-53 -37 -53 -48h326v-162h-522v162c0 35 18 71 54 108c36 36 76 66 121 89c44 23 84 48 121 76c36 28 54 53 54 75v20c0 34 -25 51 -76 52c-55 0 -82 -23 -82 -70v-31h-180v23
c0 73 24 131 73 175c48 44 112 66 191 66c75 0 137 -19 184 -58s70 -90 70 -155z" />
    <glyph glyph-name="three.dnom" horiz-adv-x="686" 
d="M614 526v-43c0 -44 -15 -83 -45 -116c29 -33 43 -71 43 -115v-51c0 -67 -25 -119 -74 -158c-50 -39 -114 -59 -192 -59c-82 0 -148 21 -198 63c-51 41 -76 95 -76 162v24h180v-34c0 -35 32 -53 96 -54c57 0 86 16 86 48v61c0 23 -25 35 -74 35h-124v157h124
c49 0 74 12 74 37v52c0 31 -28 47 -84 47c-65 0 -98 -17 -98 -52v-41h-180v31c0 67 25 121 76 163c50 41 116 62 198 62c79 0 144 -20 194 -59c49 -40 74 -93 74 -160z" />
    <glyph glyph-name="four.dnom" horiz-adv-x="686" 
d="M414 311v164h180v-475h-180v150h-326v161l166 418h197l-166 -418h129z" />
    <glyph glyph-name="five.dnom" horiz-adv-x="686" 
d="M287 467h110c60 0 109 -19 146 -58s55 -90 55 -153v-57c0 -64 -23 -116 -69 -155c-47 -40 -108 -60 -185 -60s-138 20 -185 59s-71 91 -71 156v49h180v-64c0 -29 25 -43 74 -43c51 0 76 14 76 43v86c0 26 -7 39 -21 39h-291v420h463v-162h-282v-100z" />
    <glyph glyph-name="six.dnom" horiz-adv-x="686" 
d="M379 475c64 0 119 -18 165 -53c45 -35 68 -83 68 -143v-82c0 -63 -25 -114 -76 -153c-51 -40 -115 -60 -192 -60c-79 0 -144 21 -195 63c-51 41 -77 96 -77 164v299c0 73 26 130 77 172s115 63 193 63s143 -21 194 -63c51 -43 76 -100 76 -172h-178c0 49 -37 78 -92 78
c-60 0 -90 -25 -90 -76v-68c37 21 79 31 127 31zM432 199v86c0 24 -36 43 -88 43c-59 0 -89 -18 -92 -54v-77c0 -37 31 -55 92 -56c52 0 88 22 88 58z" />
    <glyph glyph-name="seven.dnom" horiz-adv-x="686" 
d="M141 567v162h502v-162l-285 -567h-196l284 567h-305z" />
    <glyph glyph-name="eight.dnom" horiz-adv-x="686" 
d="M561 369c41 -34 61 -78 62 -131v-60c0 -59 -26 -106 -77 -141s-119 -53 -204 -53c-83 0 -151 18 -203 53s-78 82 -78 141v60c0 53 21 97 62 131c-35 33 -53 73 -53 120v54c0 60 25 109 76 146c50 37 115 56 196 56s146 -19 197 -56c50 -37 75 -86 75 -146v-54
c0 -49 -18 -89 -53 -120zM250 539v-54c0 -34 31 -51 94 -51c60 0 90 17 90 51v54c0 37 -31 55 -92 55s-92 -18 -92 -55zM442 182v62c0 38 -33 57 -98 57c-68 0 -102 -19 -102 -57v-62c0 -31 33 -47 100 -47s100 16 100 47z" />
    <glyph glyph-name="nine.dnom" horiz-adv-x="686" 
d="M342 745c78 0 143 -21 194 -63c51 -43 76 -97 76 -162v-301c0 -71 -25 -127 -76 -170s-115 -65 -192 -65c-78 0 -142 21 -193 64c-51 42 -77 98 -77 169h180c0 -49 36 -76 88 -76c61 0 92 25 92 76v59c-38 -21 -81 -31 -129 -30c-63 0 -117 18 -162 53
c-46 35 -69 83 -69 143v90c0 63 26 114 77 154c51 39 114 59 191 59zM340 393c60 0 91 18 94 53v89c0 33 -40 53 -92 53s-90 -22 -90 -58v-94c0 -24 39 -43 88 -43z" />
    <glyph glyph-name="zero.numr" 
d="M549 772c-52 -43 -120 -65 -205 -65s-153 22 -206 65s-79 99 -79 168v295c0 69 26 126 79 169s121 64 206 64s153 -21 205 -64s78 -100 78 -169v-295c0 -69 -26 -125 -78 -168zM344 868c63 0 102 31 102 78v283c0 47 -39 76 -102 76c-65 0 -104 -29 -104 -76v-283
c0 -47 39 -78 104 -78z" />
    <glyph glyph-name="one.numr" 
d="M432 1452v-567h119v-162h-422v162h123v405h-123v162h303z" />
    <glyph glyph-name="two.numr" 
d="M604 1255v-32c0 -45 -17 -88 -52 -129s-73 -73 -114 -95c-42 -23 -80 -45 -115 -66s-53 -37 -53 -48h326v-162h-522v162c0 35 18 71 54 108c36 36 76 66 121 89c44 23 84 48 121 76c36 28 54 53 54 75v20c0 34 -25 51 -76 52c-55 0 -82 -23 -82 -70v-31h-180v23
c0 73 24 131 73 175c48 44 112 66 191 66c75 0 137 -19 184 -58s70 -90 70 -155z" />
    <glyph glyph-name="three.numr" 
d="M614 1249v-43c0 -44 -15 -83 -45 -116c29 -33 43 -71 43 -115v-51c0 -67 -25 -119 -74 -158c-50 -39 -114 -59 -192 -59c-82 0 -148 21 -198 62c-51 41 -76 96 -76 163v24h180v-34c0 -35 32 -53 96 -54c57 0 86 16 86 47v62c0 23 -25 35 -74 35h-124v157h124
c49 0 74 12 74 37v51c0 31 -28 47 -84 48c-65 0 -98 -17 -98 -52v-41h-180v31c0 67 25 121 76 163c50 41 116 62 198 62c79 0 144 -20 194 -59c49 -40 74 -93 74 -160z" />
    <glyph glyph-name="four.numr" 
d="M414 1034v164h180v-475h-180v149h-326v162l166 418h197l-166 -418h129z" />
    <glyph glyph-name="five.numr" 
d="M287 1190h110c60 0 109 -19 146 -58s55 -90 55 -153v-57c0 -64 -23 -116 -69 -155c-47 -40 -108 -60 -185 -60s-138 20 -185 59s-71 91 -71 156v49h180v-64c0 -29 25 -43 74 -43c51 0 76 14 76 43v86c0 26 -7 39 -21 39h-291v420h463v-162h-282v-100z" />
    </font>
</defs>
</svg>
