<?xml version="1.0" encoding="utf-8"?>
<!-- Generator: Adobe Illustrator 25.2.1, SVG Export Plug-In . SVG Version: 6.00 Build 0)  -->
<svg version="1.1" id="Layer_1" xmlns="http://www.w3.org/2000/svg" xmlns:xlink="http://www.w3.org/1999/xlink" x="0px" y="0px"
	 viewBox="0 0 512 512" style="enable-background:new 0 0 512 512;" xml:space="preserve">
<style type="text/css">
	.st0{fill:#D8D8D8;}
	.st1{fill:#387686;}
</style>
<g>
	<path class="st0" d="M479.1,415c-0.3-1-0.8-1.9-1.2-2.8l-203.5-381c-4.9-9.2-15.9-13.4-25.7-9.7c-0.5,0.2-1,0.4-1.5,0.6
		c-0.2,0.1-0.5,0.2-0.7,0.3c-0.1,0.1-0.3,0.1-0.4,0.2c-0.3,0.1-0.5,0.3-0.8,0.5l-1.1,0.7c-0.2,0.1-0.4,0.2-0.5,0.4l-2.2,1.9
		c-0.2,0.2-0.3,0.3-0.5,0.5l-1,1.1c-0.3,0.4-0.6,0.7-0.9,1.1l-0.8,1.2c-0.3,0.4-0.6,0.9-0.8,1.4L34.1,412.2c-0.5,1-0.9,1.9-1.3,3
		c-1.2,3.1-1.9,6.5-1.9,9.9c0,20.6,24.3,39.2,63.8,52.9c13.5,4.6,27.4,8.4,41.4,11.3c13.6,2.9,28.2,5.3,43.5,7.2
		c14.5,1.8,29.7,3,45.4,3.8c10.2,0.5,20.5,0.7,31.1,0.7c10.5,0,20.9-0.2,31.1-0.7c15.7-0.7,30.9-2,45.4-3.8
		c15.3-1.9,29.9-4.3,43.5-7.2c14-2.9,27.8-6.7,41.4-11.3c39.5-13.7,63.8-32.3,63.8-52.9C481.1,421.6,480.4,418.2,479.1,415z
		 M311.5,457.1l-37-69.4c-4.9-9.2-15.9-13.4-25.7-9.7c-0.5,0.2-1,0.4-1.5,0.6c-0.2,0.1-0.5,0.2-0.7,0.3l-0.4,0.2
		c-0.3,0.1-0.5,0.3-0.8,0.4l-1.1,0.7l-0.5,0.4l-2.2,1.9c-0.2,0.2-0.3,0.3-0.5,0.5l-1,1.1c-0.3,0.4-0.6,0.7-0.9,1.1l-0.8,1.2
		c-0.3,0.4-0.6,0.9-0.8,1.4l-37,69.3c-15.5-1.3-30.4-3.2-44.4-5.5L237,300c5.6-10.4,18.6-14.4,29-8.8c3.8,2,6.8,5.1,8.8,8.8
		l80.9,151.6C341.8,453.9,327,455.8,311.5,457.1z M415.5,437.1c-5.5,1.9-11.2,3.6-17.2,5.2l-123.9-232c-4.9-9.2-15.9-13.4-25.7-9.7
		c-0.5,0.2-1,0.4-1.5,0.6c-0.2,0.1-0.5,0.2-0.7,0.3c-0.1,0.1-0.3,0.1-0.4,0.2c-0.3,0.1-0.5,0.3-0.8,0.5l-1.1,0.7
		c-0.2,0.1-0.4,0.2-0.5,0.4l-2.2,1.9c-0.2,0.2-0.3,0.3-0.5,0.5l-1,1.1c-0.3,0.4-0.6,0.7-0.9,1.1l-0.8,1.2c-0.3,0.4-0.6,0.9-0.8,1.4
		L113.6,442.4c-6-1.6-11.7-3.4-17.2-5.2C85.2,433.4,79.2,421.2,83,410c0.4-1.1,0.9-2.2,1.4-3.3l152.7-285.9
		c5.6-10.4,18.6-14.4,29-8.8c3.7,2,6.8,5.1,8.8,8.8l152.7,285.9c5.6,10.5,1.6,23.4-8.8,29C417.7,436.3,416.6,436.7,415.5,437.1
		L415.5,437.1z"/>
	<path class="st1" d="M479.1,407.1c-0.3-1-0.8-1.9-1.2-2.8l-203.5-381c-4.9-9.2-15.9-13.4-25.7-9.7c-0.5,0.2-1,0.4-1.5,0.6
		c-0.2,0.1-0.5,0.2-0.7,0.3c-0.1,0.1-0.3,0.1-0.4,0.2c-0.3,0.1-0.5,0.3-0.8,0.5l-1.1,0.7c-0.2,0.1-0.4,0.2-0.5,0.4l-2.2,1.9
		c-0.2,0.2-0.3,0.3-0.5,0.5l-1,1.1c-0.3,0.4-0.6,0.7-0.9,1.1l-0.8,1.2c-0.3,0.4-0.6,0.9-0.8,1.4L34.1,404.3c-0.5,1-0.9,1.9-1.3,3
		c-1.2,3.1-1.9,6.5-1.9,9.9c0,20.6,24.3,39.2,63.8,52.9c13.5,4.6,27.4,8.4,41.4,11.3c13.6,2.9,28.2,5.3,43.5,7.2
		c14.5,1.8,29.7,3,45.4,3.8c10.2,0.5,20.5,0.7,31.1,0.7c10.5,0,20.9-0.2,31.1-0.7c15.7-0.7,30.9-2,45.4-3.8
		c15.3-1.9,29.9-4.3,43.5-7.2c14-2.9,27.8-6.7,41.4-11.3c39.5-13.7,63.8-32.3,63.8-52.9C481.1,413.7,480.4,410.3,479.1,407.1z
		 M311.5,449.2l-37-69.4c-4.9-9.2-15.9-13.4-25.7-9.7c-0.5,0.2-1,0.4-1.5,0.6c-0.2,0.1-0.5,0.2-0.7,0.3l-0.4,0.2
		c-0.3,0.1-0.5,0.3-0.8,0.4l-1.1,0.7l-0.5,0.4l-2.2,1.9c-0.2,0.2-0.3,0.3-0.5,0.5l-1,1.1c-0.3,0.4-0.6,0.7-0.9,1.1l-0.8,1.2
		c-0.3,0.4-0.6,0.9-0.8,1.4l-37,69.3c-15.5-1.3-30.4-3.2-44.4-5.5l81-151.6c5.6-10.4,18.6-14.4,29-8.8c3.8,2,6.8,5.1,8.8,8.8
		l80.9,151.6C341.8,446,327,447.9,311.5,449.2z M415.5,429.2c-5.5,1.9-11.2,3.6-17.2,5.2l-123.9-232c-4.9-9.2-15.9-13.4-25.7-9.7
		c-0.5,0.2-1,0.4-1.5,0.6c-0.2,0.1-0.5,0.2-0.7,0.3c-0.1,0.1-0.3,0.1-0.4,0.2c-0.3,0.1-0.5,0.3-0.8,0.5l-1.1,0.7
		c-0.2,0.1-0.4,0.2-0.5,0.4l-2.2,1.9c-0.2,0.2-0.3,0.3-0.5,0.5l-1,1.1c-0.3,0.4-0.6,0.7-0.9,1.1l-0.8,1.2c-0.3,0.4-0.6,0.9-0.8,1.4
		L113.6,434.5c-6-1.6-11.7-3.4-17.2-5.2c-11.2-3.8-17.3-15.9-13.5-27.1c0.4-1.1,0.9-2.2,1.4-3.3l152.7-285.9
		c5.6-10.4,18.6-14.4,29-8.8c3.7,2,6.8,5.1,8.8,8.8l152.7,285.9c5.6,10.5,1.6,23.4-8.8,29C417.7,428.4,416.6,428.8,415.5,429.2
		L415.5,429.2z"/>
</g>
</svg>
