<svg id="Layer_1" data-name="Layer 1" xmlns="http://www.w3.org/2000/svg" viewBox="0 0 512 512"><path d="M482.26,412.66A21.82,21.82,0,0,0,481,409.8L274.71,23.49a21.15,21.15,0,0,0-26.1-9.85c-.5.18-1,.39-1.51.61a6.16,6.16,0,0,0-.68.34,2.81,2.81,0,0,0-.39.19c-.28.15-.54.3-.8.46L244.1,16c-.19.12-.37.25-.55.38l-2.28,1.92c-.19.17-.35.34-.52.51l-1,1.08c-.3.37-.6.73-.87,1.11l-.8,1.18a13.78,13.78,0,0,0-.83,1.39L31,409.82a23.17,23.17,0,0,0-1.33,3,27.88,27.88,0,0,0-1.91,10c0,20.85,24.66,39.77,64.7,53.63a354.12,354.12,0,0,0,41.94,11.43c13.78,2.93,28.55,5.38,44.12,7.26,14.68,1.79,30.07,3.09,46,3.83q15.45.7,31.49.72c10.69,0,21.22-.25,31.52-.72,15.92-.74,31.31-2,46-3.83,15.56-1.89,30.33-4.33,44.11-7.26a353.94,353.94,0,0,0,41.93-11.43c40.05-13.86,64.7-32.78,64.7-53.63A27.69,27.69,0,0,0,482.26,412.66Zm-170,42.73-37.55-70.34a21.17,21.17,0,0,0-26.1-9.85c-.5.18-1,.39-1.51.62a6.08,6.08,0,0,0-.68.33l-.39.2c-.28.14-.54.29-.8.45l-1.13.71-.55.38-2.28,1.92c-.19.17-.35.35-.52.52l-1,1.07c-.3.37-.6.74-.87,1.11l-.8,1.18a15.15,15.15,0,0,0-.83,1.4l-37.53,70.3c-15.72-1.34-30.79-3.23-45-5.61l82.08-153.7a21.74,21.74,0,0,1,38.36,0l82.07,153.7C343,452.16,328,454.05,312.26,455.39Zm105.49-20.28c-5.53,1.88-11.36,3.65-17.43,5.32L274.71,205.21a21.15,21.15,0,0,0-26.1-9.85c-.5.18-1,.39-1.51.61a6.16,6.16,0,0,0-.68.34,2.81,2.81,0,0,0-.39.19c-.28.15-.54.3-.8.46l-1.13.71c-.19.12-.37.25-.55.38L241.27,200c-.19.17-.35.34-.52.51l-1,1.08c-.3.37-.6.73-.87,1.11l-.8,1.18a13.78,13.78,0,0,0-.83,1.39L111.68,440.43c-6.07-1.67-11.89-3.45-17.41-5.32A21.74,21.74,0,0,1,82,404.26L236.83,114.34a21.75,21.75,0,0,1,38.36,0L430,404.26A21.75,21.75,0,0,1,417.75,435.11Z" fill="#387686" stroke="#0d0d0d" stroke-miterlimit="10" stroke-width="5"/></svg>