<svg xmlns="http://www.w3.org/2000/svg" viewBox="0 0 512 512"><g id="Layer_5" data-name="Layer 5"><rect width="512" height="512" fill="#0d0d0d"/><path d="M441.6,384.51a16.83,16.83,0,0,0-1-2.35L271.34,65.27a17.35,17.35,0,0,0-21.4-8.08c-.41.15-.84.32-1.24.51a4.77,4.77,0,0,0-.56.27,3.18,3.18,0,0,0-.32.16l-.66.37-.92.59a5.09,5.09,0,0,0-.45.31L243.91,61c-.15.14-.28.29-.42.43l-.8.88c-.24.3-.48.6-.71.91l-.66,1a11.74,11.74,0,0,0-.67,1.14L71.43,382.18a16.51,16.51,0,0,0-1.09,2.49,22.77,22.77,0,0,0-1.57,8.19c0,17.1,20.23,32.62,53.07,44a291.41,291.41,0,0,0,34.4,9.38c11.31,2.4,23.43,4.41,36.19,5.95,12,1.47,24.67,2.54,37.73,3.15q12.68.57,25.84.59c8.76,0,17.4-.21,25.85-.59,13.06-.61,25.68-1.68,37.73-3.15,12.76-1.55,24.88-3.55,36.19-5.95a291.22,291.22,0,0,0,34.39-9.38c32.85-11.37,53.07-26.89,53.07-44A22.6,22.6,0,0,0,441.6,384.51ZM302.15,419.56l-30.81-57.7a17.35,17.35,0,0,0-21.4-8.08c-.41.15-.84.32-1.24.51a4.77,4.77,0,0,0-.56.27l-.32.16-.66.37-.92.59a5.09,5.09,0,0,0-.45.31l-1.88,1.57c-.15.14-.28.29-.42.43l-.8.88c-.24.3-.48.6-.71.91l-.66,1a11.74,11.74,0,0,0-.67,1.14l-30.79,57.67c-12.89-1.1-25.26-2.65-36.92-4.6l67.33-126.09a17.85,17.85,0,0,1,31.47,0L339.07,415C327.4,416.91,315,418.46,302.15,419.56Zm86.53-16.64q-6.81,2.31-14.3,4.37l-103-193a17.35,17.35,0,0,0-21.4-8.09c-.41.16-.84.32-1.24.51-.19.08-.37.17-.56.27l-.32.16-.66.38-.92.58c-.16.1-.31.21-.45.31L243.91,210l-.42.42-.8.88c-.24.3-.48.6-.71.91l-.66,1a11.9,11.9,0,0,0-.67,1.15l-103,192.92c-5-1.37-9.76-2.84-14.29-4.37a17.83,17.83,0,0,1-10-25.3l127-237.82a17.84,17.84,0,0,1,31.47,0l127,237.82A17.83,17.83,0,0,1,388.68,402.92Z" fill="#3d95a0"/></g></svg>