<?xml version="1.0" standalone="no"?>
<!DOCTYPE svg PUBLIC "-//W3C//DTD SVG 1.1//EN" "http://www.w3.org/Graphics/SVG/1.1/DTD/svg11.dtd" >
<svg xmlns="http://www.w3.org/2000/svg" xmlns:xlink="http://www.w3.org/1999/xlink" version="1.1">
<metadata>
Created by FontForge 20201107 at Wed Oct  4 16:49:20 2017
 By Jimmy Wärting
Copyright \(c\) 2013 by Mariya V. Pigoulevskaya. All rights reserved.
</metadata>
<defs>
<font id="NeusaNextPro-LightItalic" horiz-adv-x="0" >
  <font-face 
    font-family="Neusa Next Pro"
    font-weight="300"
    font-style="italic"
    font-stretch="normal"
    units-per-em="2048"
    panose-1="0 0 4 0 0 0 0 0 0 0"
    ascent="1577"
    descent="-471"
    x-height="1028"
    cap-height="1438"
    bbox="-1081 -494 2309.97 1976"
    underline-thickness="0"
    underline-position="0"
    stemh="80"
    stemv="65"
    unicode-range="U+0020-2265"
  />
<missing-glyph horiz-adv-x="1024" 
d="M190 1577h650v-2048h-650v2048zM682 1372v68h-338v-68h133v-76h-135v-67h340v67h-135v76h135zM547 1032v144h-205v-213h340v69h-135zM410 1106h67v-74h-67v74zM682 840v67h-340v-67h135v-76h-135v-68h205v144h135zM682 580v204h-68v-135h-272v-69h340zM682 303v232h-205
v-115h70v47h67v-96h-204v164h-68v-232h340zM682 -51v231h-340v-231h340zM410 113h204v-97h-204v97zM682 -166v68h-340v-68h143l-143 -96v-68h340v68h-209l143 96h66z" />
    <glyph glyph-name=".notdef" horiz-adv-x="1024" 
d="M190 1577h650v-2048h-650v2048zM682 1372v68h-338v-68h133v-76h-135v-67h340v67h-135v76h135zM547 1032v144h-205v-213h340v69h-135zM410 1106h67v-74h-67v74zM682 840v67h-340v-67h135v-76h-135v-68h205v144h135zM682 580v204h-68v-135h-272v-69h340zM682 303v232h-205
v-115h70v47h67v-96h-204v164h-68v-232h340zM682 -51v231h-340v-231h340zM410 113h204v-97h-204v97zM682 -166v68h-340v-68h143l-143 -96v-68h340v68h-209l143 96h66z" />
    <glyph glyph-name="glyph1" 
 />
    <glyph glyph-name="glyph2" horiz-adv-x="681" 
 />
    <glyph glyph-name="space" unicode=" " horiz-adv-x="495" 
 />
    <glyph glyph-name="exclam" unicode="!" horiz-adv-x="487" 
d="M377 1438h90l-80 -412l-131 -625h-70l111 623zM197 0h-107l31 158h104z" />
    <glyph glyph-name="quotedbl" unicode="&#x22;" horiz-adv-x="532" 
d="M309 1577h90l-88 -397h-69zM547 1577h90l-88 -397h-70z" />
    <glyph glyph-name="numbersign" unicode="#" horiz-adv-x="1441" 
d="M1456 1026l-14 -80h-240l-162 -452h269l-15 -80h-282l-148 -414h-86l148 414h-547l-148 -414h-84l148 414h-229l14 80h244l161 452h-272l14 80h285l147 412h86l-147 -412h547l147 412h86l-147 -412h225zM408 494h546l162 452h-547z" />
    <glyph glyph-name="dollar" unicode="$" horiz-adv-x="1267" 
d="M864 1642l-37 -184c143 -12 248 -57 313 -135s85 -167 62 -266l-12 -60h-90l14 60c21 87 1 162 -59 225s-160 94 -299 94c-116 0 -213 -25 -291 -76s-117 -124 -117 -219c0 -65 25 -120 74 -164c49 -45 109 -80 180 -106c70 -26 140 -54 211 -83c70 -29 130 -71 179 -125
s73 -121 73 -202c0 -134 -49 -238 -146 -312c-98 -75 -223 -112 -374 -112h-6l-35 -182h-86l37 187c-142 15 -245 62 -309 139c-65 77 -85 167 -62 270l10 51h90l-10 -51c-22 -93 1 -171 68 -234c67 -64 170 -96 311 -96c123 0 224 30 303 89s119 138 119 239
c0 69 -25 128 -74 175s-109 85 -178 112c-70 27 -140 55 -210 83s-130 68 -179 121c-49 52 -74 117 -74 195c0 121 45 215 135 282c90 66 205 100 346 103l35 182h88z" />
    <glyph glyph-name="percent" unicode="%" horiz-adv-x="1290" 
d="M377 748c-82 0 -143 23 -184 68s-55 100 -41 167l49 250c27 139 122 225 278 225c81 0 142 -23 183 -69c41 -47 54 -104 40 -172l-51 -248c-27 -147 -119 -221 -274 -221zM195 0h-82l1048 1438h80zM381 809c112 0 180 58 205 174l47 236c21 109 -35 178 -160 178
c-120 0 -179 -63 -207 -180l-47 -238c-21 -104 39 -170 162 -170zM889 -12c-81 0 -142 23 -183 68c-42 45 -57 100 -44 167l51 250c30 150 123 225 278 225c81 0 142 -23 183 -68c41 -46 54 -103 40 -171l-51 -250c-27 -147 -119 -221 -274 -221zM893 49
c112 0 180 59 205 176l47 234c21 109 -37 178 -160 178c-120 0 -179 -63 -207 -180l-47 -238c-21 -101 39 -170 162 -170z" />
    <glyph glyph-name="ampersand" unicode="&#x26;" horiz-adv-x="1368" 
d="M1135 780h186l-16 -82h-187l-65 -338c-22 -109 -71 -197 -147 -262c-77 -65 -165 -98 -265 -98h-225c-105 0 -186 33 -242 98s-73 149 -51 252l18 88c30 147 108 249 234 305c-93 55 -138 160 -111 285l21 100c18 93 64 168 139 225c74 57 161 85 262 85h418l-17 -84
h-409c-79 0 -147 -21 -203 -64s-91 -103 -106 -180l-15 -80c-31 -161 47 -250 203 -250h487l50 248h88zM967 377l63 321h-479c-164 0 -285 -103 -324 -278l-14 -68c-39 -169 45 -268 209 -268h227c79 0 148 26 205 78s95 124 113 215z" />
    <glyph glyph-name="quotesingle" unicode="'" horiz-adv-x="294" 
d="M309 1577h90l-88 -397h-69z" />
    <glyph glyph-name="parenleft" unicode="(" horiz-adv-x="561" 
d="M391 -256l-6 -82c-268 0 -389 143 -332 438l205 1049c56 285 219 428 490 428l-7 -82c-227 0 -349 -109 -401 -369l-199 -1022c-26 -130 -19 -223 21 -278c39 -55 116 -82 229 -82z" />
    <glyph glyph-name="parenright" unicode=")" horiz-adv-x="565" 
d="M-145 -338l6 82c116 0 206 29 270 87s109 152 135 282l199 1024c26 130 19 222 -20 277c-40 54 -117 81 -232 81l8 82c277 0 388 -145 332 -436l-205 -1049c-54 -287 -218 -430 -493 -430z" />
    <glyph glyph-name="asterisk" unicode="*" horiz-adv-x="626" 
d="M729 1432l10 -74l-225 -62l102 -176l-65 -45l-88 189l-164 -189l-51 45l170 176l-201 62l35 74l197 -76l36 221h72l-51 -221z" />
    <glyph glyph-name="plus" unicode="+" horiz-adv-x="1015" 
d="M598 791h346v-86h-346v-377h-86v377h-348v86h348v378h86v-378z" />
    <glyph glyph-name="comma" unicode="," horiz-adv-x="387" 
d="M74 158h104l-31 -158l-133 -268h-43l111 268h-39z" />
    <glyph glyph-name="hyphen" unicode="-" horiz-adv-x="681" 
d="M569 530h-450l16 78h449z" />
    <glyph glyph-name="period" unicode="." horiz-adv-x="380" 
d="M143 0h-106l31 158h104z" />
    <glyph glyph-name="slash" unicode="/" horiz-adv-x="651" 
d="M-61 -102l759 1620h88l-761 -1620h-86z" />
    <glyph glyph-name="zero" unicode="0" horiz-adv-x="1232" 
d="M551 -23c-155 0 -271 44 -348 133c-77 88 -103 198 -78 330l111 566c27 141 84 252 171 333s205 121 355 121c155 0 271 -45 348 -134s102 -202 76 -339l-111 -565c-57 -297 -232 -445 -524 -445zM270 166c59 -69 154 -103 285 -103s230 33 296 99c66 65 112 160 138 284
l105 537c25 120 7 215 -52 286c-60 70 -155 105 -286 105c-130 0 -229 -34 -297 -101c-69 -68 -115 -166 -140 -294l-104 -539c-22 -115 -4 -206 55 -274z" />
    <glyph glyph-name="one" unicode="1" horiz-adv-x="890" 
d="M682 1438l-262 -1352h321l-16 -86h-735l16 86h324l245 1266h-307l19 86h395z" />
    <glyph glyph-name="two" unicode="2" horiz-adv-x="1179" 
d="M408 1346c91 76 208 114 350 114s248 -39 319 -116c70 -78 95 -171 74 -279l-16 -84c-27 -139 -114 -252 -225 -322s-244 -129 -374 -186s-244 -116 -325 -216c-41 -50 -67 -107 -80 -171h838l-17 -86h-932l13 68c31 153 121 273 233 350c112 76 251 137 380 194
c190 82 367 192 405 392l10 63c17 85 -2 157 -56 217s-139 90 -255 90c-243 0 -394 -138 -435 -370l-8 -43h-90l12 59c27 141 87 249 179 326z" />
    <glyph glyph-name="three" unicode="3" horiz-adv-x="1159" 
d="M750 1460c134 0 235 -33 302 -98s91 -151 70 -258l-16 -96c-25 -127 -98 -218 -221 -273c108 -60 148 -158 121 -295l-21 -108c-21 -112 -76 -199 -166 -261c-90 -63 -201 -94 -332 -94c-134 0 -236 35 -306 106c-70 70 -94 161 -72 273l20 105h90l-20 -101
c-18 -93 0 -165 53 -218s133 -79 240 -79c227 0 371 104 407 289l16 82c33 169 -47 262 -235 262h-268l14 84h262c180 0 301 91 332 250l12 72c36 172 -73 272 -289 272c-221 0 -367 -105 -403 -297l-14 -78h-90l18 97c22 113 78 202 167 267s199 97 329 97z" />
    <glyph glyph-name="four" unicode="4" horiz-adv-x="1085" 
d="M803 428l86 446h90l-170 -874h-90l65 342h-757l16 86l705 1010h102l-709 -1010h662z" />
    <glyph glyph-name="five" unicode="5" horiz-adv-x="1140" 
d="M1153 1438l-16 -86h-697l-90 -480h295c133 0 233 -33 301 -98c67 -65 90 -151 68 -258l-29 -156c-22 -117 -79 -210 -172 -279s-206 -104 -340 -104c-130 0 -228 36 -295 108s-89 167 -67 286l28 147h90l-26 -147c-39 -200 63 -310 276 -310c229 0 379 115 420 318
l27 137c36 177 -65 272 -289 272h-395l16 84h2l105 549l4 17h784z" />
    <glyph glyph-name="six" unicode="6" horiz-adv-x="1200" 
d="M737 1460c134 0 240 -34 319 -102c79 -69 112 -153 101 -254h-88c7 79 -21 145 -83 196s-146 76 -253 76c-240 0 -361 -135 -409 -379l-45 -235c81 87 199 131 356 131c154 0 267 -38 340 -113c72 -76 99 -167 82 -272l-27 -162c-39 -229 -203 -369 -487 -369
c-159 0 -274 44 -347 132c-73 87 -97 198 -71 333l113 574c55 296 222 444 499 444zM625 811c-201 0 -330 -85 -387 -254l-21 -108c-25 -119 -9 -213 48 -284s150 -106 280 -106c231 0 364 102 399 306l23 133c13 87 -7 161 -61 222c-55 61 -148 91 -281 91z" />
    <glyph glyph-name="seven" unicode="7" horiz-adv-x="1042" 
d="M268 1438h869l-19 -86h2l-915 -1352h-99l912 1352h-766z" />
    <glyph glyph-name="eight" unicode="8" horiz-adv-x="1214" 
d="M421 1372c88 59 203 88 345 88s250 -35 323 -106s99 -157 80 -258l-22 -115c-22 -121 -101 -203 -238 -244c127 -55 177 -152 152 -291l-23 -122c-21 -111 -76 -196 -165 -256c-89 -61 -200 -91 -332 -91c-141 0 -251 37 -330 112s-109 164 -88 267l22 113
c26 143 109 237 248 281c-125 52 -176 139 -153 260l20 114c19 107 73 189 161 248zM1061 999l16 91c17 83 -3 152 -60 207c-57 54 -142 81 -257 81c-240 0 -381 -98 -414 -270l-16 -90c-13 -71 7 -128 60 -172s149 -66 288 -66c228 0 356 73 383 219zM952 344l19 96
c36 180 -81 265 -334 265c-243 0 -373 -71 -406 -254l-18 -91c-17 -87 6 -159 67 -216s150 -85 269 -85c219 0 368 102 403 285z" />
    <glyph glyph-name="nine" unicode="9" horiz-adv-x="1200" 
d="M739 1460c157 0 273 -44 346 -131s96 -199 70 -334l-111 -573c-57 -296 -224 -444 -501 -445c-133 0 -238 34 -316 103c-79 68 -113 153 -104 254h90c-7 -81 21 -147 82 -198s145 -77 252 -77c240 0 361 136 409 381l45 236c-81 -89 -199 -133 -356 -133
c-154 0 -267 38 -339 115c-73 76 -100 167 -83 272l27 160c41 229 205 370 489 370zM657 627c199 0 327 82 383 247l23 115c25 119 9 213 -47 284c-56 70 -149 105 -279 105c-232 0 -366 -102 -401 -307l-23 -131c-13 -86 8 -160 63 -221s148 -92 281 -92z" />
    <glyph glyph-name="colon" unicode=":" horiz-adv-x="423" 
d="M334 870h-105l31 158h105zM164 0h-105l31 158h105z" />
    <glyph glyph-name="semicolon" unicode=";" horiz-adv-x="421" 
d="M354 870h-104l31 158h104zM111 158h104l-29 -158l-133 -268h-43l109 268h-39z" />
    <glyph glyph-name="less" unicode="&#x3c;" horiz-adv-x="790" 
d="M608 1153l51 -61l-376 -344l376 -345l-51 -61l-452 406z" />
    <glyph glyph-name="equal" unicode="=" horiz-adv-x="1099" 
d="M983 918h-778v86h778v-86zM983 492h-778v86h778v-86z" />
    <glyph glyph-name="greater" unicode="&#x3e;" horiz-adv-x="792" 
d="M223 1092l51 61l453 -405l-453 -406l-51 61l377 345z" />
    <glyph glyph-name="question" unicode="?" horiz-adv-x="1282" 
d="M623 401h-88l8 50c13 71 42 129 86 175c43 45 92 79 146 102s108 45 163 68c109 44 204 130 231 269c5 23 8 47 9 72c0 159 -120 238 -361 237c-151 0 -266 -31 -344 -92s-133 -156 -164 -283l-10 -47h-86l10 56c60 302 259 453 596 452c297 0 447 -114 447 -313
c0 -26 -4 -57 -11 -94c-27 -136 -99 -235 -182 -280c-42 -23 -87 -45 -135 -67c-48 -23 -92 -42 -133 -59s-78 -44 -111 -80c-33 -37 -54 -82 -65 -135zM573 0h-104l29 158h104z" />
    <glyph glyph-name="at" unicode="@" horiz-adv-x="1540" 
d="M382 1046c122 91 281 136 478 136s352 -43 466 -129s157 -200 130 -342l-74 -369c-41 -211 -113 -309 -266 -309c-93 0 -148 47 -166 141c-63 -94 -155 -141 -276 -141c-105 0 -184 32 -237 95s-67 155 -44 275l37 185c48 240 170 360 365 360c133 0 220 -44 262 -133
l33 111h75l-116 -609c-26 -131 0 -197 77 -196c49 0 86 17 110 51s43 90 58 168l74 377c23 124 -11 219 -103 286c-93 66 -226 99 -401 99c-359 0 -568 -153 -626 -459l-68 -334c-26 -135 2 -240 84 -315c82 -74 208 -111 379 -111c69 0 151 9 244 27v-84
c-79 -17 -161 -25 -246 -25c-198 0 -346 46 -444 137c-99 92 -133 216 -103 373l68 344c31 169 108 300 230 391zM694 131c127 0 214 66 262 199l66 340c-8 121 -82 182 -221 182c-159 0 -245 -85 -281 -285l-31 -161c-37 -183 32 -275 205 -275z" />
    <glyph glyph-name="A" unicode="A" horiz-adv-x="1183" 
d="M1030 0h-84l-69 467h-586l-252 -467h-88l760 1438h114zM862 553l-112 790l-412 -790h524z" />
    <glyph glyph-name="B" unicode="B" horiz-adv-x="1261" 
d="M350 1438h516c121 0 213 -26 274 -78s81 -128 62 -227l-22 -117c-27 -141 -116 -227 -213 -254c57 -19 102 -56 134 -111s41 -118 27 -190l-32 -170c-35 -194 -183 -291 -443 -291h-581zM1094 1028l16 94c31 159 -55 232 -250 232h-436l-109 -557h433
c203 0 319 77 346 231zM1012 319l24 121c33 177 -52 273 -245 273h-492l-121 -629h488c203 0 313 63 346 235z" />
    <glyph glyph-name="C" unicode="C" horiz-adv-x="1290" 
d="M578 -23c-169 0 -295 44 -378 132c-83 87 -111 198 -85 331l110 566c29 142 90 253 183 334c93 80 220 120 383 120c169 0 295 -42 377 -127c81 -85 110 -194 85 -327l-12 -66h-90l12 61c44 237 -86 373 -379 373c-142 0 -250 -34 -324 -102c-75 -69 -124 -166 -149 -293
l-106 -539c-22 -115 0 -206 66 -274c65 -69 170 -103 315 -103c142 0 250 32 323 97c73 64 121 157 146 280l12 62h90l-16 -88c-60 -291 -248 -437 -563 -437z" />
    <glyph glyph-name="D" unicode="D" horiz-adv-x="1282" 
d="M350 1438h475c331 0 475 -167 418 -451l-106 -547c-56 -293 -250 -440 -582 -440h-483zM1051 463l100 512c52 257 -47 377 -334 377h-393l-246 -1266h389c273 0 435 126 484 377z" />
    <glyph glyph-name="E" unicode="E" horiz-adv-x="1146" 
d="M1194 1438l-16 -86h-754l-115 -594h656l-17 -86h-655l-115 -586h754l-17 -86h-843l278 1438h844z" />
    <glyph glyph-name="F" unicode="F" horiz-adv-x="1112" 
d="M1194 1438l-16 -86h-754l-123 -631h676l-16 -86h-676l-123 -635h-90l278 1438h844z" />
    <glyph glyph-name="G" unicode="G" horiz-adv-x="1290" 
d="M793 1460c163 0 285 -45 368 -135c82 -90 108 -198 78 -324l-10 -53h-90l10 56c25 108 5 197 -59 266c-65 69 -166 104 -304 104c-143 0 -252 -34 -326 -102c-75 -69 -124 -166 -149 -293l-106 -539c-22 -115 0 -206 66 -274c65 -69 170 -103 315 -103
c143 0 252 34 326 101c73 67 122 163 147 289l39 198h-459l14 84h549l-57 -309c-27 -139 -87 -249 -179 -329c-93 -80 -221 -120 -386 -120c-169 0 -296 44 -379 132c-83 87 -112 198 -86 331l110 566c29 141 90 252 183 333s221 121 385 121z" />
    <glyph glyph-name="H" unicode="H" horiz-adv-x="1310" 
d="M1096 758l133 680h90l-281 -1438h-90l131 672h-786l-131 -672h-90l278 1438h90l-131 -680h787z" />
    <glyph glyph-name="I" unicode="I" horiz-adv-x="434" 
d="M162 0h-90l278 1438h90z" />
    <glyph glyph-name="J" unicode="J" horiz-adv-x="714" 
d="M18 0h-84l17 86h76c105 0 194 30 266 89s119 142 141 249l197 1014h90l-201 -1037c-25 -124 -82 -222 -172 -293c-90 -72 -200 -108 -330 -108z" />
    <glyph glyph-name="K" unicode="K" horiz-adv-x="1120" 
d="M1081 1438h119l-805 -705l557 -733h-102l-551 709l-137 -709h-90l278 1438h90l-127 -658z" />
    <glyph glyph-name="L" unicode="L" horiz-adv-x="1093" 
d="M440 1438l-262 -1352h756l-16 -86h-846l278 1438h90z" />
    <glyph glyph-name="M" unicode="M" horiz-adv-x="1513" 
d="M1417 1438h105l-281 -1438h-82l246 1270l-711 -1270h-76l3 4l-220 1266l-247 -1270h-82l278 1438h103l229 -1284z" />
    <glyph glyph-name="N" unicode="N" horiz-adv-x="1267" 
d="M942 156l248 1282h86l-281 -1438h-84l-505 1278l-250 -1278h-84l278 1438h86z" />
    <glyph glyph-name="O" unicode="O" horiz-adv-x="1294" 
d="M580 -23c-169 0 -296 44 -379 133c-83 88 -112 198 -86 330l110 564c29 142 90 254 183 335s221 121 385 121c169 0 296 -45 379 -135s110 -203 83 -338l-110 -565c-57 -297 -246 -445 -565 -445zM586 63c143 0 252 33 326 100c73 66 122 160 147 283l104 537
c25 120 5 215 -60 286c-65 70 -170 105 -317 105c-143 0 -252 -34 -326 -102c-75 -69 -124 -166 -149 -293l-106 -539c-22 -115 0 -206 66 -274c65 -69 170 -103 315 -103z" />
    <glyph glyph-name="P" unicode="P" horiz-adv-x="1255" 
d="M350 1438h512c315 0 443 -120 398 -371l-27 -129c-49 -257 -222 -373 -537 -373h-426l-108 -565h-90zM1147 961l18 94c21 113 7 191 -40 234c-48 42 -140 63 -275 63h-426l-135 -701h418c253 0 399 89 440 310z" />
    <glyph glyph-name="Q" unicode="Q" horiz-adv-x="1306" 
d="M793 1460c169 0 296 -45 379 -135s110 -203 83 -338l-110 -565c-51 -258 -201 -403 -451 -436l318 -205l-51 -68l-414 264c-159 5 -276 52 -353 140c-77 87 -104 195 -79 323l110 564c29 142 90 254 183 335s221 121 385 121zM1059 446l104 537c25 120 5 215 -60 286
c-65 70 -170 105 -317 105c-143 0 -252 -34 -326 -102c-75 -69 -124 -166 -149 -293l-106 -539c-22 -115 0 -206 66 -274c65 -69 170 -103 315 -103c143 0 252 33 326 100c73 66 122 160 147 283z" />
    <glyph glyph-name="R" unicode="R" horiz-adv-x="1251" 
d="M350 1438h512c308 0 445 -117 402 -338l-21 -105c-39 -193 -153 -298 -369 -327l175 -668h-91l-174 659c-15 -1 -38 -2 -69 -2h-426l-127 -657h-90zM1157 1018l12 72c39 185 -54 262 -319 262h-426l-119 -609h420c134 0 235 21 302 64c67 42 111 112 130 211z" />
    <glyph glyph-name="S" unicode="S" horiz-adv-x="1232" 
d="M545 -23c-172 0 -298 40 -378 121s-108 178 -83 293l10 51h90l-10 -51c-22 -93 1 -171 68 -234c67 -64 170 -96 311 -96c123 0 224 30 303 89s119 138 119 239c0 69 -25 128 -74 175s-109 85 -178 112c-70 27 -140 55 -210 83s-130 68 -179 121c-49 52 -74 117 -74 195
c0 124 47 219 142 286c94 66 213 99 358 99c167 0 289 -40 366 -120c77 -81 102 -175 76 -283l-12 -60h-90l14 60c21 87 1 162 -59 225s-160 94 -299 94c-116 0 -213 -25 -291 -76s-117 -124 -117 -219c0 -65 25 -120 74 -164c49 -45 109 -80 180 -106
c70 -26 140 -54 211 -83c70 -29 130 -71 179 -125s73 -121 73 -202c0 -134 -49 -238 -146 -312c-98 -75 -223 -112 -374 -112z" />
    <glyph glyph-name="T" unicode="T" horiz-adv-x="1138" 
d="M207 1438h1085l-16 -86h-498l-264 -1352h-90l264 1352h-498z" />
    <glyph glyph-name="U" unicode="U" horiz-adv-x="1259" 
d="M563 -23c-163 0 -284 44 -365 133c-81 88 -109 198 -83 330l196 998h88l-194 -998c-22 -115 -1 -206 62 -274c63 -69 164 -103 302 -103c137 0 241 33 312 100c71 66 119 160 145 283l193 992h90l-199 -1016c-59 -297 -241 -445 -547 -445z" />
    <glyph glyph-name="V" unicode="V" horiz-adv-x="1175" 
d="M506 113l704 1327h93l-758 -1438h-113l-203 1438h88z" />
    <glyph glyph-name="W" unicode="W" horiz-adv-x="1736" 
d="M1184 127l585 1311h95l-647 -1438h-103l-96 1255l-594 -1255h-105l-90 1438h88l80 -1315l609 1315h79z" />
    <glyph glyph-name="X" unicode="X" horiz-adv-x="1163" 
d="M1167 1438h105l-592 -715l326 -723h-95l-297 659l-559 -659h-104l624 745l-311 693h94l283 -627z" />
    <glyph glyph-name="Y" unicode="Y" horiz-adv-x="1112" 
d="M1137 1438h102l-631 -865l-112 -573h-88l110 580l-289 858h93l258 -758z" />
    <glyph glyph-name="Z" unicode="Z" horiz-adv-x="1202" 
d="M315 1438h951l-17 -90l-1120 -1262h891l-16 -86h-1004l14 90l1125 1262h-840z" />
    <glyph glyph-name="bracketleft" unicode="[" horiz-adv-x="573" 
d="M745 1577l-16 -82h-293l-338 -1749h289l-14 -84h-377l14 84h2l355 1831h378z" />
    <glyph glyph-name="backslash" unicode="\" horiz-adv-x="645" 
d="M467 -102h-84l-131 1620h84z" />
    <glyph glyph-name="bracketright" unicode="]" horiz-adv-x="573" 
d="M240 1577h378l-372 -1915h-377l14 84h293l338 1749h-289z" />
    <glyph glyph-name="asciicircum" unicode="^" horiz-adv-x="622" 
d="M418 1460l248 -399h-76l-172 282l-172 -282h-76z" />
    <glyph glyph-name="underscore" unicode="_" horiz-adv-x="974" 
d="M772 -197h-846l15 72h843z" />
    <glyph glyph-name="grave" unicode="`" horiz-adv-x="415" 
d="M395 1161l-153 316h96l141 -316h-84z" />
    <glyph glyph-name="a" unicode="a" horiz-adv-x="1107" 
d="M930 864l49 164h70l-201 -1028h-66l13 137c-78 -107 -191 -160 -340 -160c-124 0 -221 39 -290 116s-92 178 -69 302l49 252c52 257 214 404 451 404c78 0 147 -17 207 -50c60 -34 102 -80 127 -137zM473 59c185 0 317 106 361 306l59 313c9 89 -14 159 -70 212
s-130 79 -223 79c-203 0 -327 -115 -371 -344l-45 -226c-21 -105 -4 -188 51 -249s134 -91 238 -91z" />
    <glyph glyph-name="b" unicode="b" horiz-adv-x="1107" 
d="M662 1051c123 0 218 -39 285 -116s88 -177 63 -300l-49 -252c-26 -130 -79 -230 -160 -300c-81 -71 -181 -106 -301 -106c-156 0 -277 62 -326 177l-45 -154h-70l306 1577h86l-129 -674c78 99 191 148 340 148zM879 403l45 228c19 104 3 186 -49 247s-127 91 -225 91
c-197 0 -313 -94 -374 -301l-63 -330c-11 -185 103 -279 287 -279c200 0 335 121 379 344z" />
    <glyph glyph-name="c" unicode="c" horiz-adv-x="1062" 
d="M473 -23c-131 0 -233 39 -304 117c-72 78 -96 178 -73 301l49 252c26 129 79 228 160 299c81 70 180 105 299 105c127 0 225 -34 296 -102c71 -69 96 -156 75 -261l-6 -37h-88l6 33c17 89 -2 158 -55 209s-130 76 -230 76c-196 0 -329 -120 -373 -344l-45 -226
c-21 -104 -4 -187 51 -248s134 -92 238 -92c193 0 309 97 350 291l6 27h86l-10 -47c-47 -227 -203 -353 -432 -353z" />
    <glyph glyph-name="d" unicode="d" horiz-adv-x="1107" 
d="M930 866l137 711h88l-307 -1577h-66l13 137c-78 -107 -191 -160 -340 -160c-124 0 -221 39 -290 116s-92 178 -69 302l49 252c52 257 214 404 451 404c78 0 147 -16 207 -49s102 -79 127 -136zM473 59c191 0 324 113 365 324l53 283c13 93 -8 166 -65 221
s-132 82 -226 82c-203 0 -327 -115 -371 -344l-45 -226c-21 -105 -4 -188 51 -249s134 -91 238 -91z" />
    <glyph glyph-name="e" unicode="e" horiz-adv-x="1067" 
d="M608 1051c127 0 225 -38 294 -115s92 -176 69 -297l-29 -152h-735l-19 -88c-21 -104 -4 -186 50 -246s133 -90 237 -90c193 0 309 96 348 289h90c-23 -120 -74 -212 -151 -277c-78 -65 -174 -98 -289 -98c-133 0 -234 39 -305 117s-95 178 -72 301l51 252
c26 129 80 228 161 299c81 70 181 105 300 105zM233 625l-10 -52h645l11 56c21 104 5 186 -46 246s-128 90 -229 90c-193 0 -327 -119 -371 -340z" />
    <glyph glyph-name="f" unicode="f" horiz-adv-x="614" 
d="M739 1577h72l-14 -82h-62c-177 0 -270 -76 -309 -272l-37 -195h316l-15 -82h-317l-185 -946h-86l185 946h-131l14 82h131l45 227c44 221 169 322 393 322z" />
    <glyph glyph-name="g" unicode="g" horiz-adv-x="1105" 
d="M930 864l49 164h70l-222 -1137c-23 -120 -74 -214 -152 -283c-79 -68 -175 -102 -288 -102c-104 0 -188 25 -252 75s-93 115 -88 196h84c-1 -56 23 -102 73 -137s113 -52 189 -52c90 0 167 30 231 89c63 60 105 142 124 245l38 203c-78 -98 -188 -147 -331 -148
c-124 0 -221 39 -290 116s-92 178 -69 302l49 252c52 257 214 404 451 404c78 0 147 -17 207 -50c60 -34 102 -80 127 -137zM473 59c177 0 305 98 356 283l66 342c8 87 -16 157 -73 208s-131 77 -222 77c-203 0 -327 -115 -371 -344l-45 -226c-21 -105 -4 -188 51 -249
s134 -91 238 -91z" />
    <glyph glyph-name="h" unicode="h" horiz-adv-x="1134" 
d="M664 1051c120 0 213 -41 280 -123s87 -193 60 -332l-117 -596h-86l114 594c23 117 9 209 -44 276c-53 66 -128 99 -224 99c-83 0 -160 -27 -229 -82c-70 -55 -119 -132 -146 -232l-127 -655h-86l306 1577h86l-136 -694c89 112 206 168 349 168z" />
    <glyph glyph-name="i" unicode="i" horiz-adv-x="413" 
d="M397 1227h-104l29 149h104zM150 0h-87l201 1028h86z" />
    <glyph glyph-name="j" unicode="j" horiz-adv-x="487" 
d="M463 1227h-105l29 149h105zM-190 -471h-58l15 82h38c164 0 267 102 308 307l217 1110h86l-223 -1147c-47 -235 -174 -352 -383 -352z" />
    <glyph glyph-name="k" unicode="k" horiz-adv-x="974" 
d="M907 1028h121l-688 -457l477 -571h-102l-459 545l-106 -545h-87l306 1577h88l-189 -967z" />
    <glyph glyph-name="l" unicode="l" horiz-adv-x="413" 
d="M63 0l306 1577h88l-307 -1577h-87z" />
    <glyph glyph-name="m" unicode="m" horiz-adv-x="1689" 
d="M1264 1051c112 0 196 -40 252 -120c55 -80 68 -196 38 -349l-112 -582h-86l110 582c26 131 18 229 -23 292c-42 63 -107 95 -196 95c-154 0 -263 -102 -327 -307c-1 -26 -6 -53 -13 -80l-112 -582h-86l110 582c26 131 18 229 -23 292c-42 63 -107 95 -196 95
c-154 0 -263 -102 -328 -305l-127 -664h-86l199 1028h66l-17 -143c75 111 178 166 309 166c156 0 268 -78 297 -234c75 156 192 234 351 234z" />
    <glyph glyph-name="n" unicode="n" horiz-adv-x="1134" 
d="M664 1051c120 0 213 -41 280 -122s87 -192 60 -333l-117 -596h-86l114 594c23 117 9 209 -44 276c-53 66 -128 99 -224 99c-82 0 -157 -26 -226 -79s-119 -127 -149 -224l-127 -666h-86l199 1028h66l-19 -160c87 122 206 183 359 183z" />
    <glyph glyph-name="o" unicode="o" horiz-adv-x="1081" 
d="M475 -23c-135 0 -238 39 -309 116s-95 177 -70 300l51 256c52 260 212 402 463 402c135 0 238 -38 307 -115s91 -177 66 -301l-49 -254c-52 -260 -211 -404 -459 -404zM477 59c205 0 330 115 375 344l45 230c21 105 5 188 -47 247s-133 89 -242 89
c-209 0 -335 -114 -379 -342l-45 -230c-21 -105 -4 -188 49 -248s135 -90 244 -90z" />
    <glyph glyph-name="p" unicode="p" horiz-adv-x="1107" 
d="M662 1051c121 0 216 -39 284 -117c67 -78 89 -178 64 -299l-49 -252c-52 -260 -220 -406 -463 -406c-156 0 -275 62 -324 177l-121 -625h-86l291 1499h68l-13 -135c79 105 195 158 349 158zM879 403l43 228c21 104 5 186 -47 247s-127 91 -226 91
c-203 0 -317 -98 -377 -314l-59 -299c-19 -196 95 -297 287 -297c200 0 335 121 379 344z" />
    <glyph glyph-name="q" unicode="q" horiz-adv-x="1107" 
d="M932 862l49 166h70l-293 -1499h-86l116 600c-78 -101 -189 -152 -333 -152c-124 0 -221 39 -290 116s-92 178 -69 302l49 252c52 257 214 404 451 404c78 0 147 -17 208 -50c61 -34 103 -80 128 -139zM473 59c185 0 319 109 363 312l59 311c8 89 -16 159 -72 210
s-130 77 -223 77c-203 0 -327 -115 -371 -344l-45 -226c-21 -105 -4 -188 51 -249s134 -91 238 -91z" />
    <glyph glyph-name="r" unicode="r" horiz-adv-x="696" 
d="M670 1042c18 0 42 -1 71 -4l-16 -84c-25 4 -46 6 -63 7c-86 0 -165 -22 -237 -65s-119 -106 -142 -187l-138 -709h-86l199 1028h66l-17 -139c41 49 94 87 160 114c66 26 134 39 203 39z" />
    <glyph glyph-name="s" unicode="s" horiz-adv-x="989" 
d="M446 -20c-134 0 -237 32 -309 96s-96 151 -71 260h84c-21 -87 -2 -156 56 -205s142 -74 251 -74c89 0 160 21 215 64c55 42 82 97 82 164c0 56 -20 100 -60 132c-41 32 -90 55 -147 69c-57 13 -115 28 -172 43s-106 40 -146 76c-41 36 -61 85 -61 147
c0 91 36 164 109 218c72 54 165 81 280 81c131 0 230 -31 297 -94s89 -150 66 -261h-86c21 91 5 160 -48 207s-130 70 -233 70c-89 0 -161 -19 -216 -57c-55 -39 -83 -90 -83 -154c0 -49 20 -88 61 -116c40 -28 89 -49 146 -62c57 -14 115 -29 172 -44
c57 -16 106 -44 147 -84c40 -41 60 -94 60 -161c0 -93 -36 -168 -108 -227s-167 -88 -286 -88z" />
    <glyph glyph-name="t" unicode="t" horiz-adv-x="647" 
d="M655 946h-297l-112 -573c-41 -211 21 -291 196 -291h82l-14 -82h-92c-219 0 -309 109 -260 354l114 592h-135l15 82h137l59 309h86l-59 -309h295z" />
    <glyph glyph-name="u" unicode="u" horiz-adv-x="1103" 
d="M831 362l127 666h86l-198 -1028h-66l19 158c-85 -120 -199 -180 -344 -181c-115 0 -204 41 -267 122c-64 81 -83 192 -57 331l117 598h86l-115 -594c-22 -116 -8 -207 42 -274s120 -101 210 -101c78 0 150 26 216 79s114 127 144 224z" />
    <glyph glyph-name="v" unicode="v" horiz-adv-x="915" 
d="M373 88l526 940h90l-571 -1028h-115l-176 1028h84z" />
    <glyph glyph-name="w" unicode="w" horiz-adv-x="1325" 
d="M893 109l418 919h88l-473 -1028h-90l-103 866l-440 -866h-90l-76 1028h88l59 -924l449 924h80z" />
    <glyph glyph-name="x" unicode="x" horiz-adv-x="909" 
d="M877 1028h102l-475 -520l274 -508h-96l-240 446l-411 -446h-101l471 520l-272 508h94l240 -446z" />
    <glyph glyph-name="y" unicode="y" horiz-adv-x="1103" 
d="M827 350l131 678h86l-221 -1137c-22 -120 -72 -214 -150 -283c-79 -68 -175 -102 -288 -102c-104 0 -188 25 -251 75s-92 115 -87 196h84c-1 -56 23 -102 72 -137s111 -52 188 -52c90 0 166 30 229 89c62 60 103 142 123 245l43 217c-85 -108 -195 -162 -331 -162
c-115 0 -204 41 -267 122c-64 81 -83 192 -57 331l117 598h86l-115 -594c-22 -116 -8 -207 42 -274s120 -101 210 -101c77 0 148 25 213 76s113 122 143 215z" />
    <glyph glyph-name="z" unicode="z" horiz-adv-x="999" 
d="M229 1028h764l-12 -74l-844 -872h672l-14 -82h-789l12 72l842 874h-645z" />
    <glyph glyph-name="braceleft" unicode="{" horiz-adv-x="593" 
d="M612 1577h160l-14 -82h-152c-63 0 -114 -45 -127 -117l-102 -524c-23 -115 -84 -194 -182 -238c81 -47 110 -127 88 -241l-103 -522c-13 -73 12 -109 76 -109h160l-15 -82h-153c-120 0 -174 75 -150 203l101 524c21 112 -31 186 -140 186h-18l14 87h15
c53 0 101 19 142 57s68 84 79 139l102 524c25 130 98 195 219 195z" />
    <glyph glyph-name="bar" unicode="|" horiz-adv-x="774" 
d="M182 -328l385 1987h82l-385 -1987h-82z" />
    <glyph glyph-name="braceright" unicode="}" horiz-adv-x="593" 
d="M575 662h19l-14 -87h-15c-55 0 -103 -19 -144 -56c-42 -37 -68 -84 -79 -140l-102 -522c-25 -130 -97 -195 -217 -195h-162l14 82h152c63 0 114 45 129 117l100 522c23 117 85 197 184 238c-82 48 -112 128 -90 241l103 524c13 73 -12 109 -76 109h-160l16 82h154
c120 0 176 -75 152 -203l-105 -524c-21 -112 32 -188 141 -188z" />
    <glyph glyph-name="asciitilde" unicode="~" horiz-adv-x="997" 
d="M336 891c21 0 45 -5 62 -8c16 -3 43 -18 55 -22c8 -3 50 -31 54 -34c3 -3 13 -9 30 -20c16 -11 25 -18 28 -21c81 -55 144 -82 191 -81c88 0 131 68 131 165h80c0 -148 -68 -249 -201 -249c-57 0 -120 23 -155 45c-18 11 -43 27 -74 49c-83 61 -147 92 -191 92
c-93 0 -143 -75 -143 -184h-82c0 161 76 268 215 268z" />
    <glyph glyph-name="uni00A0" unicode="&#xa0;" horiz-adv-x="495" 
 />
    <glyph glyph-name="exclamdown" unicode="&#xa1;" horiz-adv-x="487" 
d="M291 1028h106l-30 -158h-105zM111 -410h-91l80 412l131 625h70l-111 -623z" />
    <glyph glyph-name="cent" unicode="&#xa2;" horiz-adv-x="1064" 
d="M739 1432l-37 -185c111 -11 195 -49 252 -115c57 -67 77 -148 60 -245l-6 -37h-88l6 33c17 89 -2 158 -55 209c-53 50 -130 75 -230 75c-196 0 -329 -120 -373 -344l-45 -225c-21 -104 -4 -187 51 -248s134 -92 238 -92c193 0 309 97 350 291l6 26h86l-10 -47
c-47 -227 -203 -352 -432 -352h-16l-35 -182h-86l35 192c-100 21 -176 68 -228 141s-68 162 -47 267l49 252c25 123 75 219 151 290c76 70 170 108 281 113l37 183h86z" />
    <glyph glyph-name="sterling" unicode="&#xa3;" horiz-adv-x="1271" 
d="M821 1460c142 0 248 -45 319 -135c70 -90 93 -203 68 -338l-12 -63h-90l12 59c21 120 5 215 -48 286c-53 70 -138 105 -255 105c-119 0 -209 -34 -270 -101c-61 -68 -105 -166 -131 -294l-58 -297h445l-19 -86h-442l-100 -510h815l-17 -86h-1056l16 86h152l98 510h-152
l17 86h151l64 324c60 303 224 454 493 454z" />
    <glyph glyph-name="currency" unicode="&#xa4;" horiz-adv-x="968" 
d="M907 1159l58 -53l-125 -129c42 -60 55 -132 39 -217l-23 -109c-21 -104 -62 -183 -125 -237l74 -119l-68 -49l-73 123c-57 -27 -121 -41 -191 -41c-85 0 -156 22 -215 65l-121 -127l-57 51l125 132c-44 63 -58 134 -41 215l22 108c21 103 62 181 123 234l-71 120l65 52
l78 -125c56 29 121 43 194 43c86 0 156 -21 211 -64zM782 672l15 84c15 82 2 147 -40 195c-42 47 -103 71 -184 71c-172 0 -276 -90 -313 -270l-16 -88c-15 -77 0 -139 45 -188s106 -73 184 -73c173 0 276 90 309 269z" />
    <glyph glyph-name="yen" unicode="&#xa5;" horiz-adv-x="1112" 
d="M1137 1438h102l-596 -815h289l-17 -82h-313l-41 -201h316l-17 -82h-313l-51 -258h-88l49 258h-314l17 82h313l39 201h-313l16 82h289l-275 815h93l258 -758z" />
    <glyph glyph-name="brokenbar" unicode="&#xa6;" horiz-adv-x="774" 
d="M492 836h-82l157 823h82zM264 -328h-82l158 824h84z" />
    <glyph glyph-name="section" unicode="&#xa7;" horiz-adv-x="1175" 
d="M725 1460c138 0 244 -33 319 -99c74 -66 101 -151 82 -255l-12 -57h-90l12 59c17 77 -5 140 -65 191c-60 50 -145 75 -256 75c-116 0 -206 -27 -271 -80s-98 -119 -98 -196c0 -101 77 -171 181 -206c51 -17 107 -36 166 -55c59 -20 115 -40 167 -61s95 -52 129 -95
s51 -95 51 -155c0 -105 -41 -199 -122 -280c18 -35 27 -74 26 -117c0 -120 -42 -219 -126 -298s-204 -118 -359 -118c-142 0 -255 34 -338 103s-115 157 -94 262l12 51h88l-10 -51c-17 -81 9 -147 78 -200c68 -53 159 -79 274 -79c125 0 221 31 286 92c65 62 97 139 97 230
c0 59 -24 107 -71 145c-48 37 -106 66 -174 85c-69 19 -137 38 -205 59c-69 20 -127 51 -174 92c-48 41 -72 94 -72 160c0 113 45 210 135 290c-25 38 -37 82 -37 133c0 108 41 198 124 269s198 106 347 106zM948 518c0 60 -23 109 -69 148c-47 38 -100 65 -160 81
c-60 15 -128 36 -203 61s-133 54 -172 85c-64 -61 -96 -134 -96 -217c0 -53 25 -97 74 -132s105 -60 168 -75s132 -37 208 -65c75 -28 132 -60 170 -95c53 63 80 132 80 209z" />
    <glyph glyph-name="dieresis" unicode="&#xa8;" horiz-adv-x="579" 
d="M281 1227h-99l27 143h100zM668 1227h-101l29 143h98z" />
    <glyph glyph-name="copyright" unicode="&#xa9;" horiz-adv-x="1521" 
d="M801 -23c-377 0 -570 175 -570 476v522c0 308 187 485 570 485c380 0 567 -177 567 -485v-522c0 -303 -187 -476 -567 -476zM801 35c349 0 506 145 506 426v504c0 292 -157 440 -506 440c-352 0 -508 -148 -508 -440v-504c0 -284 169 -426 508 -426zM801 127
c-273 0 -410 139 -410 371v442c0 229 139 371 410 371c268 0 407 -140 407 -369v-102h-94v92c0 191 -92 289 -313 289c-210 0 -315 -97 -316 -291v-422c0 -194 105 -291 316 -291c221 0 313 97 313 289v98h94v-108c0 -229 -139 -369 -407 -369z" />
    <glyph glyph-name="ordfeminine" unicode="&#xaa;" horiz-adv-x="641" 
d="M657 1374l29 74h51l-119 -608h-49l2 63c-42 -51 -103 -76 -182 -76c-148 0 -227 80 -194 244l30 158c31 154 116 231 254 231c90 0 149 -29 178 -86zM401 891c94 0 158 53 191 160l37 192c12 104 -37 156 -146 156c-112 0 -165 -50 -192 -185l-29 -145
c-23 -119 23 -178 139 -178z" />
    <glyph glyph-name="guillemotleft" unicode="&#xab;" horiz-adv-x="1175" 
d="M682 961l-16 -105l-461 -328l330 -323l-17 -103l-381 377l15 103zM586 582l530 379l-16 -105l-461 -328l330 -323l-17 -103l-381 377z" />
    <glyph glyph-name="logicalnot" unicode="&#xac;" horiz-adv-x="1089" 
d="M164 791h780v-463h-88v377h-692v86z" />
    <glyph glyph-name="uni00AD" unicode="&#xad;" horiz-adv-x="681" 
d="M569 530h-450l16 78h449z" />
    <glyph glyph-name="registered" unicode="&#xae;" horiz-adv-x="1089" 
d="M639 1460c129 0 230 -32 303 -95s109 -150 109 -259v-207c0 -109 -37 -196 -110 -259s-173 -95 -300 -95c-129 0 -229 32 -302 95s-110 150 -110 259v207c0 109 37 196 110 259s173 95 300 95zM995 911v183c0 203 -121 313 -356 313c-232 0 -354 -112 -354 -313v-183
c0 -203 124 -315 356 -315s354 112 354 315zM872 1153v-31c0 -71 -37 -116 -112 -137l123 -256h-62l-121 248h-20h-184v-248h-62v569h246c123 0 192 -54 192 -145zM496 1241v-207h188c87 0 131 30 131 90v25c0 61 -44 92 -131 92h-188z" />
    <glyph glyph-name="overscore" unicode="&#xaf;" horiz-adv-x="761" 
d="M213 1346h645l-14 -78h-647z" />
    <glyph glyph-name="degree" unicode="&#xb0;" horiz-adv-x="718" 
d="M498 1460c159 0 250 -87 250 -231c0 -148 -93 -234 -250 -234c-156 0 -248 86 -248 234c0 145 92 231 248 231zM498 1389c-109 0 -170 -59 -170 -160c0 -104 61 -162 170 -162c112 0 174 58 174 162c0 101 -62 160 -174 160z" />
    <glyph glyph-name="plusminus" unicode="&#xb1;" horiz-adv-x="1159" 
d="M602 1190v-379h346v-86h-346v-379h-88v379h-346v86h346v379h88zM948 0h-780v86h780v-86z" />
    <glyph glyph-name="uni00B2" unicode="&#xb2;" horiz-adv-x="630" 
d="M512 1575c74 0 129 -20 164 -60c35 -41 48 -88 39 -143l-8 -43c-16 -91 -92 -156 -176 -195c-43 -20 -85 -39 -128 -57c-86 -37 -159 -92 -174 -164h398l-15 -71h-477l8 51c19 101 97 175 185 218c43 21 87 42 131 62c87 39 163 96 176 173l6 28c13 71 -36 129 -137 129
c-103 0 -166 -53 -191 -160l-4 -20h-76l7 31c24 139 127 221 272 221z" />
    <glyph glyph-name="uni00B3" unicode="&#xb3;" horiz-adv-x="630" 
d="M512 1575c69 0 122 -18 159 -53c36 -36 49 -83 38 -140l-9 -43c-12 -56 -43 -100 -94 -131c44 -33 60 -80 47 -141l-10 -53c-21 -117 -120 -185 -256 -185c-71 0 -125 19 -162 56c-38 37 -52 84 -41 143l9 45h75l-8 -47c-19 -79 35 -125 131 -125c101 0 161 40 178 119
l9 47c15 73 -19 109 -103 109h-135l14 69h127c85 0 133 35 146 105l6 39c13 73 -34 114 -129 114c-101 0 -159 -41 -174 -123l-8 -39h-76l10 48c9 59 38 104 85 137s104 49 171 49z" />
    <glyph glyph-name="acute" unicode="&#xb4;" horiz-adv-x="419" 
d="M442 1477h103l-275 -316h-92z" />
    <glyph glyph-name="mu" unicode="&#xb5;" horiz-adv-x="1110" 
d="M1036 1028l-139 -719c-19 -75 -26 -135 -19 -180c6 -45 34 -68 83 -68c19 0 41 2 65 7l-10 -82c-26 -5 -51 -8 -76 -9c-101 0 -150 62 -145 187c-83 -124 -198 -186 -344 -187c-136 0 -246 72 -285 189l-123 -637h-86l291 1499h86l-115 -594c-23 -119 -10 -211 40 -276
c50 -66 119 -99 208 -99c77 0 147 27 212 80s111 128 140 223l131 666h86z" />
    <glyph glyph-name="paragraph" unicode="&#xb6;" horiz-adv-x="1320" 
d="M643 1438h858l-16 -86h-242l-262 -1352h-86l262 1352h-346l-264 -1352h-86l123 635h-97c-81 0 -143 29 -187 87c-45 58 -59 130 -42 216l37 197c15 81 57 151 126 212s143 91 222 91z" />
    <glyph glyph-name="middot" unicode="&#xb7;" horiz-adv-x="288" 
d="M207 602h-88l43 225h88z" />
    <glyph glyph-name="cedilla" unicode="&#xb8;" horiz-adv-x="366" 
d="M10 -307h-94l158 332h80z" />
    <glyph glyph-name="uni00B9" unicode="&#xb9;" horiz-adv-x="630" 
d="M563 1563l-125 -650h152l-15 -71h-378l12 71h153l113 578h-145l12 72h221z" />
    <glyph glyph-name="ordmasculine" unicode="&#xba;" horiz-adv-x="645" 
d="M401 829c-164 0 -237 89 -206 232l32 176c29 149 117 223 265 223c161 0 232 -86 204 -233l-32 -174c-29 -149 -117 -224 -263 -224zM280 933c22 -27 62 -40 121 -40s104 14 135 42s51 72 62 132l33 162c23 112 -24 168 -142 168c-117 0 -175 -57 -196 -174l-33 -162
c-9 -59 -3 -101 20 -128z" />
    <glyph glyph-name="guillemotright" unicode="&#xbb;" horiz-adv-x="1173" 
d="M229 961l381 -379l-16 -103l-531 -377l19 103l459 327l-330 324zM645 856l19 105l380 -379l-16 -103l-530 -377l16 103l461 327z" />
    <glyph glyph-name="onequarter" unicode="&#xbc;" horiz-adv-x="1429" 
d="M307 0l809 1440h84l-809 -1440h-84zM551 717h-379l12 71h154l113 578h-146l12 72h222l-125 -650h151zM1174 238l40 208h74l-86 -446h-74l33 166h-368l12 72l328 483h84l-328 -483h285z" />
    <glyph glyph-name="onehalf" unicode="&#xbd;" horiz-adv-x="1429" 
d="M307 0l809 1440h84l-809 -1440h-84zM551 717h-379l12 71h154l113 578h-146l12 72h222l-125 -650h151zM1145 733c74 0 129 -20 164 -60c35 -41 48 -88 39 -143l-9 -43c-24 -141 -181 -200 -303 -252c-86 -37 -161 -92 -174 -163h398l-15 -72h-477l8 51
c19 101 97 177 185 219c43 21 87 41 131 61c87 39 161 96 176 173l6 28c13 71 -37 130 -137 130c-103 0 -166 -53 -191 -160l-4 -21h-76l6 31c24 139 128 221 273 221z" />
    <glyph glyph-name="threequarters" unicode="&#xbe;" horiz-adv-x="1429" 
d="M629 942l-11 -53c-21 -117 -119 -184 -256 -184c-71 0 -125 18 -162 55c-38 37 -51 84 -40 143l8 45h76l-8 -47c-19 -79 35 -125 131 -125c101 0 161 40 178 119l8 47c15 73 -19 109 -102 109h-136l15 69h127c85 0 133 35 145 105l6 39c13 73 -33 114 -129 114
c-101 0 -159 -41 -174 -123l-8 -38h-76l10 47c9 59 38 104 85 137s104 49 171 49c69 0 122 -18 159 -53c36 -36 49 -83 38 -140l-8 -43c-12 -56 -43 -100 -94 -131c44 -33 60 -80 47 -141zM307 0l809 1440h84l-809 -1440h-84zM1174 238l40 208h74l-86 -446h-74l33 166h-368
l12 72l328 483h84l-328 -483h285z" />
    <glyph glyph-name="questiondown" unicode="&#xbf;" horiz-adv-x="1282" 
d="M709 1026h104l-29 -158h-104zM659 625h89l-9 -50c-13 -71 -42 -129 -85 -174c-44 -46 -93 -80 -147 -103s-108 -45 -163 -67c-55 -23 -103 -56 -146 -99c-43 -44 -72 -101 -85 -171c-5 -23 -8 -47 -9 -72c0 -159 120 -238 361 -237c151 0 266 31 344 92s133 156 164 283
l10 47h86l-10 -56c-60 -302 -259 -453 -596 -452c-297 0 -447 114 -447 313c0 26 4 57 11 94c27 136 99 235 183 280c41 23 86 45 134 68c48 22 93 42 134 59s77 44 110 80s54 81 65 134z" />
    <glyph glyph-name="Agrave" unicode="&#xc0;" horiz-adv-x="1183" 
d="M655 1837l185 -266h-92l-201 266h108zM1030 0h-84l-69 467h-586l-252 -467h-88l760 1438h114zM862 553l-112 790l-412 -790h524z" />
    <glyph glyph-name="Aacute" unicode="&#xc1;" horiz-adv-x="1183" 
d="M1030 1837h119l-303 -266h-105zM-49 0l760 1438h114l205 -1438h-84l-69 467h-586l-252 -467h-88zM862 553l-112 790l-412 -790h524z" />
    <glyph glyph-name="Acircumflex" unicode="&#xc2;" horiz-adv-x="1183" 
d="M977 1561l-141 200l-222 -200h-104l283 256h96l184 -256h-96zM-49 0l760 1438h114l205 -1438h-84l-69 467h-586l-252 -467h-88zM862 553l-112 790l-412 -790h524z" />
    <glyph glyph-name="Atilde" unicode="&#xc3;" horiz-adv-x="1183" 
d="M1081 1843h74c-24 -159 -97 -235 -201 -235c-49 0 -100 27 -153 82s-97 82 -131 82c-68 0 -111 -55 -129 -164h-72c23 157 90 236 201 235c63 0 121 -41 154 -80c32 -40 82 -82 130 -82c69 0 112 54 127 162zM-49 0l760 1438h114l205 -1438h-84l-69 467h-586l-252 -467
h-88zM862 553l-112 790l-412 -790h524z" />
    <glyph glyph-name="Adieresis" unicode="&#xc4;" horiz-adv-x="1183" 
d="M590 1780h100l-28 -144h-99zM948 1636l29 144h98l-26 -144h-101zM-49 0l760 1438h114l205 -1438h-84l-69 467h-586l-252 -467h-88zM862 553l-112 790l-412 -790h524z" />
    <glyph glyph-name="Aring" unicode="&#xc5;" horiz-adv-x="1183" 
d="M955 1614c-40 -39 -91 -58 -152 -58s-112 19 -151 58c-40 38 -60 86 -60 145s20 107 60 145c39 37 90 56 151 56s112 -19 152 -56c39 -38 59 -86 59 -145s-20 -107 -59 -145zM803 1896c-88 0 -146 -52 -146 -136c0 -85 58 -138 146 -138c91 0 147 53 147 138
c0 84 -56 136 -147 136zM1030 0h-84l-69 467h-586l-252 -467h-88l760 1438h114zM862 553l-112 790l-412 -790h524z" />
    <glyph glyph-name="AE" unicode="&#xc6;" horiz-adv-x="1929" 
d="M1978 1438l-18 -86h-754l-114 -594h655l-16 -86h-656l-114 -586h753l-16 -86h-844l94 483h-588l-311 -483h-98l921 1438h1106zM414 567h551l151 785h-201z" />
    <glyph glyph-name="Ccedilla" unicode="&#xc7;" horiz-adv-x="1290" 
d="M791 1460c169 0 295 -42 377 -127c81 -85 110 -194 85 -327l-12 -66h-90l12 61c44 237 -86 373 -379 373c-142 0 -250 -34 -324 -102c-75 -69 -124 -166 -149 -293l-106 -539c-22 -115 0 -206 66 -274c65 -69 170 -103 315 -103c142 0 250 32 323 97
c73 64 121 157 146 280l12 62h90l-16 -88c-57 -283 -237 -428 -539 -437l-123 -284h-94l137 287c-151 9 -263 57 -335 143c-73 86 -97 192 -72 317l110 566c29 142 90 253 183 334c93 80 220 120 383 120z" />
    <glyph glyph-name="Egrave" unicode="&#xc8;" horiz-adv-x="1146" 
d="M655 1837l185 -266h-92l-201 266h108zM1194 1438l-16 -86h-754l-115 -594h656l-17 -86h-655l-115 -586h754l-17 -86h-843l278 1438h844z" />
    <glyph glyph-name="Eacute" unicode="&#xc9;" horiz-adv-x="1146" 
d="M1030 1837h119l-303 -266h-105zM1194 1438l-16 -86h-754l-115 -594h656l-17 -86h-655l-115 -586h754l-17 -86h-843l278 1438h844z" />
    <glyph glyph-name="Ecircumflex" unicode="&#xca;" horiz-adv-x="1146" 
d="M977 1561l-141 200l-222 -200h-104l283 256h96l184 -256h-96zM1194 1438l-16 -86h-754l-115 -594h656l-17 -86h-655l-115 -586h754l-17 -86h-843l278 1438h844z" />
    <glyph glyph-name="Edieresis" unicode="&#xcb;" horiz-adv-x="1146" 
d="M590 1780h100l-28 -144h-99zM977 1780h98l-26 -144h-101zM1194 1438l-16 -86h-754l-115 -594h656l-17 -86h-655l-115 -586h754l-17 -86h-843l278 1438h844z" />
    <glyph glyph-name="Igrave" unicode="&#xcc;" horiz-adv-x="434" 
d="M375 1571l-201 266h109l184 -266h-92zM162 0h-90l278 1438h90z" />
    <glyph glyph-name="Iacute" unicode="&#xcd;" horiz-adv-x="434" 
d="M657 1837h119l-303 -266h-104zM162 0h-90l278 1438h90z" />
    <glyph glyph-name="Icircumflex" unicode="&#xce;" horiz-adv-x="434" 
d="M516 1817l184 -256h-96l-141 200l-221 -200h-105l283 256h96zM162 0h-90l278 1438h90z" />
    <glyph glyph-name="Idieresis" unicode="&#xcf;" horiz-adv-x="434" 
d="M289 1636h-99l27 144h100zM676 1636h-101l29 144h98zM162 0h-90l278 1438h90z" />
    <glyph glyph-name="Eth" unicode="&#xd0;" horiz-adv-x="1282" 
d="M350 1438h475c331 0 475 -167 418 -451l-106 -547c-56 -293 -250 -440 -582 -440h-483l131 680h-180l14 76h180zM1051 463l100 512c52 257 -47 377 -334 377h-393l-117 -596h420l-14 -76h-420l-115 -594h389c273 0 435 126 484 377z" />
    <glyph glyph-name="Ntilde" unicode="&#xd1;" horiz-adv-x="1267" 
d="M713 1772c-68 0 -111 -55 -129 -164h-72c23 157 90 236 201 235c63 0 121 -41 154 -80c32 -40 82 -82 130 -82c69 0 112 54 127 162h74c-24 -159 -97 -235 -201 -235c-39 0 -75 14 -107 41s-62 55 -90 82s-57 41 -87 41zM942 156l248 1282h86l-281 -1438h-84l-505 1278
l-250 -1278h-84l278 1438h86z" />
    <glyph glyph-name="Ograve" unicode="&#xd2;" horiz-adv-x="1294" 
d="M778 1571l-200 266h108l184 -266h-92zM580 -23c-169 0 -296 44 -379 133c-83 88 -112 198 -86 330l110 564c29 142 90 254 183 335s221 121 385 121c169 0 296 -45 379 -135s110 -203 83 -338l-110 -565c-57 -297 -246 -445 -565 -445zM586 63c143 0 252 33 326 100
c73 66 122 160 147 283l104 537c25 120 5 215 -60 286c-65 70 -170 105 -317 105c-143 0 -252 -34 -326 -102c-75 -69 -124 -166 -149 -293l-106 -539c-22 -115 0 -206 66 -274c65 -69 170 -103 315 -103z" />
    <glyph glyph-name="Oacute" unicode="&#xd3;" horiz-adv-x="1294" 
d="M1061 1837h119l-303 -266h-105zM580 -23c-169 0 -296 44 -379 133c-83 88 -112 198 -86 330l110 564c29 142 90 254 183 335s221 121 385 121c169 0 296 -45 379 -135s110 -203 83 -338l-110 -565c-57 -297 -246 -445 -565 -445zM586 63c143 0 252 33 326 100
c73 66 122 160 147 283l104 537c25 120 5 215 -60 286c-65 70 -170 105 -317 105c-143 0 -252 -34 -326 -102c-75 -69 -124 -166 -149 -293l-106 -539c-22 -115 0 -206 66 -274c65 -69 170 -103 315 -103z" />
    <glyph glyph-name="Ocircumflex" unicode="&#xd4;" horiz-adv-x="1294" 
d="M1008 1561l-142 200l-221 -200h-104l282 256h97l184 -256h-96zM793 1460c169 0 296 -45 379 -135s110 -203 83 -338l-110 -565c-57 -296 -246 -444 -565 -445c-169 0 -296 44 -379 133c-83 88 -112 198 -86 330l110 564c29 142 90 254 183 335s221 121 385 121zM1059 446
l104 537c25 120 5 215 -60 286c-65 70 -170 105 -317 105c-143 0 -252 -34 -326 -102c-75 -69 -124 -166 -149 -293l-106 -539c-22 -115 0 -206 66 -274c65 -69 170 -103 315 -103c143 0 252 33 326 100c73 66 122 160 147 283z" />
    <glyph glyph-name="Otilde" unicode="&#xd5;" horiz-adv-x="1294" 
d="M1112 1843h74c-24 -159 -97 -235 -201 -235c-39 0 -75 14 -107 41c-33 27 -63 55 -91 82s-57 41 -87 41c-68 0 -111 -55 -129 -164h-71c23 157 90 236 200 235c63 0 121 -41 154 -80c33 -40 82 -82 131 -82c69 0 112 54 127 162zM580 -23c-169 0 -296 44 -379 133
c-83 88 -112 198 -86 330l110 564c29 142 90 254 183 335s221 121 385 121c169 0 296 -45 379 -135s110 -203 83 -338l-110 -565c-57 -297 -246 -445 -565 -445zM586 63c143 0 252 33 326 100c73 66 122 160 147 283l104 537c25 120 5 215 -60 286c-65 70 -170 105 -317 105
c-143 0 -252 -34 -326 -102c-75 -69 -124 -166 -149 -293l-106 -539c-22 -115 0 -206 66 -274c65 -69 170 -103 315 -103z" />
    <glyph glyph-name="Odieresis" unicode="&#xd6;" horiz-adv-x="1294" 
d="M692 1636h-98l27 144h100zM1079 1636h-100l29 144h98zM580 -23c-169 0 -296 44 -379 133c-83 88 -112 198 -86 330l110 564c29 142 90 254 183 335s221 121 385 121c169 0 296 -45 379 -135s110 -203 83 -338l-110 -565c-57 -297 -246 -445 -565 -445zM586 63
c143 0 252 33 326 100c73 66 122 160 147 283l104 537c25 120 5 215 -60 286c-65 70 -170 105 -317 105c-143 0 -252 -34 -326 -102c-75 -69 -124 -166 -149 -293l-106 -539c-22 -115 0 -206 66 -274c65 -69 170 -103 315 -103z" />
    <glyph glyph-name="multiply" unicode="&#xd7;" horiz-adv-x="1056" 
d="M866 1157l58 -55l-297 -352l297 -353l-58 -57l-291 346l-292 -346l-58 57l297 353l-297 352l58 55l292 -346z" />
    <glyph glyph-name="Oslash" unicode="&#xd8;" horiz-adv-x="1294" 
d="M1292 1528l-131 -191c93 -90 124 -207 94 -350l-110 -565c-57 -296 -246 -444 -565 -445c-123 0 -225 25 -308 76l-127 -182l-67 37l133 192c-91 87 -123 201 -96 340l110 564c29 142 90 254 183 335s221 121 385 121c125 0 227 -25 305 -76l125 181zM311 979l-106 -539
c-21 -111 -2 -199 57 -266l787 1139c-67 41 -154 61 -263 61c-143 0 -252 -34 -326 -102c-75 -69 -124 -166 -149 -293zM1059 446l104 537c23 117 5 210 -55 279l-786 -1137c67 -41 155 -61 264 -62c143 0 252 33 326 100c73 66 122 160 147 283z" />
    <glyph glyph-name="Ugrave" unicode="&#xd9;" horiz-adv-x="1259" 
d="M791 1571l-201 266h108l185 -266h-92zM563 -23c-163 0 -284 44 -365 133c-81 88 -109 198 -83 330l196 998h88l-194 -998c-22 -115 -1 -206 62 -274c63 -69 164 -103 302 -103c137 0 241 33 312 100c71 66 119 160 145 283l193 992h90l-199 -1016
c-59 -297 -241 -445 -547 -445z" />
    <glyph glyph-name="Uacute" unicode="&#xda;" horiz-adv-x="1259" 
d="M1073 1837h119l-303 -266h-105zM563 -23c-163 0 -284 44 -365 133c-81 88 -109 198 -83 330l196 998h88l-194 -998c-22 -115 -1 -206 62 -274c63 -69 164 -103 302 -103c137 0 241 33 312 100c71 66 119 160 145 283l193 992h90l-199 -1016c-59 -297 -241 -445 -547 -445
z" />
    <glyph glyph-name="Ucircumflex" unicode="&#xdb;" horiz-adv-x="1259" 
d="M1020 1561l-141 200l-222 -200h-104l283 256h96l184 -256h-96zM1026 446l193 992h90l-199 -1016c-59 -296 -241 -444 -547 -445c-163 0 -284 44 -365 133c-81 88 -109 198 -83 330l196 998h88l-194 -998c-22 -115 -1 -206 62 -274c63 -69 164 -103 302 -103
c137 0 241 33 312 100c71 66 119 160 145 283z" />
    <glyph glyph-name="Udieresis" unicode="&#xdc;" horiz-adv-x="1259" 
d="M705 1636h-99l27 144h100zM1092 1636h-101l29 144h98zM563 -23c-163 0 -284 44 -365 133c-81 88 -109 198 -83 330l196 998h88l-194 -998c-22 -115 -1 -206 62 -274c63 -69 164 -103 302 -103c137 0 241 33 312 100c71 66 119 160 145 283l193 992h90l-199 -1016
c-59 -297 -241 -445 -547 -445z" />
    <glyph glyph-name="Yacute" unicode="&#xdd;" horiz-adv-x="1112" 
d="M991 1837h119l-303 -266h-105zM1137 1438h102l-631 -865l-112 -573h-88l110 580l-289 858h93l258 -758z" />
    <glyph glyph-name="Thorn" unicode="&#xde;" horiz-adv-x="1259" 
d="M393 1196h426c315 0 444 -118 395 -373l-24 -127c-49 -257 -225 -372 -537 -372h-428l-63 -324h-90l278 1438h90zM1104 719l18 94c21 112 7 190 -41 233c-49 43 -140 64 -274 64h-430l-135 -700h422c253 0 399 88 440 309z" />
    <glyph glyph-name="germandbls" unicode="&#xdf;" horiz-adv-x="1126" 
d="M766 1599c135 0 233 -34 294 -103s79 -163 56 -282l-20 -100c-30 -151 -107 -254 -232 -309c120 -57 164 -170 133 -338l-20 -107c-45 -240 -208 -360 -488 -360h-159l14 82h154c235 0 358 91 397 299l14 80c19 107 8 184 -33 231c-42 47 -122 70 -239 70h-115l17 82h106
c211 0 328 91 369 291l16 75c41 200 -47 308 -266 308c-221 0 -341 -112 -385 -344l-227 -1174h-89l232 1196c53 269 210 403 471 403z" />
    <glyph glyph-name="agrave" unicode="&#xe0;" horiz-adv-x="1107" 
d="M563 1477l142 -316h-84l-154 316h96zM930 864l49 164h70l-201 -1028h-66l13 137c-78 -107 -191 -160 -340 -160c-124 0 -221 39 -290 116s-92 178 -69 302l49 252c52 257 214 404 451 404c78 0 147 -17 207 -50c60 -34 102 -80 127 -137zM473 59c185 0 317 106 361 306
l59 313c9 89 -14 159 -70 212s-130 79 -223 79c-203 0 -327 -115 -371 -344l-45 -226c-21 -105 -4 -188 51 -249s134 -91 238 -91z" />
    <glyph glyph-name="aacute" unicode="&#xe1;" horiz-adv-x="1107" 
d="M885 1477h102l-274 -316h-92zM930 864l49 164h70l-201 -1028h-66l13 137c-78 -107 -191 -160 -340 -160c-124 0 -221 39 -290 116s-92 178 -69 302l49 252c52 257 214 404 451 404c78 0 147 -17 207 -50c60 -34 102 -80 127 -137zM473 59c185 0 317 106 361 306l59 313
c9 89 -14 159 -70 212s-130 79 -223 79c-203 0 -327 -115 -371 -344l-45 -226c-21 -105 -4 -188 51 -249s134 -91 238 -91z" />
    <glyph glyph-name="acircumflex" unicode="&#xe2;" horiz-adv-x="1107" 
d="M838 1165l-119 242l-217 -242h-99l277 301h82l164 -301h-88zM930 864l49 164h70l-201 -1028h-66l13 137c-78 -107 -191 -160 -340 -160c-124 0 -221 39 -290 116s-92 178 -69 302l49 252c52 257 214 404 451 404c78 0 147 -17 207 -50c60 -34 102 -80 127 -137zM473 59
c185 0 317 106 361 306l59 313c9 89 -14 159 -70 212s-130 79 -223 79c-203 0 -327 -115 -371 -344l-45 -226c-21 -105 -4 -188 51 -249s134 -91 238 -91z" />
    <glyph glyph-name="atilde" unicode="&#xe3;" horiz-adv-x="1107" 
d="M541 1362c-68 0 -111 -55 -129 -164h-72c23 157 90 236 201 236c63 0 121 -42 154 -81c32 -40 81 -81 130 -81c69 0 112 54 127 162h74c-24 -159 -97 -236 -201 -236c-39 0 -75 14 -107 41s-62 55 -90 82s-57 41 -87 41zM930 864l49 164h70l-201 -1028h-66l13 137
c-78 -107 -191 -160 -340 -160c-124 0 -221 39 -290 116s-92 178 -69 302l49 252c52 257 214 404 451 404c78 0 147 -17 207 -50c60 -34 102 -80 127 -137zM473 59c185 0 317 106 361 306l59 313c9 89 -14 159 -70 212s-130 79 -223 79c-203 0 -327 -115 -371 -344l-45 -226
c-21 -105 -4 -188 51 -249s134 -91 238 -91z" />
    <glyph glyph-name="adieresis" unicode="&#xe4;" horiz-adv-x="1107" 
d="M461 1370h100l-29 -143h-98zM848 1370h98l-26 -143h-101zM930 864l49 164h70l-201 -1028h-66l13 137c-78 -107 -191 -160 -340 -160c-124 0 -221 39 -290 116s-92 178 -69 302l49 252c52 257 214 404 451 404c78 0 147 -17 207 -50c60 -34 102 -80 127 -137zM473 59
c185 0 317 106 361 306l59 313c9 89 -14 159 -70 212s-130 79 -223 79c-203 0 -327 -115 -371 -344l-45 -226c-21 -105 -4 -188 51 -249s134 -91 238 -91z" />
    <glyph glyph-name="aring" unicode="&#xe5;" horiz-adv-x="1107" 
d="M826 1205c-40 -39 -91 -58 -152 -58s-112 19 -151 58c-40 38 -60 86 -60 145s20 107 60 144c39 37 90 56 151 56s112 -19 152 -56c39 -37 59 -85 59 -144s-20 -107 -59 -145zM674 1487c-88 0 -146 -53 -146 -137c0 -85 58 -138 146 -138c91 0 147 53 147 138
c0 84 -56 137 -147 137zM930 864l49 164h70l-201 -1028h-66l13 137c-78 -107 -191 -160 -340 -160c-124 0 -221 39 -290 116s-92 178 -69 302l49 252c52 257 214 404 451 404c78 0 147 -17 207 -50c60 -34 102 -80 127 -137zM473 59c185 0 317 106 361 306l59 313
c9 89 -14 159 -70 212s-130 79 -223 79c-203 0 -327 -115 -371 -344l-45 -226c-21 -105 -4 -188 51 -249s134 -91 238 -91z" />
    <glyph glyph-name="ae" unicode="&#xe6;" horiz-adv-x="1771" 
d="M1341 1051c116 0 207 -38 272 -115s85 -176 62 -297l-28 -152h-717l-17 -88c-21 -104 -4 -186 49 -246s133 -90 238 -90c177 0 294 101 330 289h88c-22 -120 -70 -212 -143 -277c-74 -65 -165 -98 -273 -98c-164 0 -284 71 -336 191l-51 -168h-51l12 129
c-77 -101 -183 -152 -319 -152c-125 0 -223 39 -292 117s-92 179 -67 303l49 250c52 260 212 404 449 404c148 0 271 -70 319 -187l50 164h49l-10 -133c84 104 196 156 337 156zM475 63c180 0 309 111 344 322l51 262c17 97 -1 174 -54 232c-53 57 -124 86 -214 86
c-203 0 -326 -113 -369 -340l-45 -224c-21 -105 -4 -188 50 -248s133 -90 237 -90zM956 625l-10 -52h627l10 56c21 104 7 186 -41 246s-120 90 -215 90c-193 0 -327 -116 -371 -340z" />
    <glyph glyph-name="ccedilla" unicode="&#xe7;" horiz-adv-x="1062" 
d="M604 1051c127 0 225 -34 296 -102c71 -69 96 -156 75 -261l-6 -37h-88l6 33c17 89 -2 158 -55 209s-130 76 -230 76c-196 0 -329 -120 -373 -344l-45 -226c-21 -104 -4 -187 51 -248s134 -92 238 -92c193 0 309 97 350 291l6 27h86l-10 -47c-47 -227 -203 -353 -432 -353
h-12l-123 -284h-94l139 293c-104 18 -183 64 -236 139c-54 74 -71 164 -51 270l49 252c26 129 79 228 160 299c81 70 180 105 299 105z" />
    <glyph glyph-name="egrave" unicode="&#xe8;" horiz-adv-x="1067" 
d="M559 1477l141 -316h-84l-153 316h96zM608 1051c127 0 225 -38 294 -115s92 -176 69 -297l-29 -152h-735l-19 -88c-21 -104 -4 -186 50 -246s133 -90 237 -90c193 0 309 96 348 289h90c-23 -120 -74 -212 -151 -277c-78 -65 -174 -98 -289 -98c-133 0 -234 39 -305 117
s-95 178 -72 301l51 252c26 129 80 228 161 299c81 70 181 105 300 105zM233 625l-10 -52h645l11 56c21 104 5 186 -46 246s-128 90 -229 90c-193 0 -327 -119 -371 -340z" />
    <glyph glyph-name="eacute" unicode="&#xe9;" horiz-adv-x="1067" 
d="M881 1477h102l-274 -316h-93zM608 1051c127 0 225 -38 294 -115s92 -176 69 -297l-29 -152h-735l-19 -88c-21 -104 -4 -186 50 -246s133 -90 237 -90c193 0 309 96 348 289h90c-23 -120 -74 -212 -151 -277c-78 -65 -174 -98 -289 -98c-133 0 -234 39 -305 117
s-95 178 -72 301l51 252c26 129 80 228 161 299c81 70 181 105 300 105zM233 625l-10 -52h645l11 56c21 104 5 186 -46 246s-128 90 -229 90c-193 0 -327 -119 -371 -340z" />
    <glyph glyph-name="ecircumflex" unicode="&#xea;" horiz-adv-x="1067" 
d="M834 1165l-119 242l-217 -242h-99l277 301h82l164 -301h-88zM608 1051c127 0 225 -38 294 -115s92 -176 69 -297l-29 -152h-735l-19 -88c-21 -104 -4 -186 50 -246s133 -90 237 -90c193 0 309 96 348 289h90c-23 -120 -74 -212 -151 -277c-78 -65 -174 -98 -289 -98
c-133 0 -234 39 -305 117s-95 178 -72 301l51 252c26 129 80 228 161 299c81 70 181 105 300 105zM233 625l-10 -52h645l11 56c21 104 5 186 -46 246s-128 90 -229 90c-193 0 -327 -119 -371 -340z" />
    <glyph glyph-name="edieresis" unicode="&#xeb;" horiz-adv-x="1067" 
d="M457 1370h100l-29 -143h-98zM844 1370h98l-27 -143h-100zM608 1051c127 0 225 -38 294 -115s92 -176 69 -297l-29 -152h-735l-19 -88c-21 -104 -4 -186 50 -246s133 -90 237 -90c193 0 309 96 348 289h90c-23 -120 -74 -212 -151 -277c-78 -65 -174 -98 -289 -98
c-133 0 -234 39 -305 117s-95 178 -72 301l51 252c26 129 80 228 161 299c81 70 181 105 300 105zM233 625l-10 -52h645l11 56c21 104 5 186 -46 246s-128 90 -229 90c-193 0 -327 -119 -371 -340z" />
    <glyph glyph-name="igrave" unicode="&#xec;" horiz-adv-x="413" 
d="M289 1161l-154 316h96l142 -316h-84zM150 0h-87l201 1028h86z" />
    <glyph glyph-name="iacute" unicode="&#xed;" horiz-adv-x="413" 
d="M553 1477h102l-274 -316h-92zM150 0h-87l201 1028h86z" />
    <glyph glyph-name="icircumflex" unicode="&#xee;" horiz-adv-x="413" 
d="M430 1466l164 -301h-88l-119 242l-217 -242h-98l276 301h82zM150 0h-87l201 1028h86z" />
    <glyph glyph-name="idieresis" unicode="&#xef;" horiz-adv-x="413" 
d="M201 1227h-99l27 143h100zM588 1227h-101l29 143h98zM150 0h-87l201 1028h86z" />
    <glyph glyph-name="eth" unicode="&#xf0;" horiz-adv-x="1087" 
d="M1118 1604l51 -54l-165 -131c68 -104 81 -262 40 -475l-110 -563c-52 -260 -212 -404 -463 -404c-134 0 -236 39 -306 117c-71 78 -94 178 -69 299l51 256c52 260 214 402 459 402c167 0 292 -70 336 -185l16 80c37 190 29 329 -24 416l-254 -201l-51 56l256 202
c-71 65 -196 98 -377 99l18 81c201 0 344 -41 430 -122zM852 403l51 267c18 89 -1 161 -57 216s-136 83 -240 83c-207 0 -333 -114 -377 -342l-45 -230c-21 -105 -4 -188 49 -248s135 -90 244 -90c205 0 330 115 375 344z" />
    <glyph glyph-name="ntilde" unicode="&#xf1;" horiz-adv-x="1134" 
d="M569 1362c-68 0 -111 -55 -129 -164h-71c23 157 90 236 200 236c63 0 121 -42 154 -81c33 -40 82 -81 131 -81c69 0 112 54 127 162h74c-24 -159 -97 -236 -201 -236c-39 0 -75 14 -107 41c-33 27 -63 55 -91 82s-57 41 -87 41zM664 1051c120 0 213 -41 280 -122
s87 -192 60 -333l-117 -596h-86l114 594c23 117 9 209 -44 276c-53 66 -128 99 -224 99c-82 0 -157 -26 -226 -79s-119 -127 -149 -224l-127 -666h-86l199 1028h66l-19 -160c87 122 206 183 359 183z" />
    <glyph glyph-name="ograve" unicode="&#xf2;" horiz-adv-x="1081" 
d="M623 1161l-154 316h96l142 -316h-84zM475 -23c-135 0 -238 39 -309 116s-95 177 -70 300l51 256c52 260 212 402 463 402c135 0 238 -38 307 -115s91 -177 66 -301l-49 -254c-52 -260 -211 -404 -459 -404zM477 59c205 0 330 115 375 344l45 230c21 105 5 188 -47 247
s-133 89 -242 89c-209 0 -335 -114 -379 -342l-45 -230c-21 -105 -4 -188 49 -248s135 -90 244 -90z" />
    <glyph glyph-name="oacute" unicode="&#xf3;" horiz-adv-x="1081" 
d="M887 1477h102l-274 -316h-92zM475 -23c-135 0 -238 39 -309 116s-95 177 -70 300l51 256c52 260 212 402 463 402c135 0 238 -38 307 -115s91 -177 66 -301l-49 -254c-52 -260 -211 -404 -459 -404zM477 59c205 0 330 115 375 344l45 230c21 105 5 188 -47 247
s-133 89 -242 89c-209 0 -335 -114 -379 -342l-45 -230c-21 -105 -4 -188 49 -248s135 -90 244 -90z" />
    <glyph glyph-name="ocircumflex" unicode="&#xf4;" horiz-adv-x="1081" 
d="M840 1165l-119 242l-217 -242h-98l276 301h82l164 -301h-88zM610 1051c135 0 238 -38 307 -115s91 -177 66 -301l-49 -254c-52 -260 -210 -404 -459 -404c-135 0 -238 39 -309 116s-95 177 -70 300l51 256c52 260 212 402 463 402zM852 403l45 230c21 105 5 188 -47 247
s-133 89 -242 89c-209 0 -335 -114 -379 -342l-45 -230c-21 -105 -4 -188 49 -248s135 -90 244 -90c205 0 330 115 375 344z" />
    <glyph glyph-name="otilde" unicode="&#xf5;" horiz-adv-x="1081" 
d="M954 1434h74c-24 -159 -97 -236 -201 -236c-49 0 -100 27 -153 82s-97 82 -131 82c-68 0 -111 -55 -129 -164h-72c23 157 90 236 201 236c63 0 121 -42 154 -81c32 -40 82 -81 130 -81c69 0 112 54 127 162zM475 -23c-135 0 -238 39 -309 116s-95 177 -70 300l51 256
c52 260 212 402 463 402c135 0 238 -38 307 -115s91 -177 66 -301l-49 -254c-52 -260 -211 -404 -459 -404zM477 59c205 0 330 115 375 344l45 230c21 105 5 188 -47 247s-133 89 -242 89c-209 0 -335 -114 -379 -342l-45 -230c-21 -105 -4 -188 49 -248s135 -90 244 -90z
" />
    <glyph glyph-name="odieresis" unicode="&#xf6;" horiz-adv-x="1081" 
d="M535 1227h-99l27 143h100zM922 1227h-101l29 143h98zM475 -23c-135 0 -238 39 -309 116s-95 177 -70 300l51 256c52 260 212 402 463 402c135 0 238 -38 307 -115s91 -177 66 -301l-49 -254c-52 -260 -211 -404 -459 -404zM477 59c205 0 330 115 375 344l45 230
c21 105 5 188 -47 247s-133 89 -242 89c-209 0 -335 -114 -379 -342l-45 -230c-21 -105 -4 -188 49 -248s135 -90 244 -90z" />
    <glyph glyph-name="divide" unicode="&#xf7;" horiz-adv-x="1015" 
d="M608 1038h-106v160h106v-160zM944 705h-780v86h780v-86zM608 299h-106v158h106v-158z" />
    <glyph glyph-name="oslash" unicode="&#xf8;" horiz-adv-x="1081" 
d="M1012 1135l-119 -177c87 -77 117 -184 90 -323l-49 -254c-52 -260 -210 -404 -459 -404c-85 0 -157 16 -217 48l-115 -168l-73 37l120 176c-90 77 -121 184 -94 323l51 256c52 260 212 402 463 402c81 0 152 -15 215 -45l113 165zM229 627l-45 -230
c-21 -109 -2 -194 56 -254l536 791c-47 23 -103 35 -168 35c-209 0 -335 -114 -379 -342zM852 403l45 230c21 111 3 195 -53 254l-539 -793c49 -23 107 -35 172 -35c205 0 330 115 375 344z" />
    <glyph glyph-name="ugrave" unicode="&#xf9;" horiz-adv-x="1103" 
d="M557 1477l141 -316h-84l-153 316h96zM831 362l127 666h86l-198 -1028h-66l19 158c-85 -120 -199 -180 -344 -181c-115 0 -204 41 -267 122c-64 81 -83 192 -57 331l117 598h86l-115 -594c-22 -116 -8 -207 42 -274s120 -101 210 -101c78 0 150 26 216 79s114 127 144 224
z" />
    <glyph glyph-name="uacute" unicode="&#xfa;" horiz-adv-x="1103" 
d="M879 1477h102l-274 -316h-93zM831 362l127 666h86l-198 -1028h-66l19 158c-85 -120 -199 -180 -344 -181c-115 0 -204 41 -267 122c-64 81 -83 192 -57 331l117 598h86l-115 -594c-22 -116 -8 -207 42 -274s120 -101 210 -101c78 0 150 26 216 79s114 127 144 224z" />
    <glyph glyph-name="ucircumflex" unicode="&#xfb;" horiz-adv-x="1103" 
d="M831 1165l-118 242l-217 -242h-99l277 301h82l164 -301h-89zM831 362l127 666h86l-198 -1028h-66l19 158c-85 -120 -199 -180 -344 -181c-115 0 -204 41 -267 122c-64 81 -83 192 -57 331l117 598h86l-115 -594c-22 -116 -8 -207 42 -274s120 -101 210 -101
c78 0 150 26 216 79s114 127 144 224z" />
    <glyph glyph-name="udieresis" unicode="&#xfc;" horiz-adv-x="1103" 
d="M455 1370h100l-29 -143h-98zM842 1370h98l-27 -143h-100zM831 362l127 666h86l-198 -1028h-66l19 158c-85 -120 -199 -180 -344 -181c-115 0 -204 41 -267 122c-64 81 -83 192 -57 331l117 598h86l-115 -594c-22 -116 -8 -207 42 -274s120 -101 210 -101
c78 0 150 26 216 79s114 127 144 224z" />
    <glyph glyph-name="yacute" unicode="&#xfd;" horiz-adv-x="1103" 
d="M897 1477h102l-274 -316h-92zM827 350l131 678h86l-221 -1137c-22 -120 -72 -214 -150 -283c-79 -68 -175 -102 -288 -102c-104 0 -188 25 -251 75s-92 115 -87 196h84c-1 -56 23 -102 72 -137s111 -52 188 -52c90 0 166 30 229 89c62 60 103 142 123 245l43 217
c-85 -108 -195 -162 -331 -162c-115 0 -204 41 -267 122c-64 81 -83 192 -57 331l117 598h86l-115 -594c-22 -116 -8 -207 42 -274s120 -101 210 -101c77 0 148 25 213 76s113 122 143 215z" />
    <glyph glyph-name="thorn" unicode="&#xfe;" horiz-adv-x="1107" 
d="M662 1051c121 0 216 -39 284 -117c67 -78 89 -178 64 -299l-49 -252c-52 -260 -220 -406 -463 -406c-156 0 -275 62 -324 177l-121 -625h-86l398 2048h86l-132 -676c79 100 193 150 343 150zM879 403l43 228c21 104 5 186 -47 247s-127 91 -225 91
c-197 0 -312 -92 -376 -299l-59 -312c-19 -200 93 -299 285 -299c200 0 335 121 379 344z" />
    <glyph glyph-name="ydieresis" unicode="&#xff;" horiz-adv-x="1103" 
d="M473 1370h100l-28 -143h-99zM860 1370h98l-26 -143h-101zM827 350l131 678h86l-221 -1137c-22 -120 -72 -214 -150 -283c-79 -68 -175 -102 -288 -102c-104 0 -188 25 -251 75s-92 115 -87 196h84c-1 -56 23 -102 72 -137s111 -52 188 -52c90 0 166 30 229 89
c62 60 103 142 123 245l43 217c-85 -108 -195 -162 -331 -162c-115 0 -204 41 -267 122c-64 81 -83 192 -57 331l117 598h86l-115 -594c-22 -116 -8 -207 42 -274s120 -101 210 -101c77 0 148 25 213 76s113 122 143 215z" />
    <glyph glyph-name="Amacron" unicode="&#x100;" horiz-adv-x="1183" 
d="M485 1677l17 78h645l-14 -78h-648zM-49 0l760 1438h114l205 -1438h-84l-69 467h-586l-252 -467h-88zM862 553l-112 790l-412 -790h524z" />
    <glyph glyph-name="amacron" unicode="&#x101;" horiz-adv-x="1107" 
d="M373 1346h645l-14 -78h-648zM930 864l49 164h70l-201 -1028h-66l13 137c-78 -107 -191 -160 -340 -160c-124 0 -221 39 -290 116s-92 178 -69 302l49 252c52 257 214 404 451 404c78 0 147 -17 207 -50c60 -34 102 -80 127 -137zM473 59c185 0 317 106 361 306l59 313
c9 89 -14 159 -70 212s-130 79 -223 79c-203 0 -327 -115 -371 -344l-45 -226c-21 -105 -4 -188 51 -249s134 -91 238 -91z" />
    <glyph glyph-name="Abreve" unicode="&#x102;" horiz-adv-x="1183" 
d="M788 1556c-77 0 -138 22 -183 67s-63 102 -54 173h65c-8 -52 5 -94 40 -127c34 -33 81 -49 141 -49c59 0 110 16 155 49c44 33 69 75 76 127h66c-9 -71 -43 -128 -101 -173c-59 -45 -127 -67 -205 -67zM-49 0l760 1438h114l205 -1438h-84l-69 467h-586l-252 -467h-88z
M862 553l-112 790l-412 -790h524z" />
    <glyph glyph-name="abreve" unicode="&#x103;" horiz-adv-x="1107" 
d="M659 1147c-77 0 -138 22 -183 67c-45 44 -63 101 -54 172h65c-8 -52 5 -94 40 -127c34 -33 81 -49 141 -49c59 0 110 17 155 50c44 33 69 75 76 126h66c-9 -71 -43 -128 -101 -172c-59 -45 -127 -67 -205 -67zM930 864l49 164h70l-201 -1028h-66l13 137
c-78 -107 -191 -160 -340 -160c-124 0 -221 39 -290 116s-92 178 -69 302l49 252c52 257 214 404 451 404c78 0 147 -17 207 -50c60 -34 102 -80 127 -137zM473 59c185 0 317 106 361 306l59 313c9 89 -14 159 -70 212s-130 79 -223 79c-203 0 -327 -115 -371 -344l-45 -226
c-21 -105 -4 -188 51 -249s134 -91 238 -91z" />
    <glyph glyph-name="Aogonek" unicode="&#x104;" horiz-adv-x="1183" 
d="M797 -254c0 -48 32 -72 96 -72c26 0 52 3 78 9l-10 -68c-30 -8 -60 -12 -91 -12c-108 0 -162 41 -161 123c0 100 78 194 235 282l-67 459h-586l-252 -467h-88l760 1438h114l205 -1438c-155 -89 -233 -173 -233 -254zM862 553l-112 790l-412 -790h524z" />
    <glyph glyph-name="aogonek" unicode="&#x105;" horiz-adv-x="1112" 
d="M1049 1028l-201 -1028c-154 -89 -231 -173 -232 -254c0 -48 32 -72 97 -72c25 0 51 3 78 9l-11 -68c-33 -8 -63 -12 -90 -12c-109 0 -164 41 -164 123c0 103 86 199 258 290l11 125c-77 -109 -190 -164 -340 -164c-124 0 -221 39 -290 116s-92 178 -69 302l49 252
c52 257 214 404 451 404c78 0 147 -17 207 -50c60 -34 102 -80 127 -137l49 164h70zM473 59c185 0 317 106 361 306l59 311c9 90 -14 161 -70 214s-130 79 -223 79c-203 0 -327 -115 -371 -344l-45 -226c-21 -105 -4 -188 51 -249s134 -91 238 -91z" />
    <glyph glyph-name="Cacute" unicode="&#x106;" horiz-adv-x="1290" 
d="M1061 1837h119l-303 -266h-105zM578 -23c-169 0 -295 44 -378 132c-83 87 -111 198 -85 331l110 566c29 142 90 253 183 334c93 80 220 120 383 120c169 0 295 -42 377 -127c81 -85 110 -194 85 -327l-12 -66h-90l12 61c44 237 -86 373 -379 373
c-142 0 -250 -34 -324 -102c-75 -69 -124 -166 -149 -293l-106 -539c-22 -115 0 -206 66 -274c65 -69 170 -103 315 -103c142 0 250 32 323 97c73 64 121 157 146 280l12 62h90l-16 -88c-60 -291 -248 -437 -563 -437z" />
    <glyph glyph-name="cacute" unicode="&#x107;" horiz-adv-x="1062" 
d="M877 1477h102l-274 -316h-93zM473 -23c-131 0 -233 39 -304 117c-72 78 -96 178 -73 301l49 252c26 129 79 228 160 299c81 70 180 105 299 105c127 0 225 -34 296 -102c71 -69 96 -156 75 -261l-6 -37h-88l6 33c17 89 -2 158 -55 209s-130 76 -230 76
c-196 0 -329 -120 -373 -344l-45 -226c-21 -104 -4 -187 51 -248s134 -92 238 -92c193 0 309 97 350 291l6 27h86l-10 -47c-47 -227 -203 -353 -432 -353z" />
    <glyph glyph-name="Cdotaccent" unicode="&#x10a;" horiz-adv-x="1290" 
d="M889 1636h-105l29 150h105zM578 -23c-169 0 -295 44 -378 132c-83 87 -111 198 -85 331l110 566c29 142 90 253 183 334c93 80 220 120 383 120c169 0 295 -42 377 -127c81 -85 110 -194 85 -327l-12 -66h-90l12 61c44 237 -86 373 -379 373c-142 0 -250 -34 -324 -102
c-75 -69 -124 -166 -149 -293l-106 -539c-22 -115 0 -206 66 -274c65 -69 170 -103 315 -103c142 0 250 32 323 97c73 64 121 157 146 280l12 62h90l-16 -88c-60 -291 -248 -437 -563 -437z" />
    <glyph glyph-name="cdotaccent" unicode="&#x10b;" horiz-adv-x="1062" 
d="M721 1227h-105l29 149h105zM473 -23c-131 0 -233 39 -304 117c-72 78 -96 178 -73 301l49 252c26 129 79 228 160 299c81 70 180 105 299 105c127 0 225 -34 296 -102c71 -69 96 -156 75 -261l-6 -37h-88l6 33c17 89 -2 158 -55 209s-130 76 -230 76
c-196 0 -329 -120 -373 -344l-45 -226c-21 -104 -4 -187 51 -248s134 -92 238 -92c193 0 309 97 350 291l6 27h86l-10 -47c-47 -227 -203 -353 -432 -353z" />
    <glyph glyph-name="Ccaron" unicode="&#x10c;" horiz-adv-x="1290" 
d="M1153 1825l-283 -254h-96l-184 254h96l141 -199l222 199h104zM791 1460c169 0 295 -42 377 -127c81 -85 110 -194 85 -327l-12 -66h-90l12 61c44 237 -86 373 -379 373c-142 0 -250 -34 -324 -102c-75 -69 -124 -166 -149 -293l-106 -539c-22 -115 0 -206 66 -274
c65 -69 170 -103 315 -103c142 0 250 32 323 97c73 64 121 157 146 280l12 62h90l-16 -88c-60 -291 -248 -436 -563 -437c-169 0 -295 44 -378 132c-83 87 -111 198 -85 331l110 566c29 142 90 253 183 334c93 80 220 120 383 120z" />
    <glyph glyph-name="ccaron" unicode="&#x10d;" horiz-adv-x="1062" 
d="M979 1466l-281 -305h-82l-161 305h86l123 -243l217 243h98zM604 1051c127 0 225 -34 296 -102c71 -69 96 -156 75 -261l-6 -37h-88l6 33c17 89 -2 158 -55 209s-130 76 -230 76c-196 0 -329 -120 -373 -344l-45 -226c-21 -104 -4 -187 51 -248s134 -92 238 -92
c193 0 309 97 350 291l6 27h86l-10 -47c-47 -227 -203 -353 -432 -353c-131 0 -233 39 -304 117c-72 78 -96 178 -73 301l49 252c26 129 79 228 160 299c81 70 180 105 299 105z" />
    <glyph glyph-name="Dcaron" unicode="&#x10e;" horiz-adv-x="1282" 
d="M1161 1825l-282 -254h-97l-184 254h96l142 -199l221 199h104zM350 1438h475c331 0 475 -167 418 -451l-106 -547c-56 -293 -250 -440 -582 -440h-483zM1051 463l100 512c52 257 -47 377 -334 377h-393l-246 -1266h389c273 0 435 126 484 377z" />
    <glyph glyph-name="dcaron" unicode="&#x10f;" horiz-adv-x="1204" 
d="M930 866l137 711h88l-307 -1577h-66l13 137c-78 -107 -191 -160 -340 -160c-124 0 -221 39 -290 116s-92 178 -69 302l49 252c52 257 214 404 451 404c78 0 147 -16 207 -49s102 -79 127 -136zM1212 1235l144 342h86l-144 -342h-86zM473 59c191 0 324 113 365 324l53 283
c13 93 -8 166 -65 221s-132 82 -226 82c-203 0 -327 -115 -371 -344l-45 -226c-21 -105 -4 -188 51 -249s134 -91 238 -91z" />
    <glyph glyph-name="Dcroat" unicode="&#x110;" horiz-adv-x="1282" 
d="M350 1438h475c331 0 475 -167 418 -451l-106 -547c-56 -293 -250 -440 -582 -440h-483l131 680h-180l14 76h180zM1051 463l100 512c52 257 -47 377 -334 377h-393l-117 -596h420l-14 -76h-420l-115 -594h389c273 0 435 126 484 377z" />
    <glyph glyph-name="dslash" unicode="&#x111;" horiz-adv-x="1107" 
d="M1102 1307h160l-15 -76h-160l-239 -1231h-66l13 137c-78 -107 -191 -160 -340 -160c-124 0 -221 39 -290 116s-92 178 -69 302l49 252c52 257 214 404 451 404c78 0 147 -16 207 -49s102 -79 127 -136l71 365h-288l16 76h287l51 270h88zM473 59c191 0 324 113 365 324
l53 283c13 93 -8 166 -65 221s-132 82 -226 82c-203 0 -327 -115 -371 -344l-45 -226c-21 -105 -4 -188 51 -249s134 -91 238 -91z" />
    <glyph glyph-name="Emacron" unicode="&#x112;" horiz-adv-x="1146" 
d="M502 1755h645l-14 -78h-648zM1194 1438l-16 -86h-754l-115 -594h656l-17 -86h-655l-115 -586h754l-17 -86h-843l278 1438h844z" />
    <glyph glyph-name="emacron" unicode="&#x113;" horiz-adv-x="1067" 
d="M352 1268l17 78h645l-15 -78h-647zM608 1051c127 0 225 -38 294 -115s92 -176 69 -297l-29 -152h-735l-19 -88c-21 -104 -4 -186 50 -246s133 -90 237 -90c193 0 309 96 348 289h90c-23 -120 -74 -212 -151 -277c-78 -65 -174 -98 -289 -98c-133 0 -234 39 -305 117
s-95 178 -72 301l51 252c26 129 80 228 161 299c81 70 181 105 300 105zM233 625l-10 -52h645l11 56c21 104 5 186 -46 246s-128 90 -229 90c-193 0 -327 -119 -371 -340z" />
    <glyph glyph-name="Edotaccent" unicode="&#x116;" horiz-adv-x="1146" 
d="M782 1786h105l-29 -150h-104zM1194 1438l-16 -86h-754l-115 -594h656l-17 -86h-655l-115 -586h754l-17 -86h-843l278 1438h844z" />
    <glyph glyph-name="edotaccent" unicode="&#x117;" horiz-adv-x="1067" 
d="M649 1376h105l-29 -149h-104zM608 1051c127 0 225 -38 294 -115s92 -176 69 -297l-29 -152h-735l-19 -88c-21 -104 -4 -186 50 -246s133 -90 237 -90c193 0 309 96 348 289h90c-23 -120 -74 -212 -151 -277c-78 -65 -174 -98 -289 -98c-133 0 -234 39 -305 117
s-95 178 -72 301l51 252c26 129 80 228 161 299c81 70 181 105 300 105zM233 625l-10 -52h645l11 56c21 104 5 186 -46 246s-128 90 -229 90c-193 0 -327 -119 -371 -340z" />
    <glyph glyph-name="Eogonek" unicode="&#x118;" horiz-adv-x="1146" 
d="M1194 1438l-16 -86h-754l-115 -594h656l-17 -86h-655l-115 -586h754l-17 -86c-155 -89 -233 -173 -233 -254c0 -48 32 -72 96 -72c26 0 52 3 78 9l-10 -68c-31 -8 -61 -12 -90 -12c-108 0 -162 41 -162 123c0 97 74 188 221 274h-743l278 1438h844z" />
    <glyph glyph-name="eogonek" unicode="&#x119;" horiz-adv-x="1075" 
d="M608 1051c127 0 225 -38 294 -115s92 -176 69 -297l-29 -152h-735l-19 -88c-21 -105 -4 -188 50 -247s133 -89 237 -89c193 0 309 96 348 289h90c-22 -103 -70 -195 -145 -278c-105 -117 -158 -218 -158 -303c0 -64 34 -96 101 -97c21 0 46 4 77 11l-10 -72
c-26 -7 -56 -10 -90 -10c-113 0 -170 44 -170 131c0 81 38 171 115 270c-48 -18 -101 -27 -160 -27c-133 0 -234 39 -305 117s-95 178 -72 301l51 252c26 129 80 228 161 299c81 70 181 105 300 105zM233 625l-10 -52h645l11 56c21 105 5 188 -46 247s-128 89 -229 89
c-193 0 -327 -119 -371 -340z" />
    <glyph glyph-name="Ecaron" unicode="&#x11a;" horiz-adv-x="1146" 
d="M1122 1825l-282 -254h-97l-184 254h96l142 -199l221 199h104zM1194 1438l-16 -86h-754l-115 -594h656l-17 -86h-655l-115 -586h754l-17 -86h-843l278 1438h844z" />
    <glyph glyph-name="ecaron" unicode="&#x11b;" horiz-adv-x="1067" 
d="M983 1466l-281 -305h-81l-162 305h86l123 -243l217 243h98zM608 1051c127 0 225 -38 294 -115s92 -176 69 -297l-29 -152h-735l-19 -88c-21 -104 -4 -186 50 -246s133 -90 237 -90c193 0 309 96 348 289h90c-23 -120 -74 -212 -151 -277c-78 -65 -174 -98 -289 -98
c-133 0 -234 39 -305 117s-95 178 -72 301l51 252c26 129 80 228 161 299c81 70 181 105 300 105zM233 625l-10 -52h645l11 56c21 104 5 186 -46 246s-128 90 -229 90c-193 0 -327 -119 -371 -340z" />
    <glyph glyph-name="Gbreve" unicode="&#x11e;" horiz-adv-x="1290" 
d="M840 1556c-77 0 -138 22 -183 67c-46 45 -64 102 -55 173h66c-8 -52 5 -94 39 -127s81 -49 141 -49c59 0 110 16 155 49c44 33 69 75 76 127h66c-9 -71 -43 -128 -101 -173s-126 -67 -204 -67zM793 1460c163 0 285 -45 368 -135c82 -90 108 -198 78 -324l-10 -53h-90
l10 56c25 108 5 197 -59 266c-65 69 -166 104 -304 104c-143 0 -252 -34 -326 -102c-75 -69 -124 -166 -149 -293l-106 -539c-22 -115 0 -206 66 -274c65 -69 170 -103 315 -103c143 0 252 34 326 101c73 67 122 163 147 289l39 198h-459l14 84h549l-57 -309
c-27 -139 -87 -249 -179 -329c-93 -80 -221 -120 -386 -120c-169 0 -296 44 -379 132c-83 87 -112 198 -86 331l110 566c29 141 90 252 183 333s221 121 385 121z" />
    <glyph glyph-name="gbreve" unicode="&#x11f;" horiz-adv-x="1105" 
d="M670 1147c-77 0 -138 22 -183 67c-46 44 -64 101 -55 172h66c-8 -52 5 -94 39 -127s81 -49 141 -49c59 0 110 17 155 50c44 33 69 75 76 126h66c-9 -71 -43 -128 -101 -172c-58 -45 -126 -67 -204 -67zM930 864l49 164h70l-222 -1137c-23 -120 -74 -214 -152 -283
c-79 -68 -175 -102 -288 -102c-104 0 -188 25 -252 75s-93 115 -88 196h84c-1 -56 23 -102 73 -137s113 -52 189 -52c90 0 167 30 231 89c63 60 105 142 124 245l38 203c-78 -98 -188 -147 -331 -148c-124 0 -221 39 -290 116s-92 178 -69 302l49 252
c52 257 214 404 451 404c78 0 147 -17 207 -50c60 -34 102 -80 127 -137zM473 59c177 0 305 98 356 283l66 342c8 87 -16 157 -73 208s-131 77 -222 77c-203 0 -327 -115 -371 -344l-45 -226c-21 -105 -4 -188 51 -249s134 -91 238 -91z" />
    <glyph glyph-name="Gdotaccent" unicode="&#x120;" horiz-adv-x="1290" 
d="M834 1786h104l-29 -150h-104zM793 1460c163 0 285 -45 368 -135c82 -90 108 -198 78 -324l-10 -53h-90l10 56c25 108 5 197 -59 266c-65 69 -166 104 -304 104c-143 0 -252 -34 -326 -102c-75 -69 -124 -166 -149 -293l-106 -539c-22 -115 0 -206 66 -274
c65 -69 170 -103 315 -103c143 0 252 34 326 101c73 67 122 163 147 289l39 198h-459l14 84h549l-57 -309c-27 -139 -87 -249 -179 -329c-93 -80 -221 -120 -386 -120c-169 0 -296 44 -379 132c-83 87 -112 198 -86 331l110 566c29 141 90 252 183 333s221 121 385 121z" />
    <glyph glyph-name="gdotaccent" unicode="&#x121;" horiz-adv-x="1105" 
d="M664 1376h104l-29 -149h-104zM930 864l49 164h70l-222 -1137c-23 -120 -74 -214 -152 -283c-79 -68 -175 -102 -288 -102c-104 0 -188 25 -252 75s-93 115 -88 196h84c-1 -56 23 -102 73 -137s113 -52 189 -52c90 0 167 30 231 89c63 60 105 142 124 245l38 203
c-78 -98 -188 -147 -331 -148c-124 0 -221 39 -290 116s-92 178 -69 302l49 252c52 257 214 404 451 404c78 0 147 -17 207 -50c60 -34 102 -80 127 -137zM473 59c177 0 305 98 356 283l66 342c8 87 -16 157 -73 208s-131 77 -222 77c-203 0 -327 -115 -371 -344l-45 -226
c-21 -105 -4 -188 51 -249s134 -91 238 -91z" />
    <glyph glyph-name="uni0122" unicode="&#x122;" horiz-adv-x="1290" 
d="M793 1460c163 0 285 -45 368 -135c82 -90 108 -198 78 -324l-10 -53h-90l10 56c25 108 5 197 -59 266c-65 69 -166 104 -304 104c-143 0 -252 -34 -326 -102c-75 -69 -124 -166 -149 -293l-106 -539c-22 -115 0 -206 66 -274c65 -69 170 -103 315 -103
c143 0 252 34 326 101c73 67 122 163 147 289l39 198h-459l14 84h549l-57 -309c-27 -139 -87 -249 -179 -329c-93 -80 -221 -120 -386 -120c-169 0 -296 44 -379 132c-83 87 -112 198 -86 331l110 566c29 141 90 252 183 333s221 121 385 121zM485 -260h-45l23 113h110
l-20 -111l-98 -172h-45z" />
    <glyph glyph-name="uni0123" unicode="&#x123;" horiz-adv-x="1105" 
d="M717 1288h45l-23 -112h-110l20 110l99 172h45zM930 864l49 164h70l-222 -1137c-23 -120 -74 -214 -152 -283c-79 -68 -175 -102 -288 -102c-104 0 -188 25 -252 75s-93 115 -88 196h84c-1 -56 23 -102 73 -137s113 -52 189 -52c90 0 167 30 231 89c63 60 105 142 124 245
l38 203c-78 -98 -188 -147 -331 -148c-124 0 -221 39 -290 116s-92 178 -69 302l49 252c52 257 214 404 451 404c78 0 147 -17 207 -50c60 -34 102 -80 127 -137zM473 59c177 0 305 98 356 283l66 342c8 87 -16 157 -73 208s-131 77 -222 77c-203 0 -327 -115 -371 -344
l-45 -226c-21 -105 -4 -188 51 -249s134 -91 238 -91z" />
    <glyph glyph-name="Hbar" unicode="&#x126;" horiz-adv-x="1310" 
d="M1255 1116h181l-15 -76h-180l-203 -1040h-90l131 672h-786l-131 -672h-90l200 1040h-176l15 76h178l61 322h90l-61 -322h786l64 322h90zM309 758h787l55 282h-789z" />
    <glyph glyph-name="hbar" unicode="&#x127;" horiz-adv-x="1134" 
d="M664 1051c120 0 213 -41 280 -123s87 -193 60 -332l-117 -596h-86l114 594c23 117 9 209 -44 276c-53 66 -128 99 -224 99c-83 0 -160 -27 -229 -82c-70 -55 -119 -132 -146 -232l-127 -655h-86l238 1231h-164l17 76h161l54 270h86l-54 -270h285l-14 -76h-285l-68 -348
c89 112 206 168 349 168z" />
    <glyph glyph-name="Imacron" unicode="&#x12a;" horiz-adv-x="434" 
d="M129 1755h645l-14 -78h-647zM162 0h-90l278 1438h90z" />
    <glyph glyph-name="imacron" unicode="&#x12b;" horiz-adv-x="413" 
d="M41 1346h645l-14 -78h-647zM150 0h-87l201 1028h86z" />
    <glyph glyph-name="Iogonek" unicode="&#x12e;" horiz-adv-x="434" 
d="M440 1438l-278 -1438c-155 -89 -233 -173 -234 -254c0 -48 32 -72 97 -72c26 0 52 3 77 9l-10 -68c-31 -8 -61 -12 -90 -12c-108 0 -162 41 -162 123c0 98 78 191 234 280l276 1432h90z" />
    <glyph glyph-name="iogonek" unicode="&#x12f;" horiz-adv-x="413" 
d="M293 1227l29 149h104l-29 -149h-104zM66 8l198 1020h86l-200 -1028c-155 -89 -233 -173 -234 -254c0 -48 32 -72 96 -72c26 0 52 3 78 9l-10 -68c-31 -8 -61 -12 -90 -12c-108 0 -162 41 -162 123c0 102 79 196 238 282z" />
    <glyph glyph-name="Idot" unicode="&#x130;" horiz-adv-x="434" 
d="M485 1636h-104l29 150h104zM162 0h-90l278 1438h90z" />
    <glyph glyph-name="dotlessi" unicode="&#x131;" horiz-adv-x="413" 
d="M150 0h-87l201 1028h86z" />
    <glyph glyph-name="IJ" unicode="&#x132;" horiz-adv-x="1148" 
d="M162 0h-90l278 1438h90zM453 0h-84l16 86h76c105 0 194 30 267 89c72 59 119 142 140 249l197 1014h90l-201 -1037c-25 -124 -82 -222 -172 -293c-90 -72 -200 -108 -329 -108z" />
    <glyph glyph-name="ij" unicode="&#x133;" horiz-adv-x="901" 
d="M397 1227h-104l29 149h104zM877 1227h-105l29 149h104zM150 0h-87l201 1028h86zM223 -471h-57l14 82h39c164 0 266 102 307 307l217 1110h86l-223 -1147c-47 -235 -174 -352 -383 -352z" />
    <glyph glyph-name="uni0136" unicode="&#x136;" horiz-adv-x="1120" 
d="M1081 1438h119l-805 -705l557 -733h-102l-551 709l-137 -709h-90l278 1438h90l-127 -658zM391 -260h-45l23 113h110l-20 -111l-99 -172h-45z" />
    <glyph glyph-name="uni0137" unicode="&#x137;" horiz-adv-x="974" 
d="M907 1028h121l-688 -457l477 -571h-102l-459 545l-106 -545h-87l306 1577h88l-189 -967zM311 -260h-45l23 113h110l-20 -111l-98 -172h-45z" />
    <glyph glyph-name="Lacute" unicode="&#x139;" horiz-adv-x="1093" 
d="M657 1837h119l-303 -266h-104zM440 1438l-262 -1352h756l-16 -86h-846l278 1438h90z" />
    <glyph glyph-name="lacute" unicode="&#x13a;" horiz-adv-x="413" 
d="M676 1976h119l-303 -266h-105zM63 0l306 1577h88l-307 -1577h-87z" />
    <glyph glyph-name="uni013B" unicode="&#x13b;" horiz-adv-x="1093" 
d="M440 1438l-262 -1352h756l-16 -86h-846l278 1438h90zM459 -260h-45l22 113h111l-21 -111l-98 -172h-45z" />
    <glyph glyph-name="uni013C" unicode="&#x13c;" horiz-adv-x="413" 
d="M63 0l306 1577h88l-307 -1577h-87zM41 -260h-45l22 113h111l-20 -111l-99 -172h-45z" />
    <glyph glyph-name="Lcaron" unicode="&#x13d;" horiz-adv-x="1093" 
d="M926 1102l143 342h86l-143 -342h-86zM350 1438h90l-262 -1352h756l-16 -86h-846z" />
    <glyph glyph-name="lcaron" unicode="&#x13e;" horiz-adv-x="509" 
d="M63 0l306 1577h88l-307 -1577h-87zM659 1577h86l-143 -342h-86z" />
    <glyph glyph-name="Ldot" unicode="&#x13f;" horiz-adv-x="1110" 
d="M440 1438l-262 -1352h756l-16 -86h-846l278 1438h90zM791 813h81l-45 -225h-79z" />
    <glyph glyph-name="ldot" unicode="&#x140;" horiz-adv-x="475" 
d="M63 0l306 1577h88l-307 -1577h-87zM524 676h-88l43 225h88z" />
    <glyph glyph-name="Lslash" unicode="&#x141;" horiz-adv-x="1093" 
d="M281 616l-103 -530h756l-16 -86h-846l112 575l-243 -96l14 92l246 99l149 768h90l-141 -729l561 223l-14 -90z" />
    <glyph glyph-name="lslash" unicode="&#x142;" horiz-adv-x="413" 
d="M319 877l205 114l-16 -96l-207 -115l-151 -780h-87l142 725l-205 -113l18 97l205 114l146 754h88z" />
    <glyph glyph-name="Nacute" unicode="&#x143;" horiz-adv-x="1267" 
d="M1073 1837h119l-303 -266h-105zM942 156l248 1282h86l-281 -1438h-84l-505 1278l-250 -1278h-84l278 1438h86z" />
    <glyph glyph-name="nacute" unicode="&#x144;" horiz-adv-x="1134" 
d="M913 1477h103l-275 -316h-92zM664 1051c120 0 213 -41 280 -122s87 -192 60 -333l-117 -596h-86l114 594c23 117 9 209 -44 276c-53 66 -128 99 -224 99c-82 0 -157 -26 -226 -79s-119 -127 -149 -224l-127 -666h-86l199 1028h66l-19 -160c87 122 206 183 359 183z" />
    <glyph glyph-name="uni0145" unicode="&#x145;" horiz-adv-x="1267" 
d="M942 156l248 1282h86l-281 -1438h-84l-505 1278l-250 -1278h-84l278 1438h86zM467 -260h-45l22 113h111l-20 -111l-99 -172h-45z" />
    <glyph glyph-name="uni0146" unicode="&#x146;" horiz-adv-x="1134" 
d="M664 1051c120 0 213 -41 280 -122s87 -192 60 -333l-117 -596h-86l114 594c23 117 9 209 -44 276c-53 66 -128 99 -224 99c-82 0 -157 -26 -226 -79s-119 -127 -149 -224l-127 -666h-86l199 1028h66l-19 -160c87 122 206 183 359 183zM399 -260h-45l23 113h110l-20 -111
l-98 -172h-45z" />
    <glyph glyph-name="Ncaron" unicode="&#x147;" horiz-adv-x="1267" 
d="M1165 1825l-282 -254h-97l-184 254h96l142 -199l221 199h104zM942 156l248 1282h86l-281 -1438h-84l-505 1278l-250 -1278h-84l278 1438h86z" />
    <glyph glyph-name="ncaron" unicode="&#x148;" horiz-adv-x="1134" 
d="M1016 1466l-281 -305h-82l-161 305h86l122 -243l218 243h98zM664 1051c120 0 213 -41 280 -122s87 -192 60 -333l-117 -596h-86l114 594c23 117 9 209 -44 276c-53 66 -128 99 -224 99c-82 0 -157 -26 -226 -79s-119 -127 -149 -224l-127 -666h-86l199 1028h66l-19 -160
c87 122 206 183 359 183z" />
    <glyph glyph-name="Eng" unicode="&#x14a;" horiz-adv-x="1267" 
d="M942 174l248 1264h86l-281 -1438c-23 -123 -80 -221 -171 -294s-200 -109 -328 -109h-82l16 86h74c213 0 356 114 403 317l-504 1262l-245 -1262h-86l278 1438h86z" />
    <glyph glyph-name="eng" unicode="&#x14b;" horiz-adv-x="1134" 
d="M664 1051c120 0 213 -41 280 -123s87 -193 60 -332l-142 -715c-44 -232 -181 -352 -381 -352h-59l16 82h39c164 0 266 102 305 307l133 676c23 117 9 209 -44 276c-53 66 -128 99 -224 99c-82 0 -157 -26 -226 -79s-119 -127 -149 -224l-127 -666h-86l199 1028h66
l-19 -160c87 122 206 183 359 183z" />
    <glyph glyph-name="Omacron" unicode="&#x14c;" horiz-adv-x="1294" 
d="M532 1755h646l-15 -78h-647zM580 -23c-169 0 -296 44 -379 133c-83 88 -112 198 -86 330l110 564c29 142 90 254 183 335s221 121 385 121c169 0 296 -45 379 -135s110 -203 83 -338l-110 -565c-57 -297 -246 -445 -565 -445zM586 63c143 0 252 33 326 100
c73 66 122 160 147 283l104 537c25 120 5 215 -60 286c-65 70 -170 105 -317 105c-143 0 -252 -34 -326 -102c-75 -69 -124 -166 -149 -293l-106 -539c-22 -115 0 -206 66 -274c65 -69 170 -103 315 -103z" />
    <glyph glyph-name="omacron" unicode="&#x14d;" horiz-adv-x="1081" 
d="M375 1346h645l-14 -78h-648zM475 -23c-135 0 -238 39 -309 116s-95 177 -70 300l51 256c52 260 212 402 463 402c135 0 238 -38 307 -115s91 -177 66 -301l-49 -254c-52 -260 -211 -404 -459 -404zM477 59c205 0 330 115 375 344l45 230c21 105 5 188 -47 247
s-133 89 -242 89c-209 0 -335 -114 -379 -342l-45 -230c-21 -105 -4 -188 49 -248s135 -90 244 -90z" />
    <glyph glyph-name="Ohungarumlaut" unicode="&#x150;" horiz-adv-x="1294" 
d="M831 1792h95l-221 -221h-91zM1176 1792h94l-221 -221h-91zM580 -23c-169 0 -296 44 -379 133c-83 88 -112 198 -86 330l110 564c29 142 90 254 183 335s221 121 385 121c169 0 296 -45 379 -135s110 -203 83 -338l-110 -565c-57 -297 -246 -445 -565 -445zM586 63
c143 0 252 33 326 100c73 66 122 160 147 283l104 537c25 120 5 215 -60 286c-65 70 -170 105 -317 105c-143 0 -252 -34 -326 -102c-75 -69 -124 -166 -149 -293l-106 -539c-22 -115 0 -206 66 -274c65 -69 170 -103 315 -103z" />
    <glyph glyph-name="ohungarumlaut" unicode="&#x151;" horiz-adv-x="1081" 
d="M651 1417h88l-196 -256h-86zM993 1417h90l-198 -256h-84zM475 -23c-135 0 -238 39 -309 116s-95 177 -70 300l51 256c52 260 212 402 463 402c135 0 238 -38 307 -115s91 -177 66 -301l-49 -254c-52 -260 -211 -404 -459 -404zM477 59c205 0 330 115 375 344l45 230
c21 105 5 188 -47 247s-133 89 -242 89c-209 0 -335 -114 -379 -342l-45 -230c-21 -105 -4 -188 49 -248s135 -90 244 -90z" />
    <glyph glyph-name="OE" unicode="&#x152;" horiz-adv-x="2048" 
d="M1325 1352l-63 -326l-7 -39l-45 -229h656l-17 -86h-655l-49 -250l-4 -16l-62 -320h754l-16 -86h-844l24 123c-100 -97 -239 -145 -417 -146c-169 0 -296 44 -379 133c-83 88 -112 198 -86 330l110 564c29 142 90 254 183 335s221 121 385 121c209 0 351 -65 426 -196
l32 174h844l-16 -86h-754zM1059 446l100 519l6 26c21 119 -1 212 -66 281c-65 68 -170 102 -313 102s-252 -34 -326 -102c-75 -69 -124 -166 -149 -293l-106 -539c-22 -115 0 -206 66 -274c65 -69 170 -103 315 -103c143 0 252 33 326 100c73 66 122 160 147 283z" />
    <glyph glyph-name="oe" unicode="&#x153;" horiz-adv-x="1816" 
d="M1360 1051c127 0 225 -38 294 -115s91 -176 68 -297l-28 -152h-736l-18 -88c-21 -104 -4 -186 50 -246s133 -90 237 -90c193 0 309 96 348 289h90c-23 -120 -74 -212 -151 -277c-78 -65 -174 -98 -289 -98c-177 0 -311 78 -363 209c-81 -139 -210 -209 -387 -209
c-135 0 -238 39 -309 116s-95 177 -70 300l51 256c52 260 212 402 463 402c183 0 316 -78 363 -209c83 139 212 209 387 209zM477 59c193 0 315 101 367 303c0 8 1 19 4 33l51 252c0 3 2 7 2 10c27 196 -82 312 -293 312c-209 0 -335 -114 -379 -342l-45 -230
c-21 -105 -4 -188 49 -248s135 -90 244 -90zM985 625l-10 -52h645l10 56c21 104 5 186 -46 246s-127 90 -228 90c-193 0 -327 -119 -371 -340z" />
    <glyph glyph-name="Racute" unicode="&#x154;" horiz-adv-x="1251" 
d="M1030 1837h119l-303 -266h-105zM350 1438h512c308 0 445 -117 402 -338l-21 -105c-39 -193 -153 -298 -369 -327l175 -668h-91l-174 659c-15 -1 -38 -2 -69 -2h-426l-127 -657h-90zM1157 1018l12 72c39 185 -54 262 -319 262h-426l-119 -609h420c134 0 235 21 302 64
c67 42 111 112 130 211z" />
    <glyph glyph-name="racute" unicode="&#x155;" horiz-adv-x="696" 
d="M686 1477h102l-274 -316h-92zM324 1028l-17 -139c41 49 94 87 160 114c65 26 133 39 203 39c18 0 42 -1 71 -4l-16 -84c-25 4 -46 6 -63 7c-86 0 -165 -22 -237 -65s-119 -106 -142 -187l-138 -709h-86l199 1028h66z" />
    <glyph glyph-name="uni0156" unicode="&#x156;" horiz-adv-x="1251" 
d="M350 1438h512c308 0 445 -117 402 -338l-21 -105c-39 -193 -153 -298 -369 -327l175 -668h-91l-174 659c-15 -1 -38 -2 -69 -2h-426l-127 -657h-90zM1157 1018l12 72c39 185 -54 262 -319 262h-426l-119 -609h420c134 0 235 21 302 64c67 42 111 112 130 211zM455 -260
h-45l22 113h111l-21 -111l-98 -172h-45z" />
    <glyph glyph-name="uni0157" unicode="&#x157;" horiz-adv-x="696" 
d="M670 1042c18 0 42 -1 71 -4l-16 -84c-25 4 -46 6 -63 7c-86 0 -165 -22 -237 -65s-119 -106 -142 -187l-138 -709h-86l199 1028h66l-17 -139c41 49 94 87 160 114c66 26 134 39 203 39zM264 -260h-45l23 113h110l-20 -111l-99 -172h-45z" />
    <glyph glyph-name="Rcaron" unicode="&#x158;" horiz-adv-x="1251" 
d="M1122 1825l-282 -254h-97l-184 254h96l142 -199l221 199h104zM350 1438h512c308 0 445 -117 402 -338l-21 -105c-39 -193 -153 -298 -369 -327l175 -668h-91l-174 659c-15 -1 -38 -2 -69 -2h-426l-127 -657h-90zM1157 1018l12 72c39 185 -54 262 -319 262h-426l-119 -609
h420c134 0 235 21 302 64c67 42 111 112 130 211z" />
    <glyph glyph-name="rcaron" unicode="&#x159;" horiz-adv-x="696" 
d="M788 1466l-280 -305h-82l-162 305h86l123 -243l217 243h98zM324 1028l-17 -139c41 49 94 87 160 114c65 26 133 39 203 39c18 0 42 -1 71 -4l-16 -84c-25 4 -46 6 -63 7c-86 0 -165 -22 -237 -65s-119 -106 -142 -187l-138 -709h-86l199 1028h66z" />
    <glyph glyph-name="Sacute" unicode="&#x15a;" horiz-adv-x="1232" 
d="M1024 1837h119l-303 -266h-105zM545 -23c-172 0 -298 40 -378 121s-108 178 -83 293l10 51h90l-10 -51c-22 -93 1 -171 68 -234c67 -64 170 -96 311 -96c123 0 224 30 303 89s119 138 119 239c0 69 -25 128 -74 175s-109 85 -178 112c-70 27 -140 55 -210 83
s-130 68 -179 121c-49 52 -74 117 -74 195c0 124 47 219 142 286c94 66 213 99 358 99c167 0 289 -40 366 -120c77 -81 102 -175 76 -283l-12 -60h-90l14 60c21 87 1 162 -59 225s-160 94 -299 94c-116 0 -213 -25 -291 -76s-117 -124 -117 -219c0 -65 25 -120 74 -164
c49 -45 109 -80 180 -106c70 -26 140 -54 211 -83c70 -29 130 -71 179 -125s73 -121 73 -202c0 -134 -49 -238 -146 -312c-98 -75 -223 -112 -374 -112z" />
    <glyph glyph-name="sacute" unicode="&#x15b;" horiz-adv-x="989" 
d="M834 1477h102l-274 -316h-93zM446 -20c-134 0 -237 32 -309 96s-96 151 -71 260h84c-21 -87 -2 -156 56 -205s142 -74 251 -74c89 0 160 21 215 64c55 42 82 97 82 164c0 56 -20 100 -60 132c-41 32 -90 55 -147 69c-57 13 -115 28 -172 43s-106 40 -146 76
c-41 36 -61 85 -61 147c0 91 36 164 109 218c72 54 165 81 280 81c131 0 230 -31 297 -94s89 -150 66 -261h-86c21 91 5 160 -48 207s-130 70 -233 70c-89 0 -161 -19 -216 -57c-55 -39 -83 -90 -83 -154c0 -49 20 -88 61 -116c40 -28 89 -49 146 -62
c57 -14 115 -29 172 -44c57 -16 106 -44 147 -84c40 -41 60 -94 60 -161c0 -93 -36 -168 -108 -227s-167 -88 -286 -88z" />
    <glyph glyph-name="Scedilla" unicode="&#x15e;" horiz-adv-x="1232" 
d="M760 1460c167 0 289 -40 366 -120c77 -81 102 -175 76 -283l-12 -60h-90l14 60c21 87 1 162 -59 225s-160 94 -299 94c-116 0 -213 -25 -291 -76s-117 -124 -117 -219c0 -65 25 -120 74 -164c49 -45 109 -80 180 -106c70 -26 140 -54 211 -83c70 -29 130 -71 179 -125
s73 -121 73 -202c0 -129 -45 -230 -136 -303s-208 -114 -351 -121l-123 -284h-95l136 287c-154 8 -267 52 -339 131s-96 172 -73 280l10 51h90l-10 -51c-22 -93 1 -171 68 -234c67 -64 170 -96 311 -96c123 0 224 30 303 89s119 138 119 239c0 69 -25 128 -74 175
s-109 85 -178 112c-70 27 -140 55 -210 83s-130 68 -179 121c-49 52 -74 117 -74 195c0 124 47 219 142 286c94 66 213 99 358 99z" />
    <glyph glyph-name="scedilla" unicode="&#x15f;" horiz-adv-x="989" 
d="M920 696h-86c21 91 5 160 -48 207s-130 70 -233 70c-89 0 -161 -19 -216 -57c-55 -39 -83 -90 -83 -154c0 -49 20 -88 61 -116c40 -28 89 -49 146 -62c57 -14 115 -29 172 -44c57 -16 106 -44 147 -84c40 -41 60 -94 60 -161c0 -93 -36 -168 -107 -227
c-72 -59 -168 -88 -287 -88h-14l-125 -287h-94l139 293c-107 15 -186 54 -239 115s-69 140 -47 235h84c-21 -87 -2 -156 56 -205s142 -74 251 -74c89 0 160 21 215 64c55 42 82 97 82 164c0 56 -20 100 -60 132c-41 32 -90 55 -147 69c-57 13 -115 28 -172 43
s-106 40 -146 76c-41 36 -61 85 -61 147c0 91 36 164 109 218c72 54 165 81 280 81c131 0 231 -31 298 -94s88 -150 65 -261z" />
    <glyph glyph-name="Scaron" unicode="&#x160;" horiz-adv-x="1232" 
d="M1116 1825l-282 -254h-97l-184 254h96l142 -199l221 199h104zM760 1460c167 0 289 -40 366 -120c77 -81 102 -175 76 -283l-12 -60h-90l14 60c21 87 1 162 -59 225s-160 94 -299 94c-116 0 -213 -25 -291 -76s-117 -124 -117 -219c0 -65 25 -120 74 -164
c49 -45 109 -80 180 -106c70 -26 140 -54 211 -83c70 -29 130 -71 179 -125s73 -121 73 -202c0 -134 -49 -238 -146 -312c-98 -75 -223 -112 -374 -112c-172 0 -298 40 -378 121s-108 178 -83 293l10 51h90l-10 -51c-22 -93 1 -171 68 -234c67 -64 170 -96 311 -96
c123 0 224 30 303 89s119 138 119 239c0 69 -25 128 -74 175s-109 85 -178 112c-70 27 -140 55 -210 83s-130 68 -179 121c-49 52 -74 117 -74 195c0 124 47 219 142 286c94 66 213 99 358 99z" />
    <glyph glyph-name="scaron" unicode="&#x161;" horiz-adv-x="989" 
d="M936 1466l-281 -305h-82l-161 305h86l123 -243l217 243h98zM557 1051c131 0 230 -31 297 -94s89 -150 66 -261h-86c21 91 5 160 -48 207s-130 70 -233 70c-89 0 -161 -19 -216 -57c-55 -39 -83 -90 -83 -154c0 -49 20 -88 61 -116c40 -28 89 -49 146 -62
c57 -14 115 -29 172 -44c57 -16 106 -44 147 -84c40 -41 60 -94 60 -161c0 -93 -36 -168 -107 -227c-72 -59 -168 -88 -287 -88c-134 0 -237 32 -309 96s-96 151 -71 260h84c-21 -87 -2 -156 56 -205s142 -74 251 -74c89 0 160 21 215 64c55 42 82 97 82 164
c0 56 -20 100 -60 132c-41 32 -90 55 -147 69c-57 13 -115 28 -172 43s-106 40 -146 76c-41 36 -61 85 -61 147c0 91 36 164 109 218c72 54 165 81 280 81z" />
    <glyph glyph-name="uni0162" unicode="&#x162;" horiz-adv-x="1138" 
d="M207 1438h1085l-16 -86h-498l-264 -1352h-6l-131 -307h-94l145 307h-4l264 1352h-498z" />
    <glyph glyph-name="uni0163" unicode="&#x163;" horiz-adv-x="647" 
d="M655 946h-297l-112 -573c-41 -211 21 -291 196 -291h82l-14 -82h-92c-19 0 -43 1 -70 4l-135 -311h-94l155 330c-113 42 -152 152 -116 331l114 592h-135l15 82h137l59 309h86l-59 -309h295z" />
    <glyph glyph-name="Tcaron" unicode="&#x164;" horiz-adv-x="1138" 
d="M1104 1825l-283 -254h-96l-184 254h96l141 -199l221 199h105zM207 1438h1085l-16 -86h-498l-264 -1352h-90l264 1352h-498z" />
    <glyph glyph-name="tcaron" unicode="&#x165;" horiz-adv-x="661" 
d="M598 1202l143 342h86l-143 -342h-86zM348 1337h86l-59 -309h295l-15 -82h-297l-112 -573c-41 -211 21 -291 196 -291h82l-14 -82h-92c-219 0 -309 109 -260 354l114 592h-135l15 82h137z" />
    <glyph glyph-name="Tbar" unicode="&#x166;" horiz-adv-x="1138" 
d="M1292 1438l-16 -86h-498l-116 -596h301l-15 -76h-301l-133 -680h-90l133 680h-299l14 76h299l117 596h-498l17 86h1085z" />
    <glyph glyph-name="tbar" unicode="&#x167;" horiz-adv-x="647" 
d="M670 1028l-15 -82h-297l-61 -307h311l-14 -76h-311l-37 -190c-41 -211 21 -291 196 -291h82l-14 -82h-92c-219 0 -309 109 -260 354l41 209h-140l17 76h137l59 307h-135l15 82h137l59 309h86l-59 -309h295z" />
    <glyph glyph-name="Umacron" unicode="&#x16a;" horiz-adv-x="1259" 
d="M545 1755h645l-14 -78h-648zM563 -23c-163 0 -284 44 -365 133c-81 88 -109 198 -83 330l196 998h88l-194 -998c-22 -115 -1 -206 62 -274c63 -69 164 -103 302 -103c137 0 241 33 312 100c71 66 119 160 145 283l193 992h90l-199 -1016c-59 -297 -241 -445 -547 -445z
" />
    <glyph glyph-name="umacron" unicode="&#x16b;" horiz-adv-x="1103" 
d="M367 1346h645l-15 -78h-647zM831 362l127 666h86l-198 -1028h-66l19 158c-85 -120 -199 -180 -344 -181c-115 0 -204 41 -267 122c-64 81 -83 192 -57 331l117 598h86l-115 -594c-22 -116 -8 -207 42 -274s120 -101 210 -101c78 0 150 26 216 79s114 127 144 224z" />
    <glyph glyph-name="Uring" unicode="&#x16e;" horiz-adv-x="1259" 
d="M998 1614c-40 -39 -91 -58 -152 -58s-112 19 -151 58c-40 38 -60 86 -60 145s20 107 60 145c39 37 90 56 151 56s112 -19 152 -56c39 -38 59 -86 59 -145s-20 -107 -59 -145zM846 1622c91 0 147 53 147 138c0 84 -58 136 -147 136c-88 0 -146 -52 -146 -136
c0 -85 58 -138 146 -138zM563 -23c-163 0 -284 44 -365 133c-81 88 -109 198 -83 330l196 998h88l-194 -998c-22 -115 -1 -206 62 -274c63 -69 164 -103 302 -103c137 0 241 33 312 100c71 66 119 160 145 283l193 992h90l-199 -1016c-59 -297 -241 -445 -547 -445z" />
    <glyph glyph-name="uring" unicode="&#x16f;" horiz-adv-x="1103" 
d="M820 1205c-40 -39 -91 -58 -152 -58c-62 0 -113 19 -152 58c-39 38 -59 86 -59 145s20 107 59 144s90 56 152 56c61 0 112 -19 152 -56c39 -37 59 -85 59 -144s-20 -107 -59 -145zM668 1487c-88 0 -146 -53 -146 -137c0 -85 58 -138 146 -138c91 0 147 53 147 138
c0 84 -56 137 -147 137zM831 362l127 666h86l-198 -1028h-66l19 158c-85 -120 -199 -180 -344 -181c-115 0 -204 41 -267 122c-64 81 -83 192 -57 331l117 598h86l-115 -594c-22 -116 -8 -207 42 -274s120 -101 210 -101c78 0 150 26 216 79s114 127 144 224z" />
    <glyph glyph-name="Uhungarumlaut" unicode="&#x170;" horiz-adv-x="1259" 
d="M844 1792h94l-221 -221h-90zM1188 1792h94l-221 -221h-90zM563 -23c-163 0 -284 44 -365 133c-81 88 -109 198 -83 330l196 998h88l-194 -998c-22 -115 -1 -206 62 -274c63 -69 164 -103 302 -103c137 0 241 33 312 100c71 66 119 160 145 283l193 992h90l-199 -1016
c-59 -297 -241 -445 -547 -445z" />
    <glyph glyph-name="uhungarumlaut" unicode="&#x171;" horiz-adv-x="1103" 
d="M643 1417h88l-196 -256h-86zM985 1417h90l-198 -256h-84zM831 362l127 666h86l-198 -1028h-66l19 158c-85 -120 -199 -180 -344 -181c-115 0 -204 41 -267 122c-64 81 -83 192 -57 331l117 598h86l-115 -594c-22 -116 -8 -207 42 -274s120 -101 210 -101
c78 0 150 26 216 79s114 127 144 224z" />
    <glyph glyph-name="Uogonek" unicode="&#x172;" horiz-adv-x="1259" 
d="M1026 446l193 992h90l-199 -1016c-29 -146 -93 -260 -192 -342c-133 -108 -199 -210 -199 -307c0 -52 33 -78 98 -78c25 0 51 3 78 8l-10 -68c-33 -8 -63 -12 -90 -12c-108 0 -162 43 -162 129c0 81 40 165 119 254c-55 -19 -118 -29 -189 -29c-163 0 -284 44 -365 133
c-81 88 -109 198 -83 330l196 998h88l-194 -998c-22 -115 -1 -206 62 -274c63 -69 164 -103 302 -103c137 0 241 33 312 100c71 66 119 160 145 283z" />
    <glyph glyph-name="uogonek" unicode="&#x173;" horiz-adv-x="1110" 
d="M1044 1028l-198 -1028c-154 -89 -231 -173 -232 -254c0 -48 32 -72 97 -72c25 0 50 3 77 9l-10 -68c-33 -8 -63 -12 -90 -12c-109 0 -164 41 -164 123c0 101 86 197 258 288l17 144c-85 -120 -199 -180 -344 -181c-115 0 -204 41 -267 122c-64 81 -83 192 -57 331
l117 598h86l-115 -594c-22 -116 -8 -207 42 -274s120 -101 210 -101c78 0 150 26 216 79s114 127 144 224l127 666h86z" />
    <glyph glyph-name="Wcircumflex" unicode="&#x174;" horiz-adv-x="1736" 
d="M1249 1561l-141 200l-221 -200h-105l283 256h96l185 -256h-97zM1184 127l585 1311h95l-647 -1438h-103l-96 1255l-594 -1255h-105l-90 1438h88l80 -1315l609 1315h79z" />
    <glyph glyph-name="wcircumflex" unicode="&#x175;" horiz-adv-x="1325" 
d="M961 1165l-119 242l-217 -242h-99l277 301h82l164 -301h-88zM893 109l418 919h88l-473 -1028h-90l-103 866l-440 -866h-90l-76 1028h88l59 -924l449 924h80z" />
    <glyph glyph-name="Ycircumflex" unicode="&#x176;" horiz-adv-x="1112" 
d="M938 1561l-141 200l-222 -200h-104l283 256h96l184 -256h-96zM1137 1438h102l-631 -865l-112 -573h-88l110 580l-289 858h93l258 -758z" />
    <glyph glyph-name="ycircumflex" unicode="&#x177;" horiz-adv-x="1103" 
d="M850 1165l-119 242l-217 -242h-98l276 301h82l164 -301h-88zM827 350l131 678h86l-221 -1137c-22 -120 -72 -214 -150 -283c-79 -68 -175 -102 -288 -102c-104 0 -188 25 -251 75s-92 115 -87 196h84c-1 -56 23 -102 72 -137s111 -52 188 -52c90 0 166 30 229 89
c62 60 103 142 123 245l43 217c-85 -108 -195 -162 -331 -162c-115 0 -204 41 -267 122c-64 81 -83 192 -57 331l117 598h86l-115 -594c-22 -116 -8 -207 42 -274s120 -101 210 -101c77 0 148 25 213 76s113 122 143 215z" />
    <glyph glyph-name="Ydieresis" unicode="&#x178;" horiz-adv-x="1112" 
d="M551 1780h100l-28 -144h-99zM938 1780h98l-26 -144h-101zM1137 1438h102l-631 -865l-112 -573h-88l110 580l-289 858h93l258 -758z" />
    <glyph glyph-name="Zacute" unicode="&#x179;" horiz-adv-x="1202" 
d="M1053 1837h118l-303 -266h-104zM315 1438h951l-17 -90l-1120 -1262h891l-16 -86h-1004l14 90l1125 1262h-840z" />
    <glyph glyph-name="zacute" unicode="&#x17a;" horiz-adv-x="999" 
d="M846 1477h102l-274 -316h-92zM229 1028h764l-12 -74l-844 -872h672l-14 -82h-789l12 72l842 874h-645z" />
    <glyph glyph-name="Zdotaccent" unicode="&#x17b;" horiz-adv-x="1202" 
d="M805 1786h104l-28 -150h-105zM315 1438h951l-17 -90l-1120 -1262h891l-16 -86h-1004l14 90l1125 1262h-840z" />
    <glyph glyph-name="zdotaccent" unicode="&#x17c;" horiz-adv-x="999" 
d="M614 1376h105l-29 -149h-104zM229 1028h764l-12 -74l-844 -872h672l-14 -82h-789l12 72l842 874h-645z" />
    <glyph glyph-name="Zcaron" unicode="&#x17d;" horiz-adv-x="1202" 
d="M1145 1825l-283 -254h-96l-184 254h96l141 -199l221 199h105zM315 1438h951l-17 -90l-1120 -1262h891l-16 -86h-1004l14 90l1125 1262h-840z" />
    <glyph glyph-name="zcaron" unicode="&#x17e;" horiz-adv-x="999" 
d="M948 1466l-280 -305h-82l-162 305h86l123 -243l217 243h98zM229 1028h764l-12 -74l-844 -872h672l-14 -82h-789l12 72l842 874h-645z" />
    <glyph glyph-name="uni01CD" unicode="&#x1cd;" horiz-adv-x="1183" 
d="M1122 1825l-282 -254h-97l-184 254h96l142 -199l221 199h104zM-49 0l760 1438h114l205 -1438h-84l-69 467h-586l-252 -467h-88zM862 553l-112 790l-412 -790h524z" />
    <glyph glyph-name="uni01CE" unicode="&#x1ce;" horiz-adv-x="1107" 
d="M987 1466l-280 -305h-82l-162 305h86l123 -243l217 243h98zM930 864l49 164h70l-201 -1028h-66l13 137c-78 -107 -191 -160 -340 -160c-124 0 -221 39 -290 116s-92 178 -69 302l49 252c52 257 214 404 451 404c78 0 147 -17 207 -50c60 -34 102 -80 127 -137zM473 59
c185 0 317 106 361 306l59 313c9 89 -14 159 -70 212s-130 79 -223 79c-203 0 -327 -115 -371 -344l-45 -226c-21 -105 -4 -188 51 -249s134 -91 238 -91z" />
    <glyph glyph-name="uni01CF" unicode="&#x1cf;" horiz-adv-x="434" 
d="M424 1626l221 199h105l-283 -254h-96l-185 254h97zM162 0h-90l278 1438h90z" />
    <glyph glyph-name="uni01D0" unicode="&#x1d0;" horiz-adv-x="413" 
d="M340 1223l217 243h98l-280 -305h-82l-162 305h86zM150 0h-87l201 1028h86z" />
    <glyph glyph-name="uni01D1" unicode="&#x1d1;" horiz-adv-x="1294" 
d="M1153 1825l-283 -254h-96l-184 254h96l141 -199l222 199h104zM793 1460c169 0 296 -45 379 -135s110 -203 83 -338l-110 -565c-57 -296 -246 -444 -565 -445c-169 0 -296 44 -379 133c-83 88 -112 198 -86 330l110 564c29 142 90 254 183 335s221 121 385 121zM1059 446
l104 537c25 120 5 215 -60 286c-65 70 -170 105 -317 105c-143 0 -252 -34 -326 -102c-75 -69 -124 -166 -149 -293l-106 -539c-22 -115 0 -206 66 -274c65 -69 170 -103 315 -103c143 0 252 33 326 100c73 66 122 160 147 283z" />
    <glyph glyph-name="uni01D2" unicode="&#x1d2;" horiz-adv-x="1081" 
d="M989 1466l-280 -305h-82l-162 305h86l123 -243l217 243h98zM610 1051c135 0 238 -38 307 -115s91 -177 66 -301l-49 -254c-52 -260 -210 -404 -459 -404c-135 0 -238 39 -309 116s-95 177 -70 300l51 256c52 260 212 402 463 402zM852 403l45 230c21 105 5 188 -47 247
s-133 89 -242 89c-209 0 -335 -114 -379 -342l-45 -230c-21 -105 -4 -188 49 -248s135 -90 244 -90c205 0 330 115 375 344z" />
    <glyph glyph-name="uni01D3" unicode="&#x1d3;" horiz-adv-x="1259" 
d="M1165 1825l-282 -254h-97l-184 254h96l142 -199l221 199h104zM1026 446l193 992h90l-199 -1016c-59 -296 -241 -444 -547 -445c-163 0 -284 44 -365 133c-81 88 -109 198 -83 330l196 998h88l-194 -998c-22 -115 -1 -206 62 -274c63 -69 164 -103 302 -103
c137 0 241 33 312 100c71 66 119 160 145 283z" />
    <glyph glyph-name="uni01D4" unicode="&#x1d4;" horiz-adv-x="1103" 
d="M981 1466l-281 -305h-82l-161 305h86l123 -243l217 243h98zM831 362l127 666h86l-198 -1028h-66l19 158c-85 -120 -199 -180 -344 -181c-115 0 -204 41 -267 122c-64 81 -83 192 -57 331l117 598h86l-115 -594c-22 -116 -8 -207 42 -274s120 -101 210 -101
c78 0 150 26 216 79s114 127 144 224z" />
    <glyph glyph-name="uni0218" unicode="&#x218;" horiz-adv-x="1232" 
d="M760 1460c167 0 289 -40 366 -120c77 -81 102 -175 76 -283l-12 -60h-90l14 60c21 87 1 162 -59 225s-160 94 -299 94c-116 0 -213 -25 -291 -76s-117 -124 -117 -219c0 -65 25 -120 74 -164c49 -45 109 -80 180 -106c70 -26 140 -54 211 -83c70 -29 130 -71 179 -125
s73 -121 73 -202c0 -134 -49 -238 -146 -312c-98 -75 -223 -112 -374 -112c-172 0 -298 40 -378 121s-108 178 -83 293l10 51h90l-10 -51c-22 -93 1 -171 68 -234c67 -64 170 -96 311 -96c123 0 224 30 303 89s119 138 119 239c0 69 -25 128 -74 175s-109 85 -178 112
c-70 27 -140 55 -210 83s-130 68 -179 121c-49 52 -74 117 -74 195c0 124 47 219 142 286c94 66 213 99 358 99zM479 -260h-45l23 113h110l-20 -111l-98 -172h-46z" />
    <glyph glyph-name="uni0219" unicode="&#x219;" horiz-adv-x="989" 
d="M920 696h-86c21 91 5 160 -48 207s-130 70 -233 70c-89 0 -161 -19 -216 -57c-55 -39 -83 -90 -83 -154c0 -49 20 -88 61 -116c40 -28 89 -49 146 -62c57 -14 115 -29 172 -44c57 -16 106 -44 147 -84c40 -41 60 -94 60 -161c0 -93 -36 -168 -107 -227
c-72 -59 -168 -88 -287 -88c-134 0 -237 32 -309 96s-96 151 -71 260h84c-21 -87 -2 -156 56 -205s142 -74 251 -74c89 0 160 21 215 64c55 42 82 97 82 164c0 56 -20 100 -60 132c-41 32 -90 55 -147 69c-57 13 -115 28 -172 43s-106 40 -146 76c-41 36 -61 85 -61 147
c0 91 36 164 109 218c72 54 165 81 280 81c131 0 231 -31 298 -94s88 -150 65 -261zM332 -260h-45l22 113h111l-21 -111l-98 -172h-45z" />
    <glyph glyph-name="uni021A" unicode="&#x21a;" horiz-adv-x="1138" 
d="M207 1438h1085l-16 -86h-498l-264 -1352h-90l264 1352h-498zM397 -260h-45l23 113h110l-20 -111l-98 -172h-45z" />
    <glyph glyph-name="uni021B" unicode="&#x21b;" horiz-adv-x="647" 
d="M655 946h-297l-112 -573c-41 -211 21 -291 196 -291h82l-14 -82h-92c-219 0 -309 109 -260 354l114 592h-135l15 82h137l59 309h86l-59 -309h295zM238 -260h-45l22 113h111l-21 -111l-98 -172h-45z" />
    <glyph glyph-name="uni0237" unicode="&#x237;" horiz-adv-x="489" 
d="M-186 -471h-62l15 82h38c164 0 267 102 308 307l217 1110h86l-223 -1147c-47 -235 -173 -352 -379 -352z" />
    <glyph glyph-name="circumflex" unicode="&#x2c6;" horiz-adv-x="638" 
d="M539 1466l163 -301h-88l-118 242l-217 -242h-99l277 301h82z" />
    <glyph glyph-name="caron" unicode="&#x2c7;" horiz-adv-x="638" 
d="M449 1223l217 243h98l-281 -305h-82l-161 305h86z" />
    <glyph glyph-name="breve" unicode="&#x2d8;" horiz-adv-x="657" 
d="M446 1147c-77 0 -138 22 -183 67c-45 44 -63 101 -54 172h65c-8 -52 5 -94 40 -127c34 -33 81 -49 141 -49c59 0 110 17 155 50c44 33 69 75 76 126h66c-9 -71 -43 -128 -101 -172c-59 -45 -127 -67 -205 -67z" />
    <glyph glyph-name="dotaccent" unicode="&#x2d9;" horiz-adv-x="219" 
d="M297 1227h-104l28 149h105z" />
    <glyph glyph-name="ring" unicode="&#x2da;" horiz-adv-x="579" 
d="M574 1205c-40 -39 -91 -58 -152 -58s-112 19 -151 58c-40 38 -60 86 -60 145s20 107 60 144c39 37 90 56 151 56s112 -19 152 -56c39 -37 59 -85 59 -144s-20 -107 -59 -145zM422 1212c91 0 147 53 147 138c0 84 -58 137 -147 137c-88 0 -146 -53 -146 -137
c0 -85 58 -138 146 -138z" />
    <glyph glyph-name="ogonek" unicode="&#x2db;" horiz-adv-x="346" 
d="M123 -317l-10 -68c-30 -8 -60 -12 -90 -12c-108 0 -162 41 -162 123c0 108 89 208 266 299l55 -25c-155 -89 -233 -173 -233 -254c0 -48 32 -72 96 -72c26 0 52 3 78 9z" />
    <glyph glyph-name="tilde" unicode="&#x2dc;" horiz-adv-x="733" 
d="M786 1434h74c-24 -159 -97 -236 -201 -236c-49 0 -100 27 -153 82s-97 82 -131 82c-68 0 -111 -55 -129 -164h-72c23 157 90 236 201 236c63 0 121 -42 154 -81c32 -40 82 -81 130 -81c69 0 112 54 127 162z" />
    <glyph glyph-name="hungarumlaut" unicode="&#x2dd;" horiz-adv-x="606" 
d="M369 1417h88l-197 -256h-86zM711 1417h90l-199 -256h-84z" />
    <glyph glyph-name="gravecomb" unicode="&#x300;" 
d="M-14 1161l-154 316h96l142 -316h-84z" />
    <glyph glyph-name="acutecomb" unicode="&#x301;" 
d="M29 1477h102l-274 -316h-93z" />
    <glyph glyph-name="uni0302" unicode="&#x302;" 
d="M-104 1466l163 -301h-88l-118 242l-218 -242h-98l277 301h82z" />
    <glyph glyph-name="tildecomb" unicode="&#x303;" 
d="M41 1434h74c-24 -159 -97 -236 -201 -236c-49 0 -101 27 -154 82s-96 82 -131 82c-68 0 -111 -55 -129 -164h-71c23 157 90 236 200 236c63 0 121 -42 153 -81c33 -40 83 -81 132 -81c69 0 112 54 127 162z" />
    <glyph glyph-name="uni0304" unicode="&#x304;" 
d="M-561 1346h645l-14 -78h-648z" />
    <glyph glyph-name="uni0306" unicode="&#x306;" 
d="M-211 1147c-77 0 -138 22 -184 67c-45 44 -63 101 -54 172h66c-8 -52 5 -94 39 -127s81 -49 141 -49c59 0 110 17 154 50c45 33 71 75 78 126h65c-9 -71 -43 -128 -101 -172c-58 -45 -126 -67 -204 -67z" />
    <glyph glyph-name="uni0307" unicode="&#x307;" 
d="M78 1227h-105l29 149h104z" />
    <glyph glyph-name="uni0308" unicode="&#x308;" 
d="M-295 1227h-98l26 143h101zM92 1227h-100l28 143h99z" />
    <glyph glyph-name="uni030A" unicode="&#x30a;" 
d="M-362 1205c-39 -39 -90 -58 -152 -58c-61 0 -112 19 -151 58c-39 38 -59 86 -59 145s20 107 59 144s90 56 151 56c62 0 113 -19 152 -56s59 -85 59 -144s-20 -107 -59 -145zM-514 1212c91 0 148 53 148 138c0 84 -57 137 -148 137c-88 0 -145 -53 -145 -137
c0 -85 57 -138 145 -138z" />
    <glyph glyph-name="uni030B" unicode="&#x30b;" 
d="M-266 1417h88l-197 -256h-86zM76 1417h90l-199 -256h-84z" />
    <glyph glyph-name="uni030C" unicode="&#x30c;" 
d="M-195 1223l218 243h98l-281 -305h-82l-161 305h86z" />
    <glyph glyph-name="uni0326" unicode="&#x326;" 
d="M-356 -260l22 113h111l-21 -111l-98 -172h-45l76 170h-45z" />
    <glyph glyph-name="uni0327" unicode="&#x327;" 
d="M-383 -307h-94l158 332h79z" />
    <glyph glyph-name="uni0328" unicode="&#x328;" 
d="M-274 -317l-11 -68c-30 -8 -60 -12 -90 -12c-108 0 -162 41 -162 123c0 108 89 208 267 299l55 -25c-155 -89 -233 -173 -234 -254c0 -48 32 -72 97 -72c26 0 52 3 78 9z" />
    <glyph glyph-name="uni0338" unicode="&#x338;" 
d="M-1012 27l869 1278l73 -37l-868 -1278z" />
    <glyph glyph-name="uni0394" unicode="&#x394;" horiz-adv-x="1275" 
d="M500 1438h112l525 -1350v-88h-1162v88zM1047 86l-492 1245l-489 -1245h981z" />
    <glyph glyph-name="uni03A9" unicode="&#x3a9;" horiz-adv-x="1286" 
d="M977 86h190v-86h-467v86c235 5 352 130 353 373v526c0 263 -124 389 -424 389c-151 0 -259 -32 -325 -96s-99 -162 -99 -293v-526c0 -243 117 -368 352 -373v-86h-465v86h189c-109 71 -164 189 -164 356v557c0 295 165 461 512 461s514 -165 514 -461v-557
c0 -165 -55 -283 -166 -356z" />
    <glyph glyph-name="uni03BC" unicode="&#x3bc;" horiz-adv-x="1110" 
d="M1036 1028l-139 -719c-19 -75 -26 -135 -19 -180c6 -45 34 -68 83 -68c19 0 41 2 65 7l-10 -82c-26 -5 -51 -8 -76 -9c-101 0 -150 62 -145 187c-83 -124 -198 -186 -344 -187c-136 0 -246 72 -285 189l-123 -637h-86l291 1499h86l-115 -594c-23 -119 -10 -211 40 -276
c50 -66 119 -99 208 -99c77 0 147 27 212 80s111 128 140 223l131 666h86z" />
    <glyph glyph-name="pi" unicode="&#x3c0;" horiz-adv-x="1206" 
d="M1227 946h-203l-125 -637c-19 -74 -26 -134 -19 -179c6 -46 34 -69 83 -69c22 0 44 3 65 9l-8 -84c-26 -5 -52 -8 -78 -9c-73 0 -118 29 -137 88c-19 58 -17 136 6 234l125 647h-512l-182 -946h-86l182 946h-197l15 82h1085z" />
    <glyph glyph-name="uni0401" unicode="&#x401;" horiz-adv-x="1146" 
d="M590 1780h100l-28 -144h-99zM977 1780h98l-26 -144h-101zM1194 1438l-16 -86h-754l-115 -594h656l-17 -86h-655l-115 -586h754l-17 -86h-843l278 1438h844z" />
    <glyph glyph-name="uni0402" unicode="&#x402;" horiz-adv-x="1468" 
d="M920 942c151 0 264 -44 338 -132c73 -88 97 -198 71 -331l-26 -135c-44 -229 -205 -344 -484 -344h-252l17 86h247c232 0 347 90 386 279l22 114c23 113 6 205 -53 274s-152 103 -281 103c-116 0 -212 -29 -287 -88c-76 -59 -124 -135 -143 -229h-2l-104 -539h-88
l262 1352h-303l16 86h852l-16 -86h-459l-113 -578c99 112 232 168 400 168z" />
    <glyph glyph-name="uni0403" unicode="&#x403;" horiz-adv-x="1093" 
d="M981 1837h119l-303 -266h-105zM350 1438h846l-16 -86h-756l-262 -1352h-90z" />
    <glyph glyph-name="uni0404" unicode="&#x404;" horiz-adv-x="1290" 
d="M791 1460c168 0 293 -45 376 -134c82 -89 110 -202 84 -339l-10 -63h-92l12 59c22 120 1 215 -63 286c-65 70 -169 105 -314 105c-142 0 -250 -34 -324 -102c-75 -69 -124 -166 -149 -293l-39 -197h541l-16 -86h-541l-51 -256c-22 -115 0 -206 65 -274
c65 -69 169 -103 314 -103c142 0 249 33 322 100c72 66 122 160 149 283l12 58h90l-16 -82c-60 -296 -248 -444 -563 -445c-168 0 -294 44 -377 133c-83 88 -112 198 -86 330l110 566c29 142 89 253 182 334c92 80 220 120 384 120z" />
    <glyph glyph-name="uni0405" unicode="&#x405;" horiz-adv-x="1232" 
d="M545 -23c-172 0 -298 40 -378 121s-108 178 -83 293l10 51h90l-10 -51c-22 -93 1 -171 68 -234c67 -64 170 -96 311 -96c123 0 224 30 303 89s119 138 119 239c0 69 -25 128 -74 175s-109 85 -178 112c-70 27 -140 55 -210 83s-130 68 -179 121c-49 52 -74 117 -74 195
c0 124 47 219 142 286c94 66 213 99 358 99c167 0 289 -40 366 -120c77 -81 102 -175 76 -283l-12 -60h-90l14 60c21 87 1 162 -59 225s-160 94 -299 94c-116 0 -213 -25 -291 -76s-117 -124 -117 -219c0 -65 25 -120 74 -164c49 -45 109 -80 180 -106
c70 -26 140 -54 211 -83c70 -29 130 -71 179 -125s73 -121 73 -202c0 -134 -49 -238 -146 -312c-98 -75 -223 -112 -374 -112z" />
    <glyph glyph-name="uni0406" unicode="&#x406;" horiz-adv-x="434" 
d="M162 0h-90l278 1438h90z" />
    <glyph glyph-name="uni0407" unicode="&#x407;" horiz-adv-x="434" 
d="M289 1636h-99l27 144h100zM676 1636h-101l29 144h98zM162 0h-90l278 1438h90z" />
    <glyph glyph-name="uni0408" unicode="&#x408;" horiz-adv-x="714" 
d="M18 0h-84l17 86h76c105 0 194 30 266 89s119 142 141 249l197 1014h90l-201 -1037c-25 -124 -82 -222 -172 -293c-90 -72 -200 -108 -330 -108z" />
    <glyph glyph-name="uni0409" unicode="&#x409;" horiz-adv-x="2209" 
d="M1282 866h395c317 0 444 -117 396 -370l-23 -125c-52 -253 -224 -371 -539 -371h-487l262 1352h-555l-287 -957c-79 -263 -221 -395 -424 -395h-45l17 86h24c172 0 276 111 344 338l308 1014h725zM1962 395l18 90c21 112 7 189 -40 232c-48 42 -140 63 -275 63h-401
l-136 -694h394c253 0 399 88 440 309z" />
    <glyph glyph-name="uni040A" unicode="&#x40a;" horiz-adv-x="2117" 
d="M1188 866h395c317 0 444 -117 395 -370l-22 -125c-49 -253 -224 -371 -539 -371h-487l131 672h-768l-131 -672h-90l278 1438h90l-131 -680h768l131 680h90zM1868 395l18 90c21 112 7 189 -40 232c-48 42 -140 63 -275 63h-400l-135 -694h391c253 0 400 88 441 309z" />
    <glyph glyph-name="uni040B" unicode="&#x40b;" horiz-adv-x="1452" 
d="M903 948c153 0 266 -44 340 -132s98 -198 72 -331l-96 -485h-91l97 485c22 113 4 205 -54 274c-59 69 -152 103 -280 103c-113 0 -206 -30 -279 -90s-118 -134 -135 -223l-106 -549h-90l262 1352h-303l16 86h852l-16 -86h-459l-109 -557c91 102 218 153 379 153z" />
    <glyph glyph-name="uni040C" unicode="&#x40c;" horiz-adv-x="1120" 
d="M997 1837h119l-303 -266h-104zM1081 1438h119l-805 -705l557 -733h-102l-551 709l-137 -709h-90l278 1438h90l-127 -658z" />
    <glyph glyph-name="uni040E" unicode="&#x40e;" horiz-adv-x="1136" 
d="M764 1556c-77 0 -138 22 -183 67c-46 45 -64 102 -55 173h66c-8 -52 5 -94 39 -127s81 -49 141 -49c59 0 110 16 155 49c44 33 70 75 77 127h65c-9 -71 -43 -128 -101 -173s-126 -67 -204 -67zM586 657l573 781h103l-1051 -1438h-105l414 567l-291 871h90z" />
    <glyph glyph-name="uni040F" unicode="&#x40f;" horiz-adv-x="1310" 
d="M965 86l264 1352h90l-281 -1438h-438l-53 -276h-90l53 276h-438l278 1438h90l-262 -1352h787z" />
    <glyph glyph-name="uni0410" unicode="&#x410;" horiz-adv-x="1183" 
d="M1030 0h-84l-69 467h-586l-252 -467h-88l760 1438h114zM862 553l-112 790l-412 -790h524z" />
    <glyph glyph-name="uni0411" unicode="&#x411;" horiz-adv-x="1257" 
d="M1225 1438l-17 -86h-784l-94 -486h397c317 0 444 -117 395 -370l-22 -125c-49 -253 -224 -371 -539 -371h-489l278 1438h875zM715 780h-402l-135 -694h395c251 0 398 88 439 309l18 90c21 112 7 189 -40 232c-48 42 -140 63 -275 63z" />
    <glyph glyph-name="uni0412" unicode="&#x412;" horiz-adv-x="1261" 
d="M350 1438h516c121 0 213 -26 274 -78s81 -128 62 -227l-22 -117c-27 -141 -116 -227 -213 -254c57 -19 102 -56 134 -111s41 -118 27 -190l-32 -170c-35 -194 -183 -291 -443 -291h-581zM1094 1028l16 94c31 159 -55 232 -250 232h-436l-109 -557h433
c203 0 319 77 346 231zM1012 319l24 121c33 177 -52 273 -245 273h-492l-121 -629h488c203 0 313 63 346 235z" />
    <glyph glyph-name="uni0413" unicode="&#x413;" horiz-adv-x="1093" 
d="M350 1438h846l-16 -86h-756l-262 -1352h-90z" />
    <glyph glyph-name="uni0414" unicode="&#x414;" horiz-adv-x="1550" 
d="M1421 1438l-262 -1352h234l-17 -78l-55 -284h-88l51 276h-1218l-54 -276h-90l53 276l17 86h55c177 0 276 109 344 338l301 1014h729zM293 86h776l246 1266h-557l-283 -955c-42 -142 -103 -246 -182 -311z" />
    <glyph glyph-name="uni0415" unicode="&#x415;" horiz-adv-x="1146" 
d="M1194 1438l-16 -86h-754l-115 -594h656l-17 -86h-655l-115 -586h754l-17 -86h-843l278 1438h844z" />
    <glyph glyph-name="uni0416" unicode="&#x416;" horiz-adv-x="1806" 
d="M1769 1438h117l-805 -705l559 -733h-104l-551 709l-137 -709h-90l137 702l-821 -702h-117l854 748l-535 690h103l530 -666l129 666h90l-129 -658z" />
    <glyph glyph-name="uni0417" unicode="&#x417;" horiz-adv-x="1230" 
d="M801 1460c142 0 250 -33 323 -98s99 -151 78 -258l-18 -96c-23 -127 -98 -218 -223 -273c112 -59 154 -157 126 -295l-20 -108c-22 -112 -81 -199 -177 -261c-97 -63 -215 -94 -355 -94c-157 0 -275 35 -354 105c-79 69 -106 161 -83 274l21 105h90l-21 -101
c-36 -188 93 -297 353 -297c120 0 219 25 297 75c77 50 125 121 143 212l14 84c33 169 -48 262 -239 262h-271l17 84h260c183 0 307 91 338 250l12 72c36 175 -82 272 -317 272c-262 0 -411 -99 -447 -297l-16 -78h-88l18 97c21 115 78 204 172 268c93 64 216 96 367 96z
" />
    <glyph glyph-name="uni0418" unicode="&#x418;" horiz-adv-x="1273" 
d="M188 170l1008 1268h84l-279 -1438h-86l246 1264l-1005 -1264h-84l278 1438h84z" />
    <glyph glyph-name="uni0419" unicode="&#x419;" horiz-adv-x="1273" 
d="M836 1556c-77 0 -138 22 -183 67c-46 45 -64 102 -55 173h66c-8 -52 5 -94 39 -127s81 -49 141 -49c59 0 110 16 155 49c44 33 69 75 76 127h66c-9 -71 -43 -128 -101 -173s-126 -67 -204 -67zM188 170l1008 1268h84l-279 -1438h-86l246 1264l-1005 -1264h-84l278 1438
h84z" />
    <glyph glyph-name="uni041A" unicode="&#x41a;" horiz-adv-x="1120" 
d="M1081 1438h119l-805 -705l557 -733h-102l-551 709l-137 -709h-90l278 1438h90l-127 -658z" />
    <glyph glyph-name="uni041B" unicode="&#x41b;" horiz-adv-x="1384" 
d="M668 1438h723l-279 -1438h-90l262 1352h-553l-287 -957c-79 -263 -221 -395 -424 -395h-45l17 86h24c172 0 276 111 344 338z" />
    <glyph glyph-name="uni041C" unicode="&#x41c;" horiz-adv-x="1513" 
d="M1417 1438h105l-281 -1438h-82l246 1270l-711 -1270h-76l3 4l-220 1266l-247 -1270h-82l278 1438h103l229 -1284z" />
    <glyph glyph-name="uni041D" unicode="&#x41d;" horiz-adv-x="1310" 
d="M1096 758l133 680h90l-281 -1438h-90l131 672h-786l-131 -672h-90l278 1438h90l-131 -680h787z" />
    <glyph glyph-name="uni041E" unicode="&#x41e;" horiz-adv-x="1294" 
d="M580 -23c-169 0 -296 44 -379 133c-83 88 -112 198 -86 330l110 564c29 142 90 254 183 335s221 121 385 121c169 0 296 -45 379 -135s110 -203 83 -338l-110 -565c-57 -297 -246 -445 -565 -445zM586 63c143 0 252 33 326 100c73 66 122 160 147 283l104 537
c25 120 5 215 -60 286c-65 70 -170 105 -317 105c-143 0 -252 -34 -326 -102c-75 -69 -124 -166 -149 -293l-106 -539c-22 -115 0 -206 66 -274c65 -69 170 -103 315 -103z" />
    <glyph glyph-name="uni041F" unicode="&#x41f;" horiz-adv-x="1310" 
d="M350 1438h969l-281 -1438h-90l264 1352h-788l-262 -1352h-90z" />
    <glyph glyph-name="uni0420" unicode="&#x420;" horiz-adv-x="1255" 
d="M350 1438h512c315 0 443 -120 398 -371l-27 -129c-49 -257 -222 -373 -537 -373h-426l-108 -565h-90zM1147 961l18 94c21 113 7 191 -40 234c-48 42 -140 63 -275 63h-426l-135 -701h418c253 0 399 89 440 310z" />
    <glyph glyph-name="uni0421" unicode="&#x421;" horiz-adv-x="1290" 
d="M578 -23c-169 0 -295 44 -378 132c-83 87 -111 198 -85 331l110 566c29 142 90 253 183 334c93 80 220 120 383 120c169 0 295 -42 377 -127c81 -85 110 -194 85 -327l-12 -66h-90l12 61c44 237 -86 373 -379 373c-142 0 -250 -34 -324 -102c-75 -69 -124 -166 -149 -293
l-106 -539c-22 -115 0 -206 66 -274c65 -69 170 -103 315 -103c142 0 250 32 323 97c73 64 121 157 146 280l12 62h90l-16 -88c-60 -291 -248 -437 -563 -437z" />
    <glyph glyph-name="uni0422" unicode="&#x422;" horiz-adv-x="1138" 
d="M207 1438h1085l-16 -86h-498l-264 -1352h-90l264 1352h-498z" />
    <glyph glyph-name="uni0423" unicode="&#x423;" horiz-adv-x="1136" 
d="M586 657l573 781h103l-1051 -1438h-105l414 567l-291 871h90z" />
    <glyph glyph-name="uni0424" unicode="&#x424;" horiz-adv-x="1759" 
d="M1063 1229h233c315 0 445 -116 398 -371l-29 -147c-49 -257 -222 -371 -537 -371h-239l-66 -340h-88l66 340h-236c-315 0 -444 119 -397 371l29 147c49 253 225 371 538 371h238l41 209h90zM575 426h242l139 717h-233c-253 0 -400 -86 -440 -309l-21 -113
c-21 -112 -7 -189 41 -231c47 -43 138 -64 272 -64zM1579 735l23 113c21 112 7 189 -42 232c-49 42 -140 63 -274 63h-239l-140 -717h232c253 0 399 85 440 309z" />
    <glyph glyph-name="uni0425" unicode="&#x425;" horiz-adv-x="1163" 
d="M1167 1438h105l-592 -715l326 -723h-95l-297 659l-559 -659h-104l624 745l-311 693h94l283 -627z" />
    <glyph glyph-name="uni0426" unicode="&#x426;" horiz-adv-x="1447" 
d="M1319 1438l-264 -1352h233l-16 -86l-53 -276h-91l54 276h-1110l278 1438h90l-262 -1352h787l264 1352h90z" />
    <glyph glyph-name="uni0427" unicode="&#x427;" horiz-adv-x="1245" 
d="M1053 870l110 568h90l-280 -1438h-90l127 653c-91 -103 -216 -154 -375 -153c-154 0 -268 44 -342 131s-98 197 -72 330l92 477h90l-92 -475c-22 -115 -4 -206 54 -274c57 -69 150 -103 278 -103c107 0 196 27 268 81c71 54 119 122 142 203z" />
    <glyph glyph-name="uni0428" unicode="&#x428;" horiz-adv-x="2002" 
d="M1657 86l262 1352h90l-278 -1438h-1659l278 1438h90l-262 -1352h694l263 1352h90l-262 -1352h694z" />
    <glyph glyph-name="uni0429" unicode="&#x429;" horiz-adv-x="2158" 
d="M2009 1438l-262 -1352h252v-2l-70 -360h-90l53 276h-1820l278 1438h90l-262 -1352h694l263 1352h90l-262 -1352h694l262 1352h90z" />
    <glyph glyph-name="uni042A" unicode="&#x42a;" horiz-adv-x="1447" 
d="M518 866h395c317 0 445 -117 396 -370l-23 -125c-49 -253 -225 -371 -538 -371h-488l262 1352h-282l16 86h373zM1198 395l19 90c21 112 7 189 -41 232c-48 42 -140 63 -275 63h-399l-135 -694h391c253 0 399 88 440 309z" />
    <glyph glyph-name="uni042B" unicode="&#x42b;" horiz-adv-x="1656" 
d="M330 866h395c317 0 444 -117 395 -370l-22 -125c-49 -253 -224 -371 -539 -371h-487l278 1438h90zM1294 0l281 1438h88l-279 -1438h-90zM1010 395l18 90c21 112 7 189 -41 232c-48 42 -139 63 -274 63h-400l-135 -694h391c253 0 400 88 441 309z" />
    <glyph glyph-name="uni042C" unicode="&#x42c;" horiz-adv-x="1257" 
d="M330 866h395c317 0 444 -117 395 -370l-22 -125c-49 -253 -224 -371 -539 -371h-487l278 1438h90zM1010 395l18 90c21 112 7 189 -41 232c-48 42 -139 63 -274 63h-400l-135 -694h391c253 0 400 88 441 309z" />
    <glyph glyph-name="uni042D" unicode="&#x42d;" horiz-adv-x="1290" 
d="M793 1460c168 0 293 -45 375 -134c81 -89 109 -202 83 -339l-110 -565c-57 -296 -245 -444 -563 -445c-168 0 -293 44 -376 132c-83 87 -112 198 -87 331l12 64h90l-12 -64c-21 -115 2 -206 67 -274c65 -69 169 -103 312 -103s252 33 325 100c73 66 121 160 146 283
l49 250h-541l17 86h542l39 201c23 120 3 215 -62 286c-65 70 -170 105 -315 105c-141 0 -247 -34 -319 -101c-73 -68 -124 -166 -154 -294l-12 -55h-90l16 82c65 303 254 454 568 454z" />
    <glyph glyph-name="uni042E" unicode="&#x42e;" horiz-adv-x="1890" 
d="M1391 1460c169 0 295 -45 378 -134c82 -89 110 -202 84 -339l-110 -565c-57 -296 -246 -444 -565 -445c-169 0 -296 44 -379 133c-83 88 -112 198 -86 330l45 232h-465l-131 -672h-90l278 1438h90l-131 -680h465l49 248c29 141 90 252 183 333s221 121 385 121zM1657 446
l104 537c25 120 5 215 -60 286c-65 70 -170 105 -317 105c-143 0 -252 -34 -327 -102c-75 -69 -125 -166 -150 -293l-104 -539c-22 -115 0 -206 66 -274c65 -69 170 -103 315 -103c143 0 252 33 326 100c73 66 122 160 147 283z" />
    <glyph glyph-name="uni042F" unicode="&#x42f;" horiz-adv-x="1253" 
d="M766 1438h494l-281 -1438h-88l127 657h-404c-31 0 -54 1 -69 2l-428 -659h-94l434 670c-195 31 -275 140 -240 327l19 103c44 235 215 338 530 338zM631 743h403l119 609h-403c-134 0 -234 -20 -300 -61c-67 -41 -109 -109 -126 -204l-13 -69c-21 -104 -7 -176 42 -215
c49 -40 141 -60 278 -60z" />
    <glyph glyph-name="uni0430" unicode="&#x430;" horiz-adv-x="1107" 
d="M930 864l49 164h70l-201 -1028h-66l13 137c-78 -107 -191 -160 -340 -160c-124 0 -221 39 -290 116s-92 178 -69 302l49 252c52 257 214 404 451 404c78 0 147 -17 207 -50c60 -34 102 -80 127 -137zM473 59c185 0 317 106 361 306l59 313c9 89 -14 159 -70 212
s-130 79 -223 79c-203 0 -327 -115 -371 -344l-45 -226c-21 -105 -4 -188 51 -249s134 -91 238 -91z" />
    <glyph glyph-name="uni0431" unicode="&#x431;" horiz-adv-x="1079" 
d="M752 1307l-103 -13c-108 -15 -189 -48 -242 -98c-54 -51 -91 -129 -112 -235l-10 -56c81 97 193 145 336 146c131 0 231 -38 298 -115s89 -177 64 -301l-49 -254c-52 -260 -210 -404 -459 -404c-135 0 -238 39 -308 117c-71 78 -94 178 -71 299l117 592
c23 121 70 213 139 276c69 62 168 101 299 117l103 13c105 13 178 33 217 59s65 70 78 131l86 -8c-18 -89 -52 -151 -103 -186c-51 -36 -144 -63 -280 -80zM608 969c-195 0 -318 -98 -368 -295l-54 -277c-22 -105 -7 -188 46 -248s134 -90 245 -90c205 0 330 115 375 344
l43 230c22 105 7 188 -45 247s-133 89 -242 89z" />
    <glyph glyph-name="uni0432" unicode="&#x432;" horiz-adv-x="1060" 
d="M258 1028h430c196 0 297 -86 264 -242l-12 -59c-21 -90 -72 -151 -154 -182c109 -31 152 -111 129 -240l-8 -49c-34 -171 -147 -256 -340 -256h-508zM860 748l6 28c27 125 -41 176 -190 176h-346l-74 -385h356c148 0 221 52 248 181zM823 272l6 31
c27 139 -22 189 -170 189h-419l-80 -416h411c145 0 229 65 252 196z" />
    <glyph glyph-name="uni0433" unicode="&#x433;" horiz-adv-x="831" 
d="M258 1028h635l-14 -82h-551l-183 -946h-86z" />
    <glyph glyph-name="uni0434" unicode="&#x434;" horiz-adv-x="1171" 
d="M440 1028h633l-182 -948h160l-68 -356h-86l51 276h-928l-51 -276h-86l68 356h33c65 0 117 19 154 58c37 38 69 105 98 202zM199 80h606l166 866h-469l-187 -637c-31 -106 -69 -182 -116 -229z" />
    <glyph glyph-name="uni0435" unicode="&#x435;" horiz-adv-x="1067" 
d="M608 1051c127 0 225 -38 294 -115s92 -176 69 -297l-29 -152h-735l-19 -88c-21 -104 -4 -186 50 -246s133 -90 237 -90c193 0 309 96 348 289h90c-23 -120 -74 -212 -151 -277c-78 -65 -174 -98 -289 -98c-133 0 -234 39 -305 117s-95 178 -72 301l51 252
c26 129 80 228 161 299c81 70 181 105 300 105zM233 625l-10 -52h645l11 56c21 104 5 186 -46 246s-128 90 -229 90c-193 0 -327 -119 -371 -340z" />
    <glyph glyph-name="uni0436" unicode="&#x436;" horiz-adv-x="1540" 
d="M1477 1028h120l-688 -457l477 -571h-100l-465 549l-106 -549h-86l106 543l-669 -543h-113l711 582l-500 446h108l476 -416l81 416h86l-81 -422z" />
    <glyph glyph-name="uni0437" unicode="&#x437;" horiz-adv-x="1044" 
d="M612 1051c120 0 209 -26 268 -78c58 -52 79 -119 62 -201l-4 -27c-21 -101 -77 -171 -170 -210c101 -35 139 -118 113 -248l-4 -25c-38 -190 -183 -285 -435 -285c-257 0 -381 118 -360 338l2 11h86l-2 -15c-13 -172 73 -256 281 -256c198 0 312 72 342 215l6 25
c26 131 -35 197 -183 197h-237l14 75h199c149 0 236 62 262 185l4 24c24 120 -67 197 -252 197c-208 0 -339 -90 -350 -254l-2 -14h-86l4 18c8 107 52 188 131 244s182 84 311 84z" />
    <glyph glyph-name="uni0438" unicode="&#x438;" horiz-adv-x="1155" 
d="M174 150l834 878h86l-199 -1028h-86l172 883l-834 -883h-88l199 1028h86z" />
    <glyph glyph-name="uni0439" unicode="&#x439;" horiz-adv-x="1155" 
d="M698 1147c-77 0 -138 22 -183 67c-46 44 -64 101 -54 172h65c-8 -52 5 -94 39 -127s81 -49 142 -49c59 0 110 17 155 50c44 33 69 75 76 126h66c-9 -71 -43 -128 -101 -172c-59 -45 -127 -67 -205 -67zM174 150l834 878h86l-199 -1028h-86l172 883l-834 -883h-88
l199 1028h86z" />
    <glyph glyph-name="uni043A" unicode="&#x43a;" horiz-adv-x="970" 
d="M907 1028h121l-688 -457l477 -571h-102l-463 551l-107 -551h-86l199 1028h86l-82 -422z" />
    <glyph glyph-name="uni043B" unicode="&#x43b;" horiz-adv-x="1122" 
d="M428 1028h633l-199 -1028h-86l182 946h-469l-186 -637c-33 -111 -74 -190 -125 -237c-51 -48 -118 -72 -203 -72h-38l14 80h20c65 0 117 19 154 58c37 38 69 105 98 202z" />
    <glyph glyph-name="uni043C" unicode="&#x43c;" horiz-adv-x="1286" 
d="M565 127l559 901h103l-201 -1028h-86l168 856l-535 -856h-59l-203 862l-168 -862h-84l199 1028h102z" />
    <glyph glyph-name="uni043D" unicode="&#x43d;" horiz-adv-x="1146" 
d="M909 565l90 463h88l-200 -1028h-86l94 485h-655l-95 -485h-86l199 1028h86l-90 -463h655z" />
    <glyph glyph-name="uni043E" unicode="&#x43e;" horiz-adv-x="1081" 
d="M475 -23c-135 0 -238 39 -309 116s-95 177 -70 300l51 256c52 260 212 402 463 402c135 0 238 -38 307 -115s91 -177 66 -301l-49 -254c-52 -260 -211 -404 -459 -404zM477 59c205 0 330 115 375 344l45 230c21 105 5 188 -47 247s-133 89 -242 89
c-209 0 -335 -114 -379 -342l-45 -230c-21 -105 -4 -188 49 -248s135 -90 244 -90z" />
    <glyph glyph-name="uni043F" unicode="&#x43f;" horiz-adv-x="1146" 
d="M258 1028h829l-200 -1028h-86l182 946h-655l-183 -946h-86z" />
    <glyph glyph-name="uni0440" unicode="&#x440;" horiz-adv-x="1107" 
d="M662 1051c121 0 216 -39 284 -117c67 -78 89 -178 64 -299l-49 -252c-52 -260 -220 -406 -463 -406c-156 0 -275 62 -324 177l-121 -625h-86l291 1499h68l-13 -135c79 105 195 158 349 158zM879 403l43 228c21 104 5 186 -47 247s-127 91 -226 91
c-203 0 -317 -98 -377 -314l-59 -299c-19 -196 95 -297 287 -297c200 0 335 121 379 344z" />
    <glyph glyph-name="uni0441" unicode="&#x441;" horiz-adv-x="1062" 
d="M473 -23c-131 0 -233 39 -304 117c-72 78 -96 178 -73 301l49 252c26 129 79 228 160 299c81 70 180 105 299 105c127 0 225 -34 296 -102c71 -69 96 -156 75 -261l-6 -37h-88l6 33c17 89 -2 158 -55 209s-130 76 -230 76c-196 0 -329 -120 -373 -344l-45 -226
c-21 -104 -4 -187 51 -248s134 -92 238 -92c193 0 309 97 350 291l6 27h86l-10 -47c-47 -227 -203 -353 -432 -353z" />
    <glyph glyph-name="uni0442" unicode="&#x442;" horiz-adv-x="897" 
d="M135 1028h828l-17 -82h-371l-182 -946h-86l182 946h-368z" />
    <glyph glyph-name="uni0443" unicode="&#x443;" horiz-adv-x="1103" 
d="M827 350l131 678h86l-221 -1137c-22 -120 -72 -214 -150 -283c-79 -68 -175 -102 -288 -102c-104 0 -188 25 -251 75s-92 115 -87 196h84c-1 -56 23 -102 72 -137s111 -52 188 -52c90 0 166 30 229 89c62 60 103 142 123 245l43 217c-85 -108 -195 -162 -331 -162
c-115 0 -204 41 -267 122c-64 81 -83 192 -57 331l117 598h86l-115 -594c-22 -116 -8 -207 42 -274s120 -101 210 -101c77 0 148 25 213 76s113 122 143 215z" />
    <glyph glyph-name="uni0444" unicode="&#x444;" horiz-adv-x="1812" 
d="M1366 1051c121 0 216 -39 284 -117c67 -78 89 -178 64 -299l-49 -252c-26 -130 -79 -230 -160 -300c-81 -71 -181 -106 -301 -106c-156 0 -280 64 -325 179l-123 -627h-86l116 596c-79 -98 -190 -147 -331 -148c-124 0 -221 39 -290 116s-92 178 -69 302l49 252
c52 257 214 404 451 404c78 0 147 -16 207 -49s102 -79 127 -136l112 572h86l-104 -539c77 101 191 152 342 152zM473 59c177 0 308 100 356 285l62 324c12 93 -10 166 -66 220s-131 81 -225 81c-203 0 -327 -115 -371 -344l-45 -226c-21 -105 -4 -188 51 -249
s134 -91 238 -91zM1583 403l43 228c21 103 5 185 -47 246s-127 92 -225 92c-203 0 -317 -98 -377 -314v2l-57 -290c-12 -103 8 -180 61 -231c52 -51 126 -77 223 -77c200 0 335 121 379 344z" />
    <glyph glyph-name="uni0445" unicode="&#x445;" horiz-adv-x="909" 
d="M877 1028h102l-475 -520l274 -508h-96l-240 446l-411 -446h-101l471 520l-272 508h94l240 -446z" />
    <glyph glyph-name="uni0446" unicode="&#x446;" horiz-adv-x="1183" 
d="M903 80h160l-68 -356h-86l54 276h-904l199 1028h86l-182 -948h655l182 948h88z" />
    <glyph glyph-name="uni0447" unicode="&#x447;" horiz-adv-x="1095" 
d="M881 674l67 354h86l-198 -1028h-86l88 457c-87 -112 -201 -168 -342 -168c-245 0 -363 157 -308 444l58 295h86l-56 -285c-47 -240 36 -372 236 -372c83 0 159 28 227 83c67 55 115 129 142 220z" />
    <glyph glyph-name="uni0448" unicode="&#x448;" horiz-adv-x="1673" 
d="M1343 80l183 948h86l-199 -1028h-1354l199 1028h86l-182 -948h547l184 948h86l-182 -948h546z" />
    <glyph glyph-name="uni0449" unicode="&#x449;" horiz-adv-x="1710" 
d="M1430 80h159l-69 -356h-86l53 276h-1428l199 1028h86l-182 -948h547l184 948h86l-182 -948h546l183 948h86z" />
    <glyph glyph-name="uni044A" unicode="&#x44a;" horiz-adv-x="1093" 
d="M348 629h332c112 0 194 -24 246 -71s72 -108 59 -181l-27 -135c-13 -79 -55 -139 -125 -180c-71 -41 -159 -62 -266 -62h-426l183 946h-209l14 82h297zM881 270l16 92c21 128 -52 187 -235 187h-328l-90 -469h331c78 0 146 17 203 50s92 80 103 140z" />
    <glyph glyph-name="uni044B" unicode="&#x44b;" horiz-adv-x="1347" 
d="M266 629h332c112 0 194 -24 246 -71s72 -108 59 -181l-26 -135c-13 -79 -55 -139 -126 -180s-159 -62 -266 -62h-426l199 1028h86zM1001 0l199 1028h86l-199 -1028h-86zM799 270l16 92c21 128 -52 187 -235 187h-328l-90 -469h332c78 0 146 17 203 50s91 80 102 140z" />
    <glyph glyph-name="uni044C" unicode="&#x44c;" horiz-adv-x="1011" 
d="M266 629h332c112 0 194 -24 246 -71s72 -108 59 -181l-26 -135c-13 -79 -55 -139 -126 -180s-159 -62 -266 -62h-426l199 1028h86zM799 270l16 92c21 128 -52 187 -235 187h-328l-90 -469h332c78 0 146 17 203 50s91 80 102 140z" />
    <glyph glyph-name="uni044D" unicode="&#x44d;" horiz-adv-x="1062" 
d="M602 1051c134 0 234 -38 300 -115s88 -177 65 -301l-52 -254c-52 -263 -214 -404 -462 -404c-129 0 -226 35 -293 104s-91 156 -72 261l6 35h88l-6 -29c-17 -87 0 -157 50 -210s126 -79 229 -79c207 0 334 114 379 342l16 84h-391l14 80h393l13 66
c39 213 -62 338 -283 338c-198 0 -317 -96 -356 -289l-4 -29h-89l11 45c21 112 70 199 149 262c78 62 176 93 295 93z" />
    <glyph glyph-name="uni044E" unicode="&#x44e;" horiz-adv-x="1536" 
d="M1065 1051c135 0 238 -38 307 -115s91 -177 66 -301l-49 -254c-52 -260 -211 -404 -459 -404c-135 0 -238 39 -309 116s-95 177 -70 300l20 101h-329l-97 -494h-86l199 1028h86l-88 -453h332l14 74c52 260 212 402 463 402zM1307 403l45 230c21 105 5 188 -47 247
s-133 89 -242 89c-209 0 -335 -114 -379 -342l-45 -230c-21 -105 -4 -188 49 -248s135 -90 244 -90c205 0 330 115 375 344z" />
    <glyph glyph-name="uni044F" unicode="&#x44f;" horiz-adv-x="1091" 
d="M569 1028h461l-199 -1028h-86l78 403h-352c-18 0 -41 2 -68 5l-268 -408h-90l277 432c-109 48 -152 140 -127 277l6 32c36 188 167 287 368 287zM481 485h359l88 461h-363c-155 0 -248 -72 -278 -217l-6 -20c-31 -151 47 -224 200 -224z" />
    <glyph glyph-name="uni0451" unicode="&#x451;" horiz-adv-x="1067" 
d="M457 1370h100l-29 -143h-98zM844 1370h98l-27 -143h-100zM608 1051c127 0 225 -38 294 -115s92 -176 69 -297l-29 -152h-735l-19 -88c-21 -104 -4 -186 50 -246s133 -90 237 -90c193 0 309 96 348 289h90c-23 -120 -74 -212 -151 -277c-78 -65 -174 -98 -289 -98
c-133 0 -234 39 -305 117s-95 178 -72 301l51 252c26 129 80 228 161 299c81 70 181 105 300 105zM233 625l-10 -52h645l11 56c21 104 5 186 -46 246s-128 90 -229 90c-193 0 -327 -119 -371 -340z" />
    <glyph glyph-name="uni0452" unicode="&#x452;" horiz-adv-x="1132" 
d="M662 1051c120 0 213 -41 280 -123s86 -193 59 -332l-141 -715c-44 -235 -170 -352 -377 -352h-63l16 82h39c165 0 267 102 305 305l133 678c23 117 9 209 -43 276c-53 66 -128 99 -225 99c-82 0 -157 -27 -226 -80s-118 -128 -147 -225l-129 -664h-86l240 1231h-164
l14 76h164l54 270h86l-54 -270h285l-14 -76h-285l-68 -346c88 111 204 166 347 166z" />
    <glyph glyph-name="uni0453" unicode="&#x453;" horiz-adv-x="831" 
d="M778 1477h103l-275 -316h-92zM258 1028h635l-14 -82h-551l-183 -946h-86z" />
    <glyph glyph-name="uni0454" unicode="&#x454;" horiz-adv-x="1060" 
d="M610 1051c131 0 231 -35 298 -104c67 -70 88 -158 65 -263l-6 -33h-88l8 37c18 85 2 153 -49 204s-127 77 -230 77c-209 0 -335 -115 -379 -344l-12 -60h387l-14 -80h-389l-17 -86c-21 -107 -4 -190 49 -250s133 -90 240 -90c195 0 311 94 346 283l6 35h88l-10 -45
c-41 -224 -195 -355 -432 -355c-137 0 -239 39 -307 116c-69 77 -91 178 -68 302l49 252c52 257 214 404 465 404z" />
    <glyph glyph-name="uni0455" unicode="&#x455;" horiz-adv-x="989" 
d="M446 -20c-134 0 -237 32 -309 96s-96 151 -71 260h84c-21 -87 -2 -156 56 -205s142 -74 251 -74c89 0 160 21 215 64c55 42 82 97 82 164c0 56 -20 100 -60 132c-41 32 -90 55 -147 69c-57 13 -115 28 -172 43s-106 40 -146 76c-41 36 -61 85 -61 147
c0 91 36 164 109 218c72 54 165 81 280 81c131 0 230 -31 297 -94s89 -150 66 -261h-86c21 91 5 160 -48 207s-130 70 -233 70c-89 0 -161 -19 -216 -57c-55 -39 -83 -90 -83 -154c0 -49 20 -88 61 -116c40 -28 89 -49 146 -62c57 -14 115 -29 172 -44
c57 -16 106 -44 147 -84c40 -41 60 -94 60 -161c0 -93 -36 -168 -108 -227s-167 -88 -286 -88z" />
    <glyph glyph-name="uni0456" unicode="&#x456;" horiz-adv-x="413" 
d="M397 1227h-104l29 149h104zM150 0h-87l201 1028h86z" />
    <glyph glyph-name="uni0457" unicode="&#x457;" horiz-adv-x="413" 
d="M201 1227h-99l27 143h100zM588 1227h-101l29 143h98zM150 0h-87l201 1028h86z" />
    <glyph glyph-name="uni0458" unicode="&#x458;" horiz-adv-x="487" 
d="M463 1227h-105l29 149h105zM-190 -471h-58l15 82h38c164 0 267 102 308 307l217 1110h86l-223 -1147c-47 -235 -174 -352 -383 -352z" />
    <glyph glyph-name="uni0459" unicode="&#x459;" horiz-adv-x="1728" 
d="M983 629h332c112 0 194 -24 247 -71c52 -47 71 -108 58 -181l-27 -135c-13 -79 -55 -139 -125 -180c-71 -41 -159 -62 -266 -62h-426l182 946h-469l-186 -637c-33 -111 -74 -190 -125 -237c-51 -48 -118 -72 -203 -72h-38l14 80h20c65 0 117 19 154 58
c37 38 69 105 98 202l205 688h633zM1516 270l16 92c21 128 -52 187 -236 187h-327l-90 -469h331c78 0 146 17 203 50s92 80 103 140z" />
    <glyph glyph-name="uni045A" unicode="&#x45a;" horiz-adv-x="1753" 
d="M1008 629h331c112 0 194 -24 246 -71s72 -108 60 -181l-27 -135c-13 -79 -55 -139 -126 -180s-159 -62 -265 -62h-426l94 485h-655l-95 -485h-86l199 1028h86l-90 -463h655l90 463h86zM1540 270l16 92c21 128 -52 187 -235 187h-328l-90 -469h332c78 0 146 17 203 50
s91 80 102 140z" />
    <glyph glyph-name="uni045B" unicode="&#x45b;" horiz-adv-x="1134" 
d="M664 1051c120 0 213 -41 280 -123s87 -193 60 -332l-117 -596h-86l114 594c23 117 9 209 -44 276c-53 66 -128 99 -224 99c-83 0 -160 -27 -229 -82c-70 -55 -119 -132 -146 -232l-127 -655h-86l238 1231h-164l17 76h161l54 270h86l-54 -270h285l-14 -76h-285l-68 -348
c89 112 206 168 349 168z" />
    <glyph glyph-name="uni045C" unicode="&#x45c;" horiz-adv-x="970" 
d="M819 1477h103l-275 -316h-92zM907 1028h121l-688 -457l477 -571h-102l-463 551l-107 -551h-86l199 1028h86l-82 -422z" />
    <glyph glyph-name="uni045E" unicode="&#x45e;" horiz-adv-x="1103" 
d="M672 1147c-77 0 -138 22 -183 67c-46 44 -64 101 -55 172h66c-8 -52 5 -94 39 -127s81 -49 141 -49c59 0 110 17 155 50c44 33 69 75 76 126h66c-9 -71 -43 -128 -101 -172c-58 -45 -126 -67 -204 -67zM827 350l131 678h86l-221 -1137c-22 -120 -72 -214 -150 -283
c-79 -68 -175 -102 -288 -102c-104 0 -188 25 -251 75s-92 115 -87 196h84c-1 -56 23 -102 72 -137s111 -52 188 -52c90 0 166 30 229 89c62 60 103 142 123 245l43 217c-85 -108 -195 -162 -331 -162c-115 0 -204 41 -267 122c-64 81 -83 192 -57 331l117 598h86l-115 -594
c-22 -116 -8 -207 42 -274s120 -101 210 -101c77 0 148 25 213 76s113 122 143 215z" />
    <glyph glyph-name="uni045F" unicode="&#x45f;" horiz-adv-x="1146" 
d="M999 1028h88l-200 -1028h-371l-53 -276h-86l53 276h-371l199 1028h86l-182 -948h655z" />
    <glyph glyph-name="uni0462" unicode="&#x462;" horiz-adv-x="1445" 
d="M518 866h395c317 0 445 -117 396 -370l-23 -125c-49 -253 -225 -371 -538 -371h-488l219 1133h-284l16 86h285l43 219h90l-43 -219h479l-16 -86h-480zM1198 395l19 90c21 112 7 189 -41 232c-48 42 -140 63 -275 63h-399l-135 -694h391c253 0 399 88 440 309z" />
    <glyph glyph-name="uni0463" unicode="&#x463;" horiz-adv-x="1026" 
d="M285 629h329c112 0 194 -24 246 -71s72 -108 60 -181l-27 -135c-13 -79 -55 -139 -125 -180c-71 -41 -159 -62 -266 -62h-426l223 1141h-166l17 76h163l70 360h86l-70 -360h283l-14 -76h-283zM815 270l16 92c21 128 -52 187 -235 187h-328l-90 -469h332
c78 0 146 17 203 50s91 80 102 140z" />
    <glyph glyph-name="uni0472" unicode="&#x472;" horiz-adv-x="1294" 
d="M793 1460c169 0 296 -45 379 -135s110 -203 83 -338l-110 -565c-57 -296 -246 -444 -565 -445c-169 0 -296 44 -379 133c-83 88 -112 198 -86 330l110 564c29 142 90 254 183 335s221 121 385 121zM1122 774l41 209c25 120 5 215 -60 286c-65 70 -170 105 -317 105
c-143 0 -252 -34 -326 -102c-75 -69 -124 -166 -149 -293l-37 -186c65 22 126 33 181 32c53 0 132 -16 235 -47c101 -30 179 -45 234 -45c60 0 126 14 198 41zM586 63c143 0 252 33 326 100c73 66 122 160 147 283l45 236c-61 -23 -121 -35 -180 -35c-55 0 -133 15 -234 45
c-104 31 -182 47 -235 47c-65 0 -132 -14 -199 -41l-51 -258c-22 -115 0 -206 66 -274c65 -69 170 -103 315 -103z" />
    <glyph glyph-name="uni0473" unicode="&#x473;" horiz-adv-x="1081" 
d="M610 1051c135 0 238 -38 307 -115s91 -177 66 -301l-49 -254c-52 -260 -210 -404 -459 -404c-135 0 -238 39 -309 116s-95 177 -70 300l51 256c52 260 212 402 463 402zM885 575l12 58c21 105 5 188 -47 247s-133 89 -242 89c-209 0 -335 -114 -379 -342l-8 -41
c45 17 92 25 139 24c45 0 106 -12 183 -35c73 -23 133 -35 182 -34c51 0 104 11 160 34zM477 59c205 0 330 115 375 344l16 84c-48 -18 -96 -27 -143 -26c-48 0 -109 12 -182 35c-77 23 -138 35 -183 34c-49 0 -101 -10 -155 -30l-21 -103c-21 -105 -4 -188 49 -248
s135 -90 244 -90z" />
    <glyph glyph-name="uni0474" unicode="&#x474;" horiz-adv-x="1363" 
d="M1427 1438h39l-16 -86h-20c-65 0 -120 -19 -163 -58s-96 -117 -157 -233l-565 -1061h-115l-201 1438h88l189 -1325l530 983c68 134 129 225 183 272s123 70 208 70z" />
    <glyph glyph-name="uni0475" unicode="&#x475;" horiz-adv-x="1028" 
d="M1063 1028h29l-15 -82h-16c-41 0 -79 -18 -116 -55s-82 -101 -134 -193l-393 -698h-115l-176 1028h86l162 -942l366 653c60 109 114 185 161 227c47 41 101 62 161 62z" />
    <glyph glyph-name="uni048A" unicode="&#x48a;" horiz-adv-x="1443" 
d="M831 1556c-77 0 -138 22 -183 67s-63 102 -54 173h65c-8 -52 5 -94 40 -127c34 -33 81 -49 141 -49c59 0 110 16 155 49c44 33 69 75 76 127h66c-9 -71 -43 -128 -101 -173c-59 -45 -127 -67 -205 -67zM1014 86h272l-117 -362h-90l88 276h-256l246 1264l-1005 -1264h-84
l278 1438h84l-246 -1268l1008 1268h84z" />
    <glyph glyph-name="uni048B" unicode="&#x48b;" horiz-adv-x="1298" 
d="M682 1147c-77 0 -138 22 -183 67c-46 44 -64 101 -55 172h66c-8 -52 5 -94 39 -127s81 -49 141 -49c59 0 110 17 155 50c44 33 70 75 77 126h65c-9 -71 -43 -128 -101 -172c-58 -45 -126 -67 -204 -67zM158 150l833 878h86l-198 -1028h-86l172 883l-834 -883h-88
l199 1028h86zM942 80h211l-45 -356h-86l35 276h-115v80z" />
    <glyph glyph-name="uni048C" unicode="&#x48c;" horiz-adv-x="1445" 
d="M518 866h395c317 0 445 -117 396 -370l-23 -125c-49 -253 -225 -371 -538 -371h-488l219 1133h-284l16 86h285l43 219h90l-43 -219h479l-16 -86h-480zM1198 395l19 90c21 112 7 189 -41 232c-48 42 -140 63 -275 63h-399l-135 -694h391c253 0 399 88 440 309z" />
    <glyph glyph-name="uni048D" unicode="&#x48d;" horiz-adv-x="1026" 
d="M285 629h329c112 0 194 -24 246 -71s72 -108 60 -181l-27 -135c-13 -79 -55 -139 -125 -180c-71 -41 -159 -62 -266 -62h-426l223 1141h-166l17 76h163l70 360h86l-70 -360h283l-14 -76h-283zM815 270l16 92c21 128 -52 187 -235 187h-328l-90 -469h332
c78 0 146 17 203 50s91 80 102 140z" />
    <glyph glyph-name="uni048E" unicode="&#x48e;" horiz-adv-x="1255" 
d="M350 1438h512c315 0 443 -120 398 -371l-27 -129c-44 -228 -195 -351 -453 -369l107 -184l-60 -37l-125 217h-6h-426l-108 -565h-90zM1147 961l18 94c21 113 7 191 -40 234c-48 42 -140 63 -275 63h-426l-135 -701h364l-100 174l59 35l121 -209c237 5 375 97 414 310z
" />
    <glyph glyph-name="uni048F" unicode="&#x48f;" horiz-adv-x="1142" 
d="M662 1051c121 0 216 -39 284 -117c67 -78 89 -178 64 -299l-49 -252c-29 -142 -89 -247 -181 -315l117 -201l-68 -41l-114 199c-65 -31 -138 -47 -217 -48c-156 0 -275 62 -324 177l-121 -625h-86l291 1499h68l-13 -135c79 105 195 158 349 158zM879 403l43 228
c21 104 5 186 -47 247s-127 91 -226 91c-203 0 -317 -98 -377 -314l-59 -299c-19 -196 95 -297 287 -297c200 0 335 121 379 344z" />
    <glyph glyph-name="uni0490" unicode="&#x490;" horiz-adv-x="1093" 
d="M1106 1438l41 211h90l-57 -297h-756l-262 -1352h-90l278 1438h756z" />
    <glyph glyph-name="uni0491" unicode="&#x491;" horiz-adv-x="831" 
d="M809 1028l41 211h86l-57 -293h-551l-183 -946h-86l199 1028h551z" />
    <glyph glyph-name="uni0492" unicode="&#x492;" horiz-adv-x="1302" 
d="M1405 1438l-16 -86h-756l-109 -564h457l-14 -86h-461l-135 -702h-90l135 702h-301l14 86h305l125 650h846z" />
    <glyph glyph-name="uni0493" unicode="&#x493;" horiz-adv-x="864" 
d="M928 1028l-15 -82h-551l-75 -393h364l-16 -76h-363l-92 -477h-86l92 477h-163l16 76h162l92 475h635z" />
    <glyph glyph-name="uni0494" unicode="&#x494;" horiz-adv-x="1257" 
d="M1225 1438l-17 -86h-784l-94 -486h360c339 0 481 -129 426 -413l-63 -318c-57 -281 -240 -401 -568 -401h-268l16 86h263c139 0 247 26 323 77c75 52 125 140 150 263l53 282c25 125 11 213 -42 263s-152 75 -298 75h-369l-151 -780h-90l278 1438h875z" />
    <glyph glyph-name="uni0495" unicode="&#x495;" horiz-adv-x="1011" 
d="M256 578h354c103 0 179 -28 228 -83s64 -130 45 -225l-47 -245c-18 -91 -61 -163 -128 -214c-68 -51 -152 -77 -251 -77h-281l17 80h270c156 0 260 82 291 235l43 219c30 151 -35 227 -195 228h-360l-97 -496h-86l199 1028h635l-14 -82h-551z" />
    <glyph glyph-name="uni0496" unicode="&#x496;" horiz-adv-x="1896" 
d="M1081 733l494 -647h162l-17 -86l-53 -276h-90l53 276h-94l-551 709l-137 -709h-90l137 702l-821 -702h-117l854 748l-535 690h103l530 -666l129 666h90l-129 -658l770 658h117z" />
    <glyph glyph-name="uni0497" unicode="&#x497;" horiz-adv-x="1605" 
d="M1319 80h164l-68 -356h-86l53 276h-96l-465 549l-106 -549h-86l106 543l-669 -543h-113l711 582l-500 446h108l476 -416l81 416h86l-81 -422l643 422h120l-688 -457z" />
    <glyph glyph-name="uni0498" unicode="&#x498;" horiz-adv-x="1230" 
d="M801 1460c142 0 250 -33 323 -98s99 -151 78 -258l-18 -96c-23 -127 -98 -218 -223 -273c112 -59 154 -157 126 -295l-20 -108c-21 -109 -77 -195 -170 -257s-207 -95 -344 -98l-45 -290h-98l67 293c-139 9 -243 48 -310 116c-67 67 -90 154 -69 260l21 105h90l-21 -101
c-36 -188 93 -297 353 -297c120 0 219 25 297 75c77 50 125 121 143 212l14 84c33 169 -48 262 -239 262h-271l17 84h260c183 0 307 91 338 250l12 72c36 175 -82 272 -317 272c-262 0 -411 -99 -447 -297l-16 -78h-88l18 97c21 115 78 204 172 268c93 64 216 96 367 96z
" />
    <glyph glyph-name="uni0499" unicode="&#x499;" horiz-adv-x="1044" 
d="M612 1051c120 0 209 -26 268 -78c58 -52 79 -119 62 -201l-4 -27c-21 -101 -77 -171 -170 -210c101 -35 139 -118 113 -248l-4 -25c-38 -186 -178 -281 -420 -285l-45 -290h-99l68 293c-219 19 -318 131 -299 335l2 11h86l-2 -15c-13 -172 73 -256 281 -256
c198 0 312 72 342 215l6 25c26 131 -35 197 -183 197h-237l14 75h199c149 0 236 62 262 185l4 24c24 120 -67 197 -252 197c-208 0 -339 -90 -350 -254l-2 -14h-86l4 18c8 107 52 188 131 244s182 84 311 84z" />
    <glyph glyph-name="uni049A" unicode="&#x49a;" horiz-adv-x="1206" 
d="M395 733l492 -647h160l-17 -86l-53 -276h-90l53 276h-90l-551 709l-137 -709h-90l278 1438h90l-127 -658l768 658h119z" />
    <glyph glyph-name="uni049B" unicode="&#x49b;" horiz-adv-x="1038" 
d="M750 80h165l-67 -356h-86l53 276h-100l-463 551l-107 -551h-86l199 1028h86l-82 -422l645 422h121l-688 -457z" />
    <glyph glyph-name="uni049C" unicode="&#x49c;" horiz-adv-x="1130" 
d="M1122 1438h101l-527 -711l267 -727h-95l-260 696h-114l-66 -336h-72l66 336h-125l-135 -696h-90l278 1438h90l-127 -656h125l66 336h71l-65 -336h115z" />
    <glyph glyph-name="uni049D" unicode="&#x49d;" horiz-adv-x="964" 
d="M922 1028h98l-424 -459l213 -569h-88l-195 537h-112l-47 -242h-56l47 242h-108l-105 -537h-86l199 1028h86l-78 -407h109l47 243h55l-47 -243h117z" />
    <glyph glyph-name="uni049E" unicode="&#x49e;" horiz-adv-x="1212" 
d="M1174 1438h118l-805 -705l557 -733h-102l-551 709l-137 -709h-90l219 1133h-188l16 86h188l43 219h90l-43 -219h236l-16 -86h-236l-67 -353z" />
    <glyph glyph-name="uni049F" unicode="&#x49f;" horiz-adv-x="997" 
d="M934 1028h121l-688 -457l477 -571h-103l-458 545l-107 -545h-86l238 1223h-140l15 82h139l53 272h88l-53 -272h307l-14 -82h-309l-119 -613z" />
    <glyph glyph-name="uni04A0" unicode="&#x4a0;" horiz-adv-x="1329" 
d="M1290 1438h119l-805 -705l557 -733h-102l-551 709l-137 -709h-90l262 1352h-303l16 86h393l-127 -658z" />
    <glyph glyph-name="uni04A1" unicode="&#x4a1;" horiz-adv-x="1052" 
d="M989 1028h121l-688 -457l477 -571h-102l-463 551l-107 -551h-86l183 946h-209l14 82h297l-82 -422z" />
    <glyph glyph-name="uni04A2" unicode="&#x4a2;" horiz-adv-x="1449" 
d="M1319 1438l-264 -1352h235l-71 -362h-89l54 276h-236l131 672h-786l-131 -672h-90l278 1438h90l-131 -680h787l133 680h90z" />
    <glyph glyph-name="uni04A3" unicode="&#x4a3;" horiz-adv-x="1183" 
d="M903 80h160l-68 -356h-86l54 276h-162l94 485h-655l-95 -485h-86l199 1028h86l-90 -463h655l90 463h88z" />
    <glyph glyph-name="uni04A4" unicode="&#x4a4;" horiz-adv-x="1972" 
d="M1229 1438h846l-17 -86h-755l-265 -1352h-90l131 672h-786l-131 -672h-90l278 1438h90l-131 -680h787z" />
    <glyph glyph-name="uni04A5" unicode="&#x4a5;" horiz-adv-x="1572" 
d="M999 1028h635l-14 -82h-549l-184 -946h-86l94 485h-655l-95 -485h-86l199 1028h86l-90 -463h655z" />
    <glyph glyph-name="uni04A6" unicode="&#x4a6;" horiz-adv-x="2134" 
d="M1208 866h359c341 0 483 -129 426 -413l-62 -318c-57 -281 -241 -401 -569 -401h-268l16 86h264c138 0 245 26 321 77c75 52 125 140 150 263l53 282c25 125 11 213 -41 263c-53 50 -152 75 -298 75h-369l-152 -780h-90l264 1352h-788l-262 -1352h-90l278 1438h969z" />
    <glyph glyph-name="uni04A7" unicode="&#x4a7;" horiz-adv-x="1753" 
d="M999 578h353c103 0 179 -28 228 -83s63 -130 44 -225l-47 -245c-18 -91 -61 -163 -128 -214s-151 -77 -251 -77h-278l14 80h270c163 0 260 78 291 235l43 219c30 151 -35 227 -195 228h-360l-96 -496h-86l182 946h-655l-183 -946h-86l199 1028h829z" />
    <glyph glyph-name="uni04A8" unicode="&#x4a8;" horiz-adv-x="1353" 
d="M1008 1122c105 0 182 -31 229 -94s59 -147 37 -254l-66 -342c-29 -142 -92 -253 -189 -334c-98 -81 -234 -121 -409 -121c-21 0 -36 1 -45 3c11 -107 76 -160 195 -160h231l-16 -86h-225c-169 0 -270 93 -275 254c-134 22 -233 76 -296 161s-84 185 -62 302l102 520
c27 145 91 259 191 342c99 83 236 125 409 125h221l-16 -86h-211c-285 0 -455 -135 -510 -406l-96 -493c-39 -200 55 -342 274 -379c3 5 1 15 4 18l133 686c22 108 68 192 137 253s153 91 253 91zM1122 459l62 307c37 180 -24 270 -183 270c-160 0 -259 -93 -296 -278
l-132 -666c-3 -13 -4 -22 -4 -26c9 -1 25 -2 47 -3c303 0 457 141 506 396z" />
    <glyph glyph-name="uni04A9" unicode="&#x4a9;" horiz-adv-x="1105" 
d="M750 745c82 0 145 -25 189 -75c43 -51 56 -118 38 -201l-27 -123c-52 -246 -206 -369 -461 -369c-22 0 -38 1 -47 3c-9 -109 39 -164 144 -164h192l-16 -82h-182c-164 0 -248 99 -224 260c-97 23 -169 71 -216 144c-48 72 -62 160 -42 263l45 230c53 265 221 397 502 397
h246l-14 -82h-248c-227 0 -357 -103 -404 -338l-39 -205c-36 -172 39 -289 187 -329l80 407c33 169 138 264 297 264zM872 371l19 92c27 131 -26 201 -143 201c-116 0 -188 -69 -216 -207l-77 -396c8 -1 19 -2 34 -2c213 0 335 91 383 312z" />
    <glyph glyph-name="uni04AA" unicode="&#x4aa;" horiz-adv-x="1290" 
d="M791 1460c169 0 295 -42 377 -127c81 -85 110 -194 85 -327l-12 -66h-90l12 61c44 237 -86 373 -379 373c-142 0 -250 -34 -324 -102c-75 -69 -124 -166 -149 -293l-106 -539c-22 -115 0 -206 66 -274c65 -69 170 -103 315 -103c142 0 250 32 323 97
c73 64 121 157 146 280l12 62h90l-16 -88c-57 -281 -236 -427 -537 -437l-45 -290h-98l67 293c-153 9 -266 57 -339 142c-74 85 -99 191 -74 318l110 566c29 142 90 253 183 334c93 80 220 120 383 120z" />
    <glyph glyph-name="uni04AB" unicode="&#x4ab;" horiz-adv-x="1062" 
d="M604 1051c127 0 225 -34 296 -102c71 -69 96 -156 75 -261l-6 -37h-88l6 33c17 89 -2 158 -55 209s-130 76 -230 76c-196 0 -329 -120 -373 -344l-45 -226c-21 -104 -4 -187 51 -248s134 -92 238 -92c193 0 309 97 350 291l6 27h86l-10 -47c-47 -227 -203 -353 -432 -353
h-10l-45 -290h-99l68 297c-105 18 -185 64 -239 138c-55 74 -72 165 -52 273l49 252c26 129 79 228 160 299c81 70 180 105 299 105z" />
    <glyph glyph-name="uni04AC" unicode="&#x4ac;" horiz-adv-x="1138" 
d="M1292 1438l-16 -86h-498l-248 -1266h234l-16 -86l-54 -276h-90l53 276h-233l264 1352h-498l17 86h1085z" />
    <glyph glyph-name="uni04AD" unicode="&#x4ad;" horiz-adv-x="897" 
d="M963 1028l-17 -82h-371l-165 -866h157l-67 -356h-86l53 276h-160l182 946h-368l14 82h828z" />
    <glyph glyph-name="uni04AE" unicode="&#x4ae;" horiz-adv-x="1112" 
d="M1137 1438h102l-631 -865l-112 -573h-88l110 580l-289 858h93l258 -758z" />
    <glyph glyph-name="uni04AF" unicode="&#x4af;" horiz-adv-x="907" 
d="M879 1028h102l-498 -592l-86 -436h-86l86 440l-270 588h92l234 -500z" />
    <glyph glyph-name="uni04B0" unicode="&#x4b0;" horiz-adv-x="1105" 
d="M1229 1438l-631 -865l-37 -180h336v-86h-352l-60 -307h-88l60 307h-254v86h270l35 187l-289 858h92l258 -758l557 758h103z" />
    <glyph glyph-name="uni04B1" unicode="&#x4b1;" horiz-adv-x="909" 
d="M981 1028l-498 -592l-22 -114h223l-14 -76h-226l-47 -246h-86l47 246h-223l17 76h223l22 118l-270 588h92l234 -500l426 500h102z" />
    <glyph glyph-name="uni04B2" unicode="&#x4b2;" horiz-adv-x="1251" 
d="M680 723l287 -637h125l-17 -86l-53 -276h-90l53 276h-74l-297 659l-559 -659h-104l624 745l-311 693h94l283 -627l526 627h105z" />
    <glyph glyph-name="uni04B3" unicode="&#x4b3;" horiz-adv-x="989" 
d="M733 80h135l-67 -356h-86l53 276h-88l-240 446l-411 -446h-101l471 520l-272 508h94l240 -446l413 446h103l-475 -520z" />
    <glyph glyph-name="uni04B4" unicode="&#x4b4;" horiz-adv-x="1656" 
d="M1526 1438l-262 -1352h233l-16 -86l-54 -276h-90l54 276h-1110l262 1352h-303l16 86h840l-17 -86h-446l-248 -1266h789l264 1352h88z" />
    <glyph glyph-name="uni04B5" unicode="&#x4b5;" horiz-adv-x="1218" 
d="M938 80h158l-68 -356h-86l53 276h-901l185 952h-164l14 76h594l-12 -76h-346l-168 -872h655l182 948h86z" />
    <glyph glyph-name="uni04B6" unicode="&#x4b6;" horiz-adv-x="1382" 
d="M1253 1438l-264 -1352h234l-70 -362h-90l53 276h-233l127 653c-91 -103 -216 -154 -375 -153c-154 0 -268 44 -342 131s-98 197 -72 330l92 477h90l-92 -475c-22 -115 -4 -206 54 -274c57 -69 150 -103 278 -103c107 0 196 27 268 81c71 54 119 122 142 203l110 568h90z
" />
    <glyph glyph-name="uni04B7" unicode="&#x4b7;" horiz-adv-x="1155" 
d="M864 80h158l-68 -356h-86l54 276h-160l88 457c-87 -112 -201 -168 -342 -168c-245 0 -362 157 -307 444l57 295h86l-55 -285c-47 -240 36 -372 235 -372c83 0 159 28 227 83c67 55 115 129 142 220l68 354h86z" />
    <glyph glyph-name="uni04B8" unicode="&#x4b8;" horiz-adv-x="1245" 
d="M1053 870l110 568h90l-280 -1438h-90l127 653c-91 -103 -216 -154 -375 -153l-66 -338h-69l65 342c-131 13 -228 62 -289 147s-80 188 -55 310l92 477h90l-92 -475c-19 -105 -6 -191 41 -258s123 -106 230 -117l65 334h70l-66 -336c105 1 193 29 263 83
c69 54 116 121 139 201z" />
    <glyph glyph-name="uni04B9" unicode="&#x4b9;" horiz-adv-x="1095" 
d="M881 674l67 354h86l-198 -1028h-86l88 457c-79 -105 -186 -161 -320 -168l-47 -244h-55l47 244c-224 13 -326 171 -275 444l58 295h86l-56 -285c-44 -227 28 -357 203 -370l47 241h56l-47 -243c79 5 150 35 212 90s107 126 134 213z" />
    <glyph glyph-name="uni04BA" unicode="&#x4ba;" horiz-adv-x="1243" 
d="M694 948c153 0 266 -44 340 -132s98 -198 72 -331l-96 -485h-90l96 485c22 113 4 205 -54 274c-59 69 -152 103 -280 103c-113 0 -206 -30 -279 -90s-118 -134 -135 -223l-106 -549h-90l278 1438h90l-125 -643c91 102 218 153 379 153z" />
    <glyph glyph-name="uni04BB" unicode="&#x4bb;" horiz-adv-x="1134" 
d="M664 1051c120 0 213 -41 280 -123s87 -193 60 -332l-117 -596h-86l114 594c23 117 9 209 -44 276c-53 66 -128 99 -224 99c-83 0 -160 -27 -229 -82c-70 -55 -119 -132 -146 -232l-127 -655h-86l306 1577h86l-136 -694c89 112 206 168 349 168z" />
    <glyph glyph-name="uni04BC" unicode="&#x4bc;" horiz-adv-x="1611" 
d="M1112 1460c168 0 293 -45 376 -134s111 -201 85 -335l-51 -266h-942l-56 -285c-22 -115 0 -206 66 -274c65 -69 170 -103 315 -103c146 0 259 35 340 104s124 162 131 279l8 48h93l-15 -72c-25 -138 -83 -247 -176 -326s-222 -119 -387 -119c-169 0 -296 44 -379 132
c-83 87 -112 198 -86 331l55 285c-120 3 -209 40 -266 112c-57 71 -74 174 -49 308l19 94h83l-20 -102c-41 -210 43 -319 250 -326l39 195c29 142 89 253 182 334c93 80 221 120 385 120zM1448 811l35 174c25 120 4 215 -61 285c-66 69 -171 104 -316 104
c-142 0 -250 -34 -325 -102c-75 -69 -125 -166 -150 -293l-33 -168h850z" />
    <glyph glyph-name="uni04BD" unicode="&#x4bd;" horiz-adv-x="1253" 
d="M797 1051c127 0 224 -38 293 -115c68 -77 90 -176 67 -297l-29 -150h-737l-18 -92c-21 -105 -4 -189 50 -250s134 -92 239 -92c188 0 313 104 352 297h86c-23 -120 -73 -212 -150 -277s-173 -98 -288 -98c-133 0 -235 39 -306 118c-72 79 -96 179 -71 300l18 99
c-177 24 -252 138 -219 315l14 74h78l-14 -82c-23 -134 28 -212 155 -234l17 80c26 129 80 228 162 299c82 70 182 105 301 105zM403 559h13h639l14 72c21 105 5 189 -46 250s-128 92 -230 92c-196 0 -333 -121 -377 -348z" />
    <glyph glyph-name="uni04BE" unicode="&#x4be;" horiz-adv-x="1611" 
d="M1112 1460c168 0 293 -45 376 -134s111 -201 85 -335l-51 -266h-942l-56 -285c-22 -115 0 -206 66 -274c65 -69 170 -103 315 -103c146 0 259 35 340 104s124 162 131 279l8 48h93l-15 -72c-25 -138 -83 -247 -176 -326s-222 -119 -387 -119h-16l-45 -290h-99l68 295
c-139 18 -242 69 -308 153c-67 83 -88 185 -65 305l55 285c-120 3 -209 40 -266 112c-57 71 -74 174 -49 308l19 94h83l-20 -102c-41 -210 43 -319 250 -326l39 195c29 142 89 253 182 334c93 80 221 120 385 120zM1448 811l35 174c25 120 4 215 -61 285
c-66 69 -171 104 -316 104c-142 0 -250 -34 -325 -102c-75 -69 -125 -166 -150 -293l-33 -168h850z" />
    <glyph glyph-name="uni04BF" unicode="&#x4bf;" horiz-adv-x="1253" 
d="M797 1051c127 0 224 -38 293 -115c68 -77 90 -176 67 -297l-29 -150h-737l-18 -92c-21 -105 -4 -189 50 -250s134 -92 239 -92c188 0 313 104 352 297h86c-23 -120 -73 -212 -150 -277s-173 -98 -288 -98h-19l-45 -290h-98l67 299c-105 18 -184 64 -236 139
c-53 74 -68 164 -46 270l18 99c-177 24 -252 138 -219 315l14 74h78l-14 -82c-23 -134 28 -212 155 -234l17 80c26 129 80 228 162 299c82 70 182 105 301 105zM403 559h13h639l14 72c21 105 5 189 -46 250s-128 92 -230 92c-196 0 -333 -121 -377 -348z" />
    <glyph glyph-name="uni04C0" unicode="&#x4c0;" horiz-adv-x="434" 
d="M162 0h-90l278 1438h90z" />
    <glyph glyph-name="uni04C1" unicode="&#x4c1;" horiz-adv-x="1806" 
d="M1104 1556c-77 0 -138 22 -183 67c-46 45 -64 102 -55 173h66c-8 -52 5 -94 39 -127s81 -49 141 -49c59 0 110 16 155 49c44 33 69 75 76 127h66c-9 -71 -43 -128 -101 -173s-126 -67 -204 -67zM1769 1438h117l-805 -705l559 -733h-104l-551 709l-137 -709h-90l137 702
l-821 -702h-117l854 748l-535 690h103l530 -666l129 666h90l-129 -658z" />
    <glyph glyph-name="uni04C2" unicode="&#x4c2;" horiz-adv-x="1540" 
d="M893 1147c-77 0 -138 22 -183 67c-46 44 -64 101 -55 172h66c-8 -52 5 -94 39 -127s81 -49 141 -49c59 0 110 17 155 50c44 33 70 75 77 126h65c-9 -71 -43 -128 -101 -172c-58 -45 -126 -67 -204 -67zM1477 1028h120l-688 -457l477 -571h-100l-465 549l-106 -549h-86
l106 543l-669 -543h-113l711 582l-500 446h108l476 -416l81 416h86l-81 -422z" />
    <glyph glyph-name="uni04C3" unicode="&#x4c3;" horiz-adv-x="1261" 
d="M432 774h244c339 0 481 -135 426 -414l-45 -225c-55 -276 -243 -403 -568 -403h-268l17 86h262c276 0 426 99 473 340l35 192c25 123 11 210 -42 261s-152 77 -298 77h-373l-133 -688h-90l278 1438h90l-127 -654l764 654h119z" />
    <glyph glyph-name="uni04C4" unicode="&#x4c4;" horiz-adv-x="1030" 
d="M383 578h246c103 0 178 -28 227 -83c48 -55 63 -130 45 -225l-47 -245c-18 -91 -61 -163 -128 -214s-151 -77 -251 -77h-299l17 80h286c164 0 262 78 293 235l43 219c30 151 -35 227 -194 228h-379l-97 -496h-86l199 1028h86l-86 -448l651 448h119z" />
    <glyph glyph-name="uni04C5" unicode="&#x4c5;" horiz-adv-x="1628" 
d="M659 1438h723l-278 -1438h-90l262 1352h-553l-287 -957c-79 -263 -221 -395 -424 -395h-45l17 86h24c172 0 276 111 344 338zM1157 86h289l-47 -362h-90l37 276h-189v86z" />
    <glyph glyph-name="uni04C6" unicode="&#x4c6;" horiz-adv-x="1155" 
d="M879 80h155l-112 -356h-88l88 276h-146l182 946h-469l-186 -637c-33 -111 -74 -190 -125 -237c-51 -48 -118 -72 -203 -72h-38l14 80h20c65 0 117 19 154 58c37 38 69 105 98 202l205 688h633z" />
    <glyph glyph-name="uni04C7" unicode="&#x4c7;" horiz-adv-x="1310" 
d="M1096 758l133 680h90l-295 -1508c-23 -123 -80 -220 -170 -293c-90 -72 -200 -108 -330 -108h-86l17 86h77c105 0 194 30 267 89c72 59 118 142 139 249l141 719h-786l-131 -672h-90l278 1438h90l-131 -680h787z" />
    <glyph glyph-name="uni04C8" unicode="&#x4c8;" horiz-adv-x="1144" 
d="M909 565l90 463h86l-223 -1147c-44 -235 -170 -352 -377 -352h-63l16 82h39c164 0 266 102 307 307l111 567h-655l-95 -485h-86l199 1028h86l-90 -463h655z" />
    <glyph glyph-name="uni04C9" unicode="&#x4c9;" horiz-adv-x="1447" 
d="M1319 1438l-264 -1352h233l-117 -362h-90l88 276h-221l131 672h-786l-131 -672h-90l278 1438h90l-131 -680h787l133 680h90z" />
    <glyph glyph-name="uni04CA" unicode="&#x4ca;" horiz-adv-x="1179" 
d="M903 80h156l-113 -356h-88l88 276h-145l94 485h-655l-95 -485h-86l199 1028h86l-90 -463h655l90 463h88z" />
    <glyph glyph-name="uni04CB" unicode="&#x4cb;" horiz-adv-x="1245" 
d="M1053 870l110 568h90l-280 -1438h-232l-53 -276h-90l70 362h231l111 567c-91 -103 -216 -154 -375 -153c-154 0 -268 44 -342 131s-98 197 -72 330l92 477h90l-92 -475c-22 -115 -4 -206 54 -274c57 -69 150 -103 278 -103c107 0 196 27 268 81c71 54 119 122 142 203z
" />
    <glyph glyph-name="uni04CC" unicode="&#x4cc;" horiz-adv-x="1095" 
d="M881 674l67 354h86l-198 -1028h-164l-51 -276h-86l63 337h164l76 396c-87 -112 -201 -168 -342 -168c-245 0 -363 157 -308 444l58 295h86l-56 -285c-47 -240 36 -372 236 -372c83 0 159 28 227 83c67 55 115 129 142 220z" />
    <glyph glyph-name="uni04CD" unicode="&#x4cd;" horiz-adv-x="1650" 
d="M1522 1438l-265 -1352h234l-117 -362h-90l88 276h-213l246 1270l-711 -1270h-76l3 4l-220 1266l-247 -1270h-82l278 1438h103l229 -1284l735 1284h105z" />
    <glyph glyph-name="uni04CE" unicode="&#x4ce;" horiz-adv-x="1320" 
d="M1042 80h156l-113 -356h-88l88 276h-145l168 856l-535 -856h-59l-203 862l-168 -862h-84l199 1028h102l205 -901l559 901h103z" />
    <glyph glyph-name="uni04CF" unicode="&#x4cf;" horiz-adv-x="415" 
d="M152 0h-89l201 1028h86z" />
    <glyph glyph-name="uni04D0" unicode="&#x4d0;" horiz-adv-x="1183" 
d="M788 1556c-77 0 -138 22 -183 67s-63 102 -54 173h65c-8 -52 5 -94 40 -127c34 -33 81 -49 141 -49c59 0 110 16 155 49c44 33 69 75 76 127h66c-9 -71 -43 -128 -101 -173c-59 -45 -127 -67 -205 -67zM-49 0l760 1438h114l205 -1438h-84l-69 467h-586l-252 -467h-88z
M862 553l-112 790l-412 -790h524z" />
    <glyph glyph-name="uni04D1" unicode="&#x4d1;" horiz-adv-x="1107" 
d="M659 1147c-77 0 -138 22 -183 67c-45 44 -63 101 -54 172h65c-8 -52 5 -94 40 -127c34 -33 81 -49 141 -49c59 0 110 17 155 50c44 33 69 75 76 126h66c-9 -71 -43 -128 -101 -172c-59 -45 -127 -67 -205 -67zM930 864l49 164h70l-201 -1028h-66l13 137
c-78 -107 -191 -160 -340 -160c-124 0 -221 39 -290 116s-92 178 -69 302l49 252c52 257 214 404 451 404c78 0 147 -17 207 -50c60 -34 102 -80 127 -137zM473 59c185 0 317 106 361 306l59 313c9 89 -14 159 -70 212s-130 79 -223 79c-203 0 -327 -115 -371 -344l-45 -226
c-21 -105 -4 -188 51 -249s134 -91 238 -91z" />
    <glyph glyph-name="uni04D2" unicode="&#x4d2;" horiz-adv-x="1183" 
d="M590 1780h100l-28 -144h-99zM948 1636l29 144h98l-26 -144h-101zM-49 0l760 1438h114l205 -1438h-84l-69 467h-586l-252 -467h-88zM862 553l-112 790l-412 -790h524z" />
    <glyph glyph-name="uni04D3" unicode="&#x4d3;" horiz-adv-x="1107" 
d="M461 1370h100l-29 -143h-98zM848 1370h98l-26 -143h-101zM930 864l49 164h70l-201 -1028h-66l13 137c-78 -107 -191 -160 -340 -160c-124 0 -221 39 -290 116s-92 178 -69 302l49 252c52 257 214 404 451 404c78 0 147 -17 207 -50c60 -34 102 -80 127 -137zM473 59
c185 0 317 106 361 306l59 313c9 89 -14 159 -70 212s-130 79 -223 79c-203 0 -327 -115 -371 -344l-45 -226c-21 -105 -4 -188 51 -249s134 -91 238 -91z" />
    <glyph glyph-name="uni04D4" unicode="&#x4d4;" horiz-adv-x="1929" 
d="M1978 1438l-18 -86h-754l-114 -594h655l-16 -86h-656l-114 -586h753l-16 -86h-844l94 483h-588l-311 -483h-98l921 1438h1106zM414 567h551l151 785h-201z" />
    <glyph glyph-name="uni04D5" unicode="&#x4d5;" horiz-adv-x="1771" 
d="M1341 1051c116 0 207 -38 272 -115s85 -176 62 -297l-28 -152h-717l-17 -88c-21 -104 -4 -186 49 -246s133 -90 238 -90c177 0 294 101 330 289h88c-22 -120 -70 -212 -143 -277c-74 -65 -165 -98 -273 -98c-164 0 -284 71 -336 191l-51 -168h-51l12 129
c-77 -101 -183 -152 -319 -152c-125 0 -223 39 -292 117s-92 179 -67 303l49 250c52 260 212 404 449 404c148 0 271 -70 319 -187l50 164h49l-10 -133c84 104 196 156 337 156zM475 63c180 0 309 111 344 322l51 262c17 97 -1 174 -54 232c-53 57 -124 86 -214 86
c-203 0 -326 -113 -369 -340l-45 -224c-21 -105 -4 -188 50 -248s133 -90 237 -90zM956 625l-10 -52h627l10 56c21 104 7 186 -41 246s-120 90 -215 90c-193 0 -327 -116 -371 -340z" />
    <glyph glyph-name="uni04D6" unicode="&#x4d6;" horiz-adv-x="1146" 
d="M788 1556c-77 0 -138 22 -183 67s-63 102 -54 173h65c-8 -52 5 -94 40 -127c34 -33 81 -49 141 -49c59 0 110 16 155 49c44 33 69 75 76 127h66c-9 -71 -43 -128 -101 -173c-59 -45 -127 -67 -205 -67zM1194 1438l-16 -86h-754l-115 -594h656l-17 -86h-655l-115 -586h754
l-17 -86h-843l278 1438h844z" />
    <glyph glyph-name="uni04D7" unicode="&#x4d7;" horiz-adv-x="1067" 
d="M655 1147c-77 0 -138 22 -183 67c-46 44 -64 101 -54 172h65c-8 -52 5 -94 39 -127s81 -49 142 -49c59 0 110 17 155 50c44 33 69 75 76 126h66c-9 -71 -43 -128 -101 -172c-59 -45 -127 -67 -205 -67zM608 1051c127 0 225 -38 294 -115s92 -176 69 -297l-29 -152h-735
l-19 -88c-21 -104 -4 -186 50 -246s133 -90 237 -90c193 0 309 96 348 289h90c-23 -120 -74 -212 -151 -277c-78 -65 -174 -98 -289 -98c-133 0 -234 39 -305 117s-95 178 -72 301l51 252c26 129 80 228 161 299c81 70 181 105 300 105zM233 625l-10 -52h645l11 56
c21 104 5 186 -46 246s-128 90 -229 90c-193 0 -327 -119 -371 -340z" />
    <glyph glyph-name="uni04D8" unicode="&#x4d8;" horiz-adv-x="1292" 
d="M795 1460c169 0 295 -45 377 -134c81 -89 109 -202 83 -339l-110 -565c-57 -296 -246 -444 -565 -445c-168 0 -294 44 -377 133c-83 88 -112 198 -86 330l53 273h940l53 270c25 120 5 215 -60 286c-65 70 -170 105 -315 105c-143 0 -251 -32 -322 -96
c-72 -64 -123 -159 -153 -285l-10 -55h-90l16 80c63 295 252 442 566 442zM586 63c143 0 252 33 326 100c73 66 122 160 147 283l35 181h-852l-35 -187c-22 -115 0 -206 65 -274c65 -69 169 -103 314 -103z" />
    <glyph glyph-name="uni04D9" unicode="&#x4d9;" horiz-adv-x="1062" 
d="M602 1051c135 0 236 -38 303 -115c66 -77 87 -177 62 -301l-49 -254c-55 -263 -214 -404 -465 -404c-129 0 -227 34 -294 102c-68 67 -92 154 -73 259l39 201h735l19 92c41 213 -59 340 -283 340c-198 0 -315 -93 -352 -279l-6 -22h-86l8 41c21 107 70 190 148 250
c77 60 175 90 294 90zM455 55c207 0 334 115 379 346l12 64h-647l-23 -115c-19 -89 -4 -160 46 -214s128 -81 233 -81z" />
    <glyph glyph-name="uni04DA" unicode="&#x4da;" horiz-adv-x="1292" 
d="M649 1780h101l-29 -144h-98zM1036 1780h99l-27 -144h-100zM795 1460c169 0 295 -45 377 -134c81 -89 109 -202 83 -339l-110 -565c-57 -296 -246 -444 -565 -445c-168 0 -294 44 -377 133c-83 88 -112 198 -86 330l53 273h940l53 270c25 120 5 215 -60 286
c-65 70 -170 105 -315 105c-143 0 -251 -32 -322 -96c-72 -64 -123 -159 -153 -285l-10 -55h-90l16 80c63 295 252 442 566 442zM586 63c143 0 252 33 326 100c73 66 122 160 147 283l35 181h-852l-35 -187c-22 -115 0 -206 65 -274c65 -69 169 -103 314 -103z" />
    <glyph glyph-name="uni04DB" unicode="&#x4db;" horiz-adv-x="1062" 
d="M446 1370h101l-29 -143h-98zM834 1370h98l-27 -143h-100zM602 1051c135 0 236 -38 303 -115c66 -77 87 -177 62 -301l-49 -254c-55 -263 -214 -404 -465 -404c-129 0 -227 34 -294 102c-68 67 -92 154 -73 259l39 201h735l19 92c41 213 -59 340 -283 340
c-198 0 -315 -93 -352 -279l-6 -22h-86l8 41c21 107 70 190 148 250c77 60 175 90 294 90zM455 55c207 0 334 115 379 346l12 64h-647l-23 -115c-19 -89 -4 -160 46 -214s128 -81 233 -81z" />
    <glyph glyph-name="uni04DC" unicode="&#x4dc;" horiz-adv-x="1806" 
d="M905 1780h101l-29 -144h-98zM1292 1780h99l-27 -144h-100zM1769 1438h117l-805 -705l559 -733h-104l-551 709l-137 -709h-90l137 702l-821 -702h-117l854 748l-535 690h103l530 -666l129 666h90l-129 -658z" />
    <glyph glyph-name="uni04DD" unicode="&#x4dd;" horiz-adv-x="1540" 
d="M694 1370h101l-29 -143h-98zM1081 1370h99l-27 -143h-100zM1477 1028h120l-688 -457l477 -571h-100l-465 549l-106 -549h-86l106 543l-669 -543h-113l711 582l-500 446h108l476 -416l81 416h86l-81 -422z" />
    <glyph glyph-name="uni04DE" unicode="&#x4de;" horiz-adv-x="1230" 
d="M618 1780h101l-29 -144h-98zM1006 1780h98l-27 -144h-100zM801 1460c142 0 250 -33 323 -98s99 -151 78 -258l-18 -96c-23 -127 -98 -218 -223 -273c112 -59 154 -157 126 -295l-20 -108c-22 -112 -81 -199 -177 -261c-97 -63 -215 -94 -355 -94c-157 0 -275 35 -354 105
c-79 69 -106 161 -83 274l21 105h90l-21 -101c-36 -188 93 -297 353 -297c120 0 219 25 297 75c77 50 125 121 143 212l14 84c33 169 -48 262 -239 262h-271l17 84h260c183 0 307 91 338 250l12 72c36 175 -82 272 -317 272c-262 0 -411 -99 -447 -297l-16 -78h-88l18 97
c21 115 78 204 172 268c93 64 216 96 367 96z" />
    <glyph glyph-name="uni04DF" unicode="&#x4df;" horiz-adv-x="1044" 
d="M444 1370h101l-29 -143h-98zM831 1370h99l-27 -143h-100zM612 1051c120 0 209 -26 268 -78c58 -52 79 -119 62 -201l-4 -27c-21 -101 -77 -171 -170 -210c101 -35 139 -118 113 -248l-4 -25c-38 -190 -183 -285 -435 -285c-257 0 -381 118 -360 338l2 11h86l-2 -15
c-13 -172 73 -256 281 -256c198 0 312 72 342 215l6 25c26 131 -35 197 -183 197h-237l14 75h199c149 0 236 62 262 185l4 24c24 120 -67 197 -252 197c-208 0 -339 -90 -350 -254l-2 -14h-86l4 18c8 107 52 188 131 244s182 84 311 84z" />
    <glyph glyph-name="uni04E0" unicode="&#x4e0;" horiz-adv-x="1232" 
d="M365 1438h858l-17 -86l-653 -494h147c147 0 256 -33 326 -99c69 -67 93 -156 72 -267l-31 -160c-22 -113 -81 -201 -176 -262c-95 -62 -214 -93 -356 -93c-155 0 -272 35 -351 105c-79 69 -107 161 -86 274l21 105h90l-21 -101c-36 -188 91 -297 351 -297
c243 0 406 104 442 289l27 137c39 185 -73 283 -324 283h-276l14 86l661 494h-735z" />
    <glyph glyph-name="uni04E1" unicode="&#x4e1;" horiz-adv-x="1038" 
d="M264 1028h684l-14 -82l-553 -543h115c123 0 214 -33 273 -100s78 -155 56 -266l-30 -160c-23 -116 -74 -207 -153 -273c-79 -65 -176 -98 -292 -98c-129 0 -225 36 -288 107c-63 72 -84 166 -62 281l20 104h89l-19 -100c-19 -93 -5 -167 44 -224c49 -56 123 -84 222 -84
c191 0 317 115 353 304l28 141c36 183 -55 284 -258 284h-219l14 84l553 543h-577z" />
    <glyph glyph-name="uni04E2" unicode="&#x4e2;" horiz-adv-x="1273" 
d="M549 1755h645l-14 -78h-648zM188 170l1008 1268h84l-279 -1438h-86l246 1264l-1005 -1264h-84l278 1438h84z" />
    <glyph glyph-name="uni04E3" unicode="&#x4e3;" horiz-adv-x="1155" 
d="M412 1346h645l-15 -78h-647zM174 150l834 878h86l-199 -1028h-86l172 883l-834 -883h-88l199 1028h86z" />
    <glyph glyph-name="uni04E4" unicode="&#x4e4;" horiz-adv-x="1273" 
d="M637 1780h100l-28 -144h-99zM1024 1780h98l-26 -144h-101zM188 170l1008 1268h84l-279 -1438h-86l246 1264l-1005 -1264h-84l278 1438h84z" />
    <glyph glyph-name="uni04E5" unicode="&#x4e5;" horiz-adv-x="1155" 
d="M500 1370h100l-29 -143h-98zM887 1370h98l-27 -143h-100zM174 150l834 878h86l-199 -1028h-86l172 883l-834 -883h-88l199 1028h86z" />
    <glyph glyph-name="uni04E6" unicode="&#x4e6;" horiz-adv-x="1294" 
d="M692 1636h-98l27 144h100zM1079 1636h-100l29 144h98zM580 -23c-169 0 -296 44 -379 133c-83 88 -112 198 -86 330l110 564c29 142 90 254 183 335s221 121 385 121c169 0 296 -45 379 -135s110 -203 83 -338l-110 -565c-57 -297 -246 -445 -565 -445zM586 63
c143 0 252 33 326 100c73 66 122 160 147 283l104 537c25 120 5 215 -60 286c-65 70 -170 105 -317 105c-143 0 -252 -34 -326 -102c-75 -69 -124 -166 -149 -293l-106 -539c-22 -115 0 -206 66 -274c65 -69 170 -103 315 -103z" />
    <glyph glyph-name="uni04E7" unicode="&#x4e7;" horiz-adv-x="1081" 
d="M535 1227h-99l27 143h100zM922 1227h-101l29 143h98zM475 -23c-135 0 -238 39 -309 116s-95 177 -70 300l51 256c52 260 212 402 463 402c135 0 238 -38 307 -115s91 -177 66 -301l-49 -254c-52 -260 -211 -404 -459 -404zM477 59c205 0 330 115 375 344l45 230
c21 105 5 188 -47 247s-133 89 -242 89c-209 0 -335 -114 -379 -342l-45 -230c-21 -105 -4 -188 49 -248s135 -90 244 -90z" />
    <glyph glyph-name="uni04E8" unicode="&#x4e8;" horiz-adv-x="1294" 
d="M793 1460c169 0 296 -45 379 -135s110 -203 83 -338l-110 -565c-57 -296 -246 -444 -565 -445c-169 0 -296 44 -379 133c-83 88 -112 198 -86 330l110 564c29 142 90 254 183 335s221 121 385 121zM1124 780l39 203c25 120 5 215 -60 286c-65 70 -170 105 -317 105
c-143 0 -252 -34 -326 -102c-75 -69 -124 -166 -149 -293l-39 -199h852zM586 63c143 0 252 33 326 100c73 66 122 160 147 283l49 248h-852l-51 -254c-22 -115 0 -206 66 -274c65 -69 170 -103 315 -103z" />
    <glyph glyph-name="uni04E9" unicode="&#x4e9;" horiz-adv-x="1081" 
d="M610 1051c135 0 238 -38 307 -115s91 -177 66 -301l-49 -254c-52 -260 -210 -404 -459 -404c-135 0 -238 39 -309 116s-95 177 -70 300l51 256c52 260 212 402 463 402zM608 969c-209 0 -335 -114 -379 -342l-12 -62h668l12 68c21 105 5 188 -47 247s-133 89 -242 89z
M477 59c205 0 330 115 375 344l16 82h-667l-17 -88c-21 -105 -4 -188 49 -248s135 -90 244 -90z" />
    <glyph glyph-name="uni04EA" unicode="&#x4ea;" horiz-adv-x="1294" 
d="M651 1780h101l-29 -144h-98zM1038 1780h99l-27 -144h-100zM793 1460c169 0 296 -45 379 -135s110 -203 83 -338l-110 -565c-57 -296 -246 -444 -565 -445c-169 0 -296 44 -379 133c-83 88 -112 198 -86 330l110 564c29 142 90 254 183 335s221 121 385 121zM1124 780
l39 203c25 120 5 215 -60 286c-65 70 -170 105 -317 105c-143 0 -252 -34 -326 -102c-75 -69 -124 -166 -149 -293l-39 -199h852zM586 63c143 0 252 33 326 100c73 66 122 160 147 283l49 248h-852l-51 -254c-22 -115 0 -206 66 -274c65 -69 170 -103 315 -103z" />
    <glyph glyph-name="uni04EB" unicode="&#x4eb;" horiz-adv-x="1081" 
d="M463 1370h100l-28 -143h-99zM850 1370h98l-26 -143h-101zM610 1051c135 0 238 -38 307 -115s91 -177 66 -301l-49 -254c-52 -260 -210 -404 -459 -404c-135 0 -238 39 -309 116s-95 177 -70 300l51 256c52 260 212 402 463 402zM608 969c-209 0 -335 -114 -379 -342
l-12 -62h668l12 68c21 105 5 188 -47 247s-133 89 -242 89zM477 59c205 0 330 115 375 344l16 82h-667l-17 -88c-21 -105 -4 -188 49 -248s135 -90 244 -90z" />
    <glyph glyph-name="uni04EC" unicode="&#x4ec;" horiz-adv-x="1290" 
d="M645 1780h100l-28 -144h-99zM1032 1780h98l-26 -144h-100zM793 1460c168 0 293 -45 375 -134c81 -89 109 -202 83 -339l-110 -565c-57 -296 -245 -444 -563 -445c-168 0 -293 44 -376 132c-83 87 -112 198 -87 331l12 64h90l-12 -64c-21 -115 2 -206 67 -274
c65 -69 169 -103 312 -103s252 33 325 100c73 66 121 160 146 283l49 250h-541l17 86h542l39 201c23 120 3 215 -62 286c-65 70 -170 105 -315 105c-141 0 -247 -34 -319 -101c-73 -68 -124 -166 -154 -294l-12 -55h-90l16 82c65 303 254 454 568 454z" />
    <glyph glyph-name="uni04ED" unicode="&#x4ed;" horiz-adv-x="1062" 
d="M453 1370h100l-29 -143h-98zM840 1370h98l-27 -143h-100zM602 1051c134 0 234 -38 300 -115s88 -177 65 -301l-52 -254c-52 -263 -214 -404 -462 -404c-129 0 -226 35 -293 104s-91 156 -72 261l6 35h88l-6 -29c-17 -87 0 -157 50 -210s126 -79 229 -79
c207 0 334 114 379 342l16 84h-391l14 80h393l13 66c39 213 -62 338 -283 338c-198 0 -317 -96 -356 -289l-4 -29h-89l11 45c21 112 70 199 149 262c78 62 176 93 295 93z" />
    <glyph glyph-name="uni04EE" unicode="&#x4ee;" horiz-adv-x="1136" 
d="M477 1755h645l-14 -78h-647zM586 657l573 781h103l-1051 -1438h-105l414 567l-291 871h90z" />
    <glyph glyph-name="uni04EF" unicode="&#x4ef;" horiz-adv-x="1103" 
d="M385 1346h645l-14 -78h-647zM827 350l131 678h86l-221 -1137c-22 -120 -72 -214 -150 -283c-79 -68 -175 -102 -288 -102c-104 0 -188 25 -251 75s-92 115 -87 196h84c-1 -56 23 -102 72 -137s111 -52 188 -52c90 0 166 30 229 89c62 60 103 142 123 245l43 217
c-85 -108 -195 -162 -331 -162c-115 0 -204 41 -267 122c-64 81 -83 192 -57 331l117 598h86l-115 -594c-22 -116 -8 -207 42 -274s120 -101 210 -101c77 0 148 25 213 76s113 122 143 215z" />
    <glyph glyph-name="uni04F0" unicode="&#x4f0;" horiz-adv-x="1136" 
d="M565 1780h101l-29 -144h-98zM952 1780h99l-27 -144h-100zM586 657l573 781h103l-1051 -1438h-105l414 567l-291 871h90z" />
    <glyph glyph-name="uni04F1" unicode="&#x4f1;" horiz-adv-x="1103" 
d="M473 1370h100l-28 -143h-99zM860 1370h98l-26 -143h-101zM827 350l131 678h86l-221 -1137c-22 -120 -72 -214 -150 -283c-79 -68 -175 -102 -288 -102c-104 0 -188 25 -251 75s-92 115 -87 196h84c-1 -56 23 -102 72 -137s111 -52 188 -52c90 0 166 30 229 89
c62 60 103 142 123 245l43 217c-85 -108 -195 -162 -331 -162c-115 0 -204 41 -267 122c-64 81 -83 192 -57 331l117 598h86l-115 -594c-22 -116 -8 -207 42 -274s120 -101 210 -101c77 0 148 25 213 76s113 122 143 215z" />
    <glyph glyph-name="uni04F2" unicode="&#x4f2;" horiz-adv-x="1136" 
d="M776 1792h94l-221 -221h-90zM1120 1792h94l-221 -221h-90zM586 657l573 781h103l-1051 -1438h-105l414 567l-291 871h90z" />
    <glyph glyph-name="uni04F3" unicode="&#x4f3;" horiz-adv-x="1103" 
d="M662 1417h88l-197 -256h-86zM1004 1417h90l-199 -256h-84zM827 350l131 678h86l-221 -1137c-22 -120 -72 -214 -150 -283c-79 -68 -175 -102 -288 -102c-104 0 -188 25 -251 75s-92 115 -87 196h84c-1 -56 23 -102 72 -137s111 -52 188 -52c90 0 166 30 229 89
c62 60 103 142 123 245l43 217c-85 -108 -195 -162 -331 -162c-115 0 -204 41 -267 122c-64 81 -83 192 -57 331l117 598h86l-115 -594c-22 -116 -8 -207 42 -274s120 -101 210 -101c77 0 148 25 213 76s113 122 143 215z" />
    <glyph glyph-name="uni04F4" unicode="&#x4f4;" horiz-adv-x="1245" 
d="M627 1780h100l-29 -144h-98zM1014 1780h98l-27 -144h-100zM1053 870l110 568h90l-280 -1438h-90l127 653c-91 -103 -216 -154 -375 -153c-154 0 -268 44 -342 131s-98 197 -72 330l92 477h90l-92 -475c-22 -115 -4 -206 54 -274c57 -69 150 -103 278 -103
c107 0 196 27 268 81c71 54 119 122 142 203z" />
    <glyph glyph-name="uni04F5" unicode="&#x4f5;" horiz-adv-x="1095" 
d="M469 1370h100l-28 -143h-99zM856 1370h98l-26 -143h-101zM881 674l67 354h86l-198 -1028h-86l88 457c-87 -112 -201 -168 -342 -168c-245 0 -363 157 -308 444l58 295h86l-56 -285c-47 -240 36 -372 236 -372c83 0 159 28 227 83c67 55 115 129 142 220z" />
    <glyph glyph-name="uni04F6" unicode="&#x4f6;" horiz-adv-x="1093" 
d="M1196 1438l-16 -86h-756l-246 -1266h232l-17 -86l-53 -276h-90l53 276h-231l278 1438h846z" />
    <glyph glyph-name="uni04F7" unicode="&#x4f7;" horiz-adv-x="829" 
d="M893 1028l-16 -82h-549l-166 -866h160l-70 -356h-88l55 276h-160l199 1028h635z" />
    <glyph glyph-name="uni04F8" unicode="&#x4f8;" horiz-adv-x="1656" 
d="M840 1780h100l-29 -144h-98zM1227 1780h98l-27 -144h-100zM330 866h395c317 0 444 -117 395 -370l-22 -125c-49 -253 -224 -371 -539 -371h-487l278 1438h90zM1294 0l281 1438h88l-279 -1438h-90zM1010 395l18 90c21 112 7 189 -41 232c-48 42 -139 63 -274 63h-400
l-135 -694h391c253 0 400 88 441 309z" />
    <glyph glyph-name="uni04F9" unicode="&#x4f9;" horiz-adv-x="1347" 
d="M596 1370h100l-28 -143h-99zM983 1370h98l-26 -143h-101zM266 629h332c112 0 194 -24 246 -71s72 -108 59 -181l-26 -135c-13 -79 -55 -139 -126 -180s-159 -62 -266 -62h-426l199 1028h86zM1001 0l199 1028h86l-199 -1028h-86zM799 270l16 92c21 128 -52 187 -235 187
h-328l-90 -469h332c78 0 146 17 203 50s91 80 102 140z" />
    <glyph glyph-name="uni04FC" unicode="&#x4fc;" horiz-adv-x="1150" 
d="M1274 1438l-576 -693l263 -542c26 -52 39 -104 38 -156c0 -91 -33 -166 -98 -225s-146 -88 -242 -88h-106l16 86h95c67 0 124 22 173 65c48 44 72 98 72 162c0 39 -8 77 -24 113l-252 518l-578 -678h-102l639 762l-328 676h101l292 -609l512 609h105z" />
    <glyph glyph-name="uni04FD" unicode="&#x4fd;" horiz-adv-x="909" 
d="M979 1028l-471 -514l235 -432c19 -35 29 -72 29 -109c0 -65 -23 -122 -69 -169c-47 -47 -104 -70 -171 -70h-186l16 80h162c48 0 87 17 116 50s44 70 44 109c0 30 -6 55 -18 76l-222 400l-413 -449h-101l476 522l-279 506h98l242 -442l410 442h102z" />
    <glyph glyph-name="uni0510" unicode="&#x510;" horiz-adv-x="1230" 
d="M797 1460c142 0 250 -34 323 -102c73 -69 99 -157 80 -266l-16 -97h-90l16 95c33 177 -87 284 -319 284c-258 0 -404 -92 -439 -276l-14 -74c-31 -159 49 -244 229 -244h305l-16 -84h-311c-91 0 -167 -24 -228 -72c-61 -49 -99 -115 -114 -198l-15 -70
c-33 -183 96 -293 353 -293c243 0 406 102 442 293l18 105h91l-23 -121c-23 -116 -83 -205 -178 -268s-213 -95 -354 -95c-157 0 -275 35 -353 106c-79 70 -107 159 -86 267l19 99c30 143 111 241 243 294c-100 59 -137 151 -112 277l18 98c21 104 77 187 169 249
c91 62 212 93 362 93z" />
    <glyph glyph-name="uni0511" unicode="&#x511;" horiz-adv-x="1044" 
d="M590 1051c245 0 359 -116 346 -332l-2 -14h-86l2 20c8 167 -73 248 -264 248s-299 -70 -322 -211l-4 -19c-19 -123 37 -176 184 -176h211l-14 -75h-229c-142 0 -224 -62 -246 -185l-4 -26c-24 -139 79 -226 278 -226c211 0 343 87 355 256l2 15h86l-2 -21
c-7 -107 -51 -188 -133 -244s-187 -84 -314 -84c-129 0 -224 28 -287 84s-86 131 -69 226l4 26c22 121 85 197 190 226c-78 41 -110 112 -96 215l4 20c27 175 175 277 410 277z" />
    <glyph glyph-name="uni0512" unicode="&#x512;" horiz-adv-x="1384" 
d="M664 1438h729l-295 -1508c-23 -123 -80 -220 -170 -293c-90 -72 -200 -108 -330 -108h-98l16 86h78c109 0 201 30 276 90c74 60 122 143 144 248l272 1399h-559l-283 -957c-77 -263 -218 -395 -424 -395h-45l17 86h24c172 0 276 111 344 338z" />
    <glyph glyph-name="uni0513" unicode="&#x513;" horiz-adv-x="1120" 
d="M428 1028h635l-225 -1147c-44 -232 -182 -352 -381 -352h-60l17 82h39c164 0 266 102 307 307l201 1028h-472l-186 -637c-33 -111 -74 -190 -125 -237c-51 -48 -118 -72 -203 -72h-38l14 80h20c65 0 117 19 154 58c37 38 69 105 98 202z" />
    <glyph glyph-name="uni051C" unicode="&#x51c;" horiz-adv-x="1736" 
d="M1184 127l585 1311h95l-647 -1438h-103l-96 1255l-594 -1255h-105l-90 1438h88l80 -1315l609 1315h79z" />
    <glyph glyph-name="uni051D" unicode="&#x51d;" horiz-adv-x="1325" 
d="M893 109l418 919h88l-473 -1028h-90l-103 866l-440 -866h-90l-76 1028h88l59 -924l449 924h80z" />
    <glyph glyph-name="uni0524" unicode="&#x524;" horiz-adv-x="1447" 
d="M1319 1438l-264 -1352h233l-16 -86l-53 -276h-91l54 276h-234l264 1352h-788l-262 -1352h-90l278 1438h969z" />
    <glyph glyph-name="uni0525" unicode="&#x525;" horiz-adv-x="1183" 
d="M903 80h160l-68 -356h-86l54 276h-162l182 946h-655l-183 -946h-86l199 1028h829z" />
    <glyph glyph-name="uni0526" unicode="&#x526;" horiz-adv-x="1329" 
d="M1012 80h196l-69 -356h-86l53 276h-201l96 485c22 113 4 205 -54 274s-151 103 -279 103c-113 0 -206 -30 -279 -90s-118 -134 -135 -223l-107 -549h-90l279 1438h90l-125 -643c91 103 218 154 379 153c153 0 266 -44 340 -132c73 -88 97 -198 72 -331z" />
    <glyph glyph-name="uni0527" unicode="&#x527;" horiz-adv-x="1183" 
d="M903 80h158l-68 -356h-86l54 276h-160l114 594c23 117 9 209 -44 276c-53 66 -128 99 -224 99c-83 0 -160 -27 -229 -82c-70 -55 -119 -132 -146 -232l-127 -655h-86l306 1577h86l-136 -694c89 112 205 168 349 168c120 0 213 -41 280 -123s87 -193 60 -332z" />
    <glyph glyph-name="Wgrave" unicode="&#x1e80;" horiz-adv-x="1736" 
d="M928 1837l184 -266h-92l-201 266h109zM1184 127l585 1311h95l-647 -1438h-103l-96 1255l-594 -1255h-105l-90 1438h88l80 -1315l609 1315h79z" />
    <glyph glyph-name="wgrave" unicode="&#x1e81;" horiz-adv-x="1325" 
d="M686 1477l141 -316h-84l-153 316h96zM893 109l418 919h88l-473 -1028h-90l-103 866l-440 -866h-90l-76 1028h88l59 -924l449 924h80z" />
    <glyph glyph-name="Wacute" unicode="&#x1e82;" horiz-adv-x="1736" 
d="M1303 1837h118l-303 -266h-104zM1184 127l585 1311h95l-647 -1438h-103l-96 1255l-594 -1255h-105l-90 1438h88l80 -1315l609 1315h79z" />
    <glyph glyph-name="wacute" unicode="&#x1e83;" horiz-adv-x="1325" 
d="M1008 1477h102l-274 -316h-93zM893 109l418 919h88l-473 -1028h-90l-103 866l-440 -866h-90l-76 1028h88l59 -924l449 924h80z" />
    <glyph glyph-name="Wdieresis" unicode="&#x1e84;" horiz-adv-x="1736" 
d="M862 1780h101l-29 -144h-98zM1249 1780h99l-27 -144h-100zM1184 127l585 1311h95l-647 -1438h-103l-96 1255l-594 -1255h-105l-90 1438h88l80 -1315l609 1315h79z" />
    <glyph glyph-name="wdieresis" unicode="&#x1e85;" horiz-adv-x="1325" 
d="M584 1370h100l-29 -143h-98zM971 1370h98l-27 -143h-100zM893 109l418 919h88l-473 -1028h-90l-103 866l-440 -866h-90l-76 1028h88l59 -924l449 924h80z" />
    <glyph glyph-name="Ygrave" unicode="&#x1ef2;" horiz-adv-x="1112" 
d="M616 1837l185 -266h-92l-201 266h108zM1137 1438h102l-631 -865l-112 -573h-88l110 580l-289 858h93l258 -758z" />
    <glyph glyph-name="ygrave" unicode="&#x1ef3;" horiz-adv-x="1103" 
d="M575 1477l142 -316h-84l-154 316h96zM827 350l131 678h86l-221 -1137c-22 -120 -72 -214 -150 -283c-79 -68 -175 -102 -288 -102c-104 0 -188 25 -251 75s-92 115 -87 196h84c-1 -56 23 -102 72 -137s111 -52 188 -52c90 0 166 30 229 89c62 60 103 142 123 245l43 217
c-85 -108 -195 -162 -331 -162c-115 0 -204 41 -267 122c-64 81 -83 192 -57 331l117 598h86l-115 -594c-22 -116 -8 -207 42 -274s120 -101 210 -101c77 0 148 25 213 76s113 122 143 215z" />
    <glyph glyph-name="uni2009" unicode="&#x2009;" horiz-adv-x="169" 
 />
    <glyph glyph-name="endash" unicode="&#x2013;" horiz-adv-x="905" 
d="M793 528h-674l16 78h674z" />
    <glyph glyph-name="emdash" unicode="&#x2014;" horiz-adv-x="1288" 
d="M1176 528h-1057l16 78h1055z" />
    <glyph glyph-name="quoteleft" unicode="&#x2018;" horiz-adv-x="352" 
d="M332 1159h-103l29 158l139 260h45l-110 -260h30z" />
    <glyph glyph-name="quoteright" unicode="&#x2019;" horiz-adv-x="350" 
d="M350 1577h103l-27 -158l-141 -260h-43l110 260h-30z" />
    <glyph glyph-name="quotesinglbase" unicode="&#x201a;" horiz-adv-x="380" 
d="M90 158h103l-27 -158l-141 -260h-43l110 260h-31z" />
    <glyph glyph-name="quotedblleft" unicode="&#x201c;" horiz-adv-x="610" 
d="M332 1159h-103l29 158l139 260h45l-110 -260h30zM592 1159h-103l29 158l139 260h45l-112 -260h33z" />
    <glyph glyph-name="quotedblright" unicode="&#x201d;" horiz-adv-x="612" 
d="M350 1577h103l-27 -158l-141 -260h-43l110 260h-30zM612 1577h103l-27 -158l-141 -260h-43l110 260h-30z" />
    <glyph glyph-name="quotedblbase" unicode="&#x201e;" horiz-adv-x="667" 
d="M360 162h103l-27 -158l-141 -260h-43l110 260h-30zM96 158h103l-27 -158l-141 -260h-43l110 260h-30z" />
    <glyph glyph-name="dagger" unicode="&#x2020;" horiz-adv-x="841" 
d="M580 1098h254l-15 -82h-256l-262 -1342h-86l260 1342h-256l14 82h259l65 340h88z" />
    <glyph glyph-name="daggerdbl" unicode="&#x2021;" horiz-adv-x="841" 
d="M834 1098l-15 -82h-256l-74 -375h256l-14 -82h-258l-172 -885h-86l172 885h-256l14 82h258l72 375h-256l14 82h259l65 340h88l-65 -340h254z" />
    <glyph glyph-name="bullet" unicode="&#x2022;" horiz-adv-x="567" 
d="M334 817c109 0 168 -75 145 -190c-21 -112 -100 -181 -200 -181c-109 0 -167 78 -146 193c21 109 100 178 201 178z" />
    <glyph glyph-name="ellipsis" unicode="&#x2026;" horiz-adv-x="1136" 
d="M143 0h-106l31 158h104zM524 0h-106l31 158h104zM899 0h-106l30 158h105z" />
    <glyph glyph-name="perthousand" unicode="&#x2030;" horiz-adv-x="1910" 
d="M377 748c-82 0 -143 23 -184 68s-55 100 -41 167l49 250c27 139 122 225 278 225c81 0 142 -23 183 -69c41 -47 54 -104 40 -172l-51 -248c-27 -147 -119 -221 -274 -221zM195 0h-82l1048 1438h80zM381 809c112 0 180 58 205 174l47 236c21 109 -35 178 -160 178
c-120 0 -179 -63 -207 -180l-47 -238c-21 -104 39 -170 162 -170zM889 -12c-81 0 -142 23 -183 68c-42 45 -57 100 -44 167l51 250c30 150 123 225 278 225c81 0 142 -23 183 -68c41 -46 54 -103 40 -171l-51 -250c-27 -147 -119 -221 -274 -221zM1509 -12
c-81 0 -142 23 -183 68s-56 100 -44 167l51 250c30 150 122 225 277 225c82 0 143 -23 184 -68c41 -46 54 -103 41 -171l-51 -250c-31 -147 -122 -221 -275 -221zM893 49c112 0 180 59 205 176l47 234c21 109 -37 178 -160 178c-120 0 -179 -63 -207 -180l-47 -238
c-21 -101 39 -170 162 -170zM1513 49c112 0 180 59 205 176l47 234c21 109 -36 178 -159 178c-120 0 -180 -63 -207 -180l-47 -238c-21 -101 38 -170 161 -170z" />
    <glyph glyph-name="guilsinglleft" unicode="&#x2039;" horiz-adv-x="739" 
d="M152 582l530 379l-16 -105l-461 -328l330 -323l-17 -103l-381 377z" />
    <glyph glyph-name="guilsinglright" unicode="&#x203a;" horiz-adv-x="739" 
d="M211 856l18 105l381 -379l-16 -103l-531 -377l19 103l459 327z" />
    <glyph glyph-name="fraction" unicode="&#x2044;" horiz-adv-x="165" 
d="M-240 0h-84l809 1440h84z" />
    <glyph glyph-name="Euro" unicode="&#x20ac;" horiz-adv-x="1384" 
d="M885 1460c169 0 295 -42 377 -127c81 -85 110 -194 86 -327l-13 -66h-90l12 61c44 237 -86 373 -378 373c-142 0 -250 -34 -325 -102c-75 -69 -124 -166 -148 -293l-15 -70h563l-16 -82h-563l-41 -206h563l-14 -80h-564l-20 -101c-22 -115 0 -206 66 -274
c65 -69 170 -103 315 -103c142 0 250 32 323 97c73 64 121 157 146 280l12 62h90l-16 -88c-60 -291 -248 -436 -563 -437c-169 0 -295 44 -378 132c-83 87 -111 198 -85 331l20 101h-215l17 80h213l41 206h-213l14 82h215l18 97c29 142 90 253 183 334
c93 80 220 120 383 120z" />
    <glyph glyph-name="uni20BD" unicode="&#x20bd;" horiz-adv-x="1304" 
d="M428 1438h526c279 0 399 -127 359 -351l-25 -122c-42 -225 -203 -338 -483 -338h-447l-41 -217h490l-16 -84h-490l-63 -326h-91l64 326h-195l17 84h194l43 217h-196l16 86h197zM1204 987l17 90c39 191 -45 275 -277 275h-444l-125 -639h440c232 0 352 89 389 274z" />
    <glyph glyph-name="uni2116" unicode="&#x2116;" horiz-adv-x="2340" 
d="M1927 1462c135 0 238 -38 307 -114c69 -77 91 -177 66 -301l-49 -254c-52 -260 -211 -404 -459 -404c-135 0 -238 39 -309 116s-95 177 -70 300l51 256c52 260 212 401 463 401zM436 1438l506 -1282l248 1282h86l-281 -1438h-84l-505 1278l-250 -1278h-84l278 1438h86z
M2169 815l45 229c21 105 5 188 -47 247s-133 89 -242 89c-209 0 -335 -114 -379 -342l-45 -229c-21 -105 -4 -188 49 -248s135 -90 244 -90c205 0 330 115 375 344zM2034 0h-691l15 76h690z" />
    <glyph glyph-name="trademark" unicode="&#x2122;" horiz-adv-x="1452" 
d="M199 1438h499v-62h-217v-588h-65v588h-217v62zM1270 1438h78v-650h-60v551l-194 -551h-52l-192 549v-549h-59v650h77l201 -537z" />
    <glyph glyph-name="Omega" unicode="&#x2126;" horiz-adv-x="1286" 
d="M977 86h190v-86h-467v86c235 5 352 130 353 373v526c0 263 -124 389 -424 389c-151 0 -259 -32 -325 -96s-99 -162 -99 -293v-526c0 -243 117 -368 352 -373v-86h-465v86h189c-109 71 -164 189 -164 356v557c0 295 165 461 512 461s514 -165 514 -461v-557
c0 -165 -55 -283 -166 -356z" />
    <glyph glyph-name="uni2150" unicode="&#x2150;" horiz-adv-x="1429" 
d="M307 0l809 1440h84l-809 -1440h-84zM551 717h-379l12 71h154l113 578h-146l12 72h222l-125 -650h151zM920 649l12 72h450l-14 -72l-442 -649h-84l440 649h-362z" />
    <glyph glyph-name="uni2151" unicode="&#x2151;" horiz-adv-x="1429" 
d="M307 0l809 1440h84l-809 -1440h-84zM551 717h-379l12 71h154l113 578h-146l12 72h222l-125 -650h151zM1133 733c82 0 141 -22 178 -65c37 -44 49 -100 37 -168l-56 -291c-30 -147 -115 -221 -256 -221c-71 0 -126 18 -166 55c-41 37 -58 82 -51 135h74
c-5 -73 56 -123 145 -123c98 0 158 54 181 162l18 96c-39 -31 -92 -47 -158 -47c-77 0 -134 19 -171 58c-37 38 -51 84 -42 139l15 82c19 117 107 188 252 188zM1264 453l10 47c19 101 -35 168 -144 168c-104 0 -163 -44 -176 -133l-12 -68c-11 -73 35 -133 150 -133
c94 0 151 40 172 119z" />
    <glyph glyph-name="onethird" unicode="&#x2153;" horiz-adv-x="1429" 
d="M307 0l809 1440h84l-809 -1440h-84zM551 717h-379l12 71h154l113 578h-146l12 72h222l-125 -650h151zM1145 733c69 0 122 -18 159 -53c36 -35 48 -82 37 -139l-8 -43c-12 -56 -43 -100 -94 -131c44 -33 60 -80 47 -142l-10 -53c-21 -117 -120 -184 -256 -184
c-71 0 -125 18 -162 55c-38 37 -52 84 -41 143l8 45h76l-8 -47c-19 -79 35 -125 131 -125c101 0 161 40 178 119l8 47c15 73 -19 109 -102 109h-135l14 69h127c85 0 133 35 146 105l6 39c13 73 -34 115 -129 115c-103 0 -161 -41 -174 -123l-9 -39h-75l10 47
c9 59 38 104 85 137s104 49 171 49z" />
    <glyph glyph-name="twothirds" unicode="&#x2154;" horiz-adv-x="1429" 
d="M205 788h397l-14 -71h-477l8 51c19 101 97 175 185 218c43 21 87 42 131 62c87 39 162 96 175 173l6 28c13 71 -36 129 -137 129c-103 0 -166 -53 -190 -159l-4 -21h-76l6 31c24 139 128 221 272 221c74 0 129 -20 165 -60c35 -41 48 -88 38 -143l-8 -43
c-16 -91 -92 -156 -176 -195c-43 -20 -85 -39 -128 -57c-86 -37 -160 -92 -173 -164zM307 0l809 1440h84l-809 -1440h-84zM1145 733c69 0 122 -18 159 -53c36 -35 48 -82 37 -139l-8 -43c-12 -56 -43 -100 -94 -131c44 -33 60 -80 47 -142l-10 -53
c-21 -117 -120 -184 -256 -184c-71 0 -125 18 -162 55c-38 37 -52 84 -41 143l8 45h76l-8 -47c-19 -79 35 -125 131 -125c101 0 161 40 178 119l8 47c15 73 -19 109 -102 109h-135l14 69h127c85 0 133 35 146 105l6 39c13 73 -34 115 -129 115c-103 0 -161 -41 -174 -123
l-9 -39h-75l10 47c9 59 38 104 85 137s104 49 171 49z" />
    <glyph glyph-name="uni2155" unicode="&#x2155;" horiz-adv-x="1431" 
d="M307 0l809 1440h84l-809 -1440h-84zM551 717h-379l12 71h154l113 578h-146l12 72h222l-125 -650h151zM1358 721l-15 -72h-331l-41 -207h137c131 0 203 -74 180 -186l-14 -74c-11 -60 -40 -107 -87 -142s-104 -52 -171 -52c-68 0 -120 19 -156 56c-37 37 -49 86 -37 146
l13 66h75l-14 -70c-17 -86 25 -129 125 -129c101 0 161 44 178 131l14 76c13 73 -26 109 -118 109h-213l65 348h410z" />
    <glyph glyph-name="uni2156" unicode="&#x2156;" horiz-adv-x="1431" 
d="M205 788h397l-14 -71h-477l8 51c19 101 97 175 185 218c43 21 87 42 131 62c87 39 162 96 175 173l6 28c13 71 -36 129 -137 129c-103 0 -166 -53 -190 -159l-4 -21h-76l6 31c24 139 128 221 272 221c74 0 129 -20 165 -60c35 -41 48 -88 38 -143l-8 -43
c-16 -91 -92 -156 -176 -195c-43 -20 -85 -39 -128 -57c-86 -37 -160 -92 -173 -164zM307 0l809 1440h84l-809 -1440h-84zM1358 721l-15 -72h-331l-41 -207h137c131 0 203 -74 180 -186l-14 -74c-11 -60 -40 -107 -87 -142s-104 -52 -171 -52c-68 0 -120 19 -156 56
c-37 37 -49 86 -37 146l13 66h75l-14 -70c-17 -86 25 -129 125 -129c101 0 161 44 178 131l14 76c13 73 -26 109 -118 109h-213l65 348h410z" />
    <glyph glyph-name="uni2157" unicode="&#x2157;" horiz-adv-x="1431" 
d="M629 942l-11 -53c-21 -117 -119 -184 -256 -184c-71 0 -125 18 -162 55c-38 37 -51 84 -40 143l8 45h76l-8 -47c-19 -79 35 -125 131 -125c101 0 161 40 178 119l8 47c15 73 -19 109 -102 109h-136l15 69h127c85 0 133 35 145 105l6 39c13 73 -33 114 -129 114
c-101 0 -159 -41 -174 -123l-8 -38h-76l10 47c9 59 38 104 85 137s104 49 171 49c69 0 122 -18 159 -53c36 -36 49 -83 38 -140l-8 -43c-12 -56 -43 -100 -94 -131c44 -33 60 -80 47 -141zM307 0l809 1440h84l-809 -1440h-84zM1358 721l-15 -72h-331l-41 -207h137
c131 0 203 -74 180 -186l-14 -74c-11 -60 -40 -107 -87 -142s-104 -52 -171 -52c-68 0 -120 19 -156 56c-37 37 -49 86 -37 146l13 66h75l-14 -70c-17 -86 25 -129 125 -129c101 0 161 44 178 131l14 76c13 73 -26 109 -118 109h-213l65 348h410z" />
    <glyph glyph-name="uni2158" unicode="&#x2158;" horiz-adv-x="1431" 
d="M307 0l809 1440h84l-809 -1440h-84zM545 717h-74l33 166h-369l12 71l328 484h84l-328 -484h285l41 209h74zM1358 721l-15 -72h-331l-41 -207h137c131 0 203 -74 180 -186l-14 -74c-11 -60 -40 -107 -87 -142s-104 -52 -171 -52c-68 0 -120 19 -156 56
c-37 37 -49 86 -37 146l13 66h75l-14 -70c-17 -86 25 -129 125 -129c101 0 161 44 178 131l14 76c13 73 -26 109 -118 109h-213l65 348h410z" />
    <glyph glyph-name="uni2159" unicode="&#x2159;" horiz-adv-x="1429" 
d="M307 0l809 1440h84l-809 -1440h-84zM551 717h-379l12 71h154l113 578h-146l12 72h222l-125 -650h151zM1348 545h-74c5 71 -55 121 -148 121c-97 0 -156 -54 -178 -162l-18 -98c42 31 94 47 157 47c75 0 132 -19 170 -56c37 -38 52 -84 43 -139l-14 -80
c-22 -127 -106 -190 -252 -190c-81 0 -140 22 -177 66c-37 43 -50 99 -38 167l55 291c27 147 113 221 256 221c71 0 126 -18 167 -54s58 -81 51 -134zM1075 387c-89 0 -145 -36 -170 -108l-10 -60c-21 -101 29 -164 141 -164c101 0 160 44 176 131l13 68
c13 73 -33 133 -150 133z" />
    <glyph glyph-name="uni215A" unicode="&#x215a;" horiz-adv-x="1429" 
d="M307 0l809 1440h84l-809 -1440h-84zM631 973l-15 -74c-11 -60 -39 -107 -86 -142s-105 -52 -172 -52c-68 0 -120 19 -156 56c-37 37 -49 86 -36 146l12 66h76l-14 -70c-17 -86 25 -129 125 -129c101 0 161 44 178 131l14 76c13 73 -26 109 -119 109h-213l66 348h409
l-14 -72h-332l-41 -207h138c131 0 201 -74 180 -186zM1348 545h-74c5 71 -55 121 -148 121c-97 0 -156 -54 -178 -162l-18 -98c42 31 94 47 157 47c75 0 132 -19 170 -56c37 -38 52 -84 43 -139l-14 -80c-22 -127 -106 -190 -252 -190c-81 0 -140 22 -177 66
c-37 43 -50 99 -38 167l55 291c27 147 113 221 256 221c71 0 126 -18 167 -54s58 -81 51 -134zM1075 387c-89 0 -145 -36 -170 -108l-10 -60c-21 -101 29 -164 141 -164c101 0 160 44 176 131l13 68c13 73 -33 133 -150 133z" />
    <glyph glyph-name="oneeighth" unicode="&#x215b;" horiz-adv-x="1429" 
d="M307 0l809 1440h84l-809 -1440h-84zM551 717h-379l12 71h154l113 578h-146l12 72h222l-125 -650h151zM1141 733c74 0 130 -18 169 -55s53 -82 44 -135l-11 -58c-11 -53 -45 -93 -102 -120c52 -30 72 -77 59 -140l-12 -59c-21 -112 -121 -178 -258 -178
c-74 0 -132 19 -173 58s-57 85 -46 138l10 56c12 65 48 110 107 135c-51 30 -71 73 -60 129l13 55c21 109 115 174 260 174zM1268 496l10 45c13 73 -38 127 -141 127c-108 0 -170 -39 -185 -117l-8 -45c-11 -65 34 -107 154 -107c103 0 159 32 170 97zM1217 176l8 51
c13 76 -38 113 -150 113c-107 0 -167 -36 -180 -107l-8 -51c-13 -73 42 -127 149 -127c105 0 166 40 181 121z" />
    <glyph glyph-name="threeeighths" unicode="&#x215c;" horiz-adv-x="1429" 
d="M629 942l-11 -53c-21 -117 -119 -184 -256 -184c-71 0 -125 18 -162 55c-38 37 -51 84 -40 143l8 45h76l-8 -47c-19 -79 35 -125 131 -125c101 0 161 40 178 119l8 47c15 73 -19 109 -102 109h-136l15 69h127c85 0 133 35 145 105l6 39c13 73 -33 114 -129 114
c-101 0 -159 -41 -174 -123l-8 -38h-76l10 47c9 59 38 104 85 137s104 49 171 49c69 0 122 -18 159 -53c36 -36 49 -83 38 -140l-8 -43c-12 -56 -43 -100 -94 -131c44 -33 60 -80 47 -141zM307 0l809 1440h84l-809 -1440h-84zM1141 733c74 0 130 -18 169 -55s53 -82 44 -135
l-11 -58c-11 -53 -45 -93 -102 -120c52 -30 72 -77 59 -140l-12 -59c-21 -112 -121 -178 -258 -178c-74 0 -132 19 -173 58s-57 85 -46 138l10 56c12 65 48 110 107 135c-51 30 -71 73 -60 129l13 55c21 109 115 174 260 174zM1268 496l10 45c13 73 -38 127 -141 127
c-108 0 -170 -39 -185 -117l-8 -45c-11 -65 34 -107 154 -107c103 0 159 32 170 97zM1217 176l8 51c13 76 -38 113 -150 113c-107 0 -167 -36 -180 -107l-8 -51c-13 -73 42 -127 149 -127c105 0 166 40 181 121z" />
    <glyph glyph-name="fiveeighths" unicode="&#x215d;" horiz-adv-x="1429" 
d="M307 0l809 1440h84l-809 -1440h-84zM631 973l-15 -74c-11 -60 -39 -107 -86 -142s-105 -52 -172 -52c-68 0 -120 19 -156 56c-37 37 -49 86 -36 146l12 66h76l-14 -70c-17 -86 25 -129 125 -129c101 0 161 44 178 131l14 76c13 73 -26 109 -119 109h-213l66 348h409
l-14 -72h-332l-41 -207h138c131 0 201 -74 180 -186zM1141 733c74 0 130 -18 169 -55s53 -82 44 -135l-11 -58c-11 -53 -45 -93 -102 -120c52 -30 72 -77 59 -140l-12 -59c-21 -112 -121 -178 -258 -178c-74 0 -132 19 -173 58s-57 85 -46 138l10 56c12 65 48 110 107 135
c-51 30 -71 73 -60 129l13 55c21 109 115 174 260 174zM1268 496l10 45c13 73 -38 127 -141 127c-108 0 -170 -39 -185 -117l-8 -45c-11 -65 34 -107 154 -107c103 0 159 32 170 97zM1217 176l8 51c13 76 -38 113 -150 113c-107 0 -167 -36 -180 -107l-8 -51
c-13 -73 42 -127 149 -127c105 0 166 40 181 121z" />
    <glyph glyph-name="seveneighths" unicode="&#x215e;" horiz-adv-x="1431" 
d="M309 0l809 1440h84l-809 -1440h-84zM274 1438h451l-14 -72l-443 -649h-84l441 649h-363zM1143 733c74 0 130 -18 169 -55s53 -82 44 -135l-10 -58c-11 -53 -45 -93 -103 -120c52 -30 72 -77 60 -140l-13 -59c-21 -112 -121 -178 -258 -178c-74 0 -132 19 -173 58
s-57 85 -46 138l10 56c12 65 48 110 107 135c-51 30 -71 73 -60 129l13 55c21 109 115 174 260 174zM1270 496l10 45c13 73 -37 127 -141 127c-108 0 -170 -39 -185 -117l-8 -45c-11 -65 34 -107 154 -107c103 0 159 32 170 97zM1219 176l8 51c13 76 -38 113 -150 113
c-107 0 -167 -36 -180 -107l-8 -51c-13 -73 42 -127 149 -127c105 0 166 40 181 121z" />
    <glyph glyph-name="arrowleft" unicode="&#x2190;" horiz-adv-x="1466" 
d="M319 760h1084v-94h-1086l543 -473h-131l-596 518v4l596 518h131z" />
    <glyph glyph-name="arrowup" unicode="&#x2191;" horiz-adv-x="1251" 
d="M682 1452l516 -596v-137l-475 549v-1268h-88v1266l-475 -547v137l516 596h6z" />
    <glyph glyph-name="arrowright" unicode="&#x2192;" horiz-adv-x="1466" 
d="M684 1233h131l596 -518v-4l-596 -518h-131l543 473h-1086v94h1084z" />
    <glyph glyph-name="arrowdown" unicode="&#x2193;" horiz-adv-x="1253" 
d="M698 1452v-1268l476 549v-137l-517 -596h-6l-516 596v137l475 -547v1266h88z" />
    <glyph glyph-name="arrowboth" unicode="&#x2194;" horiz-adv-x="2050" 
d="M1268 1233h129l598 -518v-4l-598 -518h-129l542 473h-1493l543 -473h-131l-596 518v4l596 518h131l-541 -473h1489z" />
    <glyph glyph-name="arrowupdn" unicode="&#x2195;" horiz-adv-x="1355" 
d="M1243 1071v-129l-473 543v-1493l473 543v-132l-518 -596h-4l-518 596v132l473 -541v1489l-473 -541v129l518 598h4z" />
    <glyph glyph-name="uni2196" unicode="&#x2196;" horiz-adv-x="1439" 
d="M408 1180l895 -895l-64 -64l-893 893l49 -721l-96 99l-57 786l4 4l786 -57l96 -97z" />
    <glyph glyph-name="uni2197" unicode="&#x2197;" horiz-adv-x="1169" 
d="M315 1145l787 57l4 -4l-57 -786l-97 -97l52 721l-895 -895l-64 64l893 893l-721 -49z" />
    <glyph glyph-name="uni2198" unicode="&#x2198;" horiz-adv-x="1439" 
d="M1143 1133l96 -97l57 -786l-4 -4l-786 57l-98 96l720 -49l-892 893l63 64l895 -895z" />
    <glyph glyph-name="uni2199" unicode="&#x2199;" horiz-adv-x="1169" 
d="M1128 1231l64 -64l-895 -895l721 52l-96 -97l-787 -57l-4 4l57 787l97 98l-49 -721z" />
    <glyph glyph-name="increment" unicode="&#x2206;" horiz-adv-x="1275" 
d="M500 1438h112l525 -1350v-88h-1162v88zM1047 86l-492 1245l-489 -1245h981z" />
    <glyph glyph-name="product" unicode="&#x220f;" horiz-adv-x="1484" 
d="M238 1438h1237v-86h-193v-1577h-90v1577h-670v-1577h-90v1577h-194v86z" />
    <glyph glyph-name="summation" unicode="&#x2211;" horiz-adv-x="1376" 
d="M238 1438h938v-86h-838l506 -713v-66l-506 -712h838v-86h-938v86l530 745l-530 746v86z" />
    <glyph glyph-name="minus" unicode="&#x2212;" horiz-adv-x="1013" 
d="M942 705h-778v86h778v-86z" />
    <glyph glyph-name="uni2215" unicode="&#x2215;" horiz-adv-x="485" 
d="M-63 0h-95l785 1438h92z" />
    <glyph glyph-name="infinity" unicode="&#x221e;" horiz-adv-x="1320" 
d="M1008 1032c164 0 262 -105 262 -289v-98c0 -183 -101 -289 -258 -289c-77 0 -136 22 -178 67c-43 44 -89 117 -140 220c-53 -105 -100 -179 -140 -222s-98 -65 -173 -65c-159 0 -258 106 -258 289v98c0 183 99 289 260 289c141 0 230 -82 309 -229
c79 145 171 229 316 229zM387 438c63 0 107 18 148 71c20 27 36 52 49 75c12 23 30 59 53 108l16 35c-38 75 -76 132 -113 169c-38 37 -87 56 -147 56c-120 0 -188 -76 -188 -211v-90c0 -136 70 -213 182 -213zM1186 649v90c0 133 -71 213 -191 213c-60 0 -108 -19 -145 -56
s-76 -95 -117 -173l17 -31c21 -41 36 -70 45 -87c9 -18 23 -40 40 -67s32 -45 46 -56c27 -22 72 -44 120 -44c115 0 185 78 185 211z" />
    <glyph glyph-name="integral" unicode="&#x222b;" horiz-adv-x="313" 
d="M506 1577h90v-82h-78c-86 0 -148 -21 -185 -62c-38 -42 -60 -113 -67 -212l-94 -1254c-9 -117 -39 -202 -89 -254s-130 -78 -239 -78h-90v84h78c86 0 148 20 187 61c38 41 60 112 67 212l92 1253c9 119 39 204 89 255s130 77 239 77z" />
    <glyph glyph-name="approxequal" unicode="&#x2248;" horiz-adv-x="1075" 
d="M377 1096c36 0 60 -4 97 -23c19 -9 31 -16 38 -19s23 -14 48 -32s40 -28 44 -31c81 -55 144 -82 191 -82c88 0 131 65 131 166h82c0 -151 -70 -252 -203 -252c-57 0 -120 26 -154 47c-17 10 -43 27 -76 50c-82 60 -145 90 -190 90c-93 0 -143 -74 -143 -183h-80
c0 161 74 269 215 269zM377 686c24 0 47 -2 72 -11c24 -9 31 -12 60 -29c14 -9 24 -14 29 -17s16 -10 34 -23c17 -13 28 -21 32 -24c81 -55 144 -82 191 -82c88 0 131 65 131 166h82c0 -74 -17 -134 -51 -180c-35 -47 -85 -70 -152 -70c-57 0 -120 23 -155 45
c-18 11 -43 27 -75 49c-83 61 -147 92 -190 92c-93 0 -143 -75 -143 -184h-80c0 161 74 268 215 268z" />
    <glyph glyph-name="notequal" unicode="&#x2260;" horiz-adv-x="1099" 
d="M983 1004v-86h-285l-123 -340h408v-86h-438l-137 -379h-84l137 379h-256v86h287l122 340h-409v86h440l137 382h84l-137 -382h254z" />
    <glyph glyph-name="lessequal" unicode="&#x2264;" horiz-adv-x="1038" 
d="M299 760l500 -342l-51 -64l-590 406l590 405l51 -63zM49 0v86h778v-86h-778z" />
    <glyph glyph-name="greaterequal" unicode="&#x2265;" horiz-adv-x="1185" 
d="M866 760l-590 -406l-51 64l500 342l-500 342l51 63zM197 0v86h778v-86h-778z" />
    <glyph glyph-name="Iacute_J.locl" horiz-adv-x="1148" 
d="M657 1837h119l-303 -266h-104zM1272 1837h119l-304 -266h-104zM162 0h-90l278 1438h90zM453 0h-84l16 86h76c105 0 194 30 267 89c72 59 119 142 140 249l197 1014h90l-201 -1037c-25 -124 -82 -222 -172 -293c-90 -72 -200 -108 -329 -108z" />
    <glyph glyph-name="glyph625" horiz-adv-x="1103" 
d="M1118 1604l49 -54l-163 -131c68 -104 81 -262 40 -475l-110 -563c-52 -260 -212 -404 -463 -404c-134 0 -236 39 -306 117c-71 78 -94 178 -69 299l51 256c52 260 214 402 459 402c167 0 292 -70 336 -185l16 80c41 209 26 356 -43 443c-69 86 -205 129 -407 129l18 81
c201 0 344 -41 430 -122zM852 403l51 267c18 89 -1 161 -57 216s-136 83 -240 83c-207 0 -333 -114 -377 -342l-45 -230c-21 -105 -4 -188 49 -248s135 -90 244 -90c205 0 330 115 375 344z" />
    <glyph glyph-name="iacute_j.locl" horiz-adv-x="903" 
d="M553 1477h102l-274 -316h-92zM1032 1477h103l-275 -316h-92zM150 0h-87l201 1028h86zM227 -471h-61l14 82h39c164 0 266 102 307 307l217 1110h86l-223 -1147c-47 -235 -173 -352 -379 -352z" />
    <glyph glyph-name="uni0414.aalt" horiz-adv-x="1552" 
d="M1012 1438l194 -1352h187l-70 -362h-90l53 276h-1220l-54 -276h-90l70 362h190l717 1352h113zM938 1337l-666 -1251h848z" />
    <glyph glyph-name="uni041B.aalt" horiz-adv-x="1202" 
d="M825 1438l205 -1438h-84l-196 1333l-711 -1333h-88l760 1438h114z" />
    </font>
</defs>
</svg>
